<?xml version="1.0" encoding="utf-8"?>
<!-- Generator: Adobe Illustrator 26.0.1, SVG Export Plug-In . SVG Version: 6.00 Build 0)  -->
<svg version="1.1" id="Layer_1" xmlns="http://www.w3.org/2000/svg" xmlns:xlink="http://www.w3.org/1999/xlink" x="0px" y="0px"
	 viewBox="0 0 680 680" style="enable-background:new 0 0 680 680;" xml:space="preserve">
<g>
	<path d="M443.48,459.84c0,29.34,0,58.21,0,87.08c0.28-0.2,0.56-0.41,0.83-0.61c0.69,0.97,1.98,1.95,1.96,2.91
		c-0.07,4.82-0.59,9.64-0.75,14.47c-0.14,4.15-0.03,8.31-0.03,12.46c0.51,0.15,1.01,0.29,1.52,0.44c0.68-1.88,1.93-3.76,1.93-5.64
		c0.01-7.5,2.59-14.3,5.82-20.73c4.2-8.35,9.25-16.27,13.98-24.36c0.44-0.75,1.14-1.36,1.78-1.98c0.24-0.23,0.64-0.3,2.15-0.95
		c-1.17,3.31-1.84,5.86-2.95,8.2c-3.2,6.77-6.81,13.35-9.81,20.21c-2.32,5.29-3.98,10.88-5.93,16.34c0.34,0.19,0.67,0.38,1.01,0.57
		c5.53-4.81,11.06-9.62,16.6-14.43c0.43,0.4,0.86,0.8,1.29,1.2c-5.59,6.9-11.19,13.8-16.97,20.93c11.28-2.71,22.03-6.59,32.36-12.01
		c-2.39,5.3-6.74,8.33-11.51,10.68c-4.74,2.33-9.73,4.19-14.58,6.54c16.2-1.89,32.41-2.64,48.64-1.84c0.06,0.49,0.11,0.98,0.17,1.48
		c-3.64,0.65-7.25,1.62-10.91,1.9c-12.91,0.99-25.83,1.83-38.75,2.48c-1.68,0.09-3.39-1.39-5.16-1.86
		c-1.43-0.38-2.98-0.53-4.46-0.43c-12.81,0.91-25.6,2-38.42,2.81c-4.84,0.31-9.72,0.05-14.59,0.05c-0.02-0.61-0.04-1.22-0.07-1.83
		c6.51-0.42,13.02-0.83,19.53-1.25c0.04-0.24,0.07-0.49,0.11-0.73c-1.5-0.24-3.04-0.8-4.51-0.66c-8.97,0.85-17.93,1.85-26.89,2.82
		c-3.79,0.41-7.57,0.89-11.36,1.26c-2.51,0.24-4.95,0.19-5.17-3.39c-4.57,0.96-8.78,1.87-12.99,2.73c-3.54,0.72-4.7-0.28-4.66-4.04
		c-27.97,2.82-55.92,5.81-84.03,6.17c-0.17-0.53-0.34-1.07-0.51-1.6c1.13-0.59,2.21-1.54,3.4-1.72c5.14-0.75,10.31-1.49,15.49-1.84
		c10.72-0.72,21.45-1.19,32.18-1.76c0.09-0.38,0.19-0.76,0.28-1.15c-1.62-0.59-3.28-1.77-4.86-1.68
		c-7.44,0.44-14.86,1.23-22.29,1.89c-0.5,0.04-1.08,0.19-1.51,0.01c-8.05-3.35-15.65,0.7-23.43,1.47
		c-15.66,1.54-31.3,3.32-46.95,4.98c-1.22,0.13-2.46,0.02-3.77-0.47c4.52-3.51,9.97-3.1,15.16-3.72c5.27-0.63,10.54-1.25,15.81-1.87
		c0.08-0.4,0.16-0.79,0.24-1.19c-1.91-0.44-3.88-1.44-5.72-1.24c-18.04,1.99-36.03,4.38-54.09,6.18
		c-6.16,0.62-12.45-0.04-18.67-0.28c-1.23-0.05-2.43-0.84-3.6-1.94c8.68-3.3,17.84-2.02,26.65-3.38c0.05-0.34,0.1-0.68,0.14-1.01
		c-2.71-0.38-5.41-1.07-8.12-1.09c-7.5-0.05-14.99,0.22-22.49,0.24c-1.27,0-2.54-0.62-3.8-0.95c-0.05-0.38-0.09-0.76-0.14-1.13
		c1.12-0.46,2.2-1.22,3.35-1.33c7.03-0.65,14.08-1.14,21.43-1.72c-4.8-7.69-8.14-15.34-4.52-24.21c2.3,8.98,4.94,17.67,13.11,23.19
		c1.56,1.05,3.55,1.46,5.98,2.42c-1.06-8.04,0.8-14.32,6.68-19.33c-0.09,0.88-0.17,1.76-0.26,2.65c-0.43,4.15-1.19,8.31-1.12,12.45
		c0.03,1.63,1.59,3.79,3.06,4.65c1.21,0.71,3.44,0.13,4.98-0.48c0.45-0.18,0.32-2.45,0.06-3.69c-2.7-12.95-2.97-25.98-1.27-39.06
		c0.15-1.17,0.65-2.29,0.98-3.43c0.4-0.01,0.79-0.03,1.19-0.04c0.23,1.45,0.59,2.9,0.68,4.37c0.67,10.73,1.29,21.47,1.93,32.2
		c0.44,0.05,0.88,0.1,1.32,0.16c3.31-7.42,6.62-14.83,9.93-22.25c0.52,0.21,1.03,0.41,1.55,0.62c-3.02,9.81-6.04,19.62-9.06,29.43
		c0.36,0.31,0.72,0.61,1.08,0.92c3.95-2.08,8-3.99,11.78-6.35c0.99-0.62,1.56-2.62,1.57-3.99c0.29-28.13,0.53-56.26,0.63-84.4
		c0.02-5.81-0.54-11.62-0.83-17.26c-9.87,0-19.52-0.3-29.14,0.12c-5.06,0.22-8.44-1.39-11.13-5.54c-2.49-3.83-5.24-7.53-8.2-11.02
		c-2.58-3.04-3.07-6.23-2.23-9.94c3.53-15.47,7.09-30.92,10.49-46.42c8.11-36.92,16.14-73.86,24.17-110.81
		c1.08-4.96,1.83-5.8,6.72-5.9c4.82-0.1,9.65-0.02,15.07-0.02c-2.07-3.7-4.08-6.48-5.26-9.57c-3.86-10.08-1.98-19.7,2.97-28.95
		c2.21-4.14,5.38-8.1,6.29-12.51c1.21-5.86,1.51-12.21,0.67-18.13c-2.85-20.07,2.48-37.19,16.73-51.59
		c5.02-5.08,10.76-8.9,17.59-10.84c0.32-2.29,0.27-4.63,0.99-6.7c2.2-6.32,8.58-7.84,15.23-7.44c4.53,0.27,7.36,4.08,7.93,10.19
		c0.32,3.4,1.54,5.56,4.69,7.4c19.28,11.3,28.1,28.56,28.3,50.65c0.08,8.6,0.57,17.19,1.59,26.05c4.74-7.44,10.65-13.15,17.15-16.28
		c0.66-3.68,0.36-7.07,1.9-8.87c1.05-1.23,4.69-0.23,7.44-0.23c2.04-4.16,4.35-8.86,6.92-14.1c-2.78,0-5.38,0.08-7.96-0.03
		c-1.77-0.08-3.58-0.22-5.27-0.69c-3.13-0.86-3.65-3.48-1.22-5.7c0.88-0.81,1.9-1.47,3.37-2.6c-4.07-0.3-7.44-0.4-10.78-0.83
		c-4.85-0.62-6.81-3.37-6.01-8.22c0.96-5.8,4.29-10,9.34-12.74c2.55-1.38,5.4-2.19,8.03-3.43c1.46-0.68,3.95-1.79,3.9-2.57
		c-0.17-2.64-1.22-5.25-4.46-5.87c-1.16-0.22-2.31-0.51-3.46-0.78c-0.07-0.43-0.14-0.86-0.21-1.3c1.37-0.5,2.72-1.3,4.13-1.43
		c1.74-0.16,3.54,0.18,5.3,0.42c3.27,0.45,4.8-0.77,4.53-4.19c-0.16-2.09-0.03-4.2-0.03-6.3c0.31-0.21,0.63-0.42,0.94-0.64
		c0.98,1.06,2.24,1.98,2.88,3.22c1.92,3.69,0.4,9.82-2.59,12.68c-0.98,0.93-1.77,2.54-1.82,3.87c-0.18,4.57-1.2,6.07-5.6,7.32
		c-2.68,0.76-5.42,1.4-7.97,2.48c-1.82,0.77-3.86,1.86-4.92,3.41c-1.42,2.08-2,4.74-2.94,7.15c2.22,0.48,4.42,1.13,6.67,1.41
		c3.02,0.37,6.14,0.15,9.09,0.75c1.77,0.36,4.42,1.57,4.7,2.84c0.34,1.54-1.4,3.53-2.32,5.48c1.44,0.17,3.59,0.33,5.71,0.7
		c5.39,0.96,6.7,4.18,3.97,9.06c-1.98,3.53-3.76,7.18-5.47,10.85c-0.45,0.96-0.34,2.19,0.1,3.59c0.53-0.72,0.98-1.52,1.6-2.14
		c1.13-1.12,2.36-2.13,3.55-3.18c0.92,1.07,1.84,2.14,2.75,3.2c1.68-1.67,1.72-1.66,7.98,3.39c-0.16-1.79-0.15-3.09-0.4-4.33
		c-0.51-2.48-1.15-4.93-1.75-7.4c-1.13-4.63-0.32-7.11,2.92-8.86c3.49-1.88,8.92-1.12,11.22,1.8c0.69,0.87,0.74,2.24,1.08,3.39
		c-1.13-0.11-2.28-0.17-3.4-0.34c-2.16-0.34-4.31-0.74-6.42-1.11c1.25,6.98,2.24,12.94,3.44,18.86c0.19,0.91,1.24,1.8,2.1,2.4
		c2.41,1.65,5.01,3.02,7.38,4.73c7.31,5.26,6.98,9.6-0.58,13.06c1.67,7.16,3.33,14.25,5.11,21.83c1.1,0,3.01,0,4.22,0
		c-1-8.45-2.93-16.88-2.68-25.24c0.2-6.63,2.1-13.65,5.02-19.64c3.96-8.13,16.69-13.75,27.38-4.2c4.57,4.09,7.49,9.17,9.52,14.93
		c6.56,18.59,7.62,37.74,6.26,57.19c-0.13,1.89-0.02,3.79-0.02,6.32c1.43,0,2.89-0.02,4.34,0c4.43,0.07,6.02,1.27,7.08,5.84
		c3.47,14.95,7.26,29.84,10.18,44.9c5.3,27.4,10.11,54.89,15,82.36c1.84,10.37,3.44,20.79,4.86,31.22c0.27,1.96-0.43,4.36-1.44,6.13
		c-2.96,5.18-6.29,10.15-9.51,15.17c-1.41,2.19-3.32,3.09-6.08,3.06C467.75,459.75,455.91,459.84,443.48,459.84z M489.18,433.92
		c-0.46-3.04-0.77-5.42-1.18-7.8c-4.49-25.86-8.69-51.79-13.6-77.57c-4.32-22.66-9.42-45.18-14.29-67.73
		c-0.23-1.05-1.42-2.58-2.3-2.68c-2.76-0.32-5.58-0.04-8.37-0.02c-8.11,0.05-16.23,0.44-24.32,0.05c-9-0.44-17.96-1.56-26.93-2.45
		c-2.31-0.23-3.89,0.46-5.57,2.24c-7.34,7.77-20.45,7.62-27.7,0.01c-0.75-0.79-2.08-1.48-3.14-1.48c-21.13-0.05-42.25,0-63.38,0.06
		c-1.33,0-2.66,0.3-3.94,0.45c2.09,15.3,4.12,30.19,6.19,45.29c5.41,0,11.25,0.15,17.08-0.03c17.57-0.54,35.1-0.23,52.52,2.38
		c3.25,0.49,6.54,1.57,9.75,1.38c11.28-0.67,22.52-2.06,33.81-2.63c17.06-0.86,34.05,0.42,50.94,2.9c1.13,0.17,2.13,1.2,3.19,1.84
		c-0.08,0.38-0.16,0.76-0.23,1.14c-1.4,0.25-2.79,0.73-4.19,0.73c-8.66,0.01-17.32-0.3-25.97-0.11
		c-13.59,0.31-27.18,0.92-40.77,1.42c-7.23,0.26-14.7,1.85-21.65,0.59c-17.54-3.17-35.15-3.34-52.81-3.35
		c-7.46-0.01-14.92,0.67-22.45,1.04c-0.07,0.99-0.12,1.74-0.18,2.49c-0.61,7.63-1.57,15.19-5.41,22.01
		c-3.63,6.45-10,10.14-15.45,8.83c-5.25-1.26-9.01-4.86-10.36-9.78c-1.9-6.9-2.94-14.08-3.81-21.2c-0.33-2.7-0.93-3.98-3.67-3.96
		c-6.23,0.06-12.47,0.08-18.7,0.13c-7.25,0.07-14.51,0.28-21.75,0.11c-1.14-0.03-2.24-1.73-3.36-2.65c1.19-0.83,2.3-2.18,3.59-2.39
		c3.37-0.54,6.83-0.74,10.25-0.77c11.05-0.09,22.1-0.03,32.92-0.03c2.34-15.85,4.51-30.57,6.7-45.47c-15.6,0-31.31,0-46.7,0
		c-11.69,52.39-23.31,104.47-34.98,156.75c1.54,0.09,2.8,0.2,4.06,0.22c17.57,0.21,35.14,0.77,52.7,0.51
		c22.65-0.33,45.28-1.96,67.92-1.91c56.77,0.14,113.55,0.92,170.32,1.44C485.61,433.94,487.24,433.92,489.18,433.92z M285.82,351.46
		c0.35,0.1,0.71,0.2,1.06,0.29c0.5-0.64,1.26-1.21,1.45-1.93c1.52-5.85,3.66-11.67,4.24-17.62c1.82-18.56-1.9-36.67-5.4-54.76
		c-1.08-5.61,0.23-7.41,6.08-7.71c9.02-0.47,18.05-0.76,27.07-0.9c2.48-0.04,3.8-0.71,4.15-3.23c1.63-11.79,4.15-23.53,4.73-35.37
		c0.55-11.11-0.85-22.33-1.56-33.5c-0.61-9.64-1.35-19.34-5.68-28.2c-6.61-13.52-16.93-22.73-32.26-24.32
		c-14.43-1.49-28.6,8.12-35.79,22.68c-5.76,11.67-5.22,23.91-3.53,36.21c1.35,9.87-0.19,18.83-5.98,27.17
		c-2.41,3.47-4.23,7.59-5.38,11.68c-3.5,12.43,2.51,23.69,13.8,26.36c2.69,0.64,5.54,0.67,8.33,0.76c4.2,0.14,8.42-0.13,12.6,0.18
		c4.34,0.32,5.53,2.15,4.71,6.29c-0.42,2.12-0.83,4.23-1.31,6.34c-4.21,18.54-6.74,37.25-5.58,56.31c0.12,1.94,0.66,3.85,1,5.77
		c0.95-0.56,1.1-0.92,1.11-1.29c0.04-2.16,0.11-4.33,0.05-6.49c-0.52-18.38,0.88-36.56,5.6-54.39c0.43-1.61,1.87-2.94,2.84-4.41
		c0.88,1.14,2.16,2.15,2.57,3.43c5.26,16.43,6.73,33.34,5.51,50.45c-0.34,4.82-2.31,9.52-3.45,14.3
		C286.36,347.5,286.15,349.49,285.82,351.46z M435.54,535.58c0-12.31,0-24.81,0-37.35c-2.81-0.25-5.33-0.62-7.86-0.68
		c-7.62-0.18-15.24-0.26-22.86-0.33c-5.96-0.06-11.92-0.06-17.87-0.05c-5.32,0.01-10.76,0.82-15.94,0
		c-21.91-3.49-43.81-2.56-65.76-0.8c-4.91,0.39-9.88,1.04-14.75,0.64c-5.25-0.43-10.39-2.69-15.62-2.86
		c-11.23-0.37-22.48,0.09-33.97,0.21c0,14.37,0,27.67,0,41.18c1.01-0.12,1.87-0.24,2.73-0.31c7.95-0.65,15.93-2.05,23.83-1.67
		c5.13,0.25,10.17,1.54,15.37,0.37c1.96-0.44,4.02-0.65,6.03-0.62c6.21,0.09,12.42,0.43,18.63,0.52c9.11,0.13,18.23,0.11,27.34,0.19
		c4.15,0.03,8.3,0.19,12.45,0.17c11.54-0.05,23.08-0.33,34.61-0.17c4.65,0.06,9.29,1.42,13.94,1.5
		C408.88,535.72,421.93,535.58,435.54,535.58z M438.8,201.48c-3.12-4.22-6.46-7.85-12.15-7.18c-5.57,0.66-10.31,3.33-11.4,9.12
		c-1.22,6.52-1.74,13.25-1.82,19.9c-0.09,7.48,2.4,14.45,5.83,21.1c1.41,2.74-0.28,4.73-3.35,4.38c-4.4-0.51-8.81-1.09-13.23-1.42
		c-3.36-0.26-4.71-1.48-4.64-5.18c0.18-9.99-2.31-19.49-7.9-27.78c-3.46-5.13-7.72-9.92-15.34-7.89c-1.08,0.29-2.65-1.31-4.02-1.98
		c-1.1-0.54-2.4-1.62-3.36-1.4c-12.92,3.08-23.05,9.42-27.7,22.84c-3.56,10.27-3.39,20.99-4.86,31.5c-0.5,3.57-0.55,7.21-0.83,11.22
		c9.46,0,18.24,0,27.01,0c-5.9-2.75-13.14-0.81-19.64-5.72c2.39-0.71,3.77-1.48,5.12-1.46c3.81,0.05,7.61,0.48,11.42,0.67
		c6.12,0.31,9.91,2.95,10.68,9.5c0.33,2.81,2.47,4.56,5.55,4.77c0.49-3.2,0.95-6.25,1.42-9.31c0.31-0.02,0.62-0.04,0.93-0.06
		c0.5,3.38,1,6.77,1.49,10.06c3.11,0.82,4.46-0.22,4.3-3.36c-0.14-2.85-0.03-5.71-0.03-8.57c0.49-0.02,0.98-0.04,1.48-0.06
		c0.97,3.17,1.95,6.34,2.98,9.71c7.57-7.35,4.24-21.31-5.6-25.24c-5.5-2.2-11.12-2.08-16.84-1.11c-3.12,0.53-6.27,0.89-9.43,1.13
		c-0.69,0.05-1.89-0.62-2.05-1.19c-0.18-0.6,0.44-1.65,1-2.2c0.6-0.6,1.5-0.96,2.33-1.23c7.59-2.45,15.3-3.67,23.23-1.99
		c11.57,2.46,17.36,9.66,17.43,21.52c0.01,1.13,0,2.26,0,3.41c0.84,0.29,1.42,0.63,2.02,0.67c14.45,0.9,28.92,1.65,43.36,2.7
		c4.07,0.3,5.73-1.48,5.72-5.09c-0.04-12.03-0.06-24.06-0.48-36.08c-0.15-4.25-1.7-5.08-6.13-4.84c-2.28,0.12-4.59,0.66-6.82,0.42
		c-1.41-0.15-2.71-1.38-4.05-2.13c1.27-0.99,2.41-2.59,3.82-2.86c3.56-0.68,7.24-0.76,10.87-1.08
		c-0.84-12.55-2.01-13.47-14.34-11.39c-0.75,0.13-1.55,0.29-2.27,0.17c-0.87-0.15-1.69-0.59-2.6-0.93
		C427.61,204.42,427.61,204.42,438.8,201.48z M371.97,574.89c13.37,1.73,16.77,0.49,25.18-9.15c1.59-1.82,3.03-3.77,4.63-5.58
		c2.38-2.69,4.84-5.31,7.27-7.97c0.36,0.25,0.72,0.51,1.08,0.76c-2.17,3.64-4.31,7.3-6.53,10.9c-2.3,3.73-4.68,7.4-7.03,11.1
		c0.19,0.35,0.39,0.7,0.58,1.05c2.05-0.88,4.37-1.41,6.1-2.72c5.78-4.37,11.3-9.09,17.04-13.52c2.15-1.66,4.65-2.86,6.98-4.27
		c0.33,0.44,0.66,0.87,0.99,1.31c-4.69,5.4-9.38,10.81-14.64,16.88c4.01,0,7.41-0.24,10.75,0.07c3.4,0.31,6.74,1.15,10.76,1.87
		c0-12.21,0-23.33,0-34.35c-9.44,0-18.71-0.04-27.98,0.01c-6.2,0.03-12.63,1.31-18.54,0.07c-13.28-2.8-26.46-2.62-39.81-1.47
		c-4.65,0.4-9.37,0.21-14.05,0.04c-4.29-0.15-8.56-0.87-12.85-0.93c-6.49-0.09-13.06,0.86-19.45,0.13c-8.7-1-17.21-0.95-25.78,0.65
		c-1.36,0.25-2.92,0.54-4.16,0.13c-10.55-3.52-21.11-1.73-32.06-0.26c0,5.97,0,11.97,0,18.04c1.25-0.59,2.46-1.15,3.66-1.72
		c0.31,0.23,0.62,0.47,0.93,0.7c-1.03,1.84-1.77,3.94-3.15,5.47c-2.35,2.62-3.95,5.89-1.91,8.5c1.19,1.53,5,1.21,7.65,1.35
		c3.45,0.18,4.73-1.53,4.66-5.15c-0.11-5.69,1.5-11.12,4.47-16.24c0.65,1.8,0.71,3.56,0.64,5.32c-0.14,3.68-0.54,7.36-0.45,11.03
		c0.03,1.5,0.69,3.38,1.75,4.31c0.53,0.47,2.91-0.44,3.9-1.33c5.82-5.29,11.48-10.76,17.2-16.16c1.93-1.83,3.88-3.65,5.81-5.48
		c0.41,0.36,0.82,0.72,1.23,1.09c-4.58,7.78-9.38,15.4-16.75,22.28c4.97,0,9.05-0.43,13,0.09c7.32,0.96,12.77-1.15,16.63-7.67
		c1.23-2.08,3.61-3.47,5.46-5.18c0.44,0.34,0.87,0.69,1.31,1.03c-2.13,3.78-4.25,7.57-6.43,11.44c5.29,0,10.03,0,14.89,0
		c-1.31-7.82-3.18-15.33,1.44-22.43c0.71,1.16,0.83,2.35,1.04,3.52c1,5.49,1.92,10.99,3.13,16.43c0.24,1.06,1.57,2.54,2.53,2.64
		c3.08,0.34,6.22,0.13,9.1,0.13c1.48-9.1,2.4-17.56,7.35-24.66c0.35,0.09,0.69,0.17,1.04,0.26c-0.84,8.95-1.68,17.9-2.57,27.35
		c9.24,0.12,11.33-8.98,17.99-11.55c0.75,5.16-4.05,7.67-4.86,11.8c7.56-0.23,14.54-1.86,20.05-7.55c4.07-4.2,8.24-8.3,12.43-12.4
		c0.99-0.97,2.21-1.72,3.32-2.58c0.34,0.31,0.68,0.62,1.02,0.93C385.29,562.27,378.29,568.31,371.97,574.89z M436.66,466.06
		c-9.99-1.04-19.81-2.4-29.67-3c-13.58-0.82-27.19-1.32-40.79-1.51c-36.61-0.52-73.25-2.31-109.8,1.46
		c-5.36,0.55-10.68,1.44-15.6,2.12c0,8.78,0,16.83,0,25.07c3.31-0.42,6.08-0.86,8.86-1.11c14.29-1.32,28.6-3.01,42.62,1.91
		c0.91,0.32,2.02,0.23,3.02,0.14c9.48-0.8,18.94-1.98,28.44-2.39c9.89-0.43,19.82,0.02,29.72-0.21c9.38-0.22,18.4,2.66,27.92,2.16
		c13.66-0.72,27.42,0.05,41.12,0.45c4.58,0.14,9.13,1.11,14.15,1.76C436.66,484.01,436.66,475.28,436.66,466.06z M191.31,440.2
		c3.03,3.83,5.63,7.25,8.42,10.51c0.6,0.69,1.91,1.11,2.89,1.09c14.88-0.3,29.75-0.98,44.63-1.01c47.84-0.1,95.69-0.15,143.53,0.15
		c28.36,0.18,56.73,1.08,85.09,1.57c1.74,0.03,4.18-0.15,5.1-1.24c2.57-3.05,4.51-6.63,7.38-11.06
		C388.95,440.2,290.55,440.2,191.31,440.2z M391.18,205.28c-0.13,0.28-0.25,0.57-0.38,0.86c2.03,2.88,4.18,5.68,6.05,8.66
		c1.4,2.23,3.17,1.59,4.43,0.47c0.59-0.52,0.49-3.06-0.15-3.54C397.97,209.37,394.52,207.39,391.18,205.28z M294.39,136.36
		c-0.57-2.75-1.7-4.88-4.47-4.96c-2.83-0.08-4.4,1.78-5.1,4.96C288.07,136.36,291.01,136.36,294.39,136.36z"/>
	<path d="M393.17,122.77c-1.14,4.22-2.07,7.32-2.78,10.47c-0.38,1.72-0.51,3.52-0.52,5.28c-0.03,4.37,1.15,5.45,5.6,5.88
		c3.9,0.38,7.84,0.66,11.64,1.53c4.99,1.14,8.87,3.97,11.09,8.64c-0.16,0.42-0.31,0.83-0.47,1.25c-1.5-0.41-3.26-0.44-4.44-1.28
		c-5.56-3.94-11.87-4.83-18.41-4.96c-7.32-0.14-11.07-3.59-9.9-10.61c0.81-4.86,3.33-9.44,5.24-14.08
		C390.49,124.21,391.59,123.86,393.17,122.77z"/>
	<path d="M409.08,171.53c-4.75-3.6-9.09-6.89-14.47-10.97c2.75-0.25,4.88-0.94,6.75-0.51C404.52,160.79,409,167.66,409.08,171.53z"
		/>
	<path d="M384.7,121.25c-1.38,4.46-2.7,8.95-4.21,13.37c-0.2,0.6-1.35,0.88-2.06,1.3c-0.46-0.8-1.41-1.69-1.29-2.39
		c0.84-4.91,3.39-8.96,6.43-12.7C383.95,120.96,384.32,121.11,384.7,121.25z"/>
	<path d="M390.92,171.26c2.92-2.62,4.95-0.67,6.9,0.32c2.72,1.38,4.59,3.46,4.27,7.9C398.12,176.56,394.72,174.06,390.92,171.26z"/>
	<path d="M379.05,153.31c-1.99,1.66-3.33,3.55-4.27,3.37c-1.25-0.24-3.05-2.11-3.03-3.26c0.02-1.5,1.58-2.98,2.48-4.46
		C375.58,150.18,376.93,151.4,379.05,153.31z"/>
	<path d="M363.68,153.9c1.36-1.61,2.28-2.7,3.2-3.8c1.03,1.26,2.7,2.45,2.87,3.82c0.12,1.04-1.68,2.31-2.62,3.48
		C366.12,156.38,365.11,155.35,363.68,153.9z"/>
	<path d="M448.88,385.03c-13.29,1.16-26.57,2.35-39.87,3.47c-1.75,0.15-3.62,0.26-5.28-0.17c-12-3.11-24.23-3.47-36.38-2.09
		c-12.25,1.39-24.21-0.16-36.35-0.99c-12.85-0.88-25.88,0.15-38.78,1.12c-8.85,0.66-17.5,1.65-26.48,0.39
		c-18.61-2.61-37.36-1.13-56.05-0.46c-0.76,0.03-1.62,0.34-2.26,0.07c-0.93-0.39-1.69-1.17-2.52-1.79c0.69-0.81,1.26-2.13,2.1-2.34
		c2.94-0.73,5.96-1.22,8.98-1.55c19.67-2.09,39.27-2.33,58.95,0.59c6.11,0.91,12.61-0.65,18.92-1.23c18.12-1.64,36.15-3,54.24,1.11
		c4.91,1.12,10.49-0.74,15.76-1.21c13.85-1.24,27.65-1.32,41.36,1.63c2.05,0.44,4.31,0.29,6.41-0.01c20.5-2.9,41-3.82,61.53-0.45
		c0.5,0.08,1.18-0.08,1.49,0.2c0.94,0.83,1.74,1.82,2.6,2.75c-1.04,0.7-2.06,1.97-3.12,1.99c-4.19,0.09-8.39-0.26-12.59-0.34
		c-4.2-0.08-8.4-0.02-12.61-0.02C448.92,385.48,448.9,385.26,448.88,385.03z"/>
	<path d="M271.78,237.03c-5.58-1.18-10.32-2.46-13.38-6.49c-0.93-1.23-1.07-4.12-0.25-5.39c1.41-2.17,3.07-0.24,4.74,0.73
		c2.91,1.68,6.23,2.65,9.15,4.33c1.28,0.74,2.84,2.54,2.73,3.72C274.66,235.14,272.67,236.18,271.78,237.03z"/>
</g>
</svg>
