<?xml version="1.0" encoding="utf-8"?>
<!-- Generator: Adobe Illustrator 26.0.1, SVG Export Plug-In . SVG Version: 6.00 Build 0)  -->
<svg version="1.1" id="Layer_1" xmlns="http://www.w3.org/2000/svg" xmlns:xlink="http://www.w3.org/1999/xlink" x="0px" y="0px"
	 viewBox="0 0 680 680" style="enable-background:new 0 0 680 680;" xml:space="preserve">
<g>
	<path d="M437.99,207.07c-7.47,13.04-16.11,24.87-21.35,38.06c-6.78,17.07-9.37,35.26-4.74,53.83c5.09,20.4,24.8,28.49,44.31,23.59
		c20.91-5.25,28.61-20.91,33.29-39.6c6.62-26.45,1.11-52.08-6.55-77.02c-6.58-21.42-14.72-42.57-24.46-62.74
		c-11.63-24.09-30.87-39.35-59.1-40.05c-8.93-0.22-10.35,1.96-8.77,10.8c0.4,2.22-1.12,4.79-1.76,7.19
		c-1.59-2.08-4.14-3.98-4.59-6.29c-1.9-9.86-1.73-10.05-11.25-7.31c-11.31,3.25-22.43,7.28-33.88,9.88
		c-5.27,1.2-11.32,0.62-16.7-0.58c-18.77-4.2-37.24-9.89-56.13-13.26c-10.61-1.89-22.11-1.83-32.73,0.05
		c-14.05,2.48-24.98,11.58-33.21,23.16c-3.05,4.29-5.42,4.07-9.19,1.66c-9.55-6.09-13.47-16.93-9.45-26.71
		c3.97-9.64,14.99-15.3,25.8-11.12c9.93,3.84,19.21,3.45,29.42,2.34c21.23-2.31,41.94,1.92,62.55,7.19
		c12.73,3.25,25.31,9.25,39.01,6.05c12.66-2.96,25.21-6.41,37.79-9.69c3.88-1.01,4.5-2.88,3.68-7.21c-0.84-4.42-7.85-9.58,0.8-14.84
		c2.11,3.14,5.39,5.97,5.93,9.24c1.54,9.43,7.95,10.26,15.38,10.43c21.06,0.46,38.68,8.86,52.16,24.75
		c15.93,18.79,26.77,40.62,34.26,64.01c9.14,28.56,15.92,57.6,14.29,87.91c-1.04,19.32-5.98,37.34-21.09,50.68
		c-17.93,15.83-46.3,19.64-66.7,1.3c-9.34-8.4-12.99-20.27-13.9-32.5c-2-26.82,5.11-51.16,21.31-72.77
		C426.57,211.99,431.18,207.47,437.99,207.07z"/>
	<path d="M512.58,486.64c-25.17-14.71-50.85-12.21-77.14-6.21c-0.81-7.93-1-14.68-2.27-21.21c-3.31-16.95-13.12-30.62-22.89-44.37
		c-14.01-19.72-27.61-39.74-41.4-59.62c-0.57-0.82-1.12-1.81-1.93-2.3c-12.51-7.65-9.29-18.95-5.81-29.27
		c4.46-13.22,11.37-24.9,28.14-24.73c4.91,7.52,4.78,8.12-3.66,9.83c-8.94,1.81-15.38,6.42-17.13,15.65
		c-1,5.26-2.36,11.26,5.39,13.63c1.31,0.4,3.14,3.81,2.67,4.64c-4.92,8.54,1.89,13.73,5.64,19.3c14.99,22.27,30.69,44.06,45.6,66.38
		c7.38,11.06,13.8,22.79,13.27,36.9c-0.16,4.31,1.94,6.85,6.61,5.46c25.1-7.49,47.95,2.06,71.08,9.33
		c6.77,2.13,7.18,4.86,1.98,10.04c-21.47,21.42-57.74,27.82-84.89,15.15c-1.68-0.78-4.59-1.01-5.94-0.07
		c-23.39,16.29-18.88,39.19-0.89,55.49c7.06,6.4,14.58,12.28,21.83,18.47c5.37,4.58,9.62,10.04,7.9,17.52
		c-1.76,7.66-7.96,12.15-14.96,13.36c-10.04,1.74-20.4,2.18-30.63,2.24c-35.97,0.23-71.94,0.47-107.89-0.29
		c-7.56-0.16-16.09-3.01-22.33-7.3c-12.29-8.47-10.24-27.01,2.87-35.63c13.91-9.15,29.71-12.84,45.77-15.85
		c6.89-1.29,13.69-3.09,20.55-4.57c6.12-1.32,7.92-5.4,7.46-11.13c-0.34-4.23-0.51-8.47-0.83-13.84c2.64,0.93,4.76,1.06,5.94,2.19
		c7.26,6.94,3.49,24.21-6.06,26.5c-14.11,3.37-28.53,5.49-42.6,8.99c-11.22,2.79-21.83,7.15-30.05,16.15
		c-3.88,4.25-6.54,8.17-4.48,14.03c2.35,6.68,6.38,11.48,13.91,11.93c5.31,0.32,11.31,1.86,11.42-7.2c0.03-2.71,3.35-5.38,5.16-8.07
		c0.61,0.32,1.22,0.65,1.83,0.97c-0.28,1.63-0.48,3.28-0.86,4.89c-1.76,7.49,0.55,11.16,7.81,12.34c6.02,0.98,10.64-2.51,11.24-9.03
		c0.63-6.89,3.28-12.47,7.69-17.19c0.86,0.37,1.72,0.74,2.58,1.1c-1.42,4.02-2.73,8.09-4.3,12.06c-3.48,8.83-2.22,11.35,6.82,11.29
		c27.69-0.21,55.38-0.44,83.05-1.34c6.33-0.2,12.77-2.58,18.8-4.89c6.59-2.52,7.58-6.98,2.51-11.83
		c-7.23-6.92-14.85-13.52-22.85-19.53c-13.56-10.21-21.67-23.12-20.39-40.36c0.38-5.08,3.15-10.42,6.11-14.78
		c4.05-5.97,9.46-10.99,14.01-16.65c3.03-3.77,6.58-4.26,9.68-1.18c10.01,9.99,22.74,10.27,35.16,9.23
		C485.71,502.01,499.7,497.19,512.58,486.64z"/>
	<path d="M184.26,139.21c0.81,3.86,2.32,6.54,1.58,8.24c-9.41,21.73-1.13,39.52,12.2,56.16c10.89,13.6,25.34,22.67,40.24,31.18
		c31.85,18.19,59.35,41.11,78.36,73.09c5.74,9.65,9.32,19.94,9.37,31.35c0.04,8.85,2.38,10.4,11.18,8.22
		c2.36-0.59,4.8-0.82,7.66-1.29c0.64,2.67,1.14,4.74,1.72,7.14c-2.91,1.01-5.44,2.41-8.08,2.71c-9.85,1.09-13.09,8.09-15.12,16.26
		c-3.44,13.84-7.14,27.62-10.11,41.56c-5.91,27.83-6.21,55.31,7.22,81.45c4.64,9.03,11.59,15.59,21.37,19.08
		c1.87,0.66,3.2,2.82,4.78,4.28c-2.32,0.56-4.95,2.13-6.91,1.52c-19.31-6-30.31-20.78-36.01-38.73c-8.49-26.77-6.77-53.59,2.26-80.5
		c5.53-16.46,9.09-33.86,11.23-51.12c2.77-22.37-8.03-40.88-21.47-57.7c-15.53-19.45-36.45-32.14-57.61-44.35
		c-20.43-11.79-38.72-26.06-53.27-44.83C170.48,184.38,169.63,159.97,184.26,139.21z"/>
	<path d="M457.08,210.43c28.05,22.86,26.61,63.86,11.29,87.96c-9.1,14.3-34.74,17.38-40.67,3.9c-2.99-6.81-5.1-15-4.43-22.27
		C425.79,253,436,229.23,457.08,210.43z"/>
	<path d="M117.4,47.39c1.88-2.92,2.9-5.29,4.6-6.98c3.31-3.32,6.63-6.9,10.61-9.23c6.62-3.88,13.83-3.33,19.95,1.17
		c6.06,4.45,5.6,11.84,3.31,17.34c-7.3,17.51-15.63,34.61-23.88,51.71c-1.91,3.96-5.51,4.73-9.53,2.05
		c-14.68-9.78-29.26-19.92-39.25-34.65c-3.77-5.55-6.59-13.86-5.5-20.16c2.57-14.75,18.88-18.93,31.11-9.06
		C111.54,41.75,113.99,44.27,117.4,47.39z"/>
	<path d="M378.37,492.28c3.06,1.74,6.41,3.13,9.12,5.31c4.14,3.33,8.1,5.27,12.68,1.14c4.53-4.09,3.64-8.27,0.11-12.57
		c-0.95-1.16-1.28-2.84-2.5-5.71c2.52,1.06,3.51,1.6,4.57,1.9c2.76,0.78,5.55,1.45,8.33,2.16c0.08-4.24,1.85-9.7-0.14-12.43
		c-3.29-4.52-9.16-6.18-4.92-14.29c1.88-3.61-1.72-10.53-3.69-15.61c-5.03-12.97-10.55-25.75-14.65-39.45
		c4.69,8.37,9.57,16.64,14.01,25.15c3.47,6.65,6.47,13.55,9.5,20.42c0.78,1.76,0.7,3.87,1.37,5.69c1.75,4.76,2.69,10.32,5.81,13.96
		c4.22,4.91,4.95,9.94,1.69,14.26c-8.56,11.36-17.58,22.45-27.42,32.69c-2.17,2.26-9.47,2.26-12.69,0.38
		c-17.6-10.31-27.1-26.66-29.2-46.52c-1.73-16.44-1.54-33.11-1.77-49.68c-0.05-3.44,1.79-6.9,2.77-10.35
		c0.89-0.02,1.78-0.03,2.67-0.05c0.74,3.1,2.05,6.2,2.12,9.32c0.27,12.58-0.98,25.3,0.51,37.71c1.54,12.79,4.6,25.62,8.91,37.76
		c3.12,8.79,11.05,14.19,21.74,15.08c-3.66-4.55-7.31-9.09-10.97-13.64C377,494.01,377.68,493.14,378.37,492.28z"/>
	<path d="M267.69,608.84c-14.31-3.11-19.09-10.66-16.61-22.56c5.14-24.63,22.47-36.19,44.87-42.16c10.63-2.83,21.5-4.75,32.24-7.17
		c1.63-0.37,3.14-1.28,4.72-1.9c2.9-1.14,5.82-2.26,8.72-3.38c0.43,1.01,0.86,2.01,1.28,3.02c-4.53,1.8-9.02,3.72-13.61,5.37
		c-14.79,5.31-30.04,9.58-44.29,16.07c-11.75,5.34-21.07,14.2-24.76,27.68c-1.67,6.1-1.28,11.18,2.79,16.15
		C264.84,602.15,265.76,605.06,267.69,608.84z"/>
	<path d="M350.05,161.04c-1.92,6.94-4.12,15.19-12.77,19.37c-5.87,2.84-10.59-0.06-10.9-6.5c-0.36-7.48,6.39-18.28,13.22-21.15
		C345.7,150.2,350.1,153.08,350.05,161.04z"/>
</g>
</svg>
