<?xml version="1.0" encoding="utf-8"?>
<!-- Generator: Adobe Illustrator 26.0.1, SVG Export Plug-In . SVG Version: 6.00 Build 0)  -->
<svg version="1.1" id="Layer_1" xmlns="http://www.w3.org/2000/svg" xmlns:xlink="http://www.w3.org/1999/xlink" x="0px" y="0px"
	 viewBox="0 0 680 680" style="enable-background:new 0 0 680 680;" xml:space="preserve">
<g>
	<path d="M182.76,608.09c8.24-7.84,16.78-14.28,23.12-22.44c8.05-10.34,16.99-14.56,30.16-12.71c10.07,1.42,20.5,0.28,31.79,0.28
		c0-4.49-0.01-6.92,0-9.35c0.08-15.62-0.09-31.24,0.39-46.84c0.2-6.58,1.78-13.11,2.73-19.66c1.11-7.63,2.21-15.25,3.39-23.35
		c-20.74-2.52-33.15-12.34-34.41-32.95c-1.36-22.25,10.28-36.15,28.28-44.21c0.69-8.03,1.32-15.23,2.08-24.05
		c-7.12-5.46-16.87-10.23-27.93-11.92c-1.77-0.27-4.42,0.8-5.66,2.16c-29.54,32.52-78.5,24.09-95.57-16.77
		c-2.3-5.5-5.26-8.52-10.91-10.71c-24.14-9.39-35.76-31.4-31.41-59.9c4.07-26.67,16.39-48.4,40.32-62.52
		c1.61-0.95,3.19-3.34,3.34-5.18c4.63-55.64,40.27-96.17,100.87-110.39c36.91-8.66,70.66-3.14,100.1,21.71
		c18.43,15.56,29.97,35.69,36.43,58.75c1.22,4.35,2.97,6.31,7.68,6.91c10.43,1.32,20.76,3.46,31.12,5.31
		c11.39,2.04,21.29,7.2,29.61,15.12c30.73,29.25,44.17,69.41,29.24,108.07c-1.5,3.9-3.49,7.6-5.16,11.18
		c6.06,8.46,13.2,17.59,19.35,27.35c3.99,6.33,5.58,13.43,14.07,17.04c7.2,3.07,8.9,11.92,8.73,19.75c-0.09,4.04,1.4,6.04,4.51,8.27
		c14.98,10.74,24.35,25.04,24.43,43.88c0.08,19.11-15.97,33.73-34.67,31.45c-5.86-0.71-11.33-4.56-17.89-7.37
		c-8.3,14.07-20.58,27.27-36.16,37.57c11.74-3.4,23.21-3.61,34.62,0.39c32,11.21,47.58,43.07,37.9,77.47
		c-10.12,35.98-44.1,58.4-79.04,52.14c-12.87-2.3-22.55-8.99-27.5-21.3c-1.71-4.24-4.13-5.64-8.29-5.01c-0.45,0.07-0.92,0.06-1.38,0
		c-10.71-1.51-17.86,1.99-25.22,11.05c-23.56,29.03-71.21,24.43-92.84-8.45c-4.65-7.06-8.37-7.51-16.17-5.97
		c-29.92,5.92-60.07,10.82-90.77,5.9C185.21,608.66,184.41,608.44,182.76,608.09z M410.63,301.88c-27.51-1.42-52.85,5.11-75.8,19.35
		c-24.22,15.04-40.06,35.55-39.08,66.44c16.34-6.52,22.42-6.05,28.26,1.69c5.47,7.24,4.18,14.05-4.72,25.03
		c11.65,11.22,11.27,17.46-0.37,25.02c-1.14,5.11-0.93,10.08-3.27,13.01c-2.46,3.08-7.36,4.22-11.53,6.38
		c4.13,11.3,10.87,21.82,19.92,30.83c1.29,1.28,3.43,2.51,5.13,2.45c7.51-0.28,15-1.03,21.27-1.52
		c-6.61-5.37-14.29-11.62-21.72-17.66c2.67-5.04,4.6-4.52,7.4-1.69c18.93,19.12,42.42,26.22,68.76,26.12
		c2.93-0.01,8.71-3.92,8.81,2.13c0.09,5.61-6.16,3.44-9.34,3.22c-13.07-0.89-26.08-2.5-39.8-3.92c5.87,3.62,11.2,9.09,17.4,10.35
		c23.48,4.8,46.12,1.12,67.15-10.67c15.25-8.55,27.25-20.46,36.26-35.86c-13.88-2.11-17.64-7.85-14.34-20.87
		c-11.37-2.91-13.35-9.56-6.11-20.5c-6.2-6.58-7.32-13.01-3.62-20.4c3.87-7.71,11.18-10.13,18.79-11.82
		c-2.8-14.19-1.39-17.37,10.9-24.69c-10-28.5-32.87-44.1-58.89-58.04c1.74-1.54,2.95-3.55,4.26-3.62
		c8.48-0.43,14.23-6.04,14.59-14.41c0.06-1.5,1.3-2.94,2.27-5c3.16,2.85,5.63,5.07,8,7.2c-5.36,5.79-10.2,11.02-15.23,16.45
		c7.37,5.11,14.37,9.97,21.94,15.22c2.33-5.85,4.91-11.01,6.47-16.46c9.78-34.12-0.77-63.16-22.81-89.18
		c-8.84-10.43-19.64-17.98-33.21-20.76c-8.75-1.79-17.6-3.15-26.45-4.31c-17.95-2.36-32.96-8.6-46.25-22.48
		c-27.51-28.71-61.2-39.53-100.98-28.61c-33.38,9.16-59.08,35.79-63.28,68.17c13.6,4.89,25.31,12.57,33.03,25.28
		c8.64,14.21,12.78,29.76,13.66,46.31c0.15,2.81,0.78,5.97,2.27,8.26c13.25,20.41,18.36,42.18,11.88,65.8
		c6.95,2.63,14.36,4.26,20.45,8.03c8.67,5.37,17.51,8.41,27.69,7.86c2.57-6.65,5.16-13.37,7.87-20.4
		c-15.32-3.74-28.12-10.92-38.3-22.47c-0.45-0.51-0.88-1.16-1.46-1.43c-1.92-0.86-3.91-1.57-5.87-2.33c1.1-2.5,2.03-5.1,3.39-7.45
		c0.52-0.9,2.43-1.93,3.05-1.61c1.03,0.53,1.62,2.04,2.23,3.23c1,1.92,1.5,4.21,2.85,5.8c8.9,10.49,20.25,17.17,33.6,20.15
		c1.97,0.44,5.38-0.89,6.59-2.54c8.89-12.13,20.3-21.13,33.45-28.08c21.27-11.24,43.81-17.38,68.01-16.75
		C409.07,296.21,412.8,295.79,410.63,301.88z M157.17,335.6c6.39-0.83,12.6-1.19,18.61-2.48c25.07-5.38,43.77-23.03,46.18-45.03
		c2.08-19.03-2.86-36.99-13.39-52.96c-16.4-24.87-49.3-30.71-73.04-12.84c-21.18,15.94-31.32,37.82-31.57,64.18
		c-0.23,24.11,11.9,40.07,35.07,46.23C144.95,334.27,151.18,334.67,157.17,335.6z M398.06,574.11
		c-0.37-31.85-11.91-53.64-34.41-69.7c-16.68-11.91-33.77-10.95-48.71,3.12c-4.15,3.91-7.88,8.36-11.29,12.95
		c-13.99,18.75-21.9,39.2-16.4,63.03c7.41,32.14,36.14,51.93,66.97,46.23C379.86,624.99,398.64,599.34,398.06,574.11z
		 M417.39,576.83c2.73,10.79,4.76,21.82,8.38,32.3c3.45,10.01,11.68,15.52,21.99,17.79c25.36,5.59,55.11-8.62,67.95-32.48
		c13.41-24.91,11.38-53.17-5.11-71.34c-22.54-24.83-57.66-23.29-75.37,3.69C425.42,541.76,419.27,558.2,417.39,576.83z
		 M279.54,399.19c-2.45,0.71-4.39,1.24-6.32,1.83c-21.16,6.47-33.01,28.65-26.15,48.92c3.67,10.83,13.62,17.73,25.29,17.52
		c10.69-0.19,18.94-6.88,22.26-18.08c0.55-1.86,1.06-3.72,1.82-6.4c1.26,1.46,1.81,2.52,2.68,3.01c3.16,1.77,6.33,3.61,9.72,4.75
		c0.6,0.2,3.55-3.78,3.25-4.17c-1.84-2.42-4.39-4.29-6.54-6.49c-0.99-1.02-1.63-2.38-2.43-3.59c1.28-0.71,2.51-1.83,3.86-2.02
		c1.51-0.21,3.53,1.14,4.64,0.54c3.52-1.9,8.75-3.82,9.59-6.79c1.45-5.09-3.41-7.94-8.12-9.18c-2.16-0.57-4.65,0.11-6.82-0.44
		c-1.44-0.36-2.59-1.88-3.86-2.88c1.13-0.91,2.15-2.03,3.41-2.7c3.95-2.09,8.59-3.31,11.84-6.15c4.26-3.73,5.66-8.95,1.79-14.17
		c-3.59-4.83-8.45-5.46-13.46-2.88c-3.59,1.85-6.59,4.8-10.09,6.86c-1.53,0.9-3.89,1.46-5.42,0.9c-0.94-0.34-1.48-3.09-1.39-4.72
		c0.2-3.63,1.74-7.38,1.12-10.79c-0.49-2.65-3-5.98-5.41-6.9c-1.98-0.75-5.84,0.92-7.64,2.74c-4.53,4.58-4.74,10.2-1.48,15.78
		C276.68,395.46,277.99,397.03,279.54,399.19z M509.63,397.47c-0.85-6.84-0.98-12.34-2.32-17.52c-1.43-5.49-5.51-9.63-11.42-9.1
		c-3.58,0.32-8.05,2.45-10.14,5.24c-3.47,4.63-0.64,9.52,2.36,13.87c1,1.44,1.37,3.32,2.02,4.99c-1.94,0.28-3.98,1.12-5.79,0.76
		c-9.31-1.85-18.03,3.46-19.29,11.97c-0.81,5.45,1.16,8.23,6.97,8.35c3.16,0.06,6.29,1.03,9.44,1.59c-2.72,1.84-5.3,3.96-8.2,5.45
		c-3.94,2.02-7.84,4.66-6.32,9.18c0.6,1.76,5.82,2.29,9.02,2.75c3.74,0.54,7.57,0.39,11.36,0.54c-2.61,2.47-5.04,5.17-7.88,7.33
		c-3.51,2.67-5.75,5.53-2.99,9.81c2.73,4.24,6.62,4.5,10.81,2.3c1.19-0.62,2.05-1.87,3.23-2.5c1.43-0.75,3.12-1.66,4.57-1.47
		c0.72,0.1,1.46,2.45,1.64,3.85c1.03,8.07,4.23,11.36,12.18,12.22c18.58,2.02,33.24-16.1,28.3-34.91
		C532.96,416.16,523.13,404.65,509.63,397.47z M148.31,208.19c7.74,0.12,11.01-3.34,13.43-10.58c14.38-43.05,40.59-74.77,86.8-85.54
		c34.58-8.06,66.13-1.88,91.04,24.61c11.18,11.89,19.56,26.42,29.22,39.74c1.39,1.92,2.85,3.8,4.85,6.46
		c0.6-2.02,0.87-2.45,0.82-2.84c-0.15-1.13-0.31-2.29-0.66-3.37c-7.16-21.83-18.49-41.02-36.71-55.41
		c-25.79-20.37-55.16-25.91-86.98-19.41C193.21,113.49,153.69,148.45,148.31,208.19z M360.88,174.83c0.29-0.22,0.59-0.45,0.88-0.67
		c-4.98-7.09-9.82-14.28-14.95-21.25c-37.03-50.27-93.45-44.48-129.94-21.91c-22.67,14.02-37.08,35.13-46.94,59.5
		c-2,4.93-3.36,10.12-5.24,15.85c4.44,0,7.57,0,10.86,0c0.58-2.19,1.13-4.17,1.64-6.16c4.84-18.52,14.24-34.24,29.15-46.37
		c29.8-24.26,85.24-35.6,126.48-3.16C342.5,158.29,351.54,166.75,360.88,174.83z M297.21,460.65c-4.87,3.24-10.7,7.02-16.4,11
		c-0.94,0.66-1.65,2.11-1.83,3.3c-1.66,10.8-4.25,21.59-4.53,32.44c-0.66,25.43-0.41,50.88-0.07,76.32c0.1,7.67,1.2,8.05,9.35,9.1
		c-11.72-41.78,7.02-71.94,36.12-96.99C312.12,483.79,304.37,471.77,297.21,460.65z M384.3,515.71
		c10.44,12.86,16.17,26.28,18.26,40.98c2.1,14.78,1.49,29.52-5.23,44.13c7.03,0,12.9,0,18.86,0c-7.36-37.1,2.15-68.38,30.38-94.48
		C426.86,515.52,406.73,518.31,384.3,515.71z M227.83,295.06c-0.92,0.13-1.84,0.26-2.77,0.39c0.26,4.48,0.38,8.97,0.82,13.44
		c1.01,10.2,3.47,20.44,3.02,30.55c-0.8,17.57-10.55,25.2-28.07,24.38c-17.32-0.81-31.63-8.07-44.3-19.53
		c-2.73-2.47-6.88-3.35-10.37-4.97c6.11,24.28,27.07,39.17,50.11,38.06c19.94-0.96,38.64-13.96,42.06-30.72
		C242.1,328.19,237.9,310.87,227.83,295.06z M195.36,602.42c0.53,0.72,1.07,1.45,1.6,2.17c26.56,2.79,52.33-3.05,77.89-6.24
		c-2.21-3.72-4.51-6.44-5.5-9.57c-1.13-3.59-1.1-7.54-1.46-10.47c-15.31,0-29.9-0.03-44.49,0.05c-1.26,0.01-2.84,0.36-3.71,1.16
		C211.51,587.08,203.45,594.77,195.36,602.42z"/>
	<path d="M518.43,187.09c-0.49-9.44-0.96-18.54-1.46-28.19c-7.09,0-14.01,0-21.7,0c0,10.6,0.15,21.08-0.05,31.56
		c-0.14,7.46-5.96,12.63-11.96,10.09c-3.02-1.28-6.72-5.13-6.81-7.93c-0.09-2.63,3.88-5.74,6.61-7.98c1.32-1.08,3.87-0.66,6.61-1.02
		c0-10.09,0-20.05,0-30.67c10.11,0,19.45-0.18,28.78,0.19c1.43,0.06,3.85,2.58,3.95,4.1c0.92,12.8,1.64,25.63,1.94,38.46
		c0.13,5.65-3.64,9.07-9.09,9.2c-4.95,0.12-9.25-2.57-9.91-7.78c-0.7-5.57,3.53-7.97,8.33-9.21
		C515.14,187.51,516.68,187.38,518.43,187.09z"/>
	<path d="M448.42,146.89c-0.65-11.28-1.29-22.35-1.95-33.78c13.85,8.17,21.96,17.37,18.81,22.22c-3.82-3.18-7.59-6.32-12.74-10.62
		c0.83,10.86,1.42,20.24,2.29,29.59c0.7,7.52-5.11,13.47-12.54,12.36c-5.3-0.79-9.18-3.86-9.69-9.17c-0.55-5.69,3.64-8.55,8.61-9.94
		C443.33,146.97,445.64,147.12,448.42,146.89z"/>
	<path d="M400.87,363.44c20.27,0.03,36.73,17.21,36.69,38.3c-0.05,22.32-18.08,40.43-40.07,40.24c-19.6-0.16-36.75-19.16-36.66-40.6
		C360.9,380.83,379.3,363.4,400.87,363.44z M401,369.03c-18.85-0.02-34.43,14.9-34.37,32.9c0.07,18.18,14.28,34.07,30.72,34.37
		c18.96,0.34,34.57-15.24,34.53-34.44C431.85,383.7,418.07,369.05,401,369.03z"/>
	<path d="M392.67,285.46c-5.87-2.63-12.41-4.66-17.91-8.28c-5.68-3.75-5.39-9.68-0.57-14.65c9.52-9.83,26.76-10.43,36.73-1.27
		c6.82,6.26,6.34,14.16-1.75,18.5C404.5,282.26,399.06,283.32,392.67,285.46z"/>
	<path d="M468.87,346.41c-2.05,3.73-3.84,4.47-6.9,1.29c-20.7-21.49-46.02-30.7-75.73-28.22c-1.74,0.14-3.61-1.41-5.42-2.17
		c1.29-1.13,2.49-3.11,3.89-3.27C418.31,310.37,446.12,321.76,468.87,346.41z"/>
	<path d="M387.21,326.16c24.31-3.2,45.42,4.05,63.86,20.05c-0.07,0.81-0.15,1.62-0.22,2.43c-2.16-0.16-4.95,0.51-6.37-0.59
		c-15.67-12.22-33.17-18.06-53.11-16.52c-1.69,0.13-3.55-1.86-5.33-2.87C386.43,327.82,386.82,326.99,387.21,326.16z"/>
	<path d="M406.67,489.11c-22.14,1.12-42.17-5.29-60.48-17.66c-0.99-0.67-1.2-2.48-1.78-3.76c1.38-0.03,3.15-0.64,4.07-0.01
		c16.74,11.5,35.29,17,55.52,17.3c1.25,0.02,2.49,1.29,3.73,1.97C407.39,487.68,407.03,488.39,406.67,489.11z"/>
	<path d="M317.82,217.04c-11.4,3.35-20.72,6.23-30.15,8.69c-1.27,0.33-3.1-1.44-4.67-2.23c0.13-0.69,0.27-1.38,0.4-2.07
		c9.54-2.75,19.04-5.63,28.66-8.08C313.19,213.06,314.92,215.11,317.82,217.04z"/>
	<path d="M349.21,212.53c9.14,2.62,18.31,5.15,27.38,7.99c1.17,0.37,1.82,2.39,2.71,3.64c-1.29,0.55-2.77,1.81-3.85,1.53
		c-8.37-2.15-16.71-4.46-24.93-7.12c-1.36-0.44-2.09-2.85-3.12-4.35C348.01,213.67,348.61,213.1,349.21,212.53z"/>
	<path d="M422.86,305.78c-2.37-1.99-4.15-3.48-5.93-4.97c1.26-0.84,2.78-2.62,3.73-2.35c2.41,0.67,4.56,2.26,6.81,3.48
		C426.17,303.02,424.88,304.1,422.86,305.78z"/>
	<path d="M346.59,616.43c-1.1-23.17-2.26-46.02-3.25-68.88c-0.52-12.13-0.84-24.28-0.96-36.42c-0.02-1.74,1.6-3.49,2.47-5.23
		c0.97,1.67,2.71,3.31,2.79,5.03c1.56,33.19,2.94,66.38,4.31,99.58C352.07,613.51,353.24,617.49,346.59,616.43z"/>
	<path d="M320.18,542.6c0-8.95-0.19-17.91,0.14-26.86c0.08-2.09,1.92-4.11,2.95-6.16c0.83,2.02,2.32,4.02,2.38,6.06
		c0.66,23.62,0.9,47.26,1.71,70.87c0.33,9.61,1.92,19.17,2.58,28.78c0.13,1.89-1.35,3.89-2.09,5.84c-1.08-1.69-2.97-3.31-3.12-5.09
		c-2.08-24.44-3.92-48.9-5.81-73.36C319.34,542.66,319.76,542.63,320.18,542.6z"/>
	<path d="M366.45,515.94c1.17,1.52,3.25,2.97,3.38,4.58c2.22,28.3,4.26,56.62,6.12,84.94c0.11,1.66-1.54,3.43-2.38,5.15
		c-0.96-0.22-1.92-0.45-2.88-0.68c-2.25-30.73-4.49-61.47-6.74-92.2C364.79,517.14,365.62,516.54,366.45,515.94z"/>
	<path d="M307.26,525.91c1.1,25.82,2.1,49.1,3.17,74.19c-1.88-1.59-4.57-2.76-4.63-4.07c-1.1-21.7-1.94-43.41-2.56-65.12
		C303.19,529.53,305.44,528.08,307.26,525.91z"/>
	<path d="M479.3,517.66c-6.15,32.55-12.29,65.11-18.41,97.52c-6.39,0.48-5.65-2.64-4.97-6.08c4.72-23.83,9.4-47.66,14-71.51
		c1.13-5.85,1.68-11.82,3.04-17.61c0.36-1.55,2.71-2.65,4.14-3.95C477.84,516.57,478.57,517.11,479.3,517.66z"/>
	<path d="M451.42,519.34c-3.52,17.61-7.44,34.98-10.32,52.52c-1.66,10.12-1.51,20.54-2.49,30.79c-0.16,1.68-1.97,3.21-3.01,4.81
		c-0.79-1.57-2.27-3.13-2.27-4.7c0.01-27.69,5.03-54.62,12.74-81.1C447.26,517.58,447.47,517.64,451.42,519.34z"/>
	<path d="M496.46,528.74c-4.93,27.94-9.76,55.59-14.78,83.21c-0.32,1.78-2.09,3.29-3.19,4.92c-0.71-2.04-2.3-4.21-2.01-6.09
		c4-25.7,8.21-51.37,12.52-77.02C489.5,530.86,488.39,525.42,496.46,528.74z"/>
	<path d="M498.26,600.69c2.45-19.2,4.56-36.2,6.86-53.16c0.19-1.42,1.63-2.67,2.49-4c0.98,1.4,2.97,2.94,2.8,4.19
		c-2.23,16.31-4.66,32.6-7.37,48.83C502.79,597.99,500.25,599.03,498.26,600.69z"/>
</g>
</svg>
