<?xml version="1.0" encoding="utf-8"?>
<!-- Generator: Adobe Illustrator 26.0.1, SVG Export Plug-In . SVG Version: 6.00 Build 0)  -->
<svg version="1.1" id="Layer_1" xmlns="http://www.w3.org/2000/svg" xmlns:xlink="http://www.w3.org/1999/xlink" x="0px" y="0px"
	 viewBox="0 0 680 680" style="enable-background:new 0 0 680 680;" xml:space="preserve">
<g>
	<path d="M289.75,523.15c0.91-11.16,1.77-21.67,2.58-32.18c0.04-0.54-0.29-1.27-0.69-1.66c-1.84-1.79-3.77-3.49-5.39-4.97
		c-12.4,15-28.29,21.42-47.98,18.32c-4.03-0.63-8.15-1.07-12.22-0.99c-2.81,0.06-5.59,1.25-8.41,1.76
		c-1.37,0.25-2.81,0.11-4.22,0.15c0.21-1.29,0.13-2.73,0.69-3.86c2.73-5.53,6.89-9.6,12.73-11.82c12.99-4.92,26.02-9.74,38.95-14.81
		c2.96-1.16,5.65-3.08,8.33-4.85c3.9-2.58,3.82-6.47,2.87-10.41c-2.86-11.81-2.36-23.73-1.6-35.72c0.54-8.48,2.35-16.59,4.92-24.65
		c1.49-4.66,2.25-9.47,1.41-14.58c-1.19-7.22-1.61-14.56-2.38-22.1c-0.82-0.29-1.81-0.62-2.79-0.98c-2.62-0.97-3.24-2.84-2.62-5.44
		c0.21-0.88,0.34-2.24-0.15-2.76c-10.87-11.55-21.83-23.01-32.78-34.48c-0.14-0.14-0.38-0.18-0.48-0.23
		c-1.91,2.98-3.8,5.95-5.7,8.91c-6.89,10.7-17.26,15.32-29.44,16.27c-5.89,0.46-11.85,0.12-17.77-0.06
		c-1.79-0.05-3.67-0.52-5.31-1.26c-5.27-2.35-10.54-4.74-15.63-7.46c-2.52-1.35-5.06-3.1-6.85-5.28
		c-10.03-12.22-18.78-25.34-24.42-40.18c-3.11-8.17-4.37-16.86-4.06-25.72c0.19-5.44-0.91-11.05,0.02-16.33
		c2.77-15.64,7.38-30.79,14.07-45.27c0.7-1.51,0.83-3.43,0.76-5.14c-0.53-11.7,1.88-22.62,9.2-31.92
		c5.12-6.5,10.53-12.87,16.51-18.56c13.39-12.74,29.92-17.44,48.07-17.12c6.13,0.11,12.26,0.53,18.62,0.82
		c2.18-4.99,4.39-10.28,10.29-12.29c0.98-0.33,2.31,0.36,3.47,0.58c0.02,0.28,0.04,0.56,0.06,0.85c-0.79,0.46-1.57,0.91-2.36,1.38
		c-1.01,0.6-2.12,1.08-3,1.82c-6.12,5.13-5.58,9.23,1.62,12.4c2.47,1.08,4.93,2.22,7.49,3.02c8.3,2.59,15.83,7.11,24.66,8.53
		c9.56,1.53,18.64,0.54,27.19-3.32c12.7-5.74,26.31-8.15,39.55-11.91c11.51-3.27,22.43-0.24,33,4.36
		c6.55,2.85,12.7,6.28,18.22,10.96c7.58,6.43,12.44,14.78,17.38,23.12c1.47,2.48,2.8,5.04,4.26,7.69c1.82-1.36,3.3-2.63,4.92-3.64
		c5.11-3.19,10.65-4.47,16.36-2.14c4.46,1.83,9.02,3.82,12.85,6.66c7.82,5.81,9.99,12.26,6.17,25.61
		c-2.26,7.91-10.6,13.65-19.19,14.08c-3.57,0.18-6.52-1.15-9.11-3.46c-0.85-0.75-1.66-1.54-3-2.78c0,4.68,0,8.68,0,12.24
		c3.51-1.22,7.1-2.91,10.89-3.68c7.15-1.45,12.02,2.19,13.7,9.36c2.01,8.61,1.02,16.9-2.33,24.65c3.4,0.43,6.75,0.46,9.87,1.32
		c14.68,4.06,13.77,16.86,7.68,24.84c-2.71,3.55-6.36,6.39-9.78,9.73c0.77,0.81,1.76,1.85,2.59,2.73c3.79-1.45,7.4-3.14,11.17-4.21
		c9.21-2.6,16.94,4.51,15.44,14.05c-1.27,8.04-5.24,14.75-10.5,20.79c-0.5,0.57-1.18,1.03-1.5,1.68c-0.34,0.68-0.67,1.69-0.4,2.26
		c0.24,0.49,1.34,0.74,2.07,0.77c3.74,0.17,7.69-0.5,11.2,0.46c10.47,2.86,14.01,14.34,7.64,23.35
		c-4.42,6.24-11.07,9.48-17.33,13.27c-0.99,0.6-2.02,1.15-2.84,1.61c0.48,2.95,0.9,5.56,1.38,8.56c1.51-0.74,2.93-1.42,4.32-2.13
		c4.98-2.52,9.66-2.42,14.16,1.25c4.73,3.86,6.92,8.82,5.32,14.62c-3.34,12.09-11,20.29-23.26,23.84c-3.83,1.11-7.76,1.97-11.41,3.5
		c-3.13,1.3-5.9,3.43-8.89,5.1c-0.76,0.42-1.73,0.46-2.6,0.68c-0.06-0.85-0.36-1.78-0.13-2.54c1.58-5.06,0.25-9.61-2.42-13.86
		c-1.6-2.54-3.49-4.9-5.71-7.97c-7.31,7.81-14.46,15.31-21.44,22.98c-2.94,3.23-4.1,3.25-5.91-0.71
		c-4.16-9.08-11.21-15.62-18.49-22.17c-4.61-4.14-8.76-5.25-14.14-2.43c-1.28,0.67-2.77,0.96-4.58,1.57
		c13.69,10.92,16.99,26.04,18.9,41.76c0.3,2.46,0.49,4.94,0.69,7.41c1.26,15.53-6.39,26.94-17.47,36.4
		c-4.78,4.08-10.51,7.06-15.88,10.58c0.73,7.14,1.49,14.63,2.28,22.39c2.89,0,5.83,0.46,8.56-0.09c7.77-1.55,15.45-0.72,23.21-0.08
		c10.24,0.85,19.9,3.77,29.23,7.82c10.33,4.48,18.84,10.69,21.67,22.65c1.7,7.19-1.65,12.78-7.97,15.25
		c-5.9,2.31-12,3.53-18.38,2.32c-0.59-0.11-1.5-0.19-1.82,0.14c-7.06,7.49-16.52,8.78-25.94,9.93c-12.2,1.48-24.44,2.63-36.67,3.94
		c-1.72,0.18-3.44,0.35-5.14,0.65c-7.48,1.32-14.7-1.16-22.08-1.5c-12.06-0.56-24.12-1.37-36.15-2.39
		c-9.98-0.84-19.97-1.83-29.86-3.34c-4.85-0.74-9.46-2.99-10.64-8.61c-0.57-2.72-0.76-5.57-0.74-8.35
		c0.11-12.72,6.85-21.42,17.35-27.57c1.66-0.97,3.9-1.09,5.9-1.32C284.89,523.31,287.58,523.28,289.75,523.15z M241.91,133.76
		c0.15,1.11,0.24,2.35,0.51,3.54c0.47,2.1,1.18,4.16,1.53,6.28c0.13,0.76-0.49,1.65-0.77,2.48c-0.68-0.55-1.77-0.98-1.98-1.68
		c-0.96-3.19-1.96-6.41-2.38-9.7c-0.27-2.09-1.13-2.85-2.95-2.95c-3.55-0.21-7.12-0.31-10.67-0.55
		c-19.29-1.31-36.64,3.06-51.59,16.13c-13.9,12.15-21.58,27.16-23.04,45.43c-0.28,3.51-0.49,6.56-2.35,10.05
		c-6.24,11.74-9.63,24.63-12.59,37.57c-0.17,0.75,0.09,1.6,0.14,2.41c0.07,1.11,0.28,2.24,0.15,3.32c-0.14,1.15-0.84,2.24-0.91,3.38
		c-0.25,4.41-0.36,8.84-0.49,13.25c-0.26,8.51,0.74,17.03,4.15,24.7c4.01,9.01,9.42,17.4,14.18,26.08
		c5.23,9.53,12.93,16.63,22.41,21.6c3.88,2.03,8.46,2.89,12.82,3.8c2.7,0.56,5.59,0.17,8.4,0.28c14.94,0.59,27.91-2.84,36.77-16.32
		c4.3-6.54,5.92-13.24,4.38-20.8c-1.9-9.34-5.57-17.84-11.5-25.39c-2.32-2.95-4.12-6.31-6.11-9.52
		c-4.58-7.38-10.2-13.69-17.09-19.13c-6.37-5.03-11.92-11.11-17.77-16.79c-0.37-0.36-0.46-1.58-0.15-1.91
		c0.35-0.39,1.47-0.54,1.94-0.26c0.99,0.59,1.8,1.5,2.64,2.32c4.53,4.44,8.96,9,13.6,13.32c3.92,3.64,8.72,6.51,12.02,10.61
		c5.51,6.87,10.15,14.44,15.13,21.74c6.77,9.92,11.03,20.68,11.19,32.87c0.02,1.16,0.51,2.62,1.3,3.42
		c4.22,4.28,8.6,8.4,12.94,12.57c2.56,2.46,5.3,4.76,7.71,7.36c4.7,5.05,9.2,10.3,13.9,15.35c0.6,0.64,2.13,1.07,2.91,0.78
		c10.66-4.06,21.27-8.26,31.88-12.45c0.45-0.18,0.8-0.6,1.15-0.87c-3.47-12.31-1.14-18.68,9.49-25.66c4.41-2.9,9.12-5.36,13.49-8.32
		c2.32-1.58,4.78-3.48,6.12-5.83c1.3-2.29,1.23-5.35,1.67-7.61c-9.12-1.11-18.32-1.92-27.41-3.42c-9.34-1.54-18.02-5.09-25.04-10.09
		c-2.01,0.15-3.23,0.24-4.45,0.33c0.15-1.31-0.03-2.8,0.54-3.89c0.89-1.68,2.2-3.17,3.53-4.56c0.46-0.48,1.5-0.39,2.28-0.57
		c0.03,0.79,0.41,1.88,0.04,2.31c-2.14,2.42-0.67,3.83,1.38,4.7c6.81,2.9,13.51,6.28,20.6,8.25c13.81,3.85,27.97,3.62,42.06,1.33
		c6.21-1.01,12.24-2.85,17.9-6.27c-0.8-0.76-1.35-1.27-1.88-1.79c-5.69-5.6-7.34-16.09-3.23-22.99c1.19-2,3.26-4.04,5.38-4.81
		c5.56-2.01,11.26-2.01,16.37,1.65c2.23,1.6,4.27,3.46,6.49,5.28c0.54-0.68,0.95-1.17,1.33-1.68c4-5.42,8.83-9.09,16.11-8.27
		c0.87,0.1,2.29-1.01,2.79-1.92c10.45-18.82,8.42-38.25,1.94-57.54c-2.27-6.75-5.94-13.18-9.81-19.22
		c-4.38-6.84-8.66-13.81-15.35-19c-7.65-5.94-16.2-9.74-25.24-12.77c-7.24-2.43-14.66-3.02-21.97-0.93
		c-13.34,3.8-27.03,6.27-39.86,12.01c-13.23,5.91-26.89,5.28-40.28-0.02C259.53,141.29,250.88,137.51,241.91,133.76z M440.59,368.54
		c0.34-0.27,0.67-0.54,1.01-0.81c1.5,0.52,3.05,0.95,4.51,1.57c3.93,1.69,7.74,1.55,11.54-0.4c3.7-1.89,4.7-4.2,2.17-7.5
		c-2.1-2.73-4.94-5.11-7.9-6.92c-3.27-2-7.07-3.12-10.56-4.78c-0.97-0.46-1.66-1.5-2.48-2.28c0.95-0.53,1.88-1.13,2.87-1.57
		c3.01-1.36,6.25-2.32,9.01-4.06c3.55-2.23,4.7-5.88,3.64-9.93c-1.01-3.85-3.66-6.27-7.53-7.25c-6.44-1.63-11.52,1.28-16.41,4.92
		c-1.46,1.09-3.15,1.88-4.74,2.81c-0.35-1.72-0.9-3.43-1.01-5.16c-0.32-4.8-4.47-9.56-8.64-9.37c-4.35,0.2-8.21,1.88-11.21,5.1
		c-4.41,4.75-3.64,9.73,1.87,12.95c1.02,0.6,2.16,1.05,3.08,1.77c1.1,0.86,2.04,1.94,3.04,2.93c-1.13,0.73-2.17,1.82-3.41,2.13
		c-13.14,3.37-26.25,6.85-39.49,9.81c-10.5,2.35-21.06,4.71-31.99,3.97c-4.13-0.28-7.43-1.93-10.19-4.92
		c-2.34-2.54-4.92-4.88-7.08-7.55c-1.91-2.36-3.58-2.01-5.76-0.51c-3.28,2.25-6.6,4.47-10.09,6.37c-4.16,2.26-8.54,4.13-12.79,6.23
		c-2.76,1.36-6.7,2.18-7.87,4.41c-1.21,2.31,0.18,6.06,0.59,9.15c1.26,9.47,1.5,18.98,4.69,28.28c6.66,19.38,4.55,38.48-4.12,56.92
		c-0.54,1.15-1.15,2.67-2.15,3.14c-4.17,1.96-2.89,5.55-2.13,8.25c2.1,7.43,5.94,14.1,11.49,19.51c2.13,2.08,2.81,4.15,2.6,6.83
		c-0.11,1.39-0.33,2.78-0.4,4.18c-0.43,8.62-1.15,17.24-1.08,25.85c0.02,2.8-0.71,3.44-2.96,3.61c-2.58,0.19-5.23,0.04-7.72,0.6
		c-2.96,0.67-6.29,1.3-8.57,3.09c-9.36,7.35-14.6,16.38-11.22,29.02c1.08,4.04,2.9,6.26,6.67,7.21c1.67,0.42,3.39,0.72,5.1,0.86
		c7.1,0.58,14.2,1.05,21.3,1.61c18.49,1.47,36.95,3.7,55.56,3.01c3.34-0.12,6.7-0.02,10.04,0.08c3.32,0.09,4.27-0.83,4.16-4.27
		c-0.13-4.23-2.1-7.55-4.85-10.64c-0.72-0.81-0.6-2.36-0.87-3.57c1.05,0.5,2.33,0.77,3.12,1.54c4.92,4.73,6.74,10.55,5.23,17.72
		c10.37-1.05,20.27-2.05,30.67-3.1c-0.79-2.64-1.22-4.41-1.85-6.1c-2-5.37-5.11-9.94-9.78-13.41c-0.59-0.44-0.67-1.55-0.99-2.36
		c0.87-0.05,1.89-0.4,2.59-0.08c1.14,0.53,2.15,1.42,3.09,2.3c5.36,5.04,8.34,11.4,9.93,18.72c5.97-0.55,11.58-1.67,16.73-4.65
		c5.14-2.97,6.59-6.91,4.06-12.42c-4.46-9.69-12.37-15.78-22.1-19.25c-10.37-3.7-21.37-4.29-32.26-4.08
		c-7.16,0.14-14.3,1.59-21.43,2.58c-4.86,0.68-6.32-0.19-6.17-5.07c0.28-8.94,0.86-17.87,1.51-26.78c0.08-1.05,1.22-2.59,2.19-2.92
		c2.84-0.95,5.9-1.21,8.77-2.09c13.03-4.01,25.28-9.54,34.71-19.8c8.07-8.78,12.81-18.86,11.03-31.21
		c-0.52-3.63-0.57-7.33-1.22-10.93c-2.28-12.57-5.43-24.73-16.48-32.99c-1.75-1.31-3.13-1.9-5.48-1.38
		c-6.19,1.37-12.5,2.26-18.78,3.19c-1.22,0.18-2.55-0.34-3.83-0.54c-0.03-0.43-0.06-0.86-0.09-1.29c2.09-0.5,4.17-1.04,6.28-1.5
		c7.56-1.66,15.25-2.89,22.68-5.02c13.67-3.92,27.2-8.35,40.77-12.62c2.38-0.75,3.71-0.71,3.46,2.45c-0.16,2,0.22,4.12,0.77,6.07
		c0.75,2.67,2.46,4.47,5.54,4.55c4.75,0.13,8.08-2.26,10.24-6.16c2.56-4.61,2.24-9.28-0.64-13.79
		C441.76,371.51,441.25,369.97,440.59,368.54z M366.6,492.77c-3.1,1.12-5.39,2.01-7.73,2.78c-2.35,0.77-4.75,1.41-7.12,2.11
		c-6.06,1.78-6.14,1.78-6.6,8.14c-0.52,7.16-0.88,14.33-1.34,21.95c2.12-0.29,3.37-0.43,4.61-0.64c4.13-0.72,8.27-2.17,12.38-2.07
		c10.97,0.26,21.94,0.88,32.87,1.92c14.59,1.39,35.04,16.58,33.92,31.88c6.92,1.16,13.52,0.23,19.65-3.17
		c3.87-2.14,4.92-5.55,4.08-9.91c-1.5-7.76-6.02-13.3-12.59-17.17c-11.4-6.72-23.8-10.31-36.99-11.55
		c-7.89-0.74-15.66-0.87-23.5,0.5c-2.68,0.47-5.59-0.01-8.34-0.45c-0.76-0.12-1.78-1.61-1.86-2.54
		C367.47,507.5,367.08,500.43,366.6,492.77z M448.39,373.69c-0.56,4.75-1.16,9.24-1.58,13.74c-0.08,0.81,0.49,1.75,0.91,2.54
		c4.24,7.96,12.14,13.99,12.22,23.89c6.07-1.93,11.74-4,17.55-5.52c11.2-2.93,17.97-10.27,21.32-20.98
		c1.43-4.57-0.24-8.46-3.88-11.55c-3.38-2.87-6.96-3.1-10.79-1.02c-1.42,0.77-2.9,1.44-4.3,2.26c-4.39,2.55-4.81,2.33-5.06-2.86
		c-0.01-0.22-0.02-0.43-0.03-0.65c-0.21-6.02-0.21-6.01-5.95-6.15c-1.08-0.02-2.16-0.17-3.23-0.14c-0.59,0.02-1.45,0.1-1.73,0.48
		C459.79,373.32,454.05,374.22,448.39,373.69z M410.36,291.23c2.66-4.49,4.38-9.34,7.71-12.47c3.33-3.14,4.4-6.23,4.23-10.35
		c-0.06-1.4-0.03-2.82,0.13-4.21c0.58-5.04-1.65-8.99-4.86-12.53c-2.99-3.29-4.62-3.72-8.5-1.59c-2.49,1.37-4.89,3.12-6.86,5.15
		c-2.56,2.63-4.26,2.9-7.06,0.5c-2.2-1.88-4.42-3.85-6.94-5.22c-5.25-2.87-12.8-1.1-15.05,3.22c-3.62,6.94-1.55,15.93,4.86,20.47
		c5.55,3.93,11.65,7.19,16.71,11.65C399.71,290.24,405.17,291.33,410.36,291.23z M322.04,340.44c2.79,3.01,5.55,6.02,8.35,9
		c2.24,2.38,4.96,3.88,8.29,3.68c5.58-0.33,11.14-1,16.72-1.18c5.72-0.19,9.38-2.56,11.56-8.05c2.61-6.58,4.49-13.08,2.02-20.04
		c-3.4-9.59-12.09-11.16-18.69-3.47c-0.49,0.57-0.93,1.19-1.33,1.82c-3.11,5.01-3.25,5.13-7,0.45c-4.16-5.18-11.87-5.38-17.28-3.7
		c-4.06,1.26-6.74,6.76-6.42,12.7c0.05,0.85,0.68,2.15,1.36,2.41C324.47,335.95,324.5,335.89,322.04,340.44z M428.52,326.44
		c3.4-1.75,5.99-3.67,7.44-7.69c2.89-8.02,6.36-15.82,7.28-24.39c0.9-8.37-4.51-14.87-13.68-16.73c-5.45-1.1-11.47,3.63-13.64,10.9
		c-0.51,1.72-0.63,3.59-0.69,5.4c-0.1,2.88-0.57,3.15-3.17,1.98c-5.26-2.36-10.71-2.14-16.1-0.54c-1.12,0.33-2.51,1.39-2.85,2.42
		c-1.11,3.43-2.13,6.97-2.52,10.54c-0.27,2.49,1.18,4.34,4.07,4.96c3.02,0.64,6.2,1.38,8.79,2.95c1.92,1.16,3.01,1.13,4.84,0.2
		c7.14-3.64,13.07-2.47,17.14,3.42C426.75,321.77,427.44,324.1,428.52,326.44z M452,322.75c9.51,10.04,8.67,15.25-4.19,25.48
		c1.58,0.87,3.03,1.72,4.52,2.49c5.18,2.68,9.72,5.97,11.88,11.74c0.21,0.56,1.32,1.25,1.89,1.15c3.76-0.66,7.66-1.08,11.17-2.45
		c3.36-1.31,6.32-3.65,9.43-5.59c3.9-2.44,7.24-5.42,9.15-9.74c2.95-6.68-0.24-13.78-7.37-15.47c-3.07-0.73-6.41-0.61-9.61-0.43
		c-2.99,0.17-4.88-0.72-6.13-3.5c-1.87-4.15-5.29-6.74-9.48-8.28C458.03,316.22,454.85,317.54,452,322.75z M388.85,314.12
		c-2.48-3.41-2.27-7.83-1.13-12.36c1.16-4.61,2.95-8.76,8.74-10.52c-3.81-2.64-6.95-4.69-9.95-6.94c-1.55-1.16-2.77-1.02-3.89,0.37
		c-2.48,3.09-5.08,6.12-7.3,9.4c-2.13,3.15-2.8,3.38-5.04,0.41c-3.02-4.01-7.22-6.19-11.91-7.27c-2.98-0.69-6-0.83-8.11,2.68
		c-2.89,4.83-3.58,9.94-2.83,15.25c0.63,4.53,5.45,7.5,9.95,6.77c4.15-0.67,7.84,0.6,10.45,3.81c2.27,2.79,4,6.02,6.1,9.28
		c2.34,0,5.19,0,7.27,0C383.75,321.39,386.1,318.04,388.85,314.12z M425.32,274.03c5.9-0.42,10.32,1.72,14.48,4.55
		c4.34,2.96,6.48,7.28,7.26,12.97c8.64-4.59,16.52-9.22,21.29-17.49c2.63-4.55,1.83-10.73-1.06-13.31c-4.81-4.3-12.37-5.64-16.82-3
		c-5.34,3.17-5.34,3.17-7.52-2.5c-2.68-6.96-11.3-9.01-16.3-3.81c-0.67,0.7-1.24,1.82-1.26,2.76
		C425.26,260.63,425.32,267.07,425.32,274.03z M474.5,320.84c5.58-5.58,9.73-12.44,10.81-20.92c0.81-6.38-4-11.21-10.25-9.71
		c-3.89,0.93-7.64,2.84-11.13,4.87c-3.11,1.81-2.97,2.12-4.21-1.16c-0.21-0.57-0.65-1.14-1.14-1.49c-1.55-1.13-2.97-1.37-5-0.44
		c-4.64,2.12-7.4,5-8.38,10.38c-0.99,5.44-3.51,10.61-5.36,15.89c-0.3,0.85-0.61,1.7-0.94,2.6c2.49,0,4.67-0.3,6.73,0.09
		c2,0.37,3.04-0.08,4.22-1.75c3.77-5.35,8.27-6.85,14.37-4.37C467.73,316.25,470.83,318.65,474.5,320.84z M218.03,498.09
		c0.23,0.43,0.47,0.86,0.7,1.28c6.76-1.94,13.47-0.94,20.16,0.19c8.25,1.39,16.33,0.8,24.21-1.96c4.24-1.48,8.34-3.33,11.32-6.93
		c-3.37-5.58-1.61-11.41-1.44-17.27c-2.34,1.07-4.33,2.11-6.41,2.91c-13.26,5.06-26.62,9.88-39.76,15.23
		C223.53,492.86,220.93,495.86,218.03,498.09z M425.35,186.31c1.3-0.85,2.33-1.6,3.42-2.24c6.84-4.03,15.64-0.81,16.98,6.47
		c1.1,6.03,0.88,12.05-2.63,17.49c-0.61,0.95-1.06,2-2.07,3.93c2.29,0,3.94,0.34,5.4-0.05c10.54-2.83,14.09-13.82,12.14-24.01
		c-0.53-2.8-2.68-5.66-4.85-7.67c-2.55-2.37-5.86-3.96-8.95-5.7c-8.14-4.6-15.51-1.97-22.7,2.45
		C423.17,180.06,424.18,182.96,425.35,186.31z M367.47,349.76c13.51-3.27,26.24-6.34,39.63-9.58c-3.79-2.9-8.79-4.1-8.32-9.12
		c0.37-3.91,2.01-7.7,3.14-11.75c-7.57-4.81-15.46-0.89-16.11,8.65c-0.02,0.32,0.03,0.66-0.05,0.97c-0.46,1.64-1.24,1.76-2.87,1.12
		c-2.15-0.85-4.54-1.29-6.85-1.44c-0.73-0.05-2.19,1.39-2.22,2.19C373.55,337.43,371.5,343.44,367.47,349.76z M447.01,254.36
		c4.98-8.79,5.61-18.02,3.22-27.48c-0.43-1.7-2.21-3.61-3.85-4.37c-5.76-2.66-16.67,2.06-19.07,8.01
		c-2.05,5.08-3.97,10.21-6.04,15.59c0.66,0.73,1.57,1.73,2.45,2.71C433.02,242.27,439.06,243.72,447.01,254.36z M423.31,417.02
		c3.03-3.48,5.33-6.47,7.99-9.09c3.61-3.54,7.57-6.72,11.24-10.19c1.67-1.58,3.21-3.45,1.53-6.27c-4.08,3.69-8.55,5.92-13.77,4.24
		c-5.76-1.86-6.66-7-6.77-12.61c-8.02,2.51-15.63,4.9-23.86,7.49C409.31,398.16,418.05,405.62,423.31,417.02z M314.7,326.16
		c7.72-13.94,18.12-15.76,30.59-5.12c1.82-2.03,3.65-4.06,5.68-6.32c-4.62-3.06-7.47-7.18-8.19-12.99
		c-7.1,4.36-13.77,8.3-20.27,12.48C318.17,317,315.69,321.16,314.7,326.16z M372.45,291.28c2.97-3.49,5.87-6.9,8.93-10.5
		c-1.15-0.8-2.34-1.62-2.75-1.91c-5.24,2.39-9.81,4.47-14.34,6.53C367.01,287.36,369.69,289.29,372.45,291.28z M283.26,406.02
		c-0.7,4.69-1.31,8.78-1.98,13.22C285.53,416.68,286.35,411.33,283.26,406.02z"/>
	<path d="M443.38,453.72c2.09-3,3.75-6.06,6.04-8.54c4.05-4.39,8.4-4.22,12.63,0c6.2,6.18,7.71,16.29,3.76,25.59
		c-1.76,4.15-4,8.12-3.53,12.92c0.13,1.3-0.47,2.73-2.37,1.9c-9.43-4.11-19.16-7.66-28.17-12.54c-6.85-3.71-7.82-9.01-4.73-15.01
		c2.57-4.99,8.24-6.8,14.91-4.76C442.5,453.46,443.1,453.64,443.38,453.72z M458.33,480.83c1.35-3.44,2.72-6.91,4.08-10.38
		c3-7.65,3.56-15.16-1.9-21.99c-3.36-4.2-6.06-4.14-9.52-0.14c-1.11,1.29-2.1,2.75-2.89,4.26c-2.62,4.98-2.58,5.01-8.03,3.64
		c-6.11-1.53-10.55,1.04-11.07,6.84c-0.15,1.66,0.64,3.99,1.84,5.06c2.46,2.18,5.32,4.12,8.33,5.41
		C445.56,476.26,452.15,478.51,458.33,480.83z"/>
	<path d="M470.28,499.22c4.54-1.9,8.61-2.47,12.82-0.25c6.59,3.47,8.3,13.25,3.08,18.77c-1.03,1.08-2.22,2.1-3.51,2.83
		c-7.89,4.42-15.71,8.98-24.62,11.19c-2.63,0.65-4.9,0.65-5.69-2.36c-2.08-7.9-4.24-15.81-5.82-23.82c-0.65-3.27-0.5-6.96,0.32-10.2
		c1.55-6.11,7.62-8.59,13.33-5.92C464.58,491.5,468.33,494.29,470.28,499.22z M455.95,529.36c7.73-2.72,15.36-4.98,22.63-8.09
		c7.26-3.1,10.2-9.17,8.52-15.51c-1.02-3.87-4.15-5.92-8-5.08c-2.93,0.64-5.86,1.35-8.73,2.24c-1.68,0.52-2.7,0.38-3.1-1.5
		c-0.95-4.48-4.27-6.81-8.03-8.67c-4.56-2.26-8.57-0.45-9.48,4.56c-0.45,2.48-0.52,5.23,0.03,7.67
		C451.56,512.84,453.7,520.61,455.95,529.36z"/>
	<path d="M145.53,249c0.07-1.3,0.05-2.82,0.26-4.31c1.39-9.83,0.76-8.64,10.34-11.68c1.63-0.52,3.22-1.4,4.61-2.42
		c1.98-1.46,3.89-1.75,5.97-0.42c0.72,0.46,1.47,0.95,2.04,1.58c7.74,8.45,17.58,14.18,26.84,20.66c5.21,3.64,9.28,8.31,12.7,13.59
		c4.16,6.42,7.93,13.13,12.5,19.24c3.33,4.45,5.62,9.15,6.61,14.5c0.66,3.57,1.3,7.26,1.06,10.84c-0.16,2.33-1.82,4.6-2.97,6.82
		c-3.98,7.64-10.98,8.6-18.59,8.45c-6.56-0.13-13.12,0.1-19.68,0.08c-0.93,0-1.96-0.32-2.77-0.78c-4.83-2.74-9.72-5.39-14.36-8.44
		c-2.57-1.69-5.29-3.71-6.89-6.24c-5.7-9-12.41-17.41-13.09-28.97c-0.54-9.19-2.79-18.29-4.22-27.43
		C145.64,252.46,145.65,250.83,145.53,249z M202.1,263.78c-0.44,0.31-0.88,0.62-1.32,0.93c4.82,7.96,9.57,15.97,14.52,23.85
		c0.64,1.02,2.34,1.37,3.55,2.03c0.21-0.28,0.41-0.55,0.62-0.83C213.43,281.27,209.22,271.54,202.1,263.78z M150.68,256.79
		c-0.29,0.05-0.59,0.11-0.88,0.16c0.68,4.81,1.35,9.61,2.08,14.77C155.55,269.31,154.7,262.87,150.68,256.79z M163.74,271.85
		c1.02,2.61,1.74,4.76,2.73,6.77c0.28,0.56,1.4,0.71,2.13,1.05c0.3-0.82,0.99-1.72,0.84-2.46
		C168.92,274.56,167.5,272.58,163.74,271.85z M178.44,270.86c0-2.97-1.29-4.39-4.11-5.24C174.38,268.79,175.31,270.51,178.44,270.86
		z"/>
	<path d="M287.08,176.81c0.12,1.41,0.51,2.87,0.3,4.24c-1.25,8.07-3.89,15.66-8.28,22.59c-0.23,0.36-0.45,0.86-0.79,1
		c-0.63,0.25-1.58,0.6-1.96,0.32c-0.41-0.3-0.68-1.5-0.41-1.93c4.88-7.7,7.23-16.3,9.19-25.05c0.1-0.45,0.56-0.81,0.86-1.22
		C286.35,176.77,286.72,176.79,287.08,176.81z"/>
</g>
</svg>
