<?xml version="1.0" encoding="utf-8"?>
<!-- Generator: Adobe Illustrator 26.0.1, SVG Export Plug-In . SVG Version: 6.00 Build 0)  -->
<svg version="1.1" id="Layer_1" xmlns="http://www.w3.org/2000/svg" xmlns:xlink="http://www.w3.org/1999/xlink" x="0px" y="0px"
	 viewBox="0 0 680 680" style="enable-background:new 0 0 680 680;" xml:space="preserve">
<g>
	<path d="M336.1,142.1c-9.08-5.83-15.46-10.49-22.34-14.21c-15.44-8.35-31.45-15.68-46.66-24.42c-24.54-14.1-51.57-17.6-78.93-20.29
		c-6.43-0.63-12.83-1.76-19.27-2.22c-8.04-0.57-13.13-4.44-15.12-12.24c-2.02-7.92,1-14.98,7.34-18.47
		c8.15-4.49,17.37-8.36,26.49-9.47c13.09-1.59,26.57-1.21,39.79-0.28c15.98,1.12,29.08,9.79,41.09,19.56
		c10.03,8.16,18.68,18.04,28.84,26.02c13,10.23,27.05,19.12,40.33,29.02c5.31,3.96,9.47,9.44,14.72,13.5
		c3.55,2.75,8.97,6.86,12.03,5.83c15.31-5.14,30.44-3.01,45.78-1.45c10.33,1.05,11.86-0.59,8.51-10.63
		c-1.95-5.85-5.51-11.72-9.85-16.09c-6.47-6.52-14.01-12.07-21.56-17.39c-11.33-7.98-17.43-23.37-13.96-37.03
		c2.58-10.15,9.03-14.42,18.48-10.78c23.21,8.94,52.88,40.14,52.18,70.52c-0.17,7.13-2.78,14.39-5.27,21.22
		c-2.53,6.92-1.8,11.53,5.05,15.38c5.25,2.95,9.71,7.3,14.55,10.98c11.76,8.93,14.8,21.42,14.51,35.28
		c-0.22,10.49,0.33,21.08-0.93,31.45c-2.75,22.66,6.97,41.75,17.23,60.22c15.13,27.24,6.7,81.57-25.09,101.83
		c-26.21,16.7-56.43,18.87-82.33,1.36c-13.46-9.1-25.24-20.67-37.91-30.95c-4.83-3.92-9.32-10.31-16.81-5.97
		c-7.34,4.25-8.1,11.33-5.63,18.65c3.51,10.43,6.59,21.16,11.54,30.91c8.8,17.31,14.55,34.59,7.98,54.02
		c-1.91,5.65,1.05,8.47,6.49,9.86c8.59,2.2,17.08,4.77,25.58,7.31c8.26,2.48,15.44,0.52,21-5.78
		c10.96-12.42,24.83-17.08,41.01-18.06c35.33-2.13,70.27,1.18,105.05,6.58c10.07,1.57,20.2,4.99,23.83,16.39
		c3.56,11.16-0.11,20.87-8.21,28.57c-7.52,7.14-15.59,13.78-23.95,19.92c-5.9,4.33-9.07,9.25-10.06,16.65
		c-3.24,24.3-18.31,36.66-39.78,33.36c-1.81-0.28-4.44-0.1-5.27-1.21c-7.62-10.14-15.7-5.37-24.62-1.95
		c-22.94,8.79-46.1,17.01-69.37,24.89c-6.61,2.24-13.99,3.91-20.82,3.39c-11.49-0.87-18.77,4.67-25.06,12.76
		c-7.28,9.36-16.12,14.71-28.53,13.89c-7.43-0.49-12.52-3.5-14.74-10.33c-2.71-8.37-8.68-11.74-16.74-11.95
		c-12.66-0.32-25.41-1.09-37.95,0.12c-5.36,0.52-11.79,4.44-15.06,8.81c-5.58,7.45-12.66,11.5-21,11.28
		c-10.84-0.29-22-1.59-32.26-4.87c-5.31-1.7-8.87-8.69-13.42-13.08c-2.88-2.78-5.8-6.71-9.28-7.47
		c-14.84-3.22-29.95-5.19-44.85-8.16c-7.25-1.45-11.85-6.29-12.81-13.98c-1.24-9.89,0.62-12.45,10.7-13.86
		c8.5-1.19,17.05-2.04,25.59-3c5.94-0.67,8.78-3.91,10.59-9.75c4.79-15.41,14.73-26.39,29.43-33.8c17.86-9,35.06-19.3,52.62-28.9
		c5.31-2.9,5.33-6.65,3.19-11.62c-3.4-7.9-7.07-15.79-9.34-24.04c-4.01-14.56-1.27-28.68,4.64-42.37c1.08-2.51,0.89-5.58,1.28-8.39
		c-3.1,0.51-6.3,0.72-9.29,1.64c-2.61,0.8-4.86,2.93-7.48,3.52c-3.52,0.78-8.58,2.27-10.64,0.59c-8.58-6.99-16.54-14.63-27.16-18.71
		c-0.79-0.3-1.1-4.77-0.1-6.32c7.01-10.88,4.01-22.76,3.74-34.31c-0.03-1.46-2.77-3.43-4.64-4.09c-1.49-0.53-3.54,0.64-5.37,0.95
		c-16.76,2.84-21.94-1.22-23.37-17.94c-0.22-2.63-1.15-5.34-2.35-7.71c-5.33-10.52-4.16-16.28,6.07-22.41
		c5.18-3.1,7-5.63,5.57-12.28c-0.93-4.33,2.31-13.13,5.34-13.97c5.81-1.62,12.84,0.8,19.27,2.01c1.52,0.29,3.08,2.19,3.98,3.73
		c12.12,20.59,33.16,29.72,52.61,40.77c14.46,8.22,29.32,15.73,43.98,23.6c5.96,3.2,10.48,2.44,13.5-4.17
		c0.98-2.16,2.61-4.14,4.32-5.83c9.67-9.59,9.83-11.96,2.15-23.47c-9.16-13.72-20.16-26-24.96-42.74
		c-7.98-27.77-2.04-52.55,15.59-73.51c11.27-13.4,26.81-23.24,40.64-34.42C324.15,148.93,328.86,146.61,336.1,142.1z M425.23,394.24
		c11.89,1.11,23.52-2.52,33.55-10.33c16.5-12.85,26.94-29.64,29.36-50.59c1.91-16.5,1.35-31.88-7.11-48.06
		c-10.09-19.29-14.94-41.36-21.5-62.41c-0.91-2.92,0.43-7.59,2.41-10.17c7.17-9.36,6.31-19.5,2.01-28.79
		c-17.89-38.64-59.45-49.82-93.16-44.19c-32.06,5.35-57.37,23.68-80.79,45.65c-25.78,24.2-27.02,63.05-9.47,91.45
		c4.68,7.57,9.24,15.29,14.75,22.24c6.79,8.57,7.84,17.03,2.18,26.28c-3.36,5.5-1.2,8.52,3.63,12.04
		c9.73,7.08,19.65,10.62,31.97,8.32c4.11-0.77,9.86,1.57,13.37,4.37c9.58,7.65,18.14,16.56,27.51,24.5
		C388.39,386.8,404.5,395.28,425.23,394.24z M184.86,547.53c14.6-1.63,14.73-1.54,20.67-10.02c3.7-5.29,6.91-7.98,11.65-0.87
		c1.02,1.54,4.55,2.6,6.49,2.13c12.21-2.97,24.42-6.06,36.37-9.9c5.12-1.64,5.53-5.75,0.69-8.82c-5.72-3.63-11.74-6.77-17.63-10.11
		c-3.9-2.21-5.02-5.22-0.63-7.51c16.64-8.69,33.2-17.7,52.76-18.1c7.76-0.16,11.46,3.42,11.66,10.9c0.14,5.09,0.03,10.18,0.03,17.31
		c24.05-10.12,46.98-17.23,66.59-33.52c-9.56-4.15-19.03-7.38-28.75-8.62c-11.98-1.53-13.46-2.63-11.18-14.24
		c3.24-16.5,1.33-32.24-5.49-47.78c-5.88-13.41-10.84-27.28-15.39-41.21c-4.51-13.8-19.7-24.25-34.1-22.54
		c-1.7,0.2-3.67-0.36-5.28-1.1c-22.31-10.3-45.24-19.5-66.63-31.45c-15.61-8.72-31.12-18.72-40.88-35.15
		c-1.62-2.73-7.73-2.78-11.77-4.08c-0.28,3.56-1.62,7.44-0.65,10.62c3.24,10.55,3.1,11.35-7.35,13.93
		c-9.72,2.4-11.94,7.03-7.86,16.14c1.48,3.29,4.04,6.84,3.73,10.05c-0.88,9.2,2.58,11.07,11.19,9.94c15.83-2.08,30.2,2.86,43.7,11.1
		c5.03,3.07,10.64,6.31,16.3,7.06c26.56,3.52,53.24,6.15,79.86,9.29c2.38,0.28,4.6,2,6.89,3.06c-0.24,0.88-0.48,1.76-0.73,2.64
		c-3.9,0-7.83,0.34-11.68-0.05c-26.35-2.7-52.73-5.15-78.98-8.65c-6.62-0.88-12.72-5.41-19.15-8.06c-3.06-1.26-8.28-3.71-9.13-2.71
		c-2.43,2.84-4.84,7.52-4.15,10.83c1.37,6.53,1.37,11.97-2.94,17.36c-1.33,1.66-1.38,4.34-2.38,7.8c5.19,0,9.33-0.81,12.91,0.25
		c3.14,0.93,7.05,3.39,8.19,6.17c3.53,8.55,4.86,8.98,13.54,4.98c5.69-2.63,12.13-4.77,18.3-4.98c20.63-0.7,41.3-0.61,61.95-0.44
		c5.98,0.05,12.7-0.81,18.45,6.63c-4.42,0.63-7.25,1.34-10.09,1.4c-18.84,0.36-37.68,0.31-56.5,1.07
		c-3.58,0.14-9.02,2.39-10.23,5.15c-10.08,22.94-14.88,46.02,3.69,67.49c5.89,6.81,3.74,11.73-3.15,15.6
		c-20.36,11.43-40.7,22.88-61.24,33.99c-10.11,5.46-18.82,11.79-21.67,23.73c-1.45,6.1,0.22,9.79,7.09,9.57
		c10.86-0.35,21.11-1.67,25.39-14.15c0.86-2.51,3.36-4.45,6.66-8.62C184.36,538.14,184.59,542.53,184.86,547.53z M349.14,592.38
		c12.55-1.87,25.42-1.59,36.52-5.88c26.08-10.08,51.38-22.18,76.79-33.92c3.12-1.44,6.39-5.32,7.16-8.64
		c4.72-20.16,23.99-31.4,44.23-25.82c3.97,1.09,9.51,0.73,12.92-1.31c7.08-4.23,14.03-9.31,19.45-15.44
		c3.59-4.06,6.46-10.74,6-15.92c-0.69-7.76-8.76-8.8-15.17-9.21c-26.14-1.68-52.36-2.36-78.45-4.55
		c-17.53-1.47-31.91,4.03-46.64,13.09c-30.37,18.68-60.53,38.13-94.78,49.45c-16.6,5.49-33.22,11.11-50.16,15.36
		c-32.16,8.07-64.5,15.44-96.88,22.6c-15.35,3.39-30.95,5.62-46.44,8.37c7.7,3.21,15.38,4.98,23.09,5.17
		c4.77,0.12,10.6-0.84,14.23-3.59c18.9-14.33,38.06-14.77,57.61-1.83c5.83,3.86,13.6,5.57,20.71,6.51
		c8.19,1.08,16.69-0.36,24.98,0.31c16.85,1.36,31.35-1.98,45.51-12.71C328.76,560.05,343.76,566.99,349.14,592.38z M554.8,471.87
		c0.33-1.09,0.65-2.19,0.98-3.28c-1.83-1.35-3.47-3.34-5.52-3.95c-9.12-2.7-18.28-6.65-27.58-7.14
		c-27.72-1.44-55.51-1.55-83.27-2.01c-15.41-0.25-28.56,5.2-40.75,14.79c-12.07,9.49-24.65,18.74-38.19,25.85
		c-38.01,19.95-78.38,34.1-120.03,44.35c-30.43,7.49-60.93,14.89-91.68,20.89c-14.1,2.75-28.9,1.76-43.32,3.1
		c-2.71,0.25-5.15,3.49-7.71,5.35c3.09,1.29,6.3,3.9,9.27,3.65c14.09-1.19,28.1-3.27,42.16-4.83
		c55.65-6.2,108.98-22.16,161.88-39.43c32.35-10.56,62.07-27.05,89.88-46.67c14.38-10.14,29.71-18.43,47.29-19.24
		c32.41-1.49,64.8-0.44,96.55,7.73C547.97,471.85,551.45,471.61,554.8,471.87z M301.8,504.58c-1.48-11.59-3.96-14.48-13.88-13.71
		c-5.11,0.4-10.5,1.34-15.06,3.51c-5.73,2.73-10.74,6.97-16.07,10.56c4.01,4.23,7.8,8.68,12.06,12.63
		c8.34,7.71,16.95,3.36,24.43-1.12C297.12,514.16,299.03,508.64,301.8,504.58z M315.1,579.47c3.52,0,5.04,0,6.56,0
		c12.29,0.03,14.8,3.32,11.09,15.2c-1.5,4.79-3.69,9.36-6.14,15.45c9.77-4.33,12.25-11.45,14.01-19.4
		c1.44-6.51,1.87-12.33-5.13-15.79C328.43,571.46,322.12,572.64,315.1,579.47z M209.27,581.65c-0.91,9.47-1.7,17.8-2.55,26.65
		C220.79,600.51,221.97,590.26,209.27,581.65z M502.66,560.17c12.35-9.18,15.45-23.02,8.03-32.98
		C508.14,537.66,505.33,549.18,502.66,560.17z"/>
	<path d="M434.97,358.03c-7.14-3.79-14.83-6.87-21.17-11.71c-2.7-2.06-4.37-8.37-3.28-11.7c1.12-3.44,5.78-6.9,9.58-8.03
		c7.42-2.22,25,7.04,28.57,13.88C452.83,348.46,446.52,356.26,434.97,358.03z"/>
	<path d="M408.86,247.55c-3.76,6.09-6.54,12.11-10.88,16.62c-1.18,1.23-8.11-1.12-10.47-3.63c-1.67-1.78-1.46-7.9,0.33-9.83
		C392.86,245.28,399.6,243.47,408.86,247.55z"/>
	<path d="M436.15,200.74c-4.03,0.75-6.65,1.82-9.12,1.56c-4.21-0.45-8.46-1.38-12.42-2.85c-2.12-0.79-3.67-3.13-5.48-4.76
		c1.73-1.37,3.29-3.53,5.23-3.96C423.15,188.75,428.06,190.86,436.15,200.74z"/>
	<path d="M434.85,261.05c0.2,7.69-7.16,16.15-12.62,15.53c-2.01-0.23-3.71-3.07-5.56-4.73c4.54-4.79,9.01-9.66,13.82-14.16
		C430.75,257.45,433.94,260.34,434.85,261.05z"/>
	<path d="M155.6,313.54c2.95,2.79,6.69,6.33,10.44,9.87c-0.69,1.02-1.37,2.05-2.06,3.07c-5.52-3.06-11.46-5.6-16.37-9.44
		c-1.96-1.54-3.21-6.92-2.02-8.88c2.09-3.44,6.05-6.07,9.76-8.04c1.27-0.67,4.12,1.63,6.25,2.57
		C159.77,306.01,157.93,309.34,155.6,313.54z"/>
	<path d="M380.26,574.27c-16.95,0.91-22.4-12.43-24.53-32.48c-0.97-9.11,19.25-26.37,30.32-26.48c16.2-0.15,28.66,11.38,28.45,26.34
		C414.25,559.87,399,574.39,380.26,574.27z M397.9,527.47c-0.72,11.23-1.48,23.04-2.2,34.11C405.6,552.07,406.51,538.1,397.9,527.47
		z"/>
</g>
</svg>
