<?xml version="1.0" encoding="utf-8"?>
<!-- Generator: Adobe Illustrator 26.0.1, SVG Export Plug-In . SVG Version: 6.00 Build 0)  -->
<svg version="1.1" id="Layer_1" xmlns="http://www.w3.org/2000/svg" xmlns:xlink="http://www.w3.org/1999/xlink" x="0px" y="0px"
	 viewBox="0 0 680 680" style="enable-background:new 0 0 680 680;" xml:space="preserve">
<g>
	<path d="M296.97,413.31c5.3-0.7,9.41-0.11,10.67,4.37c1.55,5.51-3.03,7.88-7.44,10.86c4.08,3.82,7.95,7.52,11.94,11.08
		c0.58,0.52,1.75,0.44,2.66,0.51c17.79,1.33,34.84-1.77,51.3-8.5c1.88-0.77,2.68-1.69,2.6-3.81c-0.09-2.32,0.24-4.7,0.65-7
		c1.77-10.15,12.25-18.13,23.3-11.01c13.1-35.94,28.42-71.14,35.17-109.35c-9.17-3.03-16.03-8.95-21.58-16.55
		c-4.39-6.02-6.84-12.77-7.29-20.2c-0.1-1.62,0.07-3.28,0.37-4.88c0.71-3.8,2.67-4.9,6.14-3.29c7.39,3.43,13.54,8.48,18.13,15.2
		c2.51,3.68,4.48,7.74,6.85,11.91c0.48-3.6,1.01-7.12,1.39-10.66c0.71-6.61,1.41-13.23,1.91-19.86c0.08-1-0.7-2.62-1.55-3.06
		c-11.8-6.18-17.19-16.15-17.63-29.15c-0.03-0.88-0.14-1.75-0.26-3.22c-2.45,2.79-4.45,5.21-6.61,7.47
		c-8.93,9.36-19.29,15.81-32.75,15.69c-5.42-0.05-10.48-1.59-15.19-4.26c-3.91-2.21-6.59-5.36-7.89-9.75
		c-0.3-1.01-1.49-2.24-2.49-2.48c-12.31-3.05-19.61-15.31-12.77-29.65c5.09-10.68,14.84-15.99,25.33-20.13
		c0.76-0.3,1.56-0.49,2.34-0.75c0.19-0.06,0.36-0.18,1.11-0.56c-1.48-0.54-2.56-0.96-3.65-1.33c-7.11-2.41-13.92-5.34-19.64-10.43
		c-10.65-9.47-14.18-23.85-8.61-35.24c2.16-4.41,5.37-7.63,9.86-9.68c0.9-0.41,1.98-1.53,2.08-2.42c0.61-5.55,4.02-8.85,8.69-11.02
		c10.64-4.95,21.16-3.45,30.87,2.18c5.91,3.43,10.95,8.36,16.04,12.36c-0.16-1.62-0.48-4.15-0.64-6.69
		c-0.52-8.36,0.87-16.32,5.23-23.59c6.45-10.77,17.54-13.96,27.77-8.74c4.72-2.26,8.7-5.01,13.08-6.08
		c9.87-2.42,18.11,1.28,23.92,9.31c9.1,12.59,8.89,26.08,2.51,39.8c-0.73,1.56-1.49,3.11-2.2,4.61c4.85-1.48,9.57-3.29,14.45-4.33
		c9.44-2,18.76-1.41,27.56,2.95c4.87,2.41,8.45,6.03,9.77,11.55c0.7,2.93,0.48,5.62-1.12,8.26c-0.43,0.7-0.42,2.3,0.08,2.83
		c6.98,7.39,4.62,20.71-2.48,27.97c-9.76,9.97-22.1,12.6-35.43,12.27c-2.43-0.06-4.86-0.4-8.07-0.69c1.92,1.59,3.32,2.68,4.63,3.87
		c6.86,6.23,11.73,13.59,12.92,23.02c1.95,15.49-11.24,27.4-26.65,24.05c-0.39-0.08-0.78-0.15-1.19-0.23
		c-5.56,11.12-14.66,15.48-26.86,14.08c-0.99,10.07-1.96,19.91-2.93,29.74c2.66-3.2,5.15-6.6,8.05-9.61
		c7.18-7.47,15.98-11.95,26.25-13.5c0.51-0.08,1.02-0.14,1.53-0.18c7.29-0.48,9.77,2.21,8.13,9.27
		c-3.01,13.01-11.73,21.49-22.85,27.83c-7.21,4.11-15.11,6.15-23.78,6.89c-0.74,3.7-1.49,7.47-2.26,11.24
		c-4.69,22.89-11.92,45-20.31,66.77c-4.66,12.11-8.87,24.4-13.27,36.61c-0.34,0.94-0.5,1.94-0.63,2.44
		c3.39,2.34,6.93,4.01,9.44,6.67c6.3,6.68,6.01,18.84-0.29,26.96c-3.68,4.74-8.31,8.16-14.44,9.08c-2.25,0.34-3.07,1.48-3.35,3.85
		c-1.04,9.06,0.54,17.51,5.02,25.44c0.6,1.07,1.4,2.16,1.53,3.32c0.13,1.12-0.47,2.32-0.75,3.48c-1.18-0.33-2.95-0.28-3.43-1.04
		c-2.01-3.18-3.95-6.47-5.33-9.96c-2.93-7.36-3.4-15.12-2.88-22.96c0.04-0.66,0.01-1.33,0.01-2.69
		c-13.1,11.6-28.16,17.58-44.89,19.91c1.24,4.78,2.7,9.44,3.65,14.21c4.56,22.73-1.74,41.8-19.38,57.05
		c-0.84,0.73-1.38,2.42-1.25,3.56c0.99,8.63,2.36,17.22,3.21,25.86c0.27,2.74,1.14,3.31,3.67,3.39
		c16.62,0.55,32.79,3.32,47.61,11.32c6.97,3.76,12.85,8.84,15.29,16.84c2.34,7.66-0.23,13.11-7.84,15.31
		c-4.86,1.4-9.99,2.2-15.05,2.54c-6.94,0.46-13.92,0.19-20.88,0.34c-1.14,0.02-2.63,0.22-3.34,0.94c-3.11,3.17-7.01,4.05-11.15,4.4
		c-21.98,1.86-43.99,1.83-65.99,0.51c-14.08-0.84-28.14-2.21-42.18-3.68c-3.37-0.35-6.73-1.75-9.86-3.19
		c-6.32-2.9-8.46-9.01-5.68-15.4c2.8-6.43,8.1-10.15,14.27-12.79c7.4-3.16,15.19-4.78,23.18-5.5c1.32-0.12,2.63-0.32,4.13-0.5
		c0.66-6.35,1.3-12.63,1.96-18.91c0.46-4.48,0.87-8.96,1.42-13.43c0.22-1.81-0.4-2.64-2.04-3.48c-4.23-2.17-8.29-4.68-12.11-6.89
		c-5.04,4.45-10.2,9.68-16.04,14c-8.45,6.25-18.05,10.07-28.73,10.3c-2.8,0.06-5.74-0.42-8.4-1.32c-4.76-1.61-6.05-5.24-3.83-9.79
		c2.88-5.93,7.79-9.95,13.16-13.44c8.53-5.54,18.03-8.64,27.96-10.52c0.9-0.17,1.8-0.38,2.69-0.6c0.26-0.07,0.5-0.24,0.98-0.49
		c-0.6-0.69-1.09-1.3-1.63-1.86c-5.02-5.12-5.37-11.25-0.73-16.74c1.34-1.59,1.66-2.77,0.86-4.83c-2.56-6.63-1.51-13.52,0.58-19.88
		c2.76-8.4,6.26-16.63,10.25-24.53c4.99-9.88,10.08-19.65,12.91-30.41c0.18-0.68,0.28-1.37,0.47-2.31
		c-4.93-0.46-10.56-0.52-10.88-6.93c-0.36-7.3,6.08-7.89,11.53-9.57c-2.46-5.35-6.06-9.34-10.88-12.24
		c-9.01-5.43-19.03-7.86-29.25-9.65c-1.2-0.21-2.4-0.41-2.87-0.48c-3.66,4.61-6.59,9.38-10.54,13.05
		c-8.49,7.9-18.81,10.23-29.96,7.15c-27.49-7.61-43.79-25.99-49.95-53.49c-3.97-17.71-1.05-35,4.45-51.97
		c1.66-5.14,3.77-10.13,5.73-15.34c-1.08-0.79-2.26-1.65-3.73-2.72c0.78-0.47,1.26-1,1.55-0.91c3.38,1.04,4.26-1.14,5.38-3.65
		c5.1-11.37,9.8-22.98,15.71-33.92c11.97-22.16,30.09-36.61,55.32-41.22c1.1-0.2,2.23-0.39,3.35-0.41c2.12-0.05,3.56-0.94,4.77-2.75
		c1.08-1.62,2.67-2.91,4.04-4.34c0.35,0.25,0.7,0.5,1.04,0.76c-0.7,1.59-1.4,3.19-2.22,5.05c0.73,0.08,1.19,0.19,1.64,0.16
		c11.67-0.65,23.09,0.33,34,4.97c0.61,0.26,1.63-0.25,2.4-0.55c3.7-1.39,7.32-3.05,11.1-4.16c1.56-0.46,3.45,0.24,5.1,1.04
		c-4.47,1.72-8.94,3.45-14.19,5.47c4.17,2.32,7.49,4.06,10.7,5.98c4.12,2.47,8.09,5.2,12.26,7.58c1.1,0.63,2.75,0.67,4.08,0.46
		c2.39-0.37,4.71-1.46,7.09-1.6c1.6-0.09,3.26,0.95,4.9,1.48c-0.06,0.3-0.11,0.59-0.17,0.89c-3.38,0.61-6.75,1.22-10.13,1.83
		c6.22,5.45,13.3,8.28,20.72,9.57c8.42,1.46,17.02,2.28,25.57,2.55c13.7,0.44,27.07,1.8,39.87,7.27
		c22.95,9.81,46.89,37.96,42.04,71.69c-2.78,19.35-13.26,34.02-29.14,45.01c-11.26,7.8-23.96,11.78-37.37,13.75
		c-9.6,1.42-19.45,2.01-28.12,6.9c-4.14,2.34-8.06,5.22-11.65,8.35C300.22,407.41,299.06,410.18,296.97,413.31z M136.92,300.83
		c0.06,0.26,0.13,0.52,0.19,0.79c-0.68,0.21-1.42,0.71-2.02,0.57c-2-0.47-2.7,0.6-3.37,2.19c-7.49,17.68-11.88,36.03-10.08,55.27
		c2.41,25.8,15.6,44.05,40.04,53.59c5.9,2.3,12.09,3.31,18.36,1.91c11.81-2.63,19.6-11.34,21.48-23.98
		c2.25-15.15-0.47-29.68-6.95-43.31c-5.12-10.78-11.35-21.03-17.07-31.52c-0.76-1.4-1.46-2.84-2.19-4.26
		c0.29-0.12,0.59-0.24,0.88-0.36c22.7,23.13,35.43,50.11,31.75,83.53c3.18,0.62,6.48,0.94,9.57,1.92c7.48,2.37,15.05,4.6,22.22,7.72
		c8.15,3.55,13.31,10.28,16.41,19.16c11.13-2.4,22.1-4.74,33.05-7.2c0.62-0.14,1.3-1.16,1.47-1.88c1.71-7.19,5.71-12.83,11.57-17.19
		c2.5-1.86,5.13-3.54,8.07-5.55c-1.18,0-1.96-0.06-2.72,0.01c-10.65,0.9-21.1-0.42-31.21-3.67c-15.89-5.11-29.45-12.78-31.54-31.92
		c-1.64,0.2-3.29,0.41-5.53,0.69c0.44-1.31,0.52-2.23,0.99-2.86c1.88-2.53,6.45-4.06,9.4-2.92c1.37,0.53,2.43,1.85,3.63,2.82
		c-1.27,0.59-2.53,1.17-3.8,1.76c-0.18,0.08-0.34,0.2-0.92,0.55c0.19,1.49,0.16,3.24,0.65,4.82c1.95,6.21,6.15,10.74,11.28,14.53
		c8.39,6.2,18.06,8.92,28.18,10.45c15.16,2.29,30.11,1.76,44.17-4.89c9.65-4.56,17.96-10.81,20.24-22.3
		c0.06-0.31,0.45-0.57,0.68-0.85c0.31,0,0.62,0,0.92,0c0.21,1.44,0.77,2.94,0.56,4.32c-1,6.47-4.31,11.65-9.57,15.51
		c-3.01,2.21-6.2,4.17-9.78,6.55c0.96,0.05,1.34,0.13,1.69,0.08c18.12-2.73,34.68-8.87,47.75-22.31
		c9.87-10.15,16.5-22.16,16.92-36.47c0.73-24.89-11.2-43.24-31.74-56.18c-12.64-7.96-26.94-10.52-41.73-10.33
		c-19.12,0.24-37.24-3.16-53.41-14.11c-0.63-0.43-2.21-0.23-2.85,0.28c-1.55,1.25-2.8,2.86-4.22,4.38c-1.27-2.24-0.9-3.16,2.81-7.28
		c-0.54-0.45-1.02-0.97-1.6-1.32c-6.34-3.73-12.62-7.59-19.08-11.1c-5.33-2.9-4.43-2.3-7.94,1.28c-0.36,0.37-0.93,0.53-1.4,0.79
		c-0.21-0.15-0.42-0.3-0.63-0.45c0.8-1.65,1.6-3.31,2.4-4.96c-6.42-2.85-17.4-4.3-27.7-3.91c-4.34,0.16-8.08,0.89-9.52,5.71
		c-0.11,0.38-0.55,0.66-0.84,0.98c-0.2-0.07-0.4-0.15-0.6-0.22c0.16-1.64,0.31-3.27,0.47-4.97c-0.31-0.05-0.62-0.18-0.89-0.13
		c-20.4,3.95-37,13.8-48.63,31.36c-8.57,12.94-14.82,27.06-20.82,41.29c-0.34,0.79-0.44,1.69-0.66,2.59
		C135,300.22,135.96,300.53,136.92,300.83z M254.84,601.82c-1.82,0-3.24-0.07-4.65,0.01c-9.54,0.58-19.03,1.7-27.64,6.17
		c-3.07,1.59-6.06,3.97-8.13,6.72c-3.24,4.29-1.55,8.86,3.6,10.35c4.79,1.39,9.72,2.72,14.67,3.09c18.67,1.41,37.38,2.41,56.07,3.56
		c1.19,0.07,2.38,0.01,3.82,0.01c-0.43-5.66-3.95-9.25-7.11-13.34c1.47-0.38,2.85-0.65,3.84-0.15c5.46,2.72,7.36,7.86,8.36,13.06
		c6.81,0,13.32,0,19.86,0c0.41-6.63-4.21-10.72-6.48-16.09c1.6,0.02,3.11,0.16,4.19,0.92c5.03,3.53,7.23,8.65,7.51,14.95
		c3.65-0.4,7.12-0.63,10.53-1.19c4.12-0.67,5.01-2.24,4.31-6.44c-1.23-7.4-5.96-12.22-11.98-15.9c-8.16-4.99-17.29-7.31-26.64-8.72
		c-4.7-0.71-9.48-0.92-14.16-1.35c-0.64-12.33-1.26-24.42-1.86-35.96c6.77-0.56,13.05-1.08,19.32-1.6c0.08,0.35,0.15,0.71,0.23,1.06
		c-3.86,3.71-9.35,3.43-14.24,5.15c0,1.05-0.06,2.15,0.01,3.25c0.39,6.54,0.96,13.07,1.13,19.61c0.07,2.63,0.88,3.25,3.45,3.66
		c8.35,1.34,16.83,2.46,24.87,4.94c13.62,4.21,24.33,11.84,25.87,27.47c4.32,0,8.46,0,12.76,0c0-1.17,0.23-2.06-0.04-2.76
		c-1.24-3.29-2.61-6.53-3.93-9.78c4.04-1.08,6.27,1.84,9.31,12.5c2.26-0.15,4.59-0.45,6.91-0.4c2.36,0.05,3.12-1.21,2.36-3.03
		c-1.44-3.44-3.27-6.71-4.93-10.06c-0.41-0.83-0.81-1.66-1.21-2.49c8.31,1.63,10.33,7.76,11.16,14.75c1.68-0.54,2.98-0.84,4.19-1.38
		c4.15-1.85,5.49-4.54,3.55-8.59c-1.43-2.97-3.24-6.19-5.78-8.1c-4.27-3.22-9.05-5.99-13.98-8.06c-13.29-5.59-27.4-7.32-41.7-7.57
		c-2.9-0.05-4.04-0.89-4.36-3.88c-1.17-10.68-2.5-21.34-4.08-31.96c-0.39-2.6,0.02-4.33,2.04-5.82c0.66-0.48,1.23-1.08,1.84-1.63
		c13.17-12.04,19.44-26.83,17.67-44.75c-1.27-12.82-5.42-24.69-11.99-35.77c-7.1-11.98-16.24-22.3-25.61-32.49
		c-1.86-2.03-3.26-3.16-6.07-1.75c-2.06,1.03-4.46,1.46-6.76,1.96c-8.98,1.95-17.99,3.8-26.97,5.74c-1.27,0.27-2.57,0.14-3.12,2.18
		c-1.43,5.31-2.98,10.66-5.2,15.68c-3.34,7.56-7.41,14.8-10.93,22.28c-2.04,4.34-3.54,8.91-3.18,13.89
		c2.28-4.54,4.56-9.08,6.84-13.62c0.3,0.12,0.6,0.23,0.91,0.35c0,0.85,0.18,1.74-0.03,2.54c-2.23,8.81-2.75,17.76-2.5,26.8
		c0.17,6.37-1.91,11.27-8.87,12.72c-0.39,0.08-0.76,0.3-1.12,0.48c-3.42,1.68-5.08,4.42-4.74,7.83c0.31,3.1,2.73,5.86,5.68,6.48
		c3.84,0.81,6.5-0.31,8.63-3.67c0.6-0.95,0.98-2.11,1.76-2.86c0.7-0.67,1.81-0.92,2.75-1.36c0.26,0.97,0.88,2.01,0.71,2.9
		c-0.3,1.58-1.16,3.05-1.65,4.61c-0.98,3.1,0.12,5.22,3.12,6.23c4.82,1.62,9.06-0.35,10.94-5.1c0.4-1,0.75-2.02,1.3-3.49
		c0.41,0.84,0.65,1.24,0.81,1.67c1.08,3,2.54,3.47,4.92,1.34c0.96-0.85,2.01-2.02,2.23-3.2c0.79-4.07,1.87-8.23,1.72-12.31
		c-0.58-15.45-1.6-30.87-2.46-46.31c-0.09-1.55-0.17-3.09-0.26-4.64c0.32-0.06,0.64-0.12,0.97-0.17c0.66,2.27,1.63,4.5,1.91,6.82
		c1.35,11.27,2.67,22.55,3.66,33.85c0.59,6.7,1.02,13.48,0.63,20.18c-0.4,6.74-4.38,11.28-11.12,13.05
		c-0.89,0.23-1.85,0.36-2.62,0.82c-5.94,3.53-11.95,4.61-18.5,0.77c0.35,1.28,0.83,2.55,1.73,3.05c4.11,2.24,8.23,4.49,12.55,6.25
		c2.4,0.98,3.44,2.13,3.19,4.68c-0.71,7.23-1.34,14.47-1.99,21.7C256.03,588.53,255.45,594.93,254.84,601.82z M441.79,154.21
		c2.23-3.35,3.9-6.6,6.25-9.23c4.48-5.03,9.65-9.46,14-14.59c9.67-11.39,14.16-24.28,9.65-39.21
		c-3.09-10.25-12.12-17.05-21.78-16.54c-5.38,0.28-9.78,2.77-13.43,6.6c-1.58,1.66-2.68,1.65-4.63,0.24
		c-1.86-1.35-4.4-2.41-6.67-2.47c-6.72-0.18-12.06,2.86-15.69,8.51c-5.31,8.27-5.83,17.48-4.76,26.91
		c1.47,12.99,7.26,24.38,13.47,35.58c0.38,0.68,1.83,1.29,2.62,1.13C428.23,149.61,435.26,150.35,441.79,154.21z M415.34,152.72
		c-2.73-5.29-5.53-10.27-7.91-15.45c-4.67-10.12-9.94-19.74-19.29-26.43c-7.98-5.71-16.54-9.39-26.64-7.38
		c-7.45,1.48-10.93,5.06-12.43,12.34c-0.15,0.7-1.18,1.44-1.96,1.76c-6.51,2.7-10.83,7.19-12.07,14.3
		c-1.21,6.89,0.26,13.23,4.17,18.96c6.4,9.39,15.62,15,26.51,16.76c11.41,1.84,23.06,2.15,34.82,3.14
		C401.91,162.24,407.57,156.71,415.34,152.72z M420.74,195.21c-0.78-0.14-1.46-0.25-2.13-0.37c-0.71-0.13-1.42-0.22-2.11-0.4
		c-8.31-2.09-14.21-6.95-16.08-15.46c-0.75-3.42-2.56-4.25-5.38-4.92c-11.88-2.83-23.14-0.8-34.08,4.07
		c-7.49,3.33-14.46,7.48-19.15,14.37c-8.79,12.93-1.96,25.78,10.42,27.53c0.86,0.12,2.03,1.36,2.24,2.27
		c1.2,5.25,4.48,8.59,9.2,10.77c9.16,4.24,18.15,3.25,26.87-1.17C405.85,224.11,414.45,210.71,420.74,195.21z M450.13,176.96
		c9.47,1.86,18.55,3.82,27.7,5.39c11.99,2.04,23.48,0.52,33.79-6.35c5.18-3.45,8.83-8.28,9.98-14.54
		c1.07-5.78-0.24-10.93-4.77-15.09c-0.48-0.44-0.34-2.33,0.2-2.94c2.1-2.39,2.7-4.92,1.69-7.92c-1.25-3.71-3.72-6.29-7.17-7.98
		c-8.43-4.13-17.3-4.62-26.33-2.77c-17.91,3.67-30.16,15.14-40.15,29.58c-0.44,0.64-0.56,2.17-0.12,2.63
		C450.2,162.63,451.11,169.42,450.13,176.96z M463.58,232.58c0.47,0.15,1.15,0.36,1.81,0.59c10.96,3.88,25.07-4.59,23.93-18.23
		c-0.78-9.31-5.37-16.35-11.85-22.47c-6.92-6.54-15.57-9.52-24.6-11.78c-2.45-0.61-3.9-0.33-5.32,1.9
		c-3.37,5.29-8.34,8.61-14.22,10.62c-3.08,1.06-6.97,1.25-9.06,3.3c-2.2,2.15-2.68,6.05-3.91,9.19c-0.19,0.48-0.43,0.94-0.56,1.43
		c-2.66,10.67-2.1,20.95,4.43,30.18c6.89,9.75,22.38,14.63,32.61,4.51C459.48,239.24,461.27,235.81,463.58,232.58z M317.09,447.11
		c6.88,7.87,12.62,16.86,17.09,26.68c0.26,0.58,1.63,1.13,2.31,0.97c6.05-1.43,12.19-2.66,18.06-4.66
		c8.75-2.98,16.65-7.65,23.79-13.46c-3.25-7.53-3.21-8.83,0.22-16.14c0.43-0.91,0.82-1.91,0.88-2.89c0.3-4.98,2.99-8.55,6.53-11.71
		c1.13-1.01,2.27-2.1,3.12-3.34c1.42-2.06,1.94-4.43,0.35-6.58c-1.71-2.31-4.17-3.33-7.05-2.55c-3.7,1-6.49,3.28-7.51,7
		c-0.91,3.32-1.61,6.79-1.68,10.21c-0.06,2.81-1.13,4.15-3.46,5.37c-7.87,4.09-16.19,7.04-24.88,8.39
		C335.74,445.79,326.45,446.23,317.09,447.11z M447.32,172.16c0.19-6.75-2.6-11.69-7.91-14.98c-9.03-5.59-23.37-3.53-30.48,4.41
		c-8.26,9.21-7.13,26.03,8.86,29.33c8.65,1.79,16.42-0.24,23.24-5.77C445.21,181.76,447.53,177.35,447.32,172.16z M235.37,546.25
		c-0.2-0.27-0.41-0.54-0.61-0.82c-2.18,0.35-4.37,0.59-6.52,1.06c-12.56,2.74-24.76,6.46-35.13,14.44c-2.47,1.9-4.58,4.34-6.53,6.8
		c-1.24,1.57-0.83,3.21,1.56,3.38c2.43,0.18,4.92,0.51,7.3,0.2c13.07-1.69,24.02-7.72,33.25-16.94
		C231.17,551.91,233.16,548.97,235.37,546.25z M394.58,441.84c-2.98,2.75-5.76,3.62-8.77,3.09c-2.98-0.52-3.9,1.12-4.29,3.43
		c-0.77,4.63,3.76,8.05,9.01,6.86c6.27-1.42,12.69-8.01,13.68-14.4c0.81-5.22-0.06-10.1-4.58-13.51c-1.21-0.91-3.24-1.91-4.39-1.49
		c-4.46,1.6-8.59,3.99-10.96,8.38c-2.03,3.75-0.12,6.97,4.17,7.29C390.22,441.61,392,441.69,394.58,441.84z"/>
	<path d="M138.91,312.1c-0.83,8.19-1.65,16.38-2.48,24.57c0.3,0.04,0.6,0.09,0.9,0.13c1.49-10.32,2.11-20.85,7.03-30.44
		c1.05,10.5,0.15,21.17,3.97,31.27c-1.89-10.66-1.16-21.12,1.52-31.46c0.33-0.04,0.66-0.09,0.99-0.13
		c1.72,6.69,3.44,13.38,5.15,20.07c0.21-0.03,0.41-0.05,0.62-0.08c0.79-5.35,1.58-10.71,2.44-16.55c1.06,0.68,1.63,0.9,1.99,1.3
		c13.73,14.95,24.77,31.5,30.16,51.34c2.65,9.76,4.38,19.63,1.62,29.65c-2.89,10.48-10.53,16.9-19.77,16.66
		c-9.83-0.25-18.22-4.44-25.68-10.47c-10.28-8.3-16.02-19.41-17.63-32.34c-2.18-17.44-0.3-34.51,6.64-50.83
		c0.45-1.05,1.08-2.02,1.62-3.02C138.31,311.88,138.61,311.99,138.91,312.1z M177.97,367.64c0.35-0.03,0.7-0.06,1.05-0.1
		c-0.81-2.83-1.62-5.65-2.43-8.48c-0.33,0.1-0.65,0.19-0.98,0.29C176.4,362.11,177.18,364.88,177.97,367.64z M145.31,377.89
		c-0.4,0.15-0.79,0.3-1.19,0.45c1.09,2.13,2.18,4.25,3.27,6.38c0.28-0.13,0.56-0.27,0.84-0.4
		C147.26,382.18,146.28,380.03,145.31,377.89z"/>
	<path d="M347.55,335.53c-4.46-1.31-9.21-2.03-13.33-4.05c-7.52-3.69-8.98-10.8-4.32-17.77c5.92-8.87,24.11-13.91,34.21-4.83
		c7.98,7.17,7.05,17-2.25,22.31c-4.39,2.51-9.08,3.63-14.1,3.58C347.7,335.02,347.63,335.28,347.55,335.53z M341.42,315.33
		c5.81,0,11.63,0,17.42,0c-0.47-2.44-1.91-3.93-5.32-4.59C348.83,309.85,344.69,311.01,341.42,315.33z"/>
	<path d="M254.98,286.88c-0.67,4.59-1.72,8.68-4.94,11.91c-3.5,3.5-8.49,2.94-10.76-1.46c-3.2-6.21-3.19-12.66,0.35-18.73
		c3.38-5.8,9.7-5.66,12.8,0.27C253.7,281.32,254.15,284.2,254.98,286.88z"/>
	<path d="M270.91,284.09c0.96-2.83,1.56-6.37,3.28-9.23c2.84-4.72,7.97-4.39,10.91,0.26c3.2,5.05,2.99,13.28-0.47,18.07
		c-1.58,2.19-3.62,3.8-6.42,3.52c-2.82-0.28-4.59-2.25-5.43-4.83C272.02,289.59,271.63,287.18,270.91,284.09z"/>
	<path d="M240.28,243.79c-4.26,2.12-8.11,3.42-11.17,5.75c-2.96,2.26-5.1,5.59-8.05,8.97c-0.28-1.28-0.98-2.69-0.81-3.99
		c0.83-6.47,10.55-13.41,16.94-12.2C238.08,242.49,238.89,243.12,240.28,243.79z"/>
	<path d="M424.94,143.89c0.22-4.73,0.43-9.46,0.65-14.19c0.32,0.01,0.63,0.03,0.95,0.04c0,4.73,0,9.45,0,14.18
		C426,143.91,425.47,143.9,424.94,143.89z"/>
	<path d="M434.74,144.04c1.27-2.6,2.53-5.2,3.8-7.79c0.32,0.16,0.64,0.31,0.96,0.47c-1.29,2.59-2.57,5.18-3.86,7.76
		C435.35,144.34,435.05,144.19,434.74,144.04z"/>
	<path d="M399.3,152.76c-5.04-4.08-9.96-8.08-14.78-11.98C387.82,140.62,397.41,148.23,399.3,152.76z"/>
	<path d="M379.96,148.48c5.86,0.69,10.29,3.9,14.1,8.19C389.36,153.95,384.66,151.22,379.96,148.48z"/>
	<path d="M393.15,187.15c-4.65,2.85-9.3,5.69-13.95,8.54C382.55,190.71,387.31,188.03,393.15,187.15z"/>
	<path d="M398.27,192.73c-4.6,3.83-9,7.5-13.37,11.13C385.37,200.34,393.41,193.47,398.27,192.73z"/>
	<path d="M461.44,162.37c4.04-1.09,8.09-2.18,12.13-3.27c0.1,0.36,0.21,0.72,0.31,1.09c-4.01,1.14-8.03,2.29-12.04,3.43
		C461.71,163.2,461.57,162.78,461.44,162.37z"/>
	<path d="M469.56,151.81c-3.66,2.26-7.32,4.52-10.98,6.78c-0.19-0.3-0.37-0.59-0.56-0.89c3.64-2.27,7.28-4.54,10.91-6.8
		C469.14,151.2,469.35,151.5,469.56,151.81z"/>
	<path d="M439.66,198.02c1.59,3.7,3.18,7.4,4.77,11.1c-0.41,0.18-0.82,0.36-1.23,0.53c-1.58-3.71-3.15-7.41-4.73-11.12
		C438.87,198.36,439.27,198.19,439.66,198.02z"/>
	<path d="M452.85,208.74c-1.91-3.85-3.83-7.69-5.74-11.54c0.33-0.17,0.66-0.34,0.99-0.51c1.97,3.82,3.94,7.64,5.91,11.45
		C453.62,208.34,453.23,208.54,452.85,208.74z"/>
	<path d="M414.74,170.07c-0.53-0.68-1.94-1.75-2.28-3.1c-0.47-1.84,2.45-5,4.1-4.44c1.31,0.45,2.73,2.03,3.11,3.38
		C420.26,168.01,418.1,170.02,414.74,170.07z"/>
	<path d="M426.75,179.52c2.63-1.79,5.23-3.61,7.91-5.32c0.38-0.24,1.27-0.15,1.62,0.15c0.27,0.23,0.28,1.28,0.01,1.53
		c-2.56,2.38-5.33,4.42-8.84,4.91C427.21,180.36,426.98,179.94,426.75,179.52z"/>
	<path d="M435.41,166.37c-2.06-0.82-4.13-1.64-6.31-2.51c1.55-1.75,2.25-1.97,4.49-0.9c1,0.47,1.72,1.53,2.57,2.32
		C435.91,165.63,435.66,166,435.41,166.37z"/>
	<path d="M435.49,170.35c-2.6,0.09-5.23,0.24-7.24-1.85C431.01,167.68,433.63,167.4,435.49,170.35z"/>
</g>
</svg>
