<?xml version="1.0" encoding="utf-8"?>
<!-- Generator: Adobe Illustrator 26.0.1, SVG Export Plug-In . SVG Version: 6.00 Build 0)  -->
<svg version="1.1" id="Layer_1" xmlns="http://www.w3.org/2000/svg" xmlns:xlink="http://www.w3.org/1999/xlink" x="0px" y="0px"
	 viewBox="0 0 680 680" style="enable-background:new 0 0 680 680;" xml:space="preserve">
<g>
	<path d="M364.98,370.47c1.28,0.12,1.82,0.02,2.22,0.23c1.3,0.67,2.54,1.46,3.8,2.2c-1.02,1.17-1.84,2.98-3.11,3.38
		c-2.5,0.79-3.02,1.88-2.71,4.42c1.83,14.87,6.75,28.77,12.96,42.28c6,13.06,10.84,26.57,12.87,40.79
		c1.26,8.79,1.11,17.82-1.74,26.41c3.12,1.15,6.41,1.77,9.03,3.44c7.92,5.05,10.54,16.19,6.26,25.06c-0.79,1.63-1.44,3.46-2.66,4.71
		c-3.27,3.35-3.22,6.8-1.92,11.09c3.07,10.14,3.57,20.64,2.98,31.19c-0.06,1.05-0.01,2.1-0.01,3.41c4.22-1.06,8-2.22,11.86-2.94
		c22.55-4.23,43.01,1.09,61.83,13.74c0.5,0.34,1.09,0.64,1.41,1.12c3.09,4.67,6.73,3.18,10.57,1.13c1.87-1,3.79-2.77,6.39-0.83
		c-1.46,3.59-4.42,5.64-7.6,6.85c-8.64,3.28-17.27,6.86-26.22,8.98c-12.63,2.99-25.49,5.21-38.36,6.89
		c-7.72,1.01-15.67,0.7-23.49,0.37c-14.73-0.61-29.31-0.49-43.96,1.96c-13.65,2.28-27.53,3.21-41.31,4.71
		c-17.38,1.89-34.74,3.95-52.15,5.56c-12.96,1.19-25.99,2.37-38.87-1.01c-8.76-2.3-15.27-6.97-17.64-16.2
		c-0.29-1.14-0.77-2.24-1.21-3.48c-5.55,0-11,0.4-16.39-0.07c-20.21-1.77-30.74-10.88-33.5-30.64c-2.51-17.97,0.33-35.41,4.69-52.59
		c3.28-12.9,7.46-25.64,12.28-38.04c4.57-11.76,10.47-23.02,18.67-32.84c5.62-6.73,12.19-11.53,21.51-9.94
		c10.8,1.85,17.79,8.47,21.87,18.42c0.3,0.74,0.54,1.51,1.01,2.8c2.13-2.38,3.87-4.46,5.77-6.39c7.05-7.16,14.96-12.89,25.18-14.61
		c1.07-0.18,2.22-0.57,3.21-0.34c4.17,0.97,5.87-1.15,7.85-4.59c9.54-16.58,19.5-32.91,29.31-49.34c0.11-0.19,0.1-0.46,0.19-0.9
		c-1.71-0.64-3.66-1-5.14-2.03c-1.22-0.84-2.83-2.73-2.57-3.7c0.36-1.33,2.17-2.83,3.62-3.18c4.51-1.09,4.55-0.98,3.57-5.47
		c-1.89-8.66-8.15-13.49-15.77-15.89c-10.4-3.28-21.11-5.67-31.82-7.82c-18.53-3.71-37.35-6.12-55.68-10.58
		c-18.58-4.52-36.06-12.23-50.94-24.79c-2.02-1.7-3.94-3.52-5.88-5.27c-13.14,8.63-26.63,11.75-40.27,1.82
		c-8.62-6.28-12.11-18.5-9.09-28.23c4.27-13.73,13.8-20.64,30.87-22.17c0.22-2.4,0.52-4.88,0.65-7.35
		c1.17-22.21,10.81-40.05,26.59-55.56c15.41-15.14,33.8-22.53,54.63-25.35c10.62-1.44,21.38-2.33,31.78-4.75
		c14.86-3.47,27.92-11.11,39.89-20.48c5.84-4.58,11.3-9.65,17.15-14.69c-3.25-2.86-6.13-4.32-10.15-3.34
		c-1.79,0.44-3.92-0.5-5.9-0.81c1.29-1.45,2.34-3.26,3.9-4.27c4.27-2.74,9.91-1.71,13.46,2.12c0.72,0.78,1.4,1.59,2.29,2.61
		c4.34-3.72,8.36-7.52,12.74-10.84c15.63-11.84,32.29-21.89,52.3-23.67c29.78-2.65,58.37,1.3,84.65,17.04
		c13.9,8.32,25.16,19.35,35.45,31.59c16.35,19.45,28.76,41.3,38.31,64.73c6.48,15.88,10.34,32.52,12.63,49.56
		c1.71,12.7,1.6,25.31-0.74,37.82c-5.55,29.76-22.05,51.57-48.67,65.87c-26.04,13.99-56.6,6.45-72.83-18.25
		c-1.84-2.8-3.33-4.08-6.8-2.99c-10.46,3.28-21.08,6.02-29,14.48C371.82,350.74,367.76,360,364.98,370.47z M415.49,216.46
		c0.34,0.07,0.68,0.14,1.02,0.22c0,3.37,0.34,6.78-0.06,10.1c-1.82,15.31-4.03,30.58-5.75,45.9c-1.76,15.66-0.39,31,5.38,45.85
		c10.24,26.33,39.22,38.63,64.78,26.65c28.98-13.59,45.63-36.66,49.61-68.47c3.01-24.08-1.35-47.52-9.45-69.96
		c-10.33-28.63-25.51-54.69-46.14-77.37c-12.73-13.99-27.96-24.26-45.22-31.68c-12.93-5.55-26.66-7.42-40.55-8.12
		c-12.05-0.61-24.28-1.18-35.85,2.89c-17.64,6.21-32.58,16.87-46.38,29.36c-9.54,8.63-19.17,17.27-29.56,24.82
		c-14.07,10.23-29.91,16.82-47.4,19.05c-11.23,1.43-22.61,2.41-33.57,5.06c-26.62,6.43-45.72,22.64-56.86,47.6
		c-5.94,13.31-6.57,27.6-4.41,41.9c1.76,11.61,5.98,22.27,13.94,31.2c10.13,11.36,23.04,18.48,36.9,24.04
		c14.25,5.72,29.09,9.29,44.24,11.73c14.03,2.25,27.92,5.29,42.35,3.68c14.61-1.63,28.3-5.53,40.69-13.62
		c12.17-7.95,21-19.04,29.01-30.87c0.63-0.93,0.27-2.81-0.14-4.09c-0.44-1.38-1.47-2.57-2.35-4.03c5.74-0.58,12.55,6.62,11.51,11.88
		c-1.17-0.57-2.29-1.12-3.54-1.73c-13.85,26.3-35.56,41.83-64.47,47.92c2.09,1.09,4.12,1.66,6.06,2.45
		c12.34,5.01,22.63,11.72,22.67,27.1c0,0.83,1.45,2.33,2.3,2.38c13.25,0.82,26.51,1.44,39.77,2.15c1.81,0.1,2.48-0.51,2.73-2.39
		c1.4-10.48,6.11-19.44,13.13-27.19c8.61-9.5,20.07-12.81,32.24-14.45c2.93-0.4,5.85-0.8,8.73-1.19
		C396.53,287.78,404.2,252.02,415.49,216.46z M249.97,491.34c-0.07,0.32-0.15,0.64-0.22,0.96c-8.31,0-16.62,0.05-24.92-0.03
		c-2.08-0.02-3.39,0.54-4.05,2.67c-1.28,4.14-2.86,8.19-4.09,12.34c-4.16,14.01-6.98,28.27-7.65,42.9
		c-0.69,14.84-0.72,29.65,1.53,44.43c1.32,8.69,6.47,13.09,14.52,14.85c2.34,0.51,4.78,1.06,7.15,0.95
		c15.17-0.68,30.35-1.22,45.48-2.42c14.9-1.19,29.75-3.11,44.62-4.7c17.38-1.86,34.75-3.78,52.14-5.52
		c2.75-0.28,2.64-1.56,2.86-3.77c0.5-4.98,1.13-10.07,2.68-14.8c1.94-5.93,7.87-6.57,12.99-7.7c1.9-0.42,2.84-0.97,2.83-2.87
		c-0.03-7.34,0.21-14.7-0.19-22.02c-0.25-4.57-1.48-9.09-2.27-13.59c-3.22,0.4-5.8,0.72-8.44,1.05c-0.06,0.94-0.12,1.65-0.15,2.36
		c-0.49,10.85-14.63,21.76-25.69,13.85c-0.78-0.56-2.07-0.89-3-0.71c-7.61,1.53-14.25-0.82-20.64-4.67
		c-1.24-0.75-2.98-1.28-4.36-1.06c-5.58,0.86-11.16,1.85-16.65,3.18c-5.95,1.44-11.75,3.47-17.69,4.95
		c-3.43,0.86-5.03-0.71-4.68-4.25c0.53-5.4,1.27-10.77,1.86-16.17c1.81-16.4,4.91-32.72,3.29-49.36
		c-1.3-13.32-4.77-25.81-13.54-36.32c-3.79-4.54-8.39-7.63-14.64-7.18c-14.01,1.02-22.28,10.39-30.38,20.44
		c5.32,0.73,10.23,1.03,14.94,2.16c4.59,1.1,9.54,1.95,13.28,6.57c-1.75,0-2.79,0.09-3.81-0.01c-7.65-0.79-15.32-1.5-22.95-2.49
		c-4.33-0.56-6.93,0.97-8.65,5c-2.36,5.56-5.13,10.94-8.09,17.16C233.47,485.73,242.2,486.06,249.97,491.34z M371.85,522.26
		c1.57-0.16,2.04-0.35,2.23-0.2c1.86,1.51,3.68,3.06,5.49,4.62c3.81,3.29,10.1,4.08,13.2,0.81c2.91-3.06,5.82-6.71,7.09-10.63
		c4.06-12.54-1.89-20.03-15.05-19.78c-1.91,0.04-2.71-0.74-2.4-2.61c0.22-1.3,0.63-2.58,0.71-3.88c0.5-8.03,1.87-16.14,1.16-24.07
		c-1.17-13.14-5.85-25.52-11.16-37.57c-5.2-11.79-10.34-23.61-12.76-36.36c-0.92-4.81-1.59-9.67-2.26-13.8
		c-13.71-0.32-27.07-0.46-40.42-1.03c-4.44-0.19-6.86,0.46-9.17,5.1c-5.79,11.63-12.69,22.7-19.28,33.92
		c-3.26,5.54-6.82,10.9-10.04,16.01c3.29,2.83,6.71,5.17,9.37,8.19c10.6,12.02,14.55,26.7,15.72,42.22
		c1.1,14.51-0.71,28.9-2.67,43.26c-0.78,5.69-1.29,11.41-1.91,17.03c9.5-1.88,18.6-3.68,27.86-5.51c-0.4-0.7-0.7-1.35-1.1-1.92
		c-3.64-5.18-5.35-10.87-5.49-17.26c-0.2-9.18,1.92-17.94,4.16-26.68c3.76-14.7,8.07-29.28,8.75-44.59c0.15-3.3,0.36-6.59,0.54-9.89
		c1.13,0.79,1.59,1.68,1.92,2.63c3.2,9.21,2.53,18.61,0.79,27.89c-2.54,13.6-5.81,27.06-8.42,40.64c-1.95,10.1-1.3,19.82,6.93,27.42
		c5,4.63,10.87,7.21,18.07,7.09c-0.82-6.26-1.31-12.05,4.27-17.3c0.48,2.59,0.92,4.29,1.07,6.02c0.22,2.52,0.05,5.08,0.36,7.58
		c0.59,4.92,3.94,7.74,8.85,7.72c5.83-0.02,10.46-4.07,11.63-9.91c0.61-3.05,0.43-5.31-2.43-7.5
		C375.2,528.2,373.93,525.22,371.85,522.26z M201.98,468.89c-3.96-0.86-6.85-1.59-9.79-2.1c-10.96-1.92-7.71-2.81-12.56,6.2
		c-2.16,4.02-3.66,8.4-5.56,12.86c6.76,0.95,12.74,1.51,17.46,7.08c-1.59,0-2.39,0.07-3.17-0.01c-4.3-0.46-8.6-0.93-12.9-1.44
		c-2.2-0.26-3.46,0.27-4.07,2.78c-2.53,10.4-5.73,20.64-7.9,31.1c-2.82,13.6-4.49,27.39-1.83,41.27c1.19,6.21,2.98,12.37,8.52,16.21
		c10.05,6.98,21.41,6.73,33.21,5.84c-0.16-2.13-0.24-3.8-0.41-5.45c-0.17-1.68-0.52-3.34-0.63-5.01
		c-1.24-20.68-0.35-41.2,4.96-61.36c5.07-19.24,10.68-38.25,21.33-55.34c0.58-0.93,1.25-2.51,0.85-3.23
		c-2.77-5.01-5.2-10.41-8.93-14.64c-4.56-5.19-14.51-7.89-21.5-1.4c-5.44,5.06-9.29,11.23-12.8,17.89
		C191.74,462.31,197.79,462.87,201.98,468.89z M416.55,597.9c20.6-1.41,39.99-5.9,59.76-11.32c-14.41-11.92-50.51-19.13-61.41-12.59
		C424.16,580.98,420.53,589.09,416.55,597.9z M127.63,256.83c-13.3-0.88-24.25,7.54-25.38,18.94c-1.06,10.69,5.38,21.18,13.13,21.14
		c-6.58-6.95-10.47-14.47-6.47-23.74C112.49,264.89,118.91,259.58,127.63,256.83z"/>
	<path d="M479.4,206.55c2.07-2.36,3.91-4.5,5.79-6.61c3.12-3.5,5.55-3.69,8.03,0.43c4.02,6.67,8.01,13.49,10.79,20.72
		c5.43,14.1,8.62,28.84,9.33,43.97c0.86,18.13-2.78,35.11-15.02,49.18c-17.62,20.25-51.32,20.81-67.82-6.66
		c-6.54-10.88-7.43-22.98-7.37-35.26c0.1-20.9,7.8-39.52,17.63-57.39c6.83-12.41,15.73-23.08,28.17-30.38
		c0.83-0.49,1.66-0.97,2.53-1.4c3.72-1.83,6.32-0.86,6.79,3.28C478.99,192.85,479.03,199.35,479.4,206.55z"/>
	<path d="M299.38,204.82c0,3.6,0.29,7.24-0.13,10.8c-0.19,1.59-1.79,3.01-2.75,4.51c-1.3-1.18-3.6-2.25-3.74-3.56
		c-0.84-7.95-1.35-15.94-1.61-23.93c-0.07-2.27,1.76-4.51,4.21-3.72c1.62,0.52,3.52,2.72,3.77,4.39c0.56,3.76,0.18,7.66,0.18,11.51
		C299.33,204.82,299.36,204.82,299.38,204.82z"/>
</g>
</svg>
