<?xml version="1.0" encoding="utf-8"?>
<!-- Generator: Adobe Illustrator 26.0.1, SVG Export Plug-In . SVG Version: 6.00 Build 0)  -->
<svg version="1.1" id="Layer_1" xmlns="http://www.w3.org/2000/svg" xmlns:xlink="http://www.w3.org/1999/xlink" x="0px" y="0px"
	 viewBox="0 0 680 680" style="enable-background:new 0 0 680 680;" xml:space="preserve">
<g>
	<path d="M291.9,547.21c-2.15-29.34,8.85-55.34,15.29-82.28c3.1-12.98,3.81-26.53,5.49-39.83c0.17-1.38-0.4-2.87-0.63-4.3
		c-0.57-3.46-1.15-6.92-1.93-11.65c-3.84-1.85-9.83-4.69-9.95-11.3c-0.09-5.2,2.11-10.44,3.37-16.02c-0.83,0.36-2.28,1.17-3.84,1.61
		c-1.51,0.43-3.13,0.48-4.7,0.69c0.69-1.62,1.25-3.3,2.11-4.82c0.4-0.71,1.38-1.1,2.91-2.25c-16.71-12.4-33.19-23.58-53.42-24.05
		c-2.83,9.09-4.42,17.67-8.08,25.26c-10.03,20.85-28.79,26.51-48.76,14.76c-32.98-19.4-47.35-48.68-44.5-86.65
		c1.52-20.23,6.14-39.62,15.6-57.71c0.82-1.57,1.26-3.47,1.41-5.25c1.84-23.07,12.13-42.19,27.56-58.84
		c2.48-2.67,5.36-5.18,8.49-7.01c7.28-4.25,14.33-8.29,19.82-15.25c2.55-3.23,8.73-3.69,13.37-5.05c0.82-0.24,2.16,1.29,3.26,2.01
		c-0.96,0.87-1.79,2.15-2.91,2.52c-3.37,1.09-6.85,1.83-10.29,2.7c0.15,0.59,0.3,1.18,0.45,1.78c2.47-0.71,4.92-1.48,7.41-2.11
		c9.71-2.45,19.01-0.24,28.22,2.65c6.67,2.09,13.36,4.16,19.99,6.36c13.79,4.56,27.47,3.47,41.38,0.14
		c13.93-3.33,28.04-7.93,42.13-8.17c32.88-0.55,62.75,8.78,82.46,37.36c15.89,23.04,16.55,47.86,3.17,72.63
		c-5.59,10.34-13.13,19.1-23.17,25.52c-1.36,0.87-2.6,1.91-3.63,3.94c2.73-0.41,5.45-1.01,8.19-1.14c1.23-0.06,2.5,0.83,3.76,1.29
		c-0.89,1.15-1.72,3.23-2.69,3.3c-10.07,0.72-20.16,1.23-30.25,1.38c-0.81,0.01-2.77-3.53-2.32-4.71c3.3-8.78,7-17.41,10.82-25.98
		c0.47-1.05,2.47-1.42,3.76-2.1c0.18,1.47,0.89,3.15,0.44,4.39c-2.73,7.38-5.72,14.67-9.11,23.21c4.13-1.17,7.64-1.58,10.58-3.1
		c33.9-17.58,51.79-62.06,24.46-98.6c-13.28-17.75-32.25-25.91-53.33-30.78c-19.72-4.55-38.4-0.55-57.15,4.6
		c-12.85,3.53-25.83,6.77-39.21,4.24c-8.46-1.6-17.24-3.27-24.91-6.92c-31-14.74-67.95,5.76-81.25,28.85
		c-7.34,12.75-13.47,25.7-14.37,40.72c-0.2,3.34-1.76,6.72-3.24,9.83c-12.46,26.2-16.97,53.68-12.4,82.32
		c3.91,24.56,30.08,53.34,51.69,57.94c8.98,1.91,16.74-0.2,23.18-6.9c13.97-14.53,16.23-31.55,9.21-49.63
		c-8.8-22.68-20.77-43.53-39.35-59.95c-1.07-0.94-1.19-2.96-1.76-4.47c1.75,0.34,4.02,0.1,5.18,1.12
		c12.16,10.69,22.23,23.14,29.34,37.7c5.78,11.83,10.86,24.01,16.52,36.63c20.66,0.3,38.32,11.05,55.03,23.78
		c2.97,2.27,4.96,2.67,8.21,0.82c4.02-2.28,7.9-5.59,13.31-3.82c0.97,0.32,2.57-1.26,3.78-2.5c-14.41,0.33-27.11-2.64-32.66-17.4
		c-3.68-9.8,0.25-18.02,9.26-24.09c-8.18-3.76-15.89-7.42-23.72-10.79c-1.8-0.77-4.02-0.57-6.05-0.81c1.16-2.23,2.05-4.69,3.58-6.63
		c1.09-1.38,3.06-2.06,4.64-3.05c0.37,1.85,0.75,3.7,1.12,5.54c-0.37,0.43-0.74,0.87-1.11,1.3c9.09,3.34,18.17,6.71,27.28,9.98
		c0.97,0.35,2.18,0.33,3.21,0.12c8.47-1.66,16.98-3.17,25.36-5.2c5.43-1.32,11.82-2.1,13.38-8.96c1.81-7.93-1.3-14.45-7.24-19.67
		c-1.36-1.19-3.24-1.78-4.61-2.96c-1.07-0.91-1.73-2.3-2.57-3.48c1.45-0.37,3.05-1.33,4.33-1.01c11.24,2.79,19.61,22.12,13.69,31.92
		c-3.62,5.99-10,7.68-16.39,9.13c-9.29,2.12-18.81,3.66-27.72,6.86c-4.4,1.58-9,5.66-11.16,9.82c-4.73,9.14,2.51,20.48,14.02,22.95
		c4.07,0.87,8.41,0.43,12.6,0.86c6.89,0.7,13.89,1.04,20.58,2.64c5.48,1.31,10.42,1.52,15.53-0.87c4.25-1.99,8.57-3.88,13-5.41
		c0.7-0.24,2.15,1.7,3.25,2.63c-1.33,1.41-2.42,3.53-4.04,4.09c-7.06,2.44-14.27,4.42-21.86,6.69c0.55,1.87,1.13,3.88,1.81,6.19
		c4.63,0,9,0,13.2,0c3.13-3.04,6.03-6.66,9.7-9.13c2.4-1.62,6.4-0.84,8.84-2.43c8.83-5.75,15.57,1.9,23.26,3.13
		c0.54,0.09,1.39,2.26,1.11,2.58c-0.72,0.81-2.15,1.72-3.05,1.51c-3.39-0.76-6.63-2.23-10.03-2.91c-2.86-0.57-5.87-0.42-9.93-0.66
		c1.69,3.56,2.55,5.36,3.65,7.67c4.1-3.34,8.45-4.84,12.91-1.34c4.64,3.64,5.49,8.36,3.7,13.89c-0.46,1.43-0.12,3.27,0.29,4.8
		c2.67,9.96-1.48,18.76-10.84,23.08c-1.1,0.51-2.11,1.78-2.61,2.94c-1.94,4.5-3.67,9.09-5.81,14.51
		c10.35,12.99,13.55,30.49,17.43,47.66c1.91,8.43,3.29,17.02,4.23,25.61c0.52,4.79,2.54,6.92,7.69,7.2
		c-1.44-7.08-3.12-13.96-4.19-20.92c-1.87-12.19-4.25-24.4-4.71-36.67c-0.31-8.42,1.23-17.29,3.81-25.35
		c4.08-12.77,15.92-15.27,24.76-5.07c5.78,6.67,10.44,14.75,13.87,22.93c7.74,18.5,10.92,38.18,12.14,58.14
		c0.79,12.87,1.38,25.75,1.93,38.64c0.44,10.38-0.55,11.4-11.11,11.03c-13.24-0.47-26.48-1.17-39.65-1.76
		c-3.97,10.08-6.97,12.22-17.79,11.93c-25.03-0.69-50.06-1.58-75.1-2.31c-3.3-0.1-6.85-0.4-9.88,0.6
		c-18.95,6.3-38.56,5.94-58.04,5.51c-16.53-0.37-33.02-2.25-49.52-3.59c-2.16-0.18-4.37-0.85-6.35-1.75
		c-0.97-0.44-2.04-1.91-2.03-2.9c0.01-0.88,1.28-2.16,2.28-2.56c7.84-3.16,15.87-5.85,23.59-9.26c12.1-5.36,24.54-5.22,37.39-4.2
		C269.5,547.89,280.36,547.21,291.9,547.21z M316.83,427.62c0.57,4.09,1.08,9.44,2.1,14.69c1.61,8.27,4.75,16.41,5.11,24.7
		c0.64,14.89-7.26,26.15-18.28,35.53c-2.12,1.81-4.5,4.26-5.04,6.79c-1.81,8.43-3.22,17-4.06,25.58c-0.88,9.03,0.2,17.45,11.1,20.43
		c1.65,0.45,2.89,2.22,4.46,3.15c1.2,0.71,2.61,1.48,3.94,1.52c27.42,0.85,54.84,1.67,82.26,2.33c7.99,0.19,10.34-2.13,9.7-10.35
		c-1.45-18.71-2.96-37.44-5.22-56.06c-1.73-14.27-5.05-16.32-19.75-14.91c-1.83,0.17-3.65,0.84-5.45,0.75
		c-1.83-0.09-3.64-0.82-5.46-1.26c1.57-1.18,3.06-3.22,4.73-3.38c7.2-0.71,14.46-0.87,22.26-1.26c-1.06-3.73-2.61-7.85-3.35-12.12
		c-0.8-4.65-3.4-5.73-7.65-5.92c-7.95-0.35-14.79,2.11-21.21,6.57c-1.17,0.81-3.16,0.44-4.78,0.62c0.7-1.59,1.35-3.21,2.15-4.76
		c0.22-0.43,0.9-0.61,1.35-0.93c7.81-5.56,16.65-7.32,26.98-6.41c-2.2-4.46-3.65-8.25-5.81-11.58c-5.42-8.39-12.99-9.95-21.29-4.49
		c-5.9,3.87-10.67,9.12-11.59,16.18c-3.25,24.93-5.69,49.91,5.67,73.77c1.59,3.34,0.66,5.47-3.35,5.33c-13.35-0.46-26.3-2.99-38.7-8
		c-1.02-0.41-1.53-2.09-2.27-3.18c1.23-0.55,2.6-1.75,3.66-1.52c3.04,0.64,5.9,2.1,8.93,2.8c8.28,1.91,16.62,3.6,26.45,5.7
		c-10.36-24.84-7.93-48.78-6.15-73.17c-2.05,0.81-3.51,1.48-5.03,1.98c-5.65,1.84-12.98,0.4-15.38-4.32
		c-2.77-5.45-4.27-11.59-5.87-17.55c-0.31-1.13,1.45-2.82,2.25-4.25c0.9,1.3,2.17,2.48,2.64,3.92c1.48,4.49,2.21,9.27,4.08,13.56
		c1.89,4.33,6.35,5.66,10.27,3.79c4.09-1.96,8.22-4.86,10.96-8.42c7.26-9.41,15.16-16.51,28.24-14.28c3.57,0.61,8.35-3.94,8.23-8.13
		c-0.18-6.69-0.26-13.6-2.01-19.98c-4.15-15.15-19.85-22.8-34.81-18.03c-0.95,0.3-2.85-1.35-3.81-2.5
		c-0.51-0.62,0.46-2.33,0.03-3.18c-1.56-3.07-2.74-7.14-5.34-8.68c-3.7-2.2-8.67-2.5-12.33,1.12c-3.23,3.19-3.38,6.71-0.06,10.22
		c0.49,0.52,0.37,2.27-0.15,2.9c-0.49,0.59-2.23,0.94-2.8,0.53c-8.76-6.25-14.45-0.42-20,5.13c-4.49,4.49-3.38,11.15,1.99,14.56
		c4.55,2.89,8.6,2.01,12.77-0.94c1.12-0.79,3.08-0.39,4.66-0.53c-0.66,1.52-0.95,3.43-2.06,4.45c-1.58,1.45-4.11,1.89-5.58,3.4
		c-1.67,1.71-3.6,4.15-3.56,6.24c0.03,1.66,2.55,3.93,4.48,4.78c5.76,2.54,10.76,0.08,15.25-3.54c1.85-1.5,3.34-3.45,5.19-4.96
		c0.71-0.58,2.42-1.03,2.85-0.64c0.77,0.71,1.38,2.14,1.26,3.19c-0.81,7.47,1.84,9.46,9.38,7.85c4.54-0.97,9.34-1.01,14.02-0.95
		c1.43,0.02,2.84,1.76,4.26,2.71c-1.72,0.67-3.4,1.72-5.17,1.92c-2.86,0.32-6.08-0.74-8.63,0.2c-7.94,2.94-14.78,2.74-18.89-3.69
		C331.82,424.34,325.02,425.83,316.83,427.62z M413.57,550.49c15.6,0.71,30.74,1.39,46.09,2.09c0-6.68,0.4-12.22-0.07-17.68
		c-1.65-18.87-3.62-37.72-5.43-56.58c-0.34-3.58-2.06-5.19-5.75-4.87c-3.12,0.27-6.27,0.39-9.39,0.2c-1.2-0.07-2.34-1.17-3.5-1.81
		c1.08-0.96,2.06-2.58,3.25-2.76c4.12-0.62,8.31-0.73,12.5-1.04c-2.91-15.2-3.05-15.06-16.25-13.21c-1.46,0.2-2.95,0.73-4.36,0.54
		c-1.54-0.2-3-1.04-4.5-1.6c1.2-1.08,2.27-2.87,3.63-3.12c4.98-0.93,10.06-1.36,16.91-2.2c-5.13-7.07-9.07-13.97-14.42-19.48
		c-5.78-5.95-12.44-4.33-15.05,3.56c-2.27,6.87-4.24,14.42-3.74,21.49c1.09,15.38,3.69,30.66,5.98,45.94
		c0.82,5.44,2.64,10.72,3.77,16.12c0.35,1.69-0.05,3.53-0.11,5.3c-1.7-0.19-3.44-0.2-5.08-0.6c-2.09-0.51-4.1-1.32-6.61-2.16
		C412.16,529.34,412.83,539.38,413.57,550.49z M209.17,563.01c8,3.5,61.7,5.33,71.67,2.27c-0.16-1.6-0.56-3.25-0.41-4.85
		c0.16-1.77,0.81-3.5,1.48-6.16C256.6,551.93,231.54,546.45,209.17,563.01z M393.79,411.79c6.04-1.82,10.06-8.6,9.45-14.26
		c-0.46-4.22-0.03-8.54-0.66-12.72c-0.34-2.23-1.67-4.78-3.39-6.11c-0.81-0.63-3.82,0.93-5.39,2.1c-1.76,1.31-3.02,3.29-4.5,4.98
		c-1.16-2.11-2.34-4.22-3.46-6.35c-0.25-0.48-0.15-1.19-0.48-1.56c-1.91-2.19-3.91-4.3-5.87-6.44c-2.31,2.17-4.61,4.34-7.44,7
		C387.09,385.61,392.95,396.98,393.79,411.79z M308.74,379.14c4.69-1.43,8.98-2.73,13.21-4.02
		C318.16,372.62,315.06,373.49,308.74,379.14z"/>
	<path d="M174.4,283.28c1.57-2.23,2.84-6.02,4.7-6.34c6.58-1.13,8.08,4.96,10.79,9.51c4.5-3.44,8.19-1.11,10.76,2.29
		c4.98,6.58,10.59,13.09,13.73,20.56c6.48,15.38,12.46,31.07,13.82,48.06c1.16,14.45-4.53,25.35-17.12,28.34
		c-5.5,1.31-12.29,0.61-17.63-1.44c-22.63-8.68-34.77-26.15-38.88-49.59c-3.19-18.17-0.12-35.54,7.04-52.33
		c0.29-0.68,0.44-1.53,0.95-1.97c2.13-1.86,4.37-3.6,6.57-5.38c1.46,1.97,2.98,3.9,4.33,5.94
		C174.06,281.81,174.27,282.93,174.4,283.28z"/>
	<path d="M367.52,243.2c-6.03-1.38-11.83-1.69-16.55-4.12c-3.44-1.77-7.19-6.13-7.56-9.67c-0.32-3.1,3.11-8.02,6.22-9.78
		c11.08-6.3,22.88-5.89,34.33-0.57c4.45,2.07,6.81,6.09,6.84,11.15c0.02,4.89-3.44,7.32-7.29,8.68
		C378.23,240.76,372.66,241.86,367.52,243.2z"/>
	<path d="M485.19,290.85c4.29-2.33,7.93-5.35,12.04-6.28c5.54-1.25,9.04,2,10.04,7.64c1.22,6.89-0.84,13.09-5.84,17.59
		c-6.39,5.74-13.46,10.75-20.46,15.78c-0.7,0.5-3.78-0.7-4.24-1.77c-3.06-7.07-5.7-14.32-8.48-21.51c-0.26-0.69-0.55-1.37-0.75-2.07
		c-2.26-7.88-0.4-14.38,4.73-16.51C476.6,281.89,481.29,284.66,485.19,290.85z M481.1,321.31c6.78-6.07,12.99-11.13,18.52-16.86
		c1.95-2.02,2.88-5.61,3.07-8.57c0.14-2.16-1.5-6.17-2.69-6.3c-2.46-0.27-5.71,0.86-7.6,2.57c-2.21,2-3.19,5.31-4.95,7.89
		c-0.61,0.9-1.91,1.74-2.95,1.8c-0.63,0.04-1.56-1.37-1.98-2.29c-0.45-0.97-0.34-2.18-0.67-3.23c-1.2-3.88-2.51-9.1-7.38-7.85
		c-5.14,1.32-3.61,6.72-2.34,10.42C474.52,305.83,477.55,312.54,481.1,321.31z"/>
	<path d="M126.94,222.74c0-2.33-0.59-4.32,0.12-5.56c1.54-2.7,3.29-6.14,5.81-7.15c2.24-0.89,6.25,0.32,8.33,2.01
		c2.2,1.79,3.55,5.1,4.38,8.01c1.86,6.53,3.37,13.18,4.53,19.87c0.23,1.36-1.6,4.35-2.71,4.47c-9.01,0.99-18.1,1.29-26.16-3.94
		c-2.25-1.46-4.88-3.42-5.69-5.73c-0.99-2.81-1.23-6.74,0.07-9.22c0.98-1.87,4.82-2.39,7.48-3.18
		C124.2,221.99,125.55,222.56,126.94,222.74z M144.53,239.94c-0.39-2.28-0.57-4.08-1.01-5.81c-1.43-5.67-2.72-11.39-4.62-16.9
		c-0.43-1.25-3.1-1.73-4.74-2.57c-0.64,1.73-2.15,3.7-1.75,5.15c0.8,2.92,2.77,5.5,3.99,8.33c0.5,1.15,0.31,2.6,0.43,3.92
		c-1.33-0.06-2.81,0.21-3.97-0.27c-2.36-0.97-4.44-2.77-6.85-3.44c-2.01-0.56-4.32,0.01-6.51,0.09c0.88,2.21,1.15,5.14,2.75,6.49
		C128.59,240.27,136.33,240.21,144.53,239.94z"/>
	<path d="M464.49,342.21c2.22-0.7,4.17-1.9,6.02-1.76c2.73,0.21,6.58,0.56,7.79,2.33c1.56,2.28,1.68,6.16,1.09,9.09
		c-0.44,2.21-2.56,4.75-4.62,5.84c-7.07,3.74-14.38,7.05-21.78,10.1c-0.98,0.4-4.04-1.43-4.34-2.66c-1.2-4.95-1.72-10.07-2.42-15.14
		c-0.25-1.81-0.51-3.65-0.43-5.47c0.31-6.63,3.66-10.97,8.8-11.63C459.77,332.26,462,334.28,464.49,342.21z M453.61,362.33
		c7.65-1.74,14.15-4.59,19.31-9.74c1.38-1.37,1.34-4.16,1.95-6.3c-2.2,0.06-4.51-0.25-6.58,0.31c-1.67,0.45-2.97,2.13-4.59,2.94
		c-1.34,0.66-2.93,0.83-4.4,1.22c-0.28-1.33-0.74-2.65-0.8-3.99c-0.08-1.83,0.44-3.72,0.12-5.48c-0.22-1.23-1.25-2.96-2.24-3.21
		c-1.09-0.28-3.17,0.53-3.71,1.48c-1.02,1.82-1.88,4.15-1.69,6.16C451.52,351.13,452.65,356.5,453.61,362.33z"/>
	<path d="M385.6,287.71c0.95-9.43,1.56-16.58,2.48-23.7c0.17-1.3,1.59-2.44,2.44-3.66c0.81,1.37,2.37,2.78,2.31,4.11
		c-0.32,7.17-1.32,14.31-1.48,21.48c-0.06,2.42,1.69,4.86,2.5,7.32c0.39,1.19,0.55,2.46,0.81,3.7c-1.48-0.03-3.85,0.5-4.28-0.19
		C388.22,293.38,386.58,289.66,385.6,287.71z"/>
	<path d="M239.48,221.11c-0.75-0.59-2.02-1.1-2.2-1.86c-0.2-0.82,0.35-2.36,1.05-2.76c9.56-5.47,19.16-10.86,28.87-16.05
		c1.09-0.58,2.92,0.23,4.41,0.39c-0.45,1.21-0.55,3.02-1.42,3.54c-8.35,4.99-16.81,9.8-25.29,14.56
		C243.32,219.82,241.51,220.31,239.48,221.11z"/>
	<path d="M311.13,202.74c-6.57-0.97-14.59-2.06-22.55-3.44c-0.96-0.17-1.66-1.87-2.48-2.86c1.16-0.63,2.38-1.9,3.46-1.79
		c4.94,0.49,9.82,1.44,14.75,2.08c3.64,0.47,7.34,0.54,10.95,1.16c1.69,0.29,3.22,1.46,4.82,2.23c-1.58,0.88-3.1,1.88-4.76,2.58
		C314.53,203.01,313.5,202.74,311.13,202.74z"/>
	<path d="M360.89,270.99c1.35-1.48,2.3-2.52,3.25-3.57c0.9,0.97,2.28,1.8,2.63,2.94c2.38,7.64,4.63,15.33,6.69,23.07
		c0.33,1.23-0.54,2.77-0.86,4.16c-1.24-0.8-3.2-1.33-3.59-2.43C366.17,287.3,363.65,279.32,360.89,270.99z"/>
	<path d="M413.81,365.21c-5.09-1.41-10.22-2.69-15.22-4.36c-0.95-0.32-1.38-2.18-2.05-3.33c1.4-0.33,2.87-1.12,4.18-0.92
		c5.59,0.85,11.15,1.88,16.68,3.08c1.83,0.4,3.5,1.51,5.25,2.3c-1.77,0.83-3.49,1.8-5.33,2.42c-0.99,0.33-2.19,0.06-3.29,0.06
		C413.96,364.71,413.89,364.96,413.81,365.21z"/>
	<path d="M260.45,150.34c3.22,1.7,6.96,3.48,10.44,5.65c0.82,0.52,0.81,2.37,1.18,3.61c-1.29,0.13-2.64,0.57-3.84,0.31
		c-1.18-0.26-2.15-1.64-3.31-1.81c-3.22-0.46-6.49-0.51-9.74-0.77c-1.44-0.11-2.87-0.32-4.3-0.48c0.82-1.38,1.32-3.25,2.52-4.02
		C255.16,151.7,257.44,151.34,260.45,150.34z"/>
	<path d="M416.53,348.16c-3.29-0.28-6.63-0.3-9.83-0.99c-1.15-0.25-1.94-2.12-2.9-3.26c1.22-0.54,2.43-1.55,3.65-1.55
		c5.66-0.03,11.34,0.07,16.98,0.48c1.41,0.1,2.73,1.58,4.09,2.42c-1.24,0.83-2.4,2.19-3.72,2.37c-2.7,0.37-5.49,0.11-8.25,0.11
		C416.54,347.88,416.54,348.02,416.53,348.16z"/>
	<path d="M411.6,322.03c6.06,2.49,11.65,4.73,17.17,7.14c0.56,0.24,1.11,2.03,0.86,2.27c-0.82,0.8-2.28,1.93-3.01,1.66
		c-5.45-2.06-10.82-4.36-16.11-6.8c-0.65-0.3-1.17-1.98-0.93-2.77C409.81,322.78,411.11,322.36,411.6,322.03z"/>
	<path d="M377.33,336.39c-1.69,0.2-3.68,1.01-4.33,0.4c-3.48-3.25-6.72-6.77-9.8-10.41c-0.56-0.66-0.27-2.43,0.22-3.4
		c0.22-0.44,2.32-0.63,2.79-0.15c3.5,3.51,6.82,7.21,10.15,10.88C376.69,334.08,376.73,334.71,377.33,336.39z"/>
	<path d="M346.55,322.97c3.61,0.24,5.86,0.15,7.97,0.64c0.91,0.21,1.54,1.65,2.29,2.52c-0.89,0.74-1.74,2.06-2.68,2.13
		c-4.53,0.34-9.09,0.44-13.63,0.39c-0.83-0.01-2.38-1.16-2.33-1.68c0.09-1.04,0.87-2.66,1.68-2.88
		C342.46,323.37,345.22,323.17,346.55,322.97z"/>
	<path d="M265.18,544.25c0.49,0.26,1.08,0.56,1.67,0.87c-0.05,0.18-0.09,0.35-0.14,0.53c-1.16-0.2-3.01-0.04-3.33-0.66
		c-0.82-1.58-1.61-3.72-1.13-5.24c0.35-1.13,2.85-2.44,4.11-2.2c1.26,0.24,2.17,2.31,3.24,3.58
		C268.2,542.13,266.8,543.11,265.18,544.25z"/>
</g>
</svg>
