<?xml version="1.0" encoding="utf-8"?>
<!-- Generator: Adobe Illustrator 26.0.1, SVG Export Plug-In . SVG Version: 6.00 Build 0)  -->
<svg version="1.1" id="Layer_1" xmlns="http://www.w3.org/2000/svg" xmlns:xlink="http://www.w3.org/1999/xlink" x="0px" y="0px"
	 viewBox="0 0 680 680" style="enable-background:new 0 0 680 680;" xml:space="preserve">
<g>
	<path d="M306.8,78.01c6.62,7.18,12.89,14.72,19.93,21.45c9.17,8.77,20.32,13.37,33.13,14.65c28.36,2.83,55.37,10.33,79,26.91
		c17.75,12.45,31.17,28.6,33.82,50.86c1.49,12.47,1.7,25.47-0.07,37.86c-2.83,19.84-14.74,34.89-31.31,45.51
		c-9.43,6.04-20.19,10.01-30.37,14.87c-1.45,0.69-3.02,1.13-5.17,1.93c4.37,4.52,7.07,8.51,14.61,7.82
		c16.59-1.51,30.66,6.19,38.45,23.72c5.97,13.42,7.08,27.65,4.16,42.08c-1.88,9.28-6.92,16.44-15.07,21.41
		c-1.21,0.74-2.76,1.87-3.01,3.06c-3.54,17.09-15.12,28.4-28.38,37.87c-9.27,6.62-19.74,11.6-29.93,16.83
		c-2.97,1.52-3.01,3.41-3.19,5.94c-1.1,15.56-4.68,30.33-14.9,42.64c-3.05,3.67-7.05,6.52-10.35,10c-1.43,1.51-2.95,3.62-3.09,5.56
		c-0.4,5.3-0.01,10.66-0.1,15.99c-0.05,2.87,1.19,3.56,3.94,3.68c16.28,0.69,32.61,0.99,48.8,2.61
		c14.15,1.42,27.98,5.15,39.39,14.34c8.85,7.12,13.64,16.27,11.03,28.41c1.58,0.45,3.08,0.88,5.47,1.57
		c-1.67,1.44-2.77,3.04-4.23,3.53c-21.11,7.07-42.54,12.48-64.97,7.79c-5.33-1.12-9.54-1.37-14.46,1.58
		c-3.82,2.29-8.77,2.79-13.28,3.83c-8.06,1.87-16.16,3.56-24.25,5.3c-1.14,0.24-2.3,0.39-3.46,0.52
		c-23.94,2.62-47.95,3.76-72.02,2.91c-18.46-0.65-36.91-1.5-55.36-2.52c-7.95-0.44-15.07-2.73-18.64-11.07
		c-0.6-1.39-2.99-1.92-4.28-3.13c-0.86-0.81-1.62-2.1-1.7-3.22c-0.04-0.56,1.61-1.17,2.4-1.86c1.38-1.21,3.51-2.3,3.88-3.8
		c1.98-8.02,7.57-12.68,14.3-16.44c11.23-6.27,23.69-8.66,36.08-11.15c3.7-0.74,5.84-1.86,6.37-6.13
		c1.11-9.07,2.87-18.06,4.41-27.08c0.56-3.25-0.17-5.32-3.25-7.44c-5.85-4.03-11.24-8.78-16.47-13.61
		c-2.16-1.99-3.42-2.73-5.59-0.29c-6.25,7.03-14.21,7.38-21.94,3.86c-6.88-3.13-12.77-2.2-19.6-0.05
		c-11.05,3.47-22.57,5.59-32.68-2.94c-1.74-1.47-3.9-4.24-3.54-5.91c0.43-2.02,3.27-3.59,5.2-5.2c2.47-2.05,5.58-3.54,7.52-5.97
		c9.16-11.53,18-13.32,31.66-7.99c7.1,2.77,15.1,3.45,22.77,4.43c3.69,0.47,5.89-1.8,6.34-6.05c0.41-3.91,1.74-7.78,3.09-11.51
		c1.05-2.93,0.63-4.48-2.39-5.79c-16.99-7.35-32.41-16.95-44.53-31.32c-1.17-1.39-3.82-2.37-5.69-2.22
		c-23.18,1.76-34.62-17.03-36.89-35.85c-1.47-12.16-0.72-23.96,4.61-35.09c6.93-14.44,18.75-21.84,34.64-21.87
		c5.42-0.01,7.77-2.28,11.05-6.17c5.81-6.89,13.15-12.49,19.9-18.57c1.05-0.95,2.37-1.6,4.32-2.9c-4.58-2.27-8.33-4.33-12.29-5.87
		c-0.55-0.22-2.46,1.93-3.12,3.29c-2.71,5.62-4.34,11.96-7.93,16.91c-7.03,9.69-18.29,12.12-29.46,7.44
		c-25.04-10.5-38.05-30.16-42.42-56.24c-3.53-21.05,0.13-41.54,6.03-61.6c3.79-12.9,8.97-25.4,13.81-37.97
		c4.42-11.47,8.43-23.19,14.01-34.1c10.77-21.05,25.95-38.66,47.72-48.66c19.3-8.86,39.75-14.06,61.44-13.62
		c14.29,0.29,27.77,2.71,40.3,9.73c1.88,1.05,3.94,1.76,5.92,2.63L306.8,78.01z M254.35,260.27c-1.77,1.42-2.81,2.51-4.07,3.18
		c-0.76,0.4-2.1,0.53-2.74,0.11c-0.63-0.42-1.04-1.69-0.99-2.56c0.37-5.82,10.56-11.47,15.53-8.6c2.02,1.17,3.96,3.18,0.99,4.88
		c-3.19,1.82-2.05,3.74-1.03,5.77c4.38,8.74,10.2,16.39,17.75,22.62c13.68,11.3,38.04,12.53,51.62,3.92
		c18.41-11.68,38.66-12.46,58.9-4.37c5.29,2.12,10.13,2.75,15.4,0.72c5.43-2.09,11.01-3.85,16.34-6.17
		c16.1-7.02,29.85-17.08,38.49-32.71c9.14-16.54,10.73-34.35,7.37-52.82c-3.14-17.26-11.39-31.48-24.73-42.71
		c-24.4-20.55-53.62-28.82-84.52-32.03c-14.08-1.46-26.02-6.69-36-16.37c-4.99-4.84-8.89-10.83-14.04-15.46
		c-12.56-11.3-28.08-15.59-44.51-16.6c-14.77-0.91-28.92,2.78-43.18,6.32c-29.6,7.34-49.82,26.02-63.69,51.97
		c-6.55,12.25-10.53,25.84-16.19,38.59c-7.27,16.36-12.88,33.22-16.06,50.8c-3.53,19.51-4.66,39.06,2.5,58.13
		c6.15,16.36,17.11,28.36,33.36,35.14c13.64,5.69,25.33-0.1,29.53-14.35c5.86-19.91,9.24-40.17,8.4-61
		c-0.71-17.47-4.41-33.68-19.13-45.31c-0.93-0.73-0.8-2.81-1.16-4.27c1.5-0.07,3.6-0.8,4.38-0.09c3.89,3.58,8.18,7.06,10.98,11.44
		c10.21,15.99,12.02,33.98,10.6,52.37c-0.73,9.42-2.52,18.75-3.49,28.15c-0.18,1.75,0.71,4.48,2.04,5.36
		c8.26,5.54,16.49,9.56,27.42,6.12c18.56-5.84,36.7-3.13,53.13,7.44c7.33,4.71,13.86,10.66,21.29,16.47
		c2.86-3.65,6.01-7.69,10.16-13C283.58,302.7,266.17,285.58,254.35,260.27z M405.49,301.09c-5.31-5.99-12.98-9.05-20.68-11.29
		c-26.93-7.85-49.87-0.85-68.51,20c-2.74,3.07-4.56,6.94-7.06,10.26c-3.42,4.54-5.32,4.52-8.93,0.41
		c-16.65-18.97-36.5-30.22-62.73-25.46c-14.87,2.7-28.22,8.65-38.81,19.78c-7.41,7.79-7.31,8.07-1.2,16.73
		c5.31,7.53,3.82,19.16-3.67,24.01c-3.57,2.31-2.93,3.95-1.01,6.65c4.52,6.34,4.17,15.06-1.22,20.6c-2.67,2.75-2.49,4.76-0.73,7.8
		c5.41,9.35,4.95,14.22-2.01,22.44c-1.81,2.14-1.67,3.2,0.16,5.35c7.61,8.93,17.21,15.27,27.38,20.51
		c14.94,7.7,30.81,12.63,47.46,16.01c16.34,3.32,32.72,7.74,47.43,16.41c6.21,3.66,7.48,2.97,13.26-1.18
		c8.21-5.89,16.53-11.89,25.54-16.34c12.17-6.02,25.13-10.43,37.6-15.88c12.56-5.48,24.08-12.79,33.95-22.3
		c4.97-4.79,9.1-10.53,13.21-16.13c1.21-1.65,1.06-4.29,1.54-6.48c-1.73-0.11-3.48-0.38-5.2-0.3c-12.72,0.61-20.19-7.1-18.84-19.71
		c0.23-2.11,1.55-4.12,1.64-6.21c0.08-1.86-0.25-4.39-1.45-5.54c-6.39-6.14-8.33-13.09-4.69-21.26c1.31-2.93,0.46-4.44-2.09-6.11
		c-8.29-5.43-10.94-13.56-7.07-22.45C400.26,307.93,402.91,304.96,405.49,301.09z M377.64,449.22c-1.59,0.13-2.46,0-3.18,0.28
		c-17.26,6.85-33.66,15.28-47.95,27.28c-7.06,5.93-6.71,5.86-15.14,1.8c-8.66-4.16-17.42-8.4-26.56-11.22
		c-15.39-4.75-31.11-8.49-46.76-12.35c-1.33-0.33-4.08,1.2-4.71,2.55c-4.15,8.89-3.74,17.82,1.27,26.29
		c5.21,8.82,12.77,15.21,21.76,19.98c2.53,1.34,5.04,2.52,4.39,6.3c-1.93,11.14-4.1,22.26-5.33,33.48
		c-0.73,6.69-4.27,8.68-10.09,9.87c-9.27,1.91-18.59,3.97-27.49,7.09c-5.49,1.93-10.96,5.2-15.19,9.2
		c-8.95,8.45-5.87,19.57,5.77,22.94c1.58,0.46,3.23,0.89,4.86,0.96c20.62,0.87,41.25,1.95,61.88,2.38
		c13.47,0.28,26.95-0.39,40.43-0.68c3.88-0.08,4.78-2.44,3.93-5.74c-1.66-6.44-3-13.03-9.04-17.28c-0.8-0.56-0.59-2.56-0.85-3.9
		c1.33-0.19,2.84-0.86,3.93-0.44c1.46,0.57,3.1,1.73,3.76,3.08c2.76,5.6,5.02,11.45,7.82,17.03c0.89,1.77,2.95,4.33,4.35,4.25
		c6.89-0.39,13.75-1.41,20.58-2.49c3.13-0.49,3.62-2.88,3.09-5.74c-1.44-7.84-5.57-13.35-13.23-16.11
		c-1.96-0.71-5.47-1.07-3.72-4.32c0.57-1.05,4.22-1.27,6.06-0.66c9.4,3.14,14.88,10,16.2,19.69c0.5,3.63,1.9,4.86,5.03,4.21
		c5.01-1.04,10.31-1.67,14.82-3.86c9.08-4.4,10.15-15.58,2.18-21.84c-3.71-2.91-8.21-5.22-12.72-6.61
		c-23.57-7.25-47.85-7.45-72.21-6.61c-2.42,0.08-5.92,1.45-6.31-2.46c-0.07-0.75,4.06-2.65,6.28-2.71c3.52-0.09,5.47-1.13,5.48-4.72
		c0.03-9.95-0.07-19.9,0-29.85c0.01-1.3,0.71-2.59,1.09-3.88c1.36,0.66,3.46,0.99,3.94,2.05c1,2.2,1.59,4.79,1.55,7.21
		c-0.13,7.81-0.45,15.62-1.05,23.4c-0.34,4.45,1.29,5.62,5.63,5.76c13.63,0.44,27.39,0.4,40.81,2.47
		c9.66,1.49,19.24,5.23,28.12,9.49c7.72,3.7,11.69,11.21,9.84,20.03c-1,4.78,1.05,6.57,4.57,6.72c9.72,0.42,19.47,0.33,29.2,0.06
		c1.01-0.03,3.03-2.91,2.74-3.99c-2.48-9.48-4.37-19.54-16.22-22.38c-0.9-0.21-1.44-1.88-2.16-2.87c0.9-0.62,1.98-1.91,2.67-1.73
		c3.29,0.85,6.89,1.48,9.6,3.33c6.09,4.15,8.68,10.7,10.46,17.64c2.23,8.71,2.33,8.68,10.89,6.67c9.61-2.26,12.86-9.03,8.83-18.06
		c-3.71-8.32-10.45-13.34-18.5-16.54c-13.54-5.39-27.67-8.52-42.27-8.89c-11.97-0.31-23.95-0.1-35.92-0.02
		c-3.33,0.02-6.12-0.35-6.11-4.61c0.02-8.17-0.15-16.34,0.2-24.49c0.08-1.76,1.6-4.11,3.14-5.06c8.06-4.96,14.13-11.62,18.21-20.06
		C374.98,470.86,377.76,460.71,377.64,449.22z M142.97,371c0.94,6.05,1.39,12.23,2.91,18.13c4.02,15.57,15.75,23.44,31.7,21.83
		c8.36-0.84,12.48-6.44,9.45-14.24c-1.33-3.43-4.99-5.95-7.56-8.9c-1.09-1.25-2.12-2.55-3.18-3.83c1.5-0.8,2.91-1.99,4.5-2.32
		c5.29-1.09,8.27-3.9,8.71-8.73c0.52-5.69-1.7-9.36-7-11.14c-2.19-0.73-4.61-0.82-6.76-1.64c-1.92-0.73-3.61-2.07-5.4-3.14
		c1.89-1,3.68-2.37,5.69-2.91c3.95-1.06,8.14-1.29,12.03-2.53c4.43-1.4,6.65-5.04,6.49-9.62c-0.16-4.72-1.97-8.79-6.69-10.81
		c-11.82-5.05-22.36-1.48-31.53,5.95C145.74,345.68,143.52,357.99,142.97,371z M422.24,304.78c-3.4,0.7-6.94,1-10.16,2.18
		c-6.75,2.49-9.73,7.27-8.92,13.3c0.75,5.54,5.59,9.53,12.61,10.01c2.97,0.2,5.99-0.41,8.96-0.2c1.5,0.11,2.92,1.23,4.38,1.9
		c-1.15,1.18-2.11,2.72-3.5,3.48c-3.02,1.67-6.54,2.54-9.34,4.48c-5.05,3.5-5.72,9.86-1.52,14.31c1.57,1.67,4.18,2.48,6.45,3.33
		c2.03,0.76,4.24,1.04,6.37,1.53c-1.4,2.03-3.09,3.92-4.14,6.11c-1.82,3.77-3.91,7.61-4.66,11.65c-0.91,4.89,2.48,7.69,6.96,8.85
		c11.02,2.85,24.84-4.29,29.5-14.72c6.37-14.26,4.15-28.29-0.44-42.38C450.12,314.28,437.42,305.1,422.24,304.78z M159.46,490.17
		c-0.29-0.56-0.17-0.04,0.15,0.24c0.62,0.54,1.34,0.97,2.05,1.4c7.73,4.67,15.87,2.24,23.26-0.03c8.71-2.68,16.56-3.41,25.12,0.3
		c6.94,3.01,14.2,0.45,16.89-5.27c0.86-1.83,0.14-4.75-0.68-6.85c-0.31-0.78-3.04-1.12-4.53-0.86c-10.12,1.75-19.53-0.59-28.5-4.94
		c-10.35-5.02-17.73-3.15-24.63,6.18C166.06,483.78,162.77,486.66,159.46,490.17z"/>
	<path d="M306.93,78.11c-2.81-3.37-1.77-5.63,1.99-7.27c14.76-6.45,23.23,1.19,25.13,13.3c0.18,1.15-1.26,2.56-1.95,3.84
		c-1.03-0.83-2.59-1.45-3.01-2.53c-4.97-12.62-7.87-13.82-20.43-8.11c-0.6,0.27-1.25,0.44-1.87,0.66
		C306.8,78.01,306.93,78.11,306.93,78.11z"/>
	<path d="M148.58,200.42c0.17-1.64,0.38-3.28,0.5-4.92c0.51-7.26,0.95-14.53,1.52-21.78c0.1-1.3,0.37-2.92,1.2-3.75
		c1.89-1.87,4.08-4.34,6.35-4.57c1.33-0.14,4.03,3.39,4.43,5.58c3.08,17.06,11.42,31.3,21.82,44.86c3.35,4.37,4.89,10.57,5.96,16.19
		c3.07,16.08,1.88,32.12-2.1,47.98c-1.34,5.32-2.29,10.75-3.86,16c-3.79,12.62-14.67,16.19-25.38,8.6
		c-12.79-9.06-19.25-22.42-23.71-36.65c-8.81-28.14-8.2-56.07,4.45-83.15c0.96-2.05,3.48-3.36,5.28-5.02
		c0.97,2.28,2.69,4.54,2.74,6.84c0.1,4.5-0.74,9.01-1.18,13.52C147.25,200.23,147.92,200.32,148.58,200.42z"/>
	<path d="M387.48,185.62c9.83-0.12,17.66,1.83,22.32,10.19c4.41,7.9,2.27,15.64-5.66,19.98c-9.07,4.95-18.89,6.45-29.03,4.95
		c-8.56-1.27-14.61-7.08-15.87-14.48c-1.07-6.32,1.35-11.51,6.92-14.75C373.08,187.48,380.47,185.23,387.48,185.62z M394.31,204.35
		c2.36-1.65,4.08-2.86,5.8-4.06c-1.85-1.32-3.67-3.62-5.56-3.67c-1.83-0.05-3.73,2.2-5.6,3.44
		C390.56,201.35,392.17,202.64,394.31,204.35z"/>
	<path d="M283.49,160.97c7.71-0.51,14.02,2.8,19.81,7.16c1.05,0.79,1.01,3.05,1.47,4.63c-1.49,0-3.16,0.44-4.43-0.09
		c-4.11-1.7-7.95-4.11-12.13-5.58c-6.21-2.17-11.64-0.19-16.6,3.98c-1.41,1.19-3.81,1.21-5.75,1.77c0.66-1.95,0.8-4.36,2.07-5.76
		C272.05,162.56,277.39,160.49,283.49,160.97z"/>
	<path d="M337.06,153.34c1.6,0.47,4.57,1.03,7.23,2.26c1.09,0.5,1.51,2.44,2.24,3.73c-1.29,0.48-2.67,1.53-3.85,1.34
		c-13.36-2.1-13.72-1.91-20.33,10.4c-0.62,1.16-2.41,1.69-3.65,2.51c-0.56-1.24-1.7-2.54-1.6-3.72
		C317.82,161.59,327.39,153.21,337.06,153.34z"/>
	<path d="M276.09,77.58c3.89,2.06,7.26,3.61,10.33,5.62c0.84,0.55,0.79,2.47,1.15,3.76c-1.34,0.2-3.11,1.06-3.94,0.5
		c-4.78-3.2-9.26-4.07-14.06,0.02c-0.71,0.6-2.59-0.16-3.93-0.3c0.18-1.22-0.07-3.05,0.63-3.56
		C269.22,81.5,272.46,79.76,276.09,77.58z"/>
</g>
</svg>
