<?xml version="1.0" encoding="utf-8"?>
<!-- Generator: Adobe Illustrator 26.0.1, SVG Export Plug-In . SVG Version: 6.00 Build 0)  -->
<svg version="1.1" id="Layer_1" xmlns="http://www.w3.org/2000/svg" xmlns:xlink="http://www.w3.org/1999/xlink" x="0px" y="0px"
	 viewBox="0 0 680 680" style="enable-background:new 0 0 680 680;" xml:space="preserve">
<g>
	<path d="M224.96,529.62c0.8-5.6,3.54-9.61,7.7-13.03c6.59-5.41,14.45-6.48,22.46-7.63c7.93-1.14,15.76-2.92,23.63-4.4
		c2.06-0.39,2.4-1.69,1.9-3.44c-3.91-13.76-2.48-27.56-0.21-41.33c1-6.1,2.46-12.12,3.48-18.22c0.94-5.6-0.32-7.27-5.95-7.39
		c-13.83-0.28-27.67-0.01-41.48-0.53c-13.79-0.51-27.6-1.29-41.32-2.77c-8.69-0.93-16.15-5.3-22.06-11.97
		c-0.45-0.51-1.07-0.87-2.04-1.64c-0.9,3.28-1.38,6.32-2.56,9.06c-4,9.28-10.14,16.62-19.71,20.66c-5.34,2.26-14.82-1.65-17.79-6.79
		c-3.92-6.79-4.78-14.11-4.07-21.73c0.15-1.64,0.29-3.31,0.71-4.9c1.52-5.61-1.22-9.57-4.62-13.59
		c-5.49-6.49-11.05-12.96-13.36-21.51c-1.43-5.3-0.27-10.19,1.52-15.08c1.9-5.19,4.31-9.96,9.37-12.94
		c5.57-3.28,10.67-3.07,15.69,0.95c0.73,0.59,1.64,0.97,2.46,1.44c0.15-1.05,0.41-2.1,0.44-3.15c0.09-3.18-0.37-6.47,0.3-9.51
		c0.45-2.05,2.07-4.37,3.84-5.52c7.77-5.06,17.28-2.17,22.7,4.38c6.06,7.32,9.98,15.53,9.77,25.3c-0.04,1.66,0.78,2.22,2.32,2
		c3.15-0.46,6.37-0.68,9.43-1.51c1.27-0.34,2.33-1.87,3.26-3.04c4.25-5.28,9.37-8.23,16.49-7.96c24.95,0.95,49.91,1.67,74.87,2.33
		c7.22,0.19,14.45-0.15,21.67-0.18c2.41-0.01,3.29-1.06,3.06-3.43c-0.17-1.74,0.02-3.51-0.05-5.26c-0.15-3.56,0.98-6.24,4.67-7.41
		c2.24-0.71,1.71-2.11,0.79-3.63c-5.42-8.9-12.77-14.02-23.68-14.89c-9.38-0.74-18.66-3.17-27.85-5.4
		c-3.82-0.92-7.33-3.2-10.93-4.97c-2.18-1.07-3.38-0.8-4.6,1.59c-2.92,5.76-5.73,11.68-9.48,16.89
		c-9.66,13.42-23.26,16.83-39.52,10.85c-11.11-4.09-19.61-11.57-27.19-20.27c-12.1-13.88-19.52-30.19-23.9-47.9
		c-1.65-6.65-2.71-13.51-3.33-20.35c-0.78-8.68-1.72-17.51-0.96-26.14c0.9-10.19,1.61-20.66,5.91-30.22
		c3.62-8.04,7.76-15.85,11.6-23.79c5.24-10.83,10.94-21.47,15.5-32.58c6.32-15.38,13.67-30.14,22.63-44.13
		c5.94-9.29,13.57-16.68,23.34-21.85c10-5.29,19.82-10.94,30.02-15.8c8.7-4.14,17.7-7.89,27.47-8.8c9.7-0.9,19.41-0.5,28.95,1.59
		c14.65,3.21,28.71,8.13,41.85,15.41c3.48,1.93,6.51,4.68,9.81,6.96c1.59,1.1,3.22,2.32,5.02,2.89c1.26,0.4,3.17,0.26,4.23-0.46
		c9.59-6.46,19.94-8.67,31.43-7.06c7.04,0.98,13.77,2.58,19.96,5.99c5.21,2.87,9.57,6.81,12.32,12.2c1.76,3.45,4.7,4.63,8.27,5.47
		c12,2.82,23.96,5.82,35.87,8.98c14.95,3.96,25.08,14.44,34.37,25.95c9.17,11.36,15.3,24.23,19.44,38.2
		c2.41,8.14,4.18,16.26,3.47,24.79c-0.04,0.51-0.04,1.04,0,1.55c1.19,13.75-1.89,26.75-6.44,39.6
		c-4.03,11.38-9.57,21.97-16.68,31.58c-5.15,6.97-12.49,11.85-19.69,16.69c-15.91,10.7-33.43,17.61-51.86,22.56
		c-12.72,3.42-25.41,7.01-37.94,11.06c-8.88,2.87-16.11,8.23-20.06,17.12c-0.61,1.38-1.03,2.84-1.57,4.38
		c2.69,1.14,5.07,2.08,7.39,3.14c3.38,1.56,5.32,4.13,5.31,7.98c-0.02,4.23,0.11,8.47-0.05,12.7c-0.09,2.4,0.84,3.27,3.16,3.48
		c5.16,0.47,10.27,1.24,14.67,4.32c5.97,4.19,8.8,10.38,9.89,17.21c1.02,6.39,1.63,12.92,1.49,19.38c-0.11,5.09,1.82,9.08,4.03,13.3
		c4.25,8.12,8,16.47,8.83,25.77c0.31,3.49,1.71,6.01,4.66,8.15c5.96,4.3,10.68,9.89,12.96,16.92c1.17,3.61,1,7.7,1.15,11.58
		c0.08,2.26,0.34,3.72,2.9,4.61c4.46,1.56,7.1,5.34,8.61,9.56c5.15,14.33,5.89,29.08,4.16,44.13c-0.97,8.44-2.49,16.67-5.53,24.62
		c-0.2,0.53,0.92,2.12,1.69,2.36c2.84,0.88,5.86,1.18,8.68,2.1c11.79,3.81,21.42,10.49,27.46,21.58c3.62,6.65,5.11,17.18-1.06,24.11
		c-3.28,3.69-7.56,4.44-11.86,5.18c-5.69,0.97-11.44,1.75-17.2,2.08c-10.79,0.62-21.6,1.24-32.4,1.16
		c-19.09-0.14-38.18-0.55-57.25-1.36c-10.47-0.44-20.98-1.43-31.31-3.12c-7.82-1.28-15.73-3.28-23.01-6.35
		c-10.63-4.49-9.12-11.35-3.08-18.62c5.72-6.9,13.72-9.79,22.34-10.63c5.72-0.56,11.53-0.22,17.3-0.27c1.54-0.01,3.3,0.33,3.37-2.03
		c0.06-1.87,0.09-3.44-2.41-4.27c-16.65-5.55-31.95-13.67-45.67-24.68c-7.44-5.97-13.25-13.23-17.18-21.95
		c-0.25-0.55-0.36-1.17-0.52-1.77c-0.76-2.87-1.8-3.22-4.38-1.57c-3.29,2.11-6.59,4.2-9.92,6.24c-4.39,2.69-9.44,2.24-14.18,2.27
		c-10.82,0.05-21.64-0.5-32.46-0.89C234.19,530.26,229.68,529.9,224.96,529.62z M253.64,148.08c-1.74,1.23-3.09,2.01-4.24,3.01
		c-10.73,9.31-21.4,18.7-32.17,27.97c-2.29,1.97-2.21,3.72-0.71,6.12c11.54,18.38,21.39,37.58,27.74,58.43
		c4.29,14.07,7.14,28.37,6.64,43.17c-0.18,5.46-0.59,10.91-0.87,16.36c-0.09,1.7,0.29,2.78,2.09,3.9c9.6,5.93,20.26,7.78,31.17,9.08
		c5.61,0.67,11.35,1.31,16.66,3.07c8.73,2.89,13.25,10.71,18.36,17.65c2.82,3.83,5.43,8.04,10.29,9.36
		c12.72,3.47,25.5,2.83,38.23-0.2c2.51-0.6,3.58-2.06,4.08-4.69c2.29-12.09,7.72-22.14,18.48-29.05c7.57-4.87,16.2-6.45,24.49-9.05
		c13.73-4.31,27.71-7.87,41.41-12.28c14.34-4.61,27.32-11.99,39.12-21.35c3.85-3.05,8.1-6.03,10.84-9.96
		c9.78-14.05,17.08-29.31,20.52-46.28c3.47-17.14,2.77-34.02-2.46-50.71c-4.34-13.85-11.34-26.3-20.72-37.31
		c-5.94-6.98-12.47-13.51-20.97-17.42c-13.7-6.3-28.51-8.74-43.08-11.98c-2.39-0.53-2.84,0.68-2.52,2.82
		c0.62,4.17,1.62,8.38,1.44,12.53c-0.37,8.53-1.11,17.08-2.25,25.54c-1.95,14.45-12.4,24.31-26.88,26.15
		c-10.71,1.36-20.96-0.18-30.86-4.34c-13.13-5.52-22.87-14.05-25.5-28.9c-0.17-0.98-1.41-2.49-2.2-2.52
		c-3.27-0.11-6.72-0.26-9.75,0.7c-1.24,0.39-1.61,3.56-2.37,5.47c-0.08,0.19-0.14,0.39-0.22,0.58
		c-6.26,16.13-17.96,27.09-33.19,34.53c-7.61,3.71-15.74,5.08-24.08,3.04c-11.04-2.71-18.22-10.33-23.93-19.65
		C255.51,150.65,254.64,149.52,253.64,148.08z M174.29,411.35c0.5,1.13,0.72,2.45,1.49,3.21c2.33,2.3,4.76,4.52,7.34,6.53
		c7.02,5.47,15.65,6.29,23.93,6.88c14.28,1.02,28.63,0.82,42.95,1.32c11.51,0.41,23.05-1.01,34.53,1.08
		c3.12,0.57,4.56,2.29,4.43,4.87c-0.28,5.62-0.66,11.3-1.79,16.8c-1.85,9-4.39,17.86-3.96,27.19c0.14,3.09,0.26,6.21-0.02,9.28
		c-0.47,5.09,1.06,9.6,3.7,13.74c1.82,2.85,3.16,6.42,7.52,6.52c1.83,0.04,2.71-0.56,2.68-2.45c-0.03-2.16-0.08-4.34,0.14-6.49
		c0.09-0.83,0.9-1.59,1.38-2.38c0.73,0.75,1.94,1.41,2.1,2.26c0.34,1.8,0.13,3.69,0.15,5.55c0.04,4.76,0.59,5.6,5.35,5.75
		c6.6,0.21,13.22,0.24,19.8-0.1c2.3-0.12,5.38-0.16,5.56-4.19c0.05-1.12,2.5-2.99,3.85-2.98c1.9,0,1.76,2.17,1.31,3.72
		c-0.62,2.12,0.46,2.59,2.22,2.52c0.93-0.04,1.86-0.04,2.78-0.13c7.11-0.74,14.21-1.53,21.32-2.24c4.01-0.4,4.57-1.33,3.58-5.32
		c-0.29-1.16,0.38-2.56,0.6-3.85c0.71,0.89,1.53,1.72,2.1,2.7c0.34,0.58,0.35,1.38,0.44,2.09c0.34,2.69,1.52,3.5,4.14,3.01
		c2-0.38,4.04-0.58,6.06-0.87c3.52-0.5,7.07-0.84,10.56-1.54c4.56-0.91,9.05-2.12,13.59-3.16c5.2-1.19,10.49-2.07,15.59-3.6
		c1.9-0.57,4.49-2.33,4.86-3.97c1.61-7.27,2.93-14.65,3.57-22.06c0.57-6.66,0.09-13.41,0.14-20.11c0.05-8.72-1.02-17.24-4.91-25.15
		c-2.69-5.48-5.22-11.13-8.61-16.17c-3.41-5.07-7.69-9.59-11.79-14.17c-4.51-5.03-9.26-9.84-13.89-14.76
		c-1.53-1.62-3.06-1.58-4.96-0.49c-1.85,1.06-3.88,2.11-5.95,2.45c-5.86,0.95-11.76,2-17.67,2.15c-12.68,0.33-25.39,0.37-38.07,0.02
		c-6.49-0.18-11.75-3.59-14.16-9.74c-1.32-3.38-1.25-7.33-1.61-11.04c-0.16-1.64-0.29-2.7-2.36-2.72
		c-12.25-0.12-24.51-0.29-36.76-0.57c-19.69-0.44-39.39-0.8-59.07-1.56c-6.06-0.23-10.6,1.46-13.98,6.49
		c-2.01,2.99-4.68,4.39-8.59,4.28c-2.83-0.08-5.71,1.38-8.56,2.15c2,1.23,3.78,1.68,5.52,2.27c0.48,0.16,0.81,0.76,1.2,1.15
		c-0.51,0.41-0.96,0.99-1.54,1.16c-0.53,0.15-1.22-0.08-1.8-0.25c-6.04-1.86-6.82-1.52-9.14,4.06c-0.08,0.19-0.24,0.35-0.29,0.54
		c-0.53,1.82-0.29,3.02,2.05,2.99c3.3-0.05,6.61-0.05,9.9,0.17c0.84,0.06,1.61,1.06,2.42,1.63c-0.79,0.48-1.56,1.34-2.37,1.38
		c-2.98,0.17-5.98,0.08-8.97,0.09c-4.58,0.01-6.11,1.96-5.15,6.95c1.06,0,2.17-0.01,3.29,0c2.48,0.01,4.99-0.2,7.41,0.16
		c0.99,0.15,2.01,1.43,2.56,2.44c0.16,0.3-1.11,1.87-1.94,2.12c-2.13,0.63-4.37,0.94-6.59,1.19c-1.6,0.18-3.23,0.03-5.1,0.03
		c0,1.91-0.21,3.47,0.05,4.94c0.39,2.22,1.09,4.18,4.23,3.23c2.23-0.67,4.62-0.96,6.95-1.13c0.85-0.06,1.77,0.69,2.66,1.07
		c-0.09,0.38-0.17,0.75-0.26,1.13C179.93,410.01,177.48,410.59,174.29,411.35z M144.69,235.88c0.29,0.03,0.58,0.07,0.87,0.1
		c-0.47,12.79,1.38,25.32,4.74,37.57c4.18,15.22,10.81,29.37,20.76,41.74c8.11,10.09,17.51,18.66,30.42,22.14
		c8.74,2.36,17.15,1.76,24.61-4.14c6.08-4.82,9.96-11.28,12.85-18.22c2.1-5.05,5.79-9.24,6.38-15.19
		c1.46-14.84,0.63-29.46-2.65-43.94c-2.77-12.28-6.86-24.17-12.49-35.42c-5.22-10.44-10.95-20.63-16.61-30.85
		c-2.52-4.56-5.54-8.84-8.09-13.38c-2.02-3.6-1.56-4.69,1.56-7.37c4.68-4.03,9.29-8.14,13.86-12.29c8.15-7.4,16.19-14.92,24.4-22.25
		c1.77-1.58,2.1-3.26,1.53-5.23c-2.13-7.36-2.55-14.74-0.94-22.28c2.19-10.23,7.05-18.84,15.28-25.36
		c7.82-6.19,16.96-9.53,26.5-12.06c9.96-2.64,19.56-1.83,28.26,3.59c10.57,6.58,17.51,16.36,21.97,27.87
		c1.71,4.42,2.42,5.05,7.06,4.17c1.22-0.23,2.42-0.52,3.65-0.7c2.28-0.33,3.02-1.77,3.72-3.87c1.77-5.35,3.64-10.71,6.12-15.75
		c2.14-4.36,2.53-4.16-1.54-6.95c-0.5-0.34-0.87-0.88-1.35-1.26c-2.34-1.85-4.55-3.92-7.07-5.47
		c-12.15-7.44-25.39-12.12-39.16-15.57c-18.09-4.52-35.8-4.29-52.85,3.83c-10.57,5.04-21.08,10.28-31.25,16.08
		c-6.11,3.48-12.24,7.49-17.07,12.5c-9.12,9.47-15.08,21.27-20.77,33.04c-4.56,9.45-8.39,19.25-12.88,28.74
		c-5.86,12.37-12.15,24.53-18.04,36.88c-2.86,6.01-6.23,12.04-7.6,18.44C146.69,215.14,146,225.58,144.69,235.88z M463.96,523.18
		c-0.27-0.03-0.55-0.06-0.82-0.09c0-3.2,0.23-6.42-0.05-9.59c-0.67-7.61-1.49-15.27-5.55-22c-3.68-6.1-5.47-6.74-12.24-4.58
		c-5.89,1.88-11.98,3.89-15.91,8.9c-2.41,3.07-5.08,5.14-8.66,5.92c-12.97,2.81-25.9,5.92-38.99,7.98
		c-12.91,2.03-25.98,3.19-39.02,4.21c-11.92,0.93-23.89,1.23-35.84,1.64c-4.04,0.14-4.41,0.32-3.7,4.46
		c1.48,8.55,6.47,15.11,12.49,20.83c11.72,11.15,25.64,18.94,40.59,24.82c4.03,1.58,8.76,3.22,12.82,2.57
		c15.2-2.41,28.99-8.46,40.74-18.68c2.25-1.96,4.34-4.11,6.7-5.92c0.61-0.47,1.94,0,2.94,0.04c-0.05,0.93,0.26,2.12-0.21,2.74
		c-1.29,1.72-2.67,3.54-4.43,4.69c-4.16,2.74-5.06,6.14-3.84,10.88c0.76,2.94,1.85,3.83,4.8,3.57c12.32-1.06,24.67-1.86,36.99-2.94
		c1.27-0.11,3.01-1.16,3.53-2.25c1.73-3.6,3.64-7.31,4.32-11.19C462.11,540.58,462.89,531.85,463.96,523.18z M431.1,613.9
		c-1.54-3.26-2.53-5.97-4.04-8.35c-1.81-2.86-4.1-5.4-6.07-8.16c-0.38-0.53-0.2-1.45-0.28-2.19c0.83,0.06,2.02-0.22,2.44,0.22
		c4.7,4.98,10.15,9.46,11.2,16.91c0.12,0.85,1.44,2.06,2.32,2.17c3.98,0.46,8,0.83,12,0.78c7.63-0.1,9.16-1.58,7.76-10.73
		c-0.09-0.6-0.36-1.19-0.66-1.72c-2.47-4.38-5.07-8.7-7.36-13.17c-0.5-0.98,0.11-2.54,0.21-3.83c1.2,0.5,2.84,0.66,3.51,1.55
		c2.28,3.04,4.52,6.19,6.22,9.57c2.21,4.41,4.39,9.03,3.35,14.19c-0.55,2.74,0.27,3.3,2.8,2.97c7.87-1.05,15.76-1.89,23.62-3
		c6.19-0.87,9.39-4.75,9.53-10.99c0.25-11.13-6.11-18.61-14.37-24.5c-12.94-9.22-27.91-8.9-42.86-7.73
		c-9.76,0.76-19.49,1.75-29.23,2.68c-2.34,0.22-3.42-0.9-3.8-3.06c-0.35-2.03-0.78-4.04-1.18-6.07c-0.36-1.85-1.17-2.52-2.99-1.37
		c-7.99,5.01-16.55,8.98-25.69,11.07c-5.29,1.21-7.57,3.27-7.73,8.7c-0.13,4.21-0.82,4.15-5.09,3.94
		c-8.64-0.43-17.35-1.34-25.83,1.24c-6.54,1.99-12.47,4.95-15.64,11.59c-1.71,3.58-1.4,5.35,2.19,6.99
		c4.08,1.87,8.29,3.95,12.65,4.62c12.71,1.95,25.49,3.85,38.3,4.65c16.67,1.03,33.4,0.99,50.1,1.38
		C427.7,614.27,428.9,614.07,431.1,613.9z M130.77,423.59c0.83,3.42,1.51,7.91,3.04,12.09c2.3,6.28,10.63,9.54,15.9,6.24
		c6.79-4.25,12.17-10.05,14.72-17.74c1.78-5.38,3.55-11.11-0.06-16.63c-0.16-0.24-0.18-0.59-0.21-0.9
		c-0.92-10.7-0.22-21.22,3.85-31.29c0.86-2.13,3.25-4.04,3.26-6.05c0.01-4.77-0.39-9.72-1.75-14.26
		c-1.78-5.99-4.37-11.91-9.87-15.64c-4.31-2.92-9.28-3.5-13.79-0.93c-3.36,1.91-2.45,5.87-2.08,9.08
		c0.65,5.73,1.66,11.42,2.46,17.14c0.26,1.85,0.56,4.3-1.73,4.59c-1.17,0.15-2.94-1.72-3.87-3.07c-1.8-2.61-3.08-5.56-4.78-8.25
		c-3.89-6.16-11.71-6.65-16.07-0.82c-6.44,8.62-8.54,20.04-0.92,30.09c3.48,4.59,7.19,9,10.63,13.61c2.18,2.91,3.83,6.06,3.11,10
		C131.9,414.65,131.48,418.54,130.77,423.59z M339.43,380.78c0.01-0.19,0.02-0.39,0.03-0.58c5.16,0,10.33,0.13,15.48-0.04
		c5.14-0.17,10.26-0.77,15.4-0.94c4.81-0.16,9.02-1.89,13.02-4.34c2.01-1.23,2.85-2.99,2.81-5.43c-0.12-7.22-0.04-14.45-0.04-21.68
		c0-5.46-1.01-6.75-6.35-8.16c-2.27-0.6-3.89-0.66-4.31,2.49c-0.34,2.51-0.53,5.54-3.7,6.61c-3.31,1.11-6.59,2.75-9.99,3.08
		c-7.78,0.75-15.64,1.37-23.43,1.05c-7.26-0.3-14.11-2.61-19.73-7.84c-1.11-1.04-3.58-0.97-5.35-0.76
		c-0.61,0.07-1.38,2.15-1.38,3.32c-0.01,7.64,0.01,15.28,0.33,22.9c0.19,4.38,3.44,8.19,7.84,8.77
		C326.48,380.09,332.97,380.3,339.43,380.78z M277.14,509.54c-0.84-0.14-1.44-0.39-1.99-0.31c-9.45,1.43-18.89,2.91-28.34,4.36
		c-6.65,1.03-11.79,4.58-15.87,9.74c-1.83,2.31-1.43,3.25,1.48,3.44c7.61,0.48,15.22,0.84,22.84,1.12
		c5.87,0.21,11.75,0.31,17.62,0.25c1.27-0.01,2.75-0.66,3.75-1.48c1.76-1.46,3.31-3.21,4.79-4.98c0.81-0.97,1.9-2.32,1.75-3.33
		c-0.15-0.98-1.59-2.17-2.69-2.52C276.51,514.59,275.55,513.19,277.14,509.54z M415.04,400.99c1.14-7.09,0.11-12.95-1.18-18.75
		c-2.34-10.54-9.73-16.41-20.23-16.14c-0.9,0.02-2.19,0.34-2.61,0.98c-1.2,1.8,0.07,8.43,1.62,10.06
		c5.79,6.13,11.55,12.27,17.32,18.42C411.47,397.16,412.96,398.77,415.04,400.99z M435.22,452.69c-0.34,0.25-0.68,0.49-1.02,0.74
		c-0.13,0.48-0.35,0.94-0.38,1.43c-0.67,10.05-1.3,20.1-1.98,30.14c-0.14,2.01,0.68,2.47,2.38,1.68c3.16-1.47,6.43-2.78,9.38-4.6
		c1.45-0.89,2.96-2.63,3.3-4.22c1.45-6.79-0.74-12.8-5.01-18.05C439.83,457.29,437.45,455.05,435.22,452.69z M293.81,517.84
		c3.78,0.34,4.31-0.32,2.98-3.16C295.7,515.82,294.76,516.83,293.81,517.84z"/>
	<path d="M423.52,210.93c-6.99-0.03-13.1-0.26-18.32-4c-7.15-5.11-7.55-13.27-0.81-19.06c7.71-6.62,16.96-9.01,26.93-8.83
		c5.29,0.09,10.31,1.11,14.98,4c8.43,5.22,7.79,13.07,1.87,18.73C441.11,208.52,432.14,210.63,423.52,210.93z M430.05,192.75
		c-0.84,0.13-2.11,0.12-3.22,0.55c-0.72,0.28-1.21,1.18-1.8,1.8c0.71,0.46,1.45,1.35,2.14,1.31c2.01-0.12,4.02-0.53,5.99-1
		c0.4-0.1,0.91-0.93,0.87-1.38c-0.03-0.41-0.69-0.96-1.17-1.09C432.09,192.72,431.25,192.8,430.05,192.75z"/>
	<path d="M390.79,425.06c1.66-1.35,3.05-3.42,4.34-3.35c3.19,0.17,6.12,1.42,7.39,5.04c1.04,2.99,1.61,5.68,0.24,8.85
		c-1.7,3.95-7.82,6.76-12.34,5.08c-5.32-1.98-8.28-7.45-6.46-11.96C384.95,426.23,388.72,424.49,390.79,425.06z M390.92,427.26
		c-2.76,2.09-0.79,4.33,0.1,6.25c0.71,1.52,2.08,2.88,3.49,3.81c0.41,0.27,2.45-0.92,2.89-1.85c1.62-3.39-0.25-6.52-3.98-7.3
		C392.57,428,391.78,427.58,390.92,427.26z"/>
	<path d="M361.54,434.03c-0.03-5.04,1.41-6.58,6.36-6.91c0.56-0.04,1.28-0.24,1.62-0.63c3.19-3.66,6.3-3.7,9.32-0.04
		c2.35,2.85,2.86,9.07,1,12.17c-1.85,3.08-6.04,4.7-10.31,3.99C363.71,441.61,361.58,439.33,361.54,434.03z M367.04,428.51
		c0.57,2.79,0.91,5.56,1.75,8.18c0.69,2.14,4.3,3.83,5.09,2.65c0.94-1.4,1.68-3.33,1.54-4.95c-0.15-1.73-0.81-3.76-3.49-3.91
		C370.57,430.41,369.26,429.44,367.04,428.51z"/>
	<path d="M406.82,428.07c0.48-3.69,0.52-7.26-2.16-10.22c-0.31-0.35-0.06-1.87,0.36-2.11c1.8-1.04,3.77-1.81,5.67-2.67
		c0.79,1.76,1.89,3.46,2.28,5.3c0.4,1.88-0.19,3.96,0.18,5.85c0.63,3.22,1.52,6.4,2.59,9.5c0.66,1.9-0.13,4.03-2.35,4.97
		c-2.04,0.87-4.47-0.08-4.99-2.2C407.71,433.73,407.33,430.89,406.82,428.07z"/>
	<path d="M358.35,437.39c-1.39,6.49-4.97,8.48-10.54,6.96c-3.82-1.04-6.77-6.23-5.87-10.3c0.83-3.76,3.56-6.1,6.91-5.54
		c-0.31,0.97-0.59,1.89-0.9,2.8c-1.01,2.94,0.33,6.66,3.23,7.74c1.2,0.45,2.84-0.08,4.23-0.39
		C356.42,438.42,357.36,437.82,358.35,437.39z"/>
	<path d="M350.32,427.5c4.27-2.5,6.12-2.4,7.1,0.68c0.38,1.2-0.15,3.29-1.05,4.15c-1.45,1.39-2.98,0.48-3.9-1.26
		C351.85,429.92,351.11,428.82,350.32,427.5z"/>
	<path d="M179.09,198.73c2.13-10.55,4.25-21.09,6.38-31.64c0.37-0.03,0.75-0.06,1.12-0.09c1.95,9.31,3.9,18.62,5.84,27.93
		c0.24,0.13,0.47,0.26,0.71,0.39c1.2-2.1,2.4-4.2,4.01-7.04c3.72,5.73,7.45,10.65,10.31,16.03c6.46,12.16,13.19,24.26,18.53,36.92
		c7.2,17.09,12.17,34.89,8.86,53.81c-2.15,12.26-7.92,22.34-18.6,29.36c-5.26,3.46-10.41,2.74-15.49,0.19
		c-12.13-6.08-20.02-16.49-27.4-27.39c-9.26-13.69-11.72-29.28-12.5-45.24c-0.48-9.86-0.24-19.77-0.25-29.65
		c-0.01-10.98,3.28-21.29,6.72-31.52c1.86-5.55,4.21-10.93,6.48-16.34c0.46-1.1,1.55-1.94,2.35-2.91c0.59,1.18,1.66,2.34,1.7,3.53
		c0.21,6.9,0.17,13.82,0.23,20.73c0.01,0.98,0.1,1.96,0.15,2.94C178.5,198.74,178.8,198.73,179.09,198.73z M197.56,274.55
		c0.75,2.37,1.16,4.72,2.21,6.74c1.03,1.96,2.9,1.8,4.19,0.02c2.05-2.83,2.16-9.74,0.21-12.71c-1.42-2.15-3.28-2.35-4.56-0.13
		C198.59,270.25,198.25,272.42,197.56,274.55z M185.38,250.67c1.22,1.12,2.09,1.92,2.95,2.72c0.53-0.99,1.54-2.01,1.47-2.95
		c-0.08-1.07-1.14-2.07-1.77-3.09C187.27,248.31,186.5,249.27,185.38,250.67z M199.83,209.16c1.25,0.72,2.01,1.45,2.83,1.52
		c0.39,0.03,1.39-1.34,1.24-1.76c-0.27-0.75-1.14-1.58-1.89-1.73C201.55,207.09,200.84,208.2,199.83,209.16z"/>
</g>
</svg>
