<?xml version="1.0" encoding="utf-8"?>
<!-- Generator: Adobe Illustrator 26.0.1, SVG Export Plug-In . SVG Version: 6.00 Build 0)  -->
<svg version="1.1" id="Layer_1" xmlns="http://www.w3.org/2000/svg" xmlns:xlink="http://www.w3.org/1999/xlink" x="0px" y="0px"
	 viewBox="0 0 680 680" style="enable-background:new 0 0 680 680;" xml:space="preserve">
<g>
	<path d="M133.93,402.48c-2.39-0.44-4.77-0.9-7.17-1.31c-4.05-0.7-6.97-2.86-8.58-6.66c-4.21-9.95-3.89-19.88,0.44-29.68
		c1.53-3.45,4.15-5.33,8.22-5.82c4.73-0.57,9.34-2.13,14.14-3.29c-8.91-15.48-3.59-27.35,13.47-30.32c-0.06-1.07-0.1-2.19-0.19-3.3
		c-2.1-26.22,6.18-48.48,26.32-65.57c5.96-5.05,13.27-8.68,20.35-12.2c12.78-6.36,21.66-16.24,28.03-28.74
		c1.3-2.55,0.32-3.9-2.13-3.56c-2.95,0.4-5.8,1.57-9.08,2.51c0.06-1.64,1.03-3.59,3.22-4.24c2.55-0.75,5.38-1.36,7.94-0.99
		c2.55,0.37,3.68-0.43,4.84-2.36c1.9-3.14,3.96-6.19,6-9.24c9.5-14.13,23.51-20.58,39.78-22.64c11.71-1.49,23.68-1.87,34.74,2.76
		c6.87,2.88,12.9,7.81,19.25,11.91c6.37,4.11,12.97,7.95,18.95,12.58c15.89,12.28,27.36,27.77,32.75,47.39
		c0.27,0.97,0.67,1.9,1.01,2.87c0.71-0.17,1.11-0.15,1.36-0.35c11.08-8.56,23.95-10.66,37.35-9.53c15.42,1.3,30.01,5.95,41.57,16.55
		c18.71,17.15,27.76,38.64,25.78,64.25c-0.26,3.38,1.09,4.21,3.87,4.39c7.45,0.49,14.91,0.83,22.33,1.62
		c3.49,0.37,7.03,1.32,10.29,2.63c2.55,1.03,4.79,2.91,6.99,4.65c2.2,1.74,3.99,4.04,6.3,5.62c4.18,2.86,7.09,6.61,8.86,11.26
		c0.44,1.17,0.54,2.53,0.5,3.8c-0.02,0.5-0.79,1.3-1.31,1.37c-0.5,0.08-1.41-0.47-1.63-0.96c-1.01-2.3-0.85-5.62-4.07-6.09
		c-4.05-0.59-8.22-1-12.28-0.69c-4.32,0.32-8.69,1.22-12.81,2.56c-2.14,0.7-4.48,2.53-5.53,4.49c-4.43,8.25-3.67,16.92-0.86,25.5
		c0.3,0.92,1.78,1.6,2.85,2.09c0.82,0.38,2.03,0.02,2.76,0.48c1.38,0.87,3.25,1.92,3.58,3.23c0.28,1.09-1.04,3.14-2.21,3.91
		c-1.71,1.13-3.91,1.55-5.92,2.18c-1.64,0.51-3.33,0.89-5.94,1.57c2.79,0.86,4.6,1.29,6.32,1.97c2.18,0.86,3.85,2.55,3.01,4.89
		c-0.46,1.27-2.32,2.61-3.73,2.84c-3.04,0.49-4.31,2.04-5.24,4.85c-2.67,8.01-3.2,15.9-0.44,24.02c0.9,2.65,2.09,4.11,4.91,4.8
		c1.64,0.4,2.95,2.15,4.4,3.29c-1.33,1.33-2.44,3.24-4.05,3.86c-3.51,1.35-7.25,2.17-10.95,2.97c-3.02,0.65-3.48,2.36-3.2,5.15
		c0.27,2.76,1.46,3.7,4.05,3.72c1.12,0.01,2.39,0.4,3.31,1.04c2.07,1.44,1.82,3.99-0.37,5.24c-0.51,0.29-1.1,0.56-1.67,0.59
		c-6.87,0.38-8.81,5.09-9.88,10.85c-1.19,6.4-1.36,12.72,0.49,19.01c1.34,4.57,2.55,5.36,7.27,5.34c1.61-0.01,3.56,0.02,4.74,0.88
		c1.22,0.89,2.21,2.78,2.3,4.29c0.07,1.14-1.18,2.92-2.31,3.46c-2.53,1.22-5.31,2.03-8.06,2.71c-44.27,11-88.55,21.95-132.82,32.92
		c-2.3,0.57-4.68,0.96-6.84,1.85c-9.83,4.07-19.82,3.06-29.97,1.53c-33.4-5.05-66.86-9.73-100.24-14.89
		c-19.67-3.04-39.29-6.51-58.85-10.17c-13.35-2.5-26.57-5.71-39.87-8.52c-4.31-0.91-6.89-3.7-8.26-7.54
		c-4.13-11.57-4.71-23.39-1.83-35.35c1.2-5,4.18-8.11,9.42-8.84c1.05-0.15,2.09-0.4,3.13-0.63c7.13-1.54,7.22-1.54,6.99-8.76
		c-0.03-0.95-1.35-2.58-2.19-2.66c-9.19-0.9-18.38-1.76-27.6-2.2c-4.11-0.2-6.18-2.71-7.32-5.75c-4.16-11.04-3.52-21.91,2.88-31.98
		c1.07-1.68,3.7-2.78,5.82-3.31c7.44-1.87,14.96-3.37,22.45-5.01C133.88,403.17,133.9,402.83,133.93,402.48z M325.69,237
		c0.44,0.12,0.88,0.24,1.32,0.36c0,0.65,0.11,1.32-0.02,1.95c-0.91,4.64-1.93,9.26-2.79,13.91c-2.55,13.73-1.69,27.2,4.07,40.02
		c6.71,14.94,23.26,18.81,35.2,7.63c14.37-13.45,20.56-30.3,16.37-49.97c-3.63-17.04-13.85-30.43-26.41-41.69
		c-9.13-8.19-19.65-14.86-29.67-22.02c-2.77-1.98-5.9-3.56-9.04-4.91c-11.24-4.85-23.07-5.32-34.94-3.62
		c-18.58,2.67-32.63,12.12-41.31,29.04c-0.23,0.46-0.12,1.1-0.16,1.62c6.78,1.62,7.29,2.02,6.41,5.3c-0.63-0.37-1.21-0.72-1.8-1.06
		c-4.42-2.47-7.27-2.59-9.44,2.79c-3.5,8.67-8.51,16.67-16,22.32c-7.24,5.46-15.2,10.03-23.08,14.58
		c-25.89,14.93-36.46,37.89-34.9,66.93c0.69,12.95,6.74,22.82,19.5,27.56c8.66,3.22,17.62,3.23,26.67,2.55
		c14.99-1.12,30-2.14,44.99-3.33c1.22-0.1,2.8-0.77,3.5-1.7c5.57-7.49,13.07-12.24,21.52-15.76c1.95-0.81,4.5-1.39,5.56-2.91
		c3.69-5.31,7.27-10.78,10.03-16.6c1.69-3.55,1.83-7.83-0.56-11.63c-0.44-0.71-0.31-1.77-0.45-2.67c1.04,0.3,2.31,0.33,3.04,0.97
		c0.71,0.62,0.98,1.84,1.26,2.85c1.48,5.46,0.16,10.6-2.16,15.49c-1.59,3.37-3.6,6.54-5.6,10.12c1.15-0.1,1.95-0.13,2.74-0.24
		c11.46-1.62,22.91-3.29,34.39-4.83c2.57-0.34,5.87,0.73,7.63-0.53c1.83-1.31,2.04-4.74,3.26-7.09c1.09-2.1,0.07-2.96-1.28-4.43
		c-3.1-3.34-6.62-6.69-8.44-10.72c-6.59-14.62-7.56-29.93-3.71-45.48C322.62,246.81,324.24,241.93,325.69,237z M375.48,364.9
		c0.13-1.34,0.27-1.92,0.22-2.48c-0.45-5.51,1.88-9.95,5.56-13.72c0.83-0.85,2.52-0.87,3.81-1.27c-0.41,1.09-0.7,2.24-1.27,3.24
		c-1.1,1.93-2.78,3.63-3.47,5.68c-2.32,6.8-0.7,9.08,6.26,8c8.28-1.28,16.38-3.74,24.67-4.99c16.26-2.46,32.55-4.78,48.9-6.5
		c15.23-1.61,24.65-12.09,26.87-23.09c4.44-22-1.78-41.22-15.37-58.46c-0.84-1.06-2.53-1.68-3.94-2.02
		c-4.95-1.19-10-1.95-14.91-3.28c-9.93-2.7-19.94-5.24-29.61-8.72c-4.27-1.54-8.13-4.82-11.51-8.01c-1.9-1.8-3.42-2.36-5.5-1.52
		c-4.82,1.94-9.49,4.3-14.37,6.07c-4.69,1.7-5.64,4.66-5.55,9.46c0.3,15.74-4.88,29.67-16.27,40.74
		c-6.56,6.37-14.47,10.16-24.09,9.08c-3.81-0.43-4.48,0.58-4.4,6.43c6.17-0.62,12.28-1.23,19.16-1.92c-2.57,3.83-5.91,4.34-9.1,4.58
		c-8.39,0.63-16.8,1.05-25.2,1.42c-15.82,0.71-31.37,3.05-46.31,8.42c-9.99,3.59-18.98,8.86-24.16,18.71
		c-1.1,2.1-1.86,4.83-1.52,7.08c0.23,1.55,2.63,2.78,4.06,4.15c0.77-1.11,1.88-2.12,2.24-3.35c1.43-4.8,3.85-8.94,7.69-12.14
		c0.82-0.69,2.2-0.71,3.32-1.03c-0.41,1.14-0.51,2.61-1.3,3.36c-3.29,3.11-5.56,6.71-6.62,11.14c-0.56,2.35,0.31,3.52,2.55,3.53
		c3.19,0.01,6.38-0.21,9.56-0.35c2.13-0.09,3.04-1.11,3.15-3.35c0.23-4.54,2.61-8.06,6.07-10.83c0.65-0.52,1.78-0.45,2.69-0.66
		c-0.21,0.92-0.23,1.94-0.66,2.74c-1.4,2.68-3.3,5.15-4.34,7.95c-0.96,2.58,0.28,4.26,3.39,4.28c6.93,0.04,12.95-2.08,18.33-6.54
		c1.76-1.46,4.32-2.52,6.59-2.69c11.82-0.85,23.66-1.39,35.5-1.91c2.21-0.1,3.16-0.91,4.12-2.96c1.88-4.02,3.86-8.22,6.73-11.52
		c8.46-9.75,18.99-16.35,31.93-18.5c2.76-0.46,4.1-1.74,4.53-4.46c0.37-2.39,1.11-4.72,1.87-7.86c3.51,4.14-0.02,7.48,0.28,10.42
		c7.54,1.41,14.99,2.79,22.16,4.13c0.84-4.9,1.24-10.36,2.75-15.51c4.71-16.07,18.46-24.34,33.77-20.68
		c1.29,0.31,2.44,1.2,3.65,1.81c-0.06,0.47-0.12,0.93-0.18,1.4c-11.15-2.34-21.36-1.51-28.39,8.49c-6.32,8.99-8.91,18.87-5.85,30.47
		c-1.92-0.26-3.64-0.28-5.22-0.77c-2.48-0.78-4.78-2.23-7.29-2.78c-20.62-4.55-37.65,1.83-51.2,17.63
		c-2.54,2.96-4.14,6.87-5.54,10.58c-0.7,1.85,0.02,4.24,0.1,6.39c0.41,0,0.82,0,1.22,0c0.65-1.61,1.03-3.42,2-4.8
		c2.37-3.34,4.92-6.58,7.66-9.63c0.52-0.58,2.24-0.08,3.4-0.08c-0.41,0.93-0.56,2.26-1.27,2.71c-4.47,2.81-6.53,7.01-7.54,11.96
		c-0.48,2.33,0.07,4.19,2.54,4.63C366.97,363.92,371.15,364.33,375.48,364.9z M125.47,412.33c0.04-0.48,0.08-0.97,0.13-1.45
		c1.34,0,2.69-0.09,4.02,0.02c4.61,0.36,9.21,0.78,13.81,1.18c19.25,1.69,38.5,3.35,57.75,5.08c30.33,2.73,60.67,5.43,90.99,8.3
		c14.85,1.41,29.68,3.12,44.51,4.76c8.1,0.89,16.17,2.03,24.28,2.82c2.9,0.28,5.98,0.33,8.78-0.35c5.94-1.46,11.7-3.64,17.62-5.2
		c10.28-2.71,20.62-5.17,30.94-7.74c-4.66,0.01-9.18,0.71-13.63,1.71c-16.48,3.67-32.83,5.4-49.95,3.46
		c-46.16-5.22-92.48-9.08-138.71-13.64c-19.09-1.88-38.14-4.21-57.21-6.27c-4.71-0.51-9.68-1.8-14.12-0.84
		c-8.66,1.87-17.06,4.99-25.48,7.83c-1.11,0.37-2.31,2.1-2.5,3.34c-1.41,9.26-2.64,18.52-0.12,27.87c0.71,2.62,1.69,3.44,4.18,3.58
		c7.45,0.44,14.91,0.84,22.33,1.64c33.7,3.66,67.39,7.47,101.08,11.21c29.78,3.31,59.56,6.63,89.35,9.92
		c0.73,0.08,1.49-0.08,2.31-0.13c-5.17-15.56-4.71-28.98,1.68-32.2c-0.31,2.21-0.43,4.01-0.82,5.76
		c-1.66,7.54-1.91,14.87,0.95,22.35c1.31,3.43,2.61,5.14,6.44,5.36c5.49,0.31,10.94,1.33,16.83,2.1
		c-4.66-12.42-5.28-24.39-0.93-36.62c-0.96-0.25-1.85-0.62-2.76-0.71c-9.9-1.01-19.79-2.01-29.7-2.95
		c-21.93-2.07-43.88-4.04-65.81-6.16c-17.93-1.73-35.84-3.7-53.77-5.39c-20.89-1.96-41.81-3.62-62.7-5.64
		C138.61,414.72,132.06,413.36,125.47,412.33z M366.88,381.52c-4.24,0-7.79,0.26-11.3-0.04c-43.82-3.76-87.62-7.74-131.45-11.35
		c-27.75-2.29-55.54-4-83.31-6.06c-4.68-0.35-9.32-1.19-13.99-1.61c-0.97-0.09-2.34,0.45-2.96,1.18c-0.97,1.13-1.66,2.62-2.11,4.06
		c-2.78,8.98-3.69,17.91,1.52,26.42c1.63,2.67,3.86,4.43,7.92,3.21c-3.99-10.32-4.71-20.65-0.8-31.01c0.77,1.2,1.28,2.49,1.09,3.66
		c-1.48,8.98-0.23,17.71,2.25,26.32c0.3,1.03,1.54,2.43,2.48,2.55c14.92,1.85,29.86,3.66,44.82,5.19
		c23.22,2.37,46.46,4.54,69.7,6.76c35.4,3.39,70.81,6.76,106.22,10.15c2.3,0.22,4.6,0.46,7.29,0.74
		C357.3,407.92,359.18,395.06,366.88,381.52z M343.27,501.25c-0.92-0.27-1.56-0.53-2.22-0.63c-10.07-1.56-20.16-3.05-30.22-4.66
		c-25.4-4.05-50.77-8.24-76.18-12.21c-20.23-3.16-40.48-6.21-60.76-9.08c-10.65-1.51-21.37-2.53-32.06-3.78
		c-2.53-0.3-3.98,0.22-3.84,3.34c0.36,8.41,0.28,16.83,0.65,25.24c0.38,8.49,0.52,8.49,9.11,9.84c19.65,3.1,39.29,6.22,58.94,9.27
		c14.63,2.27,29.28,4.45,43.92,6.63c22.75,3.39,45.5,6.77,68.26,10.13c7.46,1.1,14.94,2.11,22.98,3.25
		C335.52,525.62,338.36,513.45,343.27,501.25z M312.95,492.89c-0.06,0.48-0.11,0.96-0.17,1.43c11.59,1.9,23.17,3.81,34.62,5.69
		c-4.18,7.26-5.8,15.32-5.66,23.63c0.06,3.82,1.35,7.66,2.35,11.42c0.83,3.12,2.44,4.94,6.17,3.13c2.09-1.01,4.56-1.23,6.87-1.76
		c16.66-3.75,33.38-7.23,49.96-11.29c27.02-6.62,53.95-13.62,80.91-20.48c1.99-0.51,3.95-1.18,5.76-1.72
		c-1.24-3.8-2.33-7.13-3.51-10.74c-22.67,5.16-45.28,10.83-68.12,15.34c-22.76,4.49-45.74,7.81-68.63,11.64
		c9.89-2.67,19.84-5.23,29.95-6.86c27.02-4.34,53.96-8.99,80.45-15.99c8.68-2.29,17.43-4.29,26.27-6.46c0-2.74,0-5.4,0-8.72
		c-44.16,9.13-87.94,18.19-131.72,27.25c0.58-0.55,1.22-0.86,1.89-1.01c24.82-5.71,49.59-11.63,74.48-17.03
		c17.6-3.82,35.35-6.93,53.02-10.4c1.09-0.22,2.72-0.6,3.04-1.36c1.17-2.72,1.89-5.63,2.9-8.83c-2.26,0.67-3.94,1.25-5.65,1.67
		c-25.09,6.07-50.17,12.17-75.28,18.15c-13.61,3.24-27.46,5.61-40.83,9.62c-7.72,2.31-14.83,0.75-22.08-0.19
		C337.56,497.4,325.28,494.98,312.95,492.89z M386.38,457.53c-0.06-0.31-0.11-0.63-0.17-0.94c39.21-7.46,78.41-14.91,117.95-22.43
		c-0.48-2.34-0.8-3.89-1.13-5.48c-37.96,10.09-76.51,14.74-115.03,19.5c38.29-6.7,76.58-13.41,115.02-20.14c0-3.04,0-5.47,0-8.09
		c-13.84,2.55-27.53,5.21-41.27,7.55c-13.65,2.33-27.35,4.41-41.05,6.44c-13.63,2.02-27.29,3.84-40.93,5.75
		c1.05-0.88,2.19-1.22,3.34-1.4c19.62-3.15,39.26-6.12,58.85-9.45c19.74-3.35,39.42-7.02,59.11-10.64c1.1-0.2,2.58-0.99,2.98-1.9
		c1.04-2.34,1.56-4.9,2.45-7.88c-1.62,0.17-2.88,0.24-4.1,0.45c-20.22,3.42-40.53,6.4-60.63,10.42
		c-21.59,4.32-42.97,9.64-64.46,14.45c-2.9,0.65-4.6,1.99-4.65,5.13c-0.12,8.85-0.41,17.7-0.41,26.54c0,2.7,1.7,3.61,4.43,2.82
		c2.61-0.76,5.32-1.17,7.98-1.75c36.71-7.95,73.42-15.89,110.13-23.86c3.74-0.81,7.46-1.76,11.09-2.62
		c-0.26-4.17-1.85-4.72-5.39-3.78c-8.22,2.2-16.56,4.03-24.93,5.59c-20.84,3.88-41.71,7.57-62.58,11.26
		C404.12,454.64,395.24,456.05,386.38,457.53z M381.69,395.69c-0.05-0.3-0.11-0.61-0.16-0.91c2.63-0.58,5.26-1.16,7.89-1.73
		c24.64-5.35,49.25-10.86,73.94-16c13.69-2.85,27.52-5.04,41.27-7.62c0.98-0.18,2.4-0.89,2.64-1.66c1.18-3.76,2.04-7.63,3.08-11.75
		c-1.2,0.18-2.46,0.29-3.68,0.57c-6,1.35-11.96,2.87-17.98,4.11c-19.82,4.09-39.67,8.06-59.49,12.15
		c-10.19,2.11-20.33,4.45-30.51,6.57c-6.84,1.42-13.76,2.53-20.59,4.01c-1.38,0.3-3.55,1.6-3.62,2.57
		c-0.62,8.49-1.26,17.02-1.04,25.51c0.15,5.78,0.97,5.99,6.64,4.93c10.6-2,21.25-3.82,31.75-6.24c30.1-6.95,60.13-14.16,90.19-21.28
		c2.82-0.67,5.6-1.45,8.65-2.24c-1.07-2.6-1.95-4.73-2.63-6.38c-30.29,5.35-60.16,10.63-90.03,15.9c-0.08-0.33-0.16-0.65-0.24-0.98
		c1.53-0.4,3.04-0.9,4.6-1.19c27.23-5.02,54.47-10.04,81.72-14.97c2.54-0.46,3.94-1.28,3.38-4.1c-0.22-1.11-0.18-2.26-0.31-4.12
		C464.99,379.2,423.34,387.45,381.69,395.69z M137.65,359.73c0.08,0.37,0.16,0.74,0.24,1.11c0.19,0.12,0.37,0.33,0.56,0.34
		c13.37,0.76,26.76,1.28,40.11,2.3c27.77,2.12,55.52,4.5,83.28,6.76c26.71,2.18,53.41,4.33,80.12,6.53
		c8.39,0.69,16.92,0.81,25.09,2.54c4.91,1.04,9.06,0.55,13.73-0.46c38.54-8.35,77.14-16.44,115.71-24.64
		c4.27-0.91,8.5-1.98,12.74-2.97c-0.03-0.35-0.06-0.71-0.09-1.06c-1.21-0.33-2.41-0.8-3.64-0.97c-6.08-0.8-12.2-1.35-18.24-2.36
		c-2.61-0.44-4.33,0.35-6.44,1.7c-4.04,2.6-8.2,5.74-12.73,6.72c-9.22,2-18.73,2.64-28.1,3.98c-10.41,1.49-21.09,2.13-31.14,4.95
		c-13.92,3.92-27.77,5.89-42.1,4.3c-7.41-0.82-13.28-4.15-17.09-10.85c-0.47-0.83-2.28-1.34-3.44-1.29
		c-8.87,0.39-17.74,1.01-26.61,1.45c-6.26,0.31-12.61,0.21-17.33,5.42c-0.38,0.42-0.96,0.72-1.5,0.93
		c-6.5,2.56-12.93,5.57-20.1,1.92c-0.92-0.47-2.45,0.33-3.7,0.39c-4.18,0.22-8.37,0.57-12.55,0.49c-2.19-0.04-4.34-0.99-6.54-1.29
		c-4.69-0.63-7.65-3.9-7.58-8.68c0.02-1.73,0.14-3.46,0.24-5.62c-1.76,0-3.16-0.11-4.54,0.02c-11.08,1.04-22.15,2.24-33.25,3.15
		c-14.35,1.18-28.72,2.03-41.95-5.48c-1.78-1.01-2.84-0.72-4.13,0.96c-4.69,6.1-11.09,8.4-18.7,8.33
		C144.52,358.34,141.08,359.25,137.65,359.73z M355.29,475.83c-5.39-0.48-11.02-0.85-16.63-1.5c-19.52-2.27-39.02-4.7-58.55-6.94
		c-27.3-3.13-54.62-6.12-81.93-9.19c-17.08-1.92-34.14-3.9-51.23-5.76c-1.06-0.11-2.87,0.3-3.21,1c-2.36,4.98,0.78,11.43,6.19,12.53
		c5.68,1.16,11.43,1.99,17.17,2.77c18.77,2.53,37.57,4.83,56.32,7.46c18.63,2.61,37.22,5.6,55.85,8.27
		c21.46,3.08,42.96,5.97,64.43,9c4.13,0.58,8.22,1.46,11.58,2.06C355.29,489.01,355.29,482.72,355.29,475.83z M504.62,506.92
		c-0.06-0.36-0.12-0.72-0.18-1.07c-3.72-1.38-7.32,0.04-10.9,0.94c-34,8.51-67.96,17.16-101.98,25.56
		c-14.03,3.47-28.18,6.48-42.31,9.56c-2.46,0.54-5.13,0.84-7.59,0.49c-20.77-3.02-41.53-6.11-62.26-9.39
		c-45.96-7.29-91.9-14.72-137.86-22c-1.53-0.24-3.21,0.52-4.82,0.81c0.06,0.4,0.11,0.8,0.17,1.2c0.64,0.22,1.26,0.51,1.91,0.65
		c12.04,2.54,24.02,5.4,36.13,7.53c23.7,4.16,47.43,8.11,71.21,11.77c28.23,4.35,56.51,8.34,84.78,12.44
		c7.83,1.13,15.5,1.92,23.51-0.2c22.9-6.08,45.99-11.45,68.98-17.22c26.29-6.6,52.54-13.34,78.81-20.04
		C503.05,507.73,503.82,507.27,504.62,506.92z M441.18,465.68c-0.04-0.23-0.09-0.46-0.13-0.69c-4.09,0.77-8.17,1.57-12.27,2.31
		c-18.16,3.29-36.34,6.47-54.46,9.95c-2.54,0.49-6.33-1.39-7.5,2.18c-0.85,2.59-0.45,5.64-0.35,8.48c0.24,6.82,0.32,6.92,6.89,5.33
		c37.62-9.09,75.23-18.21,112.83-27.36c3.91-0.95,7.77-2.16,11.65-3.25c-0.14-0.54-0.27-1.07-0.41-1.61
		c-42.52,9.63-85.05,19.26-127.57,28.88c1.19-0.88,2.49-1.4,3.84-1.74c18.46-4.69,36.88-9.55,55.4-13.97
		c21.52-5.13,43.14-9.83,64.69-14.83c0.83-0.19,1.94-1.5,1.98-2.34c0.11-1.9-1.18-2.22-2.92-1.74c-6.17,1.69-12.33,3.45-18.56,4.89
		c-27.21,6.24-54.43,12.41-81.67,18.52c-4.37,0.98-8.84,1.54-13.26,2.29c-0.04-0.21-0.08-0.43-0.11-0.64
		C399.9,475.46,420.54,470.57,441.18,465.68z M517.07,390.64c-0.07-0.43-0.15-0.86-0.22-1.29c-1.4,0.09-2.84-0.01-4.19,0.31
		c-11.99,2.77-23.94,5.7-35.93,8.43c-25.63,5.83-51.26,11.63-76.92,17.31c-7.17,1.59-14.52,2.38-21.63,4.18
		c-5.41,1.37-7.26,1.01-7.84-4.59c-0.66-6.43-0.58-12.96-0.49-19.44c0.05-3.55,0.78-7.08,1.21-10.62c-0.33-0.16-0.66-0.31-0.99-0.47
		c-0.78,0.69-1.9,1.23-2.3,2.1c-4.04,8.62-5.44,17.65-3.14,26.97c1.36,5.53,8.28,10.37,13.03,9.47c15.25-2.87,30.61-5.3,45.72-8.82
		c28.69-6.69,57.23-14,85.83-21.1C511.86,392.4,514.45,391.45,517.07,390.64z M501.49,331.3c-0.51,2.94-0.42,5.36-1.39,7.25
		c-1.32,2.57-0.44,3.87,1.69,4.72c5.05,2.02,10.11,4.03,15.28,5.68c2.29,0.73,4.94,1.08,7.3,0.73c6.42-0.95,12.76-2.54,19.31-1.14
		c0.26,0.06,0.59-0.21,1.62-0.61c-2.13-1.57-3.9-2.8-5.58-4.14c-1.84-1.45-4.06-2.69-5.29-4.57c-2.13-3.27-5-5.03-8.64-5.58
		c-6.66-1.01-13.34-1.87-20.03-2.64C504.11,330.82,502.38,331.23,501.49,331.3z M374.2,472.39c0.15,0.49,0.29,0.98,0.44,1.46
		c45.8-8.89,91.6-17.82,136.82-29.74c-1.53-0.71-3.01-0.94-4.4-0.67c-3.6,0.68-7.15,1.6-10.73,2.39
		c-24.42,5.35-48.81,10.79-73.26,15.98c-14.24,3.03-28.57,5.62-42.84,8.5C378.17,470.73,376.21,471.68,374.2,472.39z M132.51,469.85
		c-5.01-2.4-6.32-1.92-7.81,2.94c-2.71,8.84-2.48,17.81-0.6,26.73c0.67,3.19,2.01,6.3,3.45,9.25c0.6,1.23,2.23,1.95,3.39,2.9
		c0.28-0.2,0.55-0.39,0.83-0.59C128.02,497.29,127.27,483.57,132.51,469.85z M114.72,414.05c-3.67-2.51-5.31-2.55-6.55,0.15
		c-4.09,8.94-5.15,18.16-1.71,27.56c1.51,4.14,2.91,4.59,7.54,3.01C110.3,434.56,111.03,424.38,114.72,414.05z M513.06,402.9
		c-4.68-2.42-9.24-4.24-14.52-2.87c-12.48,3.24-25.02,6.27-37.52,9.41c-4.24,1.07-8.45,2.24-12.67,3.36
		c0.07,0.29,0.14,0.57,0.2,0.86C470.05,410.08,491.56,406.49,513.06,402.9z M151.56,353.28c-5.12-4.93-5.65-6.52-3.79-10.33
		c2.19-4.48,6.75-3.97,10.57-4.75c-0.72-6.52-3.26-9.19-7.49-8.18c-5.51,1.32-10.16,6.84-10.53,12.49
		C139.91,348.77,145.41,354.25,151.56,353.28z M373.76,473.28c-4.56-2.9-5.73-6.63-6.53-10.69c-1.53-7.84-0.61-15.56,0.95-23.23
		c0.63-3.09-1.04-3.51-3.02-2.96c-1.14,0.31-2.61,1.92-2.72,3.06c-0.62,6.55-1.31,13.15-1.07,19.71c0.13,3.62,1.76,7.29,3.25,10.71
		C366.09,473.23,369.26,473.77,373.76,473.28z M363.12,476.91c-2.45-0.61-4.72-0.59-4.83,2.15c-0.18,4.34-0.02,8.73,0.52,13.04
		c0.24,1.93,1.49,4,4.31,3.84C363.12,489.58,363.12,483.37,363.12,476.91z M134.45,475.27c-3.67,6.5-3.04,27.92,1.14,31.54
		C135.2,496.21,134.82,485.69,134.45,475.27z M495.3,344.52c0.1-0.36,0.21-0.73,0.31-1.09c-1.49-0.88-2.94-1.83-4.47-2.63
		c-3.37-1.78-4.35-1.19-4.74,3.16C489.38,344.14,492.34,344.33,495.3,344.52z M142.85,466.97c-1.64-2.9-4.88-2.88-9.35,0
		C136.8,466.97,139.63,466.97,142.85,466.97z M444.69,259.79c0.18-0.53,0.36-1.06,0.54-1.59c-2.28-0.67-4.55-1.34-6.83-2.01
		c-0.15,0.5-0.31,0.99-0.46,1.49C440.19,258.38,442.44,259.08,444.69,259.79z"/>
	<path d="M341.26,222.29c-0.57,7.63-1.15,15.26-1.72,22.89c0.54,0.08,1.07,0.15,1.61,0.23c2.18-9.62,4.09-19.29,5.03-30.17
		c1.2,1.46,1.7,2.36,2.45,2.91c1.74,1.26,3.58,2.37,5.42,3.48c1.49,0.9,3.5,1.35,4.47,2.61c5.05,6.57,9.61,13.43,12.66,21.25
		c8.05,20.6,2.58,41.44-12.16,54.16c-5.95,5.13-14.81,4.53-20.28-1.17c-7.24-7.56-11.74-16.12-10.71-27.11
		c0.5-5.37-0.82-10.95-0.03-16.23c0.9-6,3.08-11.83,5.03-17.63c1.39-4.14,3.3-8.11,5.06-12.11c0.53-1.2,1.36-2.27,2.05-3.4
		C340.51,222.1,340.88,222.19,341.26,222.29z M361.18,270.59c3.99-2.33,5.7-10.43,3.87-14.56c-0.35-0.07-0.7-0.13-1.05-0.2
		C363.11,260.5,362.21,265.17,361.18,270.59z M350.21,236.18c0,4.16,0,7.97,0,12.09C353.93,245.62,353.88,239.9,350.21,236.18z
		 M338.23,270.5c-0.3-3.35-0.61-6.69-0.97-10.74C334.73,263.64,334.99,267.88,338.23,270.5z"/>
	<path d="M252.73,263.48c-4-0.52-7.79-0.82-11.47-1.61c-1.11-0.24-1.91-1.88-2.85-2.87c1.24-0.56,2.63-1.8,3.7-1.56
		c6.86,1.5,13.64,1.05,20.49,0.01c1.02-0.15,2.23,0.96,3.35,1.48c-0.84,0.99-1.53,2.63-2.54,2.86
		C259.85,262.62,256.2,262.97,252.73,263.48z"/>
	<path d="M338.18,503.68c-4.37-0.33-8.76-0.49-13.1-1.02c-30.91-3.81-61.82-7.63-92.7-11.6c-25.35-3.26-50.67-6.71-75.99-10.12
		c-1.96-0.26-3.87-0.93-5.74-1.8c62.25,10.22,125.52,12.09,187.59,23.57C338.22,503.03,338.2,503.36,338.18,503.68z"/>
	<path d="M151.68,490.41c61.37,8.52,123.2,13.53,184.35,23.77C332.44,515.21,154.99,492.28,151.68,490.41z"/>
	<path d="M159.3,505.19c57.36,8.43,114.71,16.85,171.81,25.24C323.75,532.37,227.43,518.46,159.3,505.19z"/>
	<path d="M335.11,521.11c-43.45-5.51-87.38-7.16-130.31-16.75c21.74,2.76,43.47,5.65,65.24,8.23
		C291.77,515.16,313.73,515.96,335.11,521.11z"/>
	<path d="M488.59,499.93c-45.45,11.65-91.71,19.67-137.46,29.96c-0.1-0.46-0.2-0.93-0.31-1.39c45.81-10.02,91.62-20.04,137.44-30.06
		C488.37,498.93,488.48,499.43,488.59,499.93z"/>
	<path d="M505.18,364.45c-32.2,5.22-64.41,10.44-96.61,15.66c-0.08-0.48-0.16-0.97-0.24-1.45c32-6.46,64.44-10.41,96.55-16.2
		C504.98,363.12,505.08,363.79,505.18,364.45z"/>
	<path d="M381,407.75c34.02-6.59,68.04-13.17,102.06-19.76c-32.97,11.73-67.99,13.38-101.77,21.2
		C381.19,408.71,381.1,408.23,381,407.75z"/>
	<path d="M391.1,383.98c4.09-1.12,8.18-2.24,12.27-3.36c0.13,0.43,0.25,0.85,0.38,1.28c-4.08,1.15-8.15,2.29-12.23,3.44
		C391.38,384.88,391.24,384.43,391.1,383.98z"/>
</g>
</svg>
