<?xml version="1.0" encoding="utf-8"?>
<!-- Generator: Adobe Illustrator 26.0.1, SVG Export Plug-In . SVG Version: 6.00 Build 0)  -->
<svg version="1.1" id="Layer_1" xmlns="http://www.w3.org/2000/svg" xmlns:xlink="http://www.w3.org/1999/xlink" x="0px" y="0px"
	 viewBox="0 0 680 680" style="enable-background:new 0 0 680 680;" xml:space="preserve">
<g>
	<path d="M303.7,473.85c-2.33-3.04-4.3-4.63-4.91-6.64c-0.99-3.28-0.75-6.92-1.64-10.25c-2.63-9.78-10-14.86-20.13-13.63
		c-10.67,1.29-19.82,5.82-27.85,14.89c8.46,0.76,15.97,1.44,23.87,2.15c0,1.93,0,3.76,0,5.46c-0.7,0.34-1.12,0.73-1.54,0.71
		c-7.96-0.34-15.92-1.03-23.87-0.91c-2.42,0.04-5.85,1.65-7.03,3.62c-4.57,7.61-8.42,15.66-13.06,24.54
		c7.45,0.97,13.7,1.79,20.48,2.67c0,2.02,0,4.06,0,6.39c-5.6-0.44-10.87-0.32-15.89-1.39c-5.94-1.27-8.19,1.26-9.12,6.51
		c-3.62,20.32-7.79,40.56-10.81,60.96c-2.28,15.44,3.5,23.53,18.32,29.03c18.11,6.73,35.03,4.73,51.31-6.62
		c-8.45-16.66-6.19-33.73-1.83-50.42c9.06-34.58,22.89-67.2,42.35-97.35c1.06-1.64,1.01-5.33-0.14-6.85
		c-19.85-26.19-39.88-52.24-60.13-78.11c-1.46-1.86-4.86-2.81-7.46-3.03c-5.16-0.43-10.41,0.28-15.58-0.09
		c-7.67-0.56-14.35-3.3-19.61-9.43c-1.36-1.59-4.62-1.55-7.01-2.25c-0.55,2.45-2.35,5.71-1.4,7.18c2.46,3.79,5.56,8.17,9.45,9.78
		c6.76,2.78,14.37,3.44,21.52,5.4c3.38,0.93,7.38,1.98,9.6,4.37c20.37,21.87,40.4,44.06,60.57,66.11c2.78,3.04,5.27,5.82-1.27,8.61
		c-9.57-10.43-19.3-21.03-29.02-31.64c-11.26-12.31-22.4-24.74-33.87-36.86c-1.8-1.91-4.93-2.81-7.61-3.58
		c-7.61-2.18-15.67-3.18-22.89-6.22c-12.71-5.34-16.6-15.9-11.43-29.03c-43.15-1.44-86.05-2.87-129.73-4.33
		c-1.07-9.92-2.22-19.46-3.11-29.03c-2.28-24.53-4.54-49.06-6.47-73.62c-0.18-2.24,1.4-5.58,3.25-6.87
		c8.76-6.14,17.63-12.2,26.99-17.36c4.74-2.61,10.54-4.44,15.92-4.58c25.9-0.71,51.81-0.68,77.72-1.01
		c6.62-0.08,11.82-1.86,13.43-9.68c6.74-32.58,34.29-59,67.56-64.69c21-3.59,42.13-3.78,63.21-0.46
		c17.76,2.8,31.95-1.08,44.11-16.17c27.6-34.25,79.67-43.63,117.91-21.64c53.12,30.55,80.91,77.69,87.58,138.01
		c2.01,18.16,2.61,36.26-1.67,54.19c-8.23,34.42-40.21,58.04-75.08,55.34c-4.12-0.32-8.42-1.38-12.17-3.11
		c-23.26-10.78-54.74-0.02-63.67,24.02c-5.62,15.14-8.77,31.63-10.29,47.78c-2.92,31.02,3.09,61.53,9.39,91.76
		c5.32,25.54,11.62,50.88,17.86,76.22c0.98,3.98,0.06,5.77-3.02,7.89c-21,14.5-44.28,20.73-69.68,20.51
		c-24.16-0.22-48.33,0.45-72.5,0.27c-5.27-0.04-10.49-2.28-15.8-2.96c-2.08-0.27-4.63,0.5-6.51,1.59
		c-18.4,10.68-37.41,11.26-56.61,3c-15.68-6.74-21.9-18.68-19.16-35.47c3-18.41,5.62-36.91,9.67-55.09
		c4.76-21.31,12.91-41.64,28.09-57.68c6.72-7.1,15.96-13.01,25.19-16.32C291.25,430.25,309.21,447.44,303.7,473.85z M481.44,321.45
		c-6.74-36.52,3.25-68.66,21.12-100.09c2.39,1.75,4.03,2.95,5.68,4.16c-15.07,24.21-22.18,50.13-22.5,77.76
		c-0.21,17.84,9.94,26.94,27.84,26.54c31.17-0.69,58.98-23.51,62.95-54.37c2.26-17.55,2.21-35.83,0.17-53.42
		c-6.31-54.38-32.81-96.48-79.63-125.78c-42.52-26.61-94.71-7.24-115.65,21.03c-10.63,14.35-25.26,17.61-42.25,16.63
		c-20.29-1.17-40.76-2.46-60.97-1.03c-30.53,2.15-58.59,26.84-66.61,54.4c-3.25,11.17,1.84,14.48,11.58,14.38
		c14.12-0.15,28.25-0.04,42.31-0.04c0.93,4.28,1.58,7.31,2.33,10.77c10.79-4.17,21.11-4.01,31.26-0.4
		c5.95,2.12,10.47,6.18,11.01,12.88c0.54,6.71-2.28,12.27-8.12,15.71c-3.15,1.86-6.73,3.44-10.31,4.06
		c-7.28,1.26-14.69,1.77-22.61,2.65c0,1.62-0.1,3.31,0.03,4.98c0.13,1.7,0.48,3.38,0.72,4.95c28.37,5.71,37.38,30.65,21.96,49.33
		c7.42,9.14,14.88,18.34,21.25,26.18c3.63-1.22,5.94-2.54,8.33-2.71c9.66-0.72,19.58,0.09,28.97-1.8
		c34.49-6.97,62.74-21.62,69.4-60.78c0.27-1.59,3.44-2.69,5.26-4.02c-3.07,44.13-32.32,61.46-69.97,71.41
		c20.82,12,27.37,29.55,24.18,52.19c12.58,0.85,24.53,1.66,37.05,2.51C420.26,349.05,437.83,321.92,481.44,321.45z M329.92,435.19
		c16.47-7.35,26.55-5.22,39.03,6.98c17.1,16.72,21.53,37.77,19.95,60.3c-1.05,14.88-4.3,29.61-6.62,44.8
		c8.63-0.94,17.49-1.91,26.94-2.94c0.3,2.17,0.57,4.16,0.9,6.55c-13.19,1.63-25.66,3.18-37.89,4.69
		c3.27-15.27,7.52-29.87,9.33-44.77c2.86-23.59,0.68-46.36-17.9-64.34c-15.21-14.71-31.82-11.13-39.93,9.3
		c4.05,0.48,7.98,0.91,11.89,1.43c4.09,0.54,9.03,0.46,5.83,7.54c-6.29-0.66-12.44-1.46-18.61-1.86c-1.65-0.11-4.28,0.53-4.92,1.68
		c-3.77,6.82-7.09,13.89-11.28,22.31c9.75,0,17.62,0,25.25,0c1.97,5.55,0.2,7.24-4.56,6.96c-6.21-0.37-12.45-0.78-18.65-0.49
		c-2.18,0.1-5.62,1.75-6.18,3.45c-6.44,19.54-13.26,39.02-18.22,58.95c-2.6,10.45-2.32,21.84,3.67,31.95
		c2.55,4.3,5.62,7.14,11.25,7.07c27.65-0.34,55.3-0.23,82.95-0.56c16.11-0.2,31.55-3.61,45.98-11.11
		c14.21-7.39,14.12-7.3,10.31-22.51c-10.46-41.75-20.16-83.68-23.63-126.7c-0.99-12.29-0.15-24.73-0.15-37.57
		c-10.92-0.69-21.62-0.88-32.17-2.23c-6.31-0.81-8.15,3.14-9.37,7.2c-0.69,2.32,0.93,5.52,2,8.12c0.79,1.91,2.39,3.48,3.86,5.52
		c-2.01,1.32-3.54,2.33-5.38,3.55c-30.7-37.89-61.09-75.38-91.43-112.82c13.71-14.34,13.63-27.52-0.17-36.54
		c-5.5-3.59-11.67-6.39-18.22-2.89c-6.32,3.38-7.29,9.48-7.04,16.1c0.07,1.84-1.34,3.73-2.07,5.6c-1.69-0.99-3.89-1.6-4.99-3.04
		c-3.67-4.81-8.03-7.48-14.16-5.7c-5.89,1.7-11.55,10.84-11.29,17.9c0.26,7.24,5.27,13.44,12.27,15.07c2.13,0.5,4.31,0.75,9.12,1.57
		c-3.02,3.11-4.65,5.04-6.54,6.69c-4.37,3.81-9.82,6.81-13.07,11.39c-4.44,6.25-2.69,12.05,4.59,14.23
		c7.39,2.22,15.73,3.55,23.24,2.46c6.95-1.01,10.23,0.94,14.06,5.99C288.31,381.39,309.06,408.1,329.92,435.19z M79.22,307.5
		c9.92,0,19.32-0.17,28.71,0.12c2.21,0.07,4.38,1.67,6.56,2.57c-2.13,1.06-4.22,2.95-6.39,3.03c-9.13,0.34-18.28,0.14-27.34,0.14
		c-1.06,14.78-1.05,14.69,12.53,15.17c37.07,1.31,74.14,2.61,111.2,4.15c7.65,0.32,14.7,0.94,17.82-8.45
		c0.92-2.77,3.91-4.84,5.94-7.22c-11.18-10.71-14.63-21.35-7.93-31.78c4.92-7.65,3.81-14.75,3.17-23.15
		c-8.85,0-17.27,0.15-25.67-0.13c-1.73-0.06-3.41-1.73-5.11-2.65c1.63-0.95,3.23-2.65,4.88-2.71c8.37-0.28,16.76-0.13,25.64-0.13
		c-0.47-8.39-0.88-15.74-1.34-23.99c-50.13,0-99.69,0-149.65,0c0.59,6.59,1.15,12.91,1.73,19.47c5.7,0,10.42,0.05,15.14-0.01
		c10.45-0.12,20.9-0.4,31.35-0.33c1.47,0.01,2.93,1.66,4.39,2.55c-1.33,1.01-2.55,2.25-4.03,2.95c-1.02,0.48-2.39,0.22-2.67,0.24
		c-0.67,3.09-0.76,5.73-1.8,7.92c-9.17,19.33,0.53,48.06,24.76,47.22c1.31-0.05,2.71,2.61,5.07,5.05
		c-31.78,2.17-44.61-22.57-33.45-59.54c-12.55,0-25.06,0-38.24,0C76.11,274.8,77.63,290.77,79.22,307.5z M220.69,218.73
		c-8.42,0-16.12,0.26-23.78-0.2c-1.66-0.1-3.83-2.5-4.57-4.32c-0.87-2.13-0.44-4.8-0.55-6.68c-25.17,0-50.06,0.7-74.89-0.25
		c-16-0.61-25.06,10.46-36.72,17.72c2.7,0.87,5.15,0.85,7.6,0.87c39.86,0.24,79.76-0.44,119.57,1.13
		c18.88,0.74,30.81-10.91,45.17-19.2c-10.27,0-20.55,0-31.08,0C221.2,211.19,220.99,214.34,220.69,218.73z M365.87,398.02
		c14.55-19.25,7.07-47.04-14.55-57.03c-10.93-5.05-22.38-3.6-35.07-4.13C333.38,357.97,349.56,377.92,365.87,398.02z M229.62,253.17
		c8.4-5.88,16.2-11.51,24.22-16.82c1.42-0.94,3.73-0.52,5.63-0.74c-0.79,1.75-1.11,4.12-2.46,5.14c-6.52,4.95-13.3,9.57-20.01,14.26
		c-8.56,5.99-8.99,7.26-6.07,16.39c6.66,0.61,12.85,1.18,17.11,1.57c5-4.98,9.46-9.29,13.74-13.78c1.06-1.11,2.2-2.83,2.12-4.21
		c-0.78-14.22-1.79-28.43-2.8-43.6c-5.79,3.16-10.57,5.69-15.27,8.35c-18.52,10.48-18.52,10.5-17.02,31.64
		C228.83,251.62,229,251.83,229.62,253.17z M215.39,212.89c-0.79-6.95-3.98-10.45-10.27-10.01c-5.82,0.41-7.83,4.17-7.19,10.01
		C203.66,212.89,209.08,212.89,215.39,212.89z"/>
	<path d="M499.9,287.02c-0.42-27.43,10.13-51.04,25.89-72.41c11.28-15.29,24.9-13.8,32.52,3.46c10.64,24.11,11.83,49.24,2.8,74.08
		c-6.16,16.96-19.28,26.73-37.23,29.44c-12.59,1.9-20.01-3.43-22.19-16.05C500.65,299.44,500.48,293.2,499.9,287.02z"/>
	<path d="M364.27,186.56c0,0.25,0.05,0.51-0.01,0.74c-1.28,5.13-0.99,12.22-7.97,12.58c-7.05,0.36-7.6-6.51-8.95-11.73
		c-0.12-0.48-0.16-0.98-0.2-1.47c-0.59-8.26,2.8-15.12,7.48-15.18C359.25,171.45,364.26,179.25,364.27,186.56z"/>
	<path d="M384.76,185.78c2.2-6.11,1.29-13.31,8.37-13.87c7.19-0.56,9.26,6.58,9.37,12.05c0.1,5-2.32,10.17-4.3,14.99
		c-0.36,0.87-5.25,1.3-5.86,0.41C389.4,195.12,387.22,190.36,384.76,185.78z"/>
	<path d="M143.9,259.46c13.21-0.11,23.16,10.98,23.12,25.77c-0.03,12.77-8.48,21.58-20.62,21.51c-13.81-0.08-24.82-10.87-24.89-24.4
		C121.44,269.46,131.12,259.57,143.9,259.46z M161.26,285.05c0.01-11.89-7.17-20.35-17.18-20.24c-9.78,0.11-17.41,7.98-17.23,17.76
		c0.19,10.14,8.94,18.65,19.33,18.78C155.63,301.47,161.24,295.4,161.26,285.05z"/>
	<path d="M216.64,234.76c0,6.38,0,12.22,0,18.67c-16.35,0-32.55,0-49.25,0c0-6.18,0-12.23,0-18.67
		C183.74,234.76,199.94,234.76,216.64,234.76z M210.73,240.75c-7.48,0-14.28,0-21.24,0c0,2.75,0,5.06,0,7.98
		c5.62,0,10.76-0.27,15.86,0.07C211.75,249.21,212.26,246.06,210.73,240.75z M172.41,248.54c4.7,0,8.33,0,12.08,0
		c0-3.03,0-5.58,0-8.19c-4.36,0-8.16,0-12.47,0C172.17,243.37,172.28,245.75,172.41,248.54z"/>
	<path d="M183.72,311.35c7.77,0,15.91-0.16,24.03,0.13c1.72,0.06,3.38,1.76,5.06,2.7c-1.75,0.85-3.49,2.4-5.26,2.44
		c-11.78,0.22-23.57,0.11-33.94,0.11c3.07-9.31,5.92-18.26,9.05-27.11c0.43-1.2,2.29-1.89,3.49-2.81c0.67,1.13,2.07,2.39,1.9,3.38
		C186.86,296.93,185.35,303.61,183.72,311.35z"/>
	<path d="M157.27,316.39c0.95-1.65,1.48-4.03,2.91-4.84c10-5.64,14.47-13.83,13-25.35c-0.18-1.38,1.43-2.99,2.21-4.49
		c1.15,1.31,2.96,2.45,3.35,3.95c3.31,12.69-5.1,26.31-19.46,31.9C158.61,317.18,157.94,316.79,157.27,316.39z"/>
	<path d="M169.91,258.96c-3.67,0-6.24,0.81-7.54-0.13c-7.16-5.17-14.91-7.39-23.71-6.6c-1.41,0.13-2.98-1.45-4.48-2.23
		c1.3-1.12,2.43-2.9,3.91-3.26C147.48,244.42,160.05,248.94,169.91,258.96z"/>
	<path d="M182.58,278.55c-2.52-4.6-5.26-9.1-7.39-13.87c-0.43-0.96,1.42-2.94,2.22-4.46c0.75-0.03,1.5-0.06,2.24-0.09
		c2.25,5.36,4.49,10.72,6.74,16.07C185.12,276.99,183.85,277.77,182.58,278.55z"/>
</g>
</svg>
