<?xml version="1.0" encoding="utf-8"?>
<!-- Generator: Adobe Illustrator 26.0.1, SVG Export Plug-In . SVG Version: 6.00 Build 0)  -->
<svg version="1.1" id="Layer_1" xmlns="http://www.w3.org/2000/svg" xmlns:xlink="http://www.w3.org/1999/xlink" x="0px" y="0px"
	 viewBox="0 0 680 680" style="enable-background:new 0 0 680 680;" xml:space="preserve">
<g>
	<path d="M147.76,266.69c0.85-4.19,1.47-8.15,2.46-12.01c2.74-10.6,6.9-20.65,13.7-29.28c8.36-10.61,18.93-18.18,32.06-22.24
		c21.3-6.59,43.18-8.66,65.29-9.8c10.93-0.56,21.94-1.43,32.17-6.07c0.86-0.39,1.81-0.62,2.6-1.11c0.99-0.61,1.86-1.4,3.35-2.55
		c-2.56-1.37-4.84-2.43-6.94-3.78c-1.22-0.78-2.15-2.03-3.21-3.06c1.61-1.18,3.29-3.44,4.8-3.33c3.39,0.25,7,1.11,9.96,2.74
		c5.14,2.84,5.03,3.16,10-1.21c-1.84-1.01-3.52-2.02-5.26-2.88c-1.78-0.88-2.37-2.02-1.64-4c4.53-12.3,8.91-24.66,13.54-36.93
		c0.73-1.94,0.51-2.86-1.01-4.13c-12.5-10.45-24.93-20.98-37.38-31.5c-0.72-0.61-1.72-1.17-1.99-1.96
		c-0.61-1.79-1.63-4.07-0.99-5.48c0.61-1.35,3.09-2.56,4.77-2.6c6.13-0.12,12.28,0.34,18.42,0.48c19.72,0.44,39.43,0.81,59.15,1.26
		c21.61,0.49,43.21,0.99,64.81,1.68c2.02,0.06,4.42,1.08,5.9,2.45c7.1,6.58,13.88,13.51,20.91,20.18
		c12.5,11.86,25.18,23.53,37.64,35.44c12.98,12.4,25.77,24.99,38.67,37.46c1.44,1.39,3.03,2.63,4.64,3.82
		c2.47,1.83,2.77,3.84,1.61,6.73c-6.28,15.69-12.35,31.45-18.52,47.19c-1.31,3.34-1.93,6.26,0.11,9.95
		c3.7,6.68,0.97,12.74-3.48,18.24c-0.83,1.03-1.66,2.38-1.73,3.64c-1.01,16.84-5.45,32.77-12.4,48.07
		c-1.35,2.98-2.57,6.02-4.01,9.42c-11.13-3.73-22.05-7.39-33.04-11.07c-1.49,4.92-3.09,9.85-4.47,14.84
		c-2.64,9.52-8.22,17.3-14.08,25.05c-6,7.93-13.26,14.48-21.26,20.09c-3.24,2.27-7.96,3.18-12.05,3.34
		c-7.82,0.3-15.66,0.48-23.07-3.63c-8.68-4.81-15.41-10.91-17.72-20.83c-0.72-3.1-2.04-3.58-4.91-2.9
		c-16.03,3.79-27.62,12.87-34.2,28.1c-0.56,1.3-1.12,2.6-1.64,3.92c-2.17,5.48-2.12,5.39,3.26,7.89c2.09,0.97,5.02,1.21,5.18,4.56
		c0.17,3.59-2.1,5.57-4.91,6.62c-3.28,1.23-3.82,2.63-2.61,6c5.36,14.99,10.56,30.04,15.42,45.2c3.1,9.65,5.66,19.49,8.15,29.32
		c1.69,6.67,2.24,13.5,0.19,20.15c0.37,0.3,0.56,0.58,0.72,0.57c13.2-1,24.44,4.04,33.73,12.67c8.42,7.81,17.97,10.83,29,10.76
		c0.45,0,0.89,0.19,2.38,0.53c-2.18,2.23-3.66,4.48-5.75,5.73c-5.44,3.26-11.14,6.1-16.77,9.04c-0.69,0.36-1.64,0.47-2.43,0.37
		c-11.33-1.34-22.88-1.44-33.47-6.66c-4.3-2.12-8.89-3.66-13.86-5.66c0.38,4.02,0.63,7.39,1.02,10.74c1.01,8.79,1.92,17.6,3.2,26.35
		c0.59,4.06,1.78,8.06,3.04,11.97c0.37,1.14,1.83,2.05,2.96,2.81c6.16,4.14,12.78,7.69,17.4,13.78c1.14,1.5,2.33,2.99,3.26,4.62
		c3.1,5.48,2.2,10.88-2.54,14.98c-5.93,5.13-13.13,7.65-20.68,8.55c-16.42,1.95-32.88,3.58-49.36,4.94
		c-10.57,0.88-21.21,1.58-31.8,1.38c-9.04-0.17-18.13-1.33-27.07-2.84c-6.36-1.07-12.01-4.17-15.88-9.82
		c-0.55-0.8-2.13-1.11-3.28-1.25c-5.23-0.66-10.52-0.95-15.71-1.81c-8.29-1.37-13.42-12.23-13.05-18.3
		c0.6-9.64,3.66-18.52,12.49-23.7c4.92-2.89,10.42-5.23,15.96-6.55c7.74-1.84,15.74-2.67,23.67-3.59c4.92-0.57,9.91-0.54,14.87-0.67
		c1.89-0.05,2.68-0.62,2.71-2.68c0.09-7.43,0.2-14.88,0.68-22.29c0.24-3.66-1.11-5.54-4.3-7.11c-18-8.85-29.5-23.11-34.84-42.43
		c-3.81-13.76-1.31-26.75,5.1-39.06c3.97-7.63,8.59-14.93,13.06-22.29c6.72-11.06,15.3-20.65,24.15-30c0.56-0.59,1.03-1.27,1.2-1.49
		c-1.77-2.54-3.67-4.7-4.92-7.2c-1.52-3.04,0.01-5.66,3.37-6.08c2.67-0.33,5.42-0.44,8.1-0.25c2.79,0.21,3.5-0.94,3.39-3.48
		c-0.2-4.58-2.31-8.16-5.59-11.07c-8.12-7.21-17.86-11.41-28.1-14.47c-10.94-3.28-22.37-5.26-32.88-9.54
		c-13.49-5.5-26.6-12.16-39.27-19.38c-9.77-5.57-17.26-14.09-23.18-23.77c-0.29-0.48-0.66-0.91-1.24-1.7
		c-3.02,3.53-6.18,6.5-10.99,6.54c-6.71,0.04-13.4-0.49-18.83-4.83c-8.49-6.8-10.04-14.5-7.02-24.73
		c1.82-6.16,6.63-10.04,12.55-12.7C135.29,264.33,141.28,266.23,147.76,266.69z M316.48,193.12c-1.57-0.82-2.83-1.35-3.95-2.09
		c-4.73-3.1-8.96-4.03-14.88-1.35c-7.51,3.39-15.9,5.34-24.11,6.53c-9.9,1.44-20.03,1.3-30.04,2.06
		c-16.65,1.28-33.13,3.5-48.79,9.79c-21.18,8.51-34.5,23.92-39.88,45.99c-3.36,13.76-1.62,27.44,2.15,40.9
		c3.28,11.72,10.23,20.76,20.05,27.86c9.16,6.62,19.13,11.65,29.66,15.57c8.83,3.29,17.8,6.2,26.75,9.16
		c3.01,0.99,6.11,1.72,9.22,2.36c3.66,0.75,7.41,1.96,11.05,1.74c8.54-0.52,16.46-3.99,23.33-8.61c5.2-3.5,9.34-8.91,13.11-14.08
		c3.8-5.21,6.48-11.22,9.86-16.75c0.66-1.08,2.26-1.58,3.43-2.35c0.53,1.44,1.23,2.85,1.53,4.34c0.13,0.67-0.48,1.54-0.87,2.26
		c-1.17,2.19-2.51,4.28-3.57,6.52c-4.5,9.51-11.43,17-19.57,23.41c-2.55,2.01-5.57,3.52-8.56,4.83c-3.83,1.68-7.85,2.93-12.33,4.55
		c3.2,1.75,5.88,3.4,8.71,4.72c10.65,4.98,18.31,12.34,20.41,24.49c0.19,1.07,1.7,2.52,2.8,2.74c9.12,1.81,18.33,3.21,27.44,5.11
		c3.21,0.67,3.93-0.33,4.62-3.2c2.74-11.34,8.35-21.14,17.91-27.99c5.33-3.82,11.4-6.65,17.3-9.6c2.34-1.17,5.12-1.44,7.79-2.15
		c-0.09-1.09-0.17-1.9-0.21-2.71c-0.66-15.82-1.71-31.75,3.16-47.11c3.06-9.64,7.09-19,11.02-28.35c2.14-5.1,4.97-9.91,7.55-14.82
		c0.77-1.47,1.71-2.46,3.63-1.21c1.94,1.26,1.59,2.44,0.67,4.13c-7.2,13.21-13.31,26.86-16.69,41.61
		c-3.99,17.42-6.36,34.9-1.89,52.61c4.73,18.75,22.13,28.48,40.54,22.65c10.53-3.33,18.63-10.07,25.35-18.57
		c13-16.45,18.74-35.58,19.88-56.19c0.44-8.08,0.26-16.24-2.19-24.22c-0.32,0.25-0.62,0.37-0.66,0.54c-0.44,1.95-0.94,3.9-1.22,5.88
		c-2.09,14.58-7.21,28.93-2.4,43.99c1.12,3.5-0.46,7.15-4.55,8.99c-4.19,1.88-6.9,5.23-8.25,9.66c-1.61,5.26-4.74,9.4-9.32,12.48
		c-12.25,8.26-25.87,9.83-40.07,8.03c-7.37-0.94-11.2-5.19-12.05-12.69c-0.54-4.8-0.23-9.79-1.35-14.43
		c-3.91-16.1,1.09-30.58,7.41-44.87c2.91-6.57,6.4-12.88,9.24-19.48c4.09-9.49,8.93-17.69,20.4-19.86c6.6-1.25,6.55-1.83,8.69,4.63
		c0.3,0.92,0.87,2.23,1.6,2.45c3.73,1.16,7.19-1.11,8.74-4.8c2.22-5.29,3.85-11.38,12.66-11.42c-3.55-5.79-6.71-10.94-9.87-16.09
		c-0.3-0.49-0.92-0.99-0.89-1.46c0.15-2.73-1.92-2.82-3.7-3.31c-11.91-3.27-24.07-3.54-36.23-2.33c-5.93,0.59-11.85,1.94-17.6,3.56
		c-4.82,1.36-7.01,0.86-9.84-3.36c-4.28-6.37-8.11-13.2-13.28-18.76c-9.24-9.94-19.35-19.01-31.79-25.11
		c-3.18-1.56-5.38-1.81-8.23,0.39c-2.05,1.57-2.47,2.68-0.49,4.38C317.28,186.85,317.66,189.45,316.48,193.12z M273.76,572.56
		c-1.06,0-1.66,0.08-2.22-0.01c-19.44-3.29-37.81,0.36-55.45,8.58c-8.45,3.94-12.59,10.84-12.84,20c-0.13,4.87,1.84,8.81,5.85,10.68
		c1.05-4.58,2.02-9.09,3.14-13.57c1.15-4.59,4.79-5.84,8.9-6.06c0.97-0.05,2,0.8,3,1.23c-0.69,0.84-1.21,2.09-2.09,2.45
		c-7.22,2.96-10.49,8.98-8.63,16.57c0.24,0.99,1.08,2.43,1.85,2.58c3.75,0.72,7.57,1.07,11.48,1.57c0.18-1.21,0.32-1.67,0.29-2.11
		c-0.97-13.53,6.26-20.13,15.9-23.44c9.65-3.31,19.65-5.89,29.7-7.69c8.87-1.59,18.01-1.65,26.86-2.37c0-5.66,0.03-11.28-0.01-16.9
		c-0.03-5.2-0.23-10.39-0.18-15.58c0.02-2.8,1.69-4.09,3.76-2.84c0.89,0.54,1.43,2.32,1.45,3.54c0.11,6.61,0,13.21-0.02,19.82
		c-0.01,5.26,0,10.52,0,16.33c-5.97,0.31-11.25,0.53-16.52,0.87c-5.87,0.39-11.86,0.3-17.57,1.5c-8.15,1.71-16.08,4.47-24.15,6.65
		c-6.57,1.78-10.43,6.48-13.58,12.05c-1.9,3.37-1.55,6.58-0.04,10.11c2.36,5.55,12.42,13.79,19.12,12.77
		c-0.23-1.12-0.47-2.23-0.67-3.34c-1.49-8.13,2.33-15.99,9.03-18.43c0.74-0.27,1.7,0.05,2.56,0.1c-0.23,0.83-0.27,1.8-0.75,2.45
		c-0.53,0.73-1.48,1.14-2.21,1.74c-4.58,3.76-6.37,10.07-4.3,14.96c1.01,2.4,2.48,3.73,5.37,3.6c3.29-0.14,6.59,0.36,9.89,0.42
		c2.41,0.04,4.83-0.19,7.59-0.31c-0.3-2.31-0.53-4.04-0.75-5.77c-0.65-5.06,3.35-11.36,8.18-12.65c0.98-0.26,2.14,0.14,3.22,0.23
		c-0.6,0.96-0.98,2.33-1.84,2.82c-4.2,2.34-5.07,6.32-5.38,10.5c-0.19,2.59,2.69,4.97,5.37,4.76c8.12-0.61,16.24-1.27,24.37-1.87
		c4.12-0.3,8.28-0.26,12.37-0.79c10.4-1.35,20.84-2.58,31.12-4.58c5.56-1.08,10.99-3.32,16.19-5.68c3.66-1.65,4.17-6.15,1.91-9.56
		c-4.17-6.3-9.5-11.47-15.8-15.52c-6.54-4.2-10.18-9.84-10.46-17.68c-0.12-3.41-0.46-6.84-0.96-10.22
		c-1.76-12.02-3.29-24.08-5.61-35.99c-1.11-5.7,1.17-9.97,3.94-14.04c4.24-6.24,6.28-12.93,5.56-20.31
		c-0.5-5.15-1.45-10.3-2.75-15.31c-1.35-5.2-3.35-10.24-5.07-15.35c-1.65,4.2-2.37,8.29-3.69,12.17c-0.95,2.79-0.62,4.89,1.1,7.19
		c3.89,5.22,5.57,11.13,4.92,17.67c-1.56,15.66-17.36,31.24-33.2,32.7c-9.84,0.91-17.08-3.45-20.46-12.73
		c-1.24-3.41-2.18-7.05-2.49-10.65c-2.27-26.92,4.19-52.54,12.03-77.92c0.2-0.65,1.22-1.04,1.86-1.56c0.29,0.81,0.94,1.68,0.8,2.41
		c-0.81,4.17-1.96,8.27-2.72,12.45c-2.16,11.82-4.1,23.68-6.31,35.49c-1.71,9.14-1.86,18.26-1.1,27.51
		c0.47,5.76,2.75,10.44,6.37,14.62c5.84,6.75,11.22,7.55,19.61,2.96c-3.92-5.16-7.68-10.42-4.9-17.74
		c2.94,5.42,4.57,11.68,10.01,15.49c3.05-2.55,6.09-5.08,8.55-7.14c-1.64-4.74-3.3-8.89-4.42-13.17c-0.32-1.23,0.9-2.87,1.42-4.31
		c0.69,1.18,1.59,2.29,2.03,3.56c1.09,3.12,0.73,6.88,4.74,9.41c1.42-3.33,3.68-6.43,3.95-9.7c0.53-6.45-1.01-12.72-5.41-17.83
		c-2.08-2.41-2.36-5.04-1.77-7.95c1.09-5.31,2.05-10.65,3.34-15.92c1.3-5.32,1.54-10.38-1.49-15.29c-0.84-1.35-0.95-3.15-1.43-4.73
		c-2.87-9.6-5.69-19.22-8.73-28.77c-0.36-1.12-1.88-2.38-3.06-2.64c-11.64-2.53-23.35-4.73-34.97-7.33
		c-2.85-0.64-4.85,0.11-7.24,1.39c-9.23,4.97-15.1,13.23-20.59,21.55c-7.52,11.39-14.71,23.07-20.93,35.2
		c-2.97,5.78-5.19,13.08-4.5,19.33c1,9.08,4.61,17.95,7.72,26.7c2.11,5.94,6.11,10.83,11.36,14.54c4.03,2.85,8,5.79,12.1,8.55
		c2.62,1.76,5.57,3.07,8.04,5c0.98,0.76,1.5,2.64,1.51,4.01c0.07,7.55-0.1,15.11-0.16,22.66
		C273.74,564.52,273.76,568.38,273.76,572.56z M511.7,226.54c0.54,1.23,0.76,1.49,0.7,1.65c-1.98,6.28-3.93,12.56-6.06,18.79
		c-0.18,0.54-1.49,0.91-2.31,0.99c-7.74,0.75-11.86,5.91-10.86,13.53c0.13,0.99-0.18,2.36-0.82,3.07
		c-12.75,13.97-21.71,30.28-29.51,47.32c-0.52,1.12-0.91,2.31-1.44,3.67c10.93,4.52,21.45,8.87,31.91,13.2
		c6.06-11.28,13.24-39.89,14.13-56.17c0.12-2.25,0.61-3.82,2.61-5.3c5-3.68,5.87-10.86,1.75-15.34c-1.94-2.11-1.72-3.62-0.77-5.89
		c6.89-16.43,13.59-32.94,20.55-49.34c1.1-2.59,0.49-3.94-1.36-5.7c-33.46-31.86-66.84-63.79-100.32-95.63
		c-1.14-1.08-3.07-1.85-4.65-1.89c-46.07-1.17-92.14-2.23-138.21-3.29c-0.95-0.02-1.91,0.13-3.46,0.25
		c1.23,1.12,1.89,1.78,2.59,2.37c34.38,28.87,68.76,57.75,103.22,86.53c1.58,1.32,3.95,2.13,6.03,2.32
		c37.18,3.28,74.38,6.43,111.57,9.62c7.04,0.6,14.08,1.27,21.15,1.9c-1.07,5.86-1.69,6.13-6.77,4.17c-1.82-0.71-3.88-0.92-5.85-1.11
		c-7.04-0.67-14.08-1.41-21.14-1.79c-5.38-0.29-10.79-0.06-16.22-0.06c-4.77,11.42-9.68,23.06-14.49,34.74
		c-1.33,3.23-3.48,4.25-6.75,3.27c-1.92-0.58-3.86-1.12-5.8-1.65c-3.33-0.91-6.67-1.8-10.49-2.83
		c16.74,19.78,22.76,42.76,24.41,67.91c0.72-0.98,1.03-1.32,1.25-1.72c6-11.02,12.65-21.6,20.94-31.09
		c0.74-0.85,0.92-2.31,1.09-3.52c0.91-6.47,2.66-12.92,9.61-14.8c5.16-1.39,6.81-4.75,8.43-8.82c0.74-1.87,1.39-3.79,2.32-5.55
		C509.36,229.12,510.44,228.11,511.7,226.54z M310.36,167.93c0.87,0.51,1.35,0.84,1.87,1.09c25.11,12.11,46.06,28.99,60.92,52.93
		c0.43,0.7,2.12,1.11,3.07,0.91c3.57-0.74,7.04-2.04,10.63-2.67c21.32-3.74,42.09-0.83,62.58,5.35c3.12,0.94,6.21,1.95,9.51,2.99
		c4.78-11.59,9.43-22.85,14.2-34.39c-1.29-0.15-1.98-0.26-2.68-0.31c-26.01-2.05-52.03-4.06-78.03-6.23
		c-2.05-0.17-4.39-1.05-5.95-2.36c-13.02-10.94-25.89-22.06-38.8-33.12c-7.43-6.36-14.86-12.73-22.7-19.44
		C320.03,144.59,315.26,156.09,310.36,167.93z M356.88,513.5c-0.06,1.11-0.13,1.91-0.14,2.71c-0.06,4.31-0.82,8.12-5.32,10.28
		c-1.16,0.56-1.65,2.52-2.6,4.09c19.13,11.31,38.47,14.89,59.75,7.62c-0.71-0.96-0.8-1.22-0.99-1.32
		c-10.19-5.4-20.91-10.01-30.41-16.43C370.86,516.19,364.66,513.82,356.88,513.5z M127.38,299.99c-1.53-17.38,9.54-26.27,20.75-23.9
		c-0.83-1.64-1.08-3.19-1.93-3.66c-11.1-6.11-23.22-0.86-26.31,11.39C118.11,290.86,122.32,295.32,127.38,299.99z M445.22,271.28
		c3.42-1.75,5.74-2.84,7.94-4.13c0.54-0.32,1.14-1.44,0.97-1.92c-1.63-4.55-3.43-9.04-5.18-13.54c-0.51,0.09-1.03,0.17-1.54,0.26
		C446.71,258.11,446.01,264.26,445.22,271.28z M386.24,344.53c0.4,0.12,0.8,0.23,1.2,0.35c2.08-5.52,4.16-11.05,6.37-16.88
		c-0.39-0.26-1.3-0.89-2.56-1.75C387.75,332.11,384.63,337.69,386.24,344.53z M421.75,310.63c3.87-4.93,7.28-9.27,10.7-13.63
		C428.47,295.41,422.38,302.82,421.75,310.63z M420.71,279.59c-3.34,1.27-4.02,3.45-2.16,6.41
		C419.28,283.86,419.99,281.72,420.71,279.59z"/>
	<path d="M298.92,234.54c-0.89,5.99-2.29,11.33-5.66,15.89c-1.31,1.76-3.36,3.25-5.38,4.15c-2.96,1.31-6.32-0.78-6.26-4
		c0.12-7.59,1.68-14.87,7.98-19.92c1.58-1.27,4.57-2.1,6.31-1.47C297.36,229.71,297.95,232.66,298.92,234.54z"/>
</g>
</svg>
