<?xml version="1.0" encoding="utf-8"?>
<!-- Generator: Adobe Illustrator 26.0.1, SVG Export Plug-In . SVG Version: 6.00 Build 0)  -->
<svg version="1.1" id="Layer_1" xmlns="http://www.w3.org/2000/svg" xmlns:xlink="http://www.w3.org/1999/xlink" x="0px" y="0px"
	 viewBox="0 0 680 680" style="enable-background:new 0 0 680 680;" xml:space="preserve">
<g>
	<path d="M435.8,588.87c-6.4,10.12-17.13,13.74-28.32,15.61c-16.95,2.84-34,5.36-51.11,6.88c-15.48,1.38-31.1,1.47-46.67,1.69
		c-7.52,0.11-15.02-1.27-21.61-5.21c-3.24-1.94-6.14-4.63-8.77-7.38c-1.56-1.63-2.65-2.15-5.01-1.75
		c-11.52,1.98-23.05,4.06-34.66,5.22c-18.34,1.83-30.78-7.08-39.01-22.93c-7.35-14.15-10.96-29.32-12.33-45.06
		c-0.56-6.41-0.68-12.87-0.67-19.3c0-2.68-0.83-4.27-3.1-5.68c-8.46-5.24-16.63-10.97-25.25-15.92c-5.42-3.12-7.48-7.61-8.29-13.33
		c-0.65-4.63-1.71-9.2-2.42-13.83c-0.35-2.3-1.39-3.33-3.75-3.74c-13.31-2.31-21.7-13.46-18.98-26.71c1.01-4.95,0.08-8.22-2.2-12.28
		c-5.2-9.28-3.59-24.53,8.47-29.48c0.83-0.34,1.54-2.45,1.36-3.59c-2.65-16.99-5.46-33.96-8.23-50.93
		c-0.51-3.12-1.04-6.23-1.47-9.37c-0.52-3.82,2.14-6.03,5.81-4.77c1.19,0.41,2.45,1.06,3.28,1.97c2.86,3.07,6.17,3.14,9.95,2.25
		c2.89-0.68,4.76-1.91,5.64-4.94c1.35-4.65,3.95-5.23,7.76-2.11c2.94,2.41,5.95,4.74,9.44,7.51c0.21-3.06,0.14-5.4,0.62-7.62
		c0.28-1.31,1.22-3.14,2.26-3.47c1.25-0.4,3.35,0.08,4.36,0.99c17.35,15.59,32.83,32.74,44.1,53.37c1.46,2.67,3.1,5.24,4.66,7.85
		c0.18,0.3,0.42,0.56,0.49,0.66c9.98-6.11,19.77-12.11,29.68-18.18c-2.63-1.4-5.53-2.81-8.32-4.43
		c-30.64-17.82-45.21-44.94-44-79.88c1.41-40.87,22.13-70.04,57.75-89.11c13.57-7.26,28.5-10.43,43.29-14.01
		c14.28-3.46,28.36-7.49,40.09-16.89c4.19-3.35,7.94-7.24,11.84-10.95c0.8-0.76,1.34-1.79,2.38-3.21c-1.45-0.29-2.29-0.61-3.13-0.61
		c-7.25,0.02-13.85,1.88-19.42,6.79c-1.78,1.57-3.65,3.89-6.34,1.61c-1.88-1.59-1.24-4.93,1.53-7.38
		c8.66-7.64,18.72-10.47,29.99-7.69c2.8,0.69,4.31,0.09,5.97-1.96c7.9-9.78,16.5-18.89,26.75-26.26c4.15-2.99,8.62-5.54,13.37-8.57
		c-4.64-2.15-9.22-1.91-13.6-1.16c-4.09,0.7-8,2.43-12.04,3.51c-1.31,0.35-2.78,0.08-4.18,0.1c0.33-1.49,0.17-3.77,1.07-4.32
		c3.82-2.34,7.78-4.76,12.03-6.07c8.1-2.5,16.26-1.61,24.02,1.74c3.1,1.34,5.92,1.41,9.13,0.44c47.79-14.47,98.99,4.55,126.04,46.68
		c8.01,12.48,14.1,25.86,19.03,39.81c0.27,0.76,0.43,1.73,0.98,2.2c11.37,9.75,17.34,23.04,21.91,36.56
		c12.94,38.23,10.37,75.56-10.37,110.66c-12.55,21.24-30.06,37.15-54.51,43.72c-15.14,4.07-29.04,1.83-40.21-10.42
		c-0.89-0.97-3.07-1.73-4.23-1.34c-15.24,5.02-29.83,11.41-41.08,23.3c-3.29,3.48-5.42,8.12-7.76,12.4
		c-1.52,2.77-1.01,5.45,1.12,8.09c4.2,5.23,2.88,10.39-3.31,13.26c-2.88,1.34-1.98,3.72-1.47,5.41c2.26,7.48,4.43,15.04,7.47,22.22
		c5.92,13.98,13.63,27.15,17.79,41.94c5.92,21.02,7.4,42.1,2.65,63.51c-0.91,4.12-0.81,4.09,3.58,4.11
		c15.39,0.08,30.69,1.2,45.5,5.64c5.08,1.52,10.18,3.73,14.57,6.67c7.68,5.14,7.13,13.93-1.31,17.73
		c-5.97,2.69-12.63,4.25-19.15,5.24c-16.19,2.45-32.46,2.51-48.55-0.96C444.42,592.47,440.39,590.51,435.8,588.87z M284.84,354.84
		c-1.05-2.26-2.69-4.58-3.18-7.11c-0.62-3.2-0.72-6.65-0.23-9.87c0.34-2.29,2.69-3.01,5.07-2.6c2.43,0.41,2.29,2.24,2.33,4.04
		c0.04,1.52,0.04,3.06,0.33,4.54c1.46,7.53,4.61,9.52,12.1,8.59c9.05-1.13,18.15-1.88,27.24-2.72c2.48-0.23,4.34,0.49,4.65,3.47
		c0.5,4.87,0.58,4.86,5.64,4.68c0.82-0.03,1.65,0.01,2.46-0.08c2.1-0.22,3.43,0.45,3.52,2.77c0.07,2.05,1.29,2.53,3.1,2.23
		c1.27-0.22,2.54-0.41,3.82-0.56c3.95-0.45,5.29,0.51,5.29,4.49c0,6.09,1.55,8.04,8.6,7.14c15.13-1.93,29.46-6.5,42.54-14.55
		c3.02-1.86,5.87-3.97,8.88-5.84c10.63-6.58,24.93-24.18,18.33-41.11c-0.17-0.43-0.37-0.96-0.26-1.36c0.39-1.35,0.62-3.49,1.47-3.81
		c1.38-0.51,3.67-0.37,4.73,0.51c1.4,1.16,2.38,3.21,2.87,5.05c1.89,7.07,0.52,13.94-1.89,20.64
		c-4.39,12.24-13.66,20.49-23.47,28.24c-0.82,0.65-2.29,1.13-3.23,0.86c-2.73-0.76-4.37,0.37-5.4,2.61
		c-2.65,5.77-7.66,7.71-13.4,8.97c-4.65,1.02-9.25,2.46-13.71,4.13c-3.53,1.32-3.72,2.96-2.02,6.29c2.6,5.07,4.85,10.33,7.5,15.37
		c0.79,1.5,2.27,3.41,3.7,3.67c6.88,1.27,13.84,2.17,20.81,2.94c3.52,0.39,5.67-1.57,6.6-5c3.7-13.61,12.07-23.88,23.99-30.81
		c9.66-5.62,20.05-9.99,30.17-14.81c1.73-0.83,3.15-1.35,2.47-3.76c-3.09-11-3.09-22.19-1.94-33.46
		c2.43-23.79,10.06-45.84,22.17-66.39c1.35-2.29,3.18-4.34,5.03-6.28c0.53-0.56,2.08-0.7,2.81-0.33c0.48,0.24,0.7,1.89,0.39,2.65
		c-1.25,3.02-2.71,5.96-4.17,8.89c-9.82,19.76-17.06,40.29-18.74,62.48c-0.8,10.61-0.45,21.11,3.84,31.06
		c3.97,9.19,10.58,15.4,20.82,16.84c8.02,1.13,15.65-0.74,22.9-3.99c19.2-8.61,33.11-23.07,42.24-41.57
		c18.28-37.01,17.97-74.42-0.05-111.57c-1.96-4.04-4.61-7.74-6.89-11.51c-4.91,2.16-4.93,2.08-6.32-2.43
		c-1.41-4.58-2.92-9.13-4.54-13.64c-7.55-20.91-18.45-39.68-35.38-54.47c-25.49-22.26-54.86-30.28-88.14-23.64
		c-2.9,0.58-5.35,1.19-5.51,5c-0.12,2.81-2.09,3.26-4.15,1.64c-3.37-2.66-6.68-2.18-10.13-0.32c-1.03,0.56-2.12,1-3.15,1.55
		c-14.62,7.65-25.86,19.18-36.39,31.56c-2.42,2.84-3.38,5.49-2.04,9.22c1.53,4.28-0.66,7.23-4.91,6.08
		c-5.1-1.38-7.92,0.84-10.78,4.17c-0.75,0.88-1.72,1.59-2.59,2.37c-12.99,11.53-28.78,17.18-45.14,21.73
		c-12.04,3.35-24.47,5.84-35.95,10.6c-34.06,14.12-55.07,39.37-59.04,76.51c-3.65,34.15,9.32,60.77,39.64,78.27
		C261.53,359.66,272.89,361.55,284.84,354.84z M299.73,507.51c-0.52,0.56-0.93,0.85-1.12,1.24c-1.58,3.26-3.27,6.48-4.66,9.82
		c-8.27,19.87-13.77,40.29-12.18,62.1c0.88,12.08,7.51,19.98,19.38,21.94c5.74,0.95,11.65,1.25,17.48,1.21
		c24.98-0.16,49.83-2.25,74.46-6.41c9.17-1.55,18.37-3.75,27.1-6.91c8.69-3.15,10-9.53,4.43-16.97c-2.51-3.35-5.75-6.14-8.54-9.28
		c-0.78-0.88-1.17-2.12-1.74-3.19c1.34-0.49,2.68-1.37,4.02-1.37c1.43,0.01,3.21,0.47,4.23,1.39c3.61,3.25,6.98,6.77,10.39,10.24
		c0.75,0.77,1.27,1.76,2.17,3.05c5.86-8.07,8.68-16.64,10.04-25.74c0.13-0.86-1.25-2.53-2.25-2.87
		c-9.57-3.2-13.57-10.52-14.99-19.81c-1.69-11.08,0.37-21.93,2.12-32.79c0.66-4.11,2.65-5.53,6.83-5.29
		c1.19,0.07,2.39,0.01,4.09,0.01c-0.61-1.78-0.92-3.01-1.44-4.15c-3.79-8.3-7.47-16.65-11.49-24.84
		c-5.75-11.73-10.88-23.62-11.23-36.97c-0.06-2.32-1.44-2.78-3.42-3.08c-6.47-0.99-12.9-2.18-19.35-3.28
		c-1.68-0.29-3.36-0.55-4.56-0.75c0.71,5.29,1.67,10.32,1.99,15.39c0.26,4.1,1.51,6.89,5.34,8.98c5.21,2.84,10.1,6.3,14.95,9.74
		c1.69,1.2,3.19,3.19,1.35,5.41c-1.85,2.24-3.9,1.27-5.93-0.04c-3.82-2.49-7.5-5.33-11.61-7.22c-8.41-3.87-12.33-9.97-11.31-19.24
		c0.16-1.48-0.18-3.03-0.42-4.53c-1.02-6.33-5.21-10.68-11.47-12.22c-2.93-0.72-5.19,0.07-7.44,2.6c3.28,2.39,6.53,4.45,9.34,7
		c1.01,0.92,1.77,3.74,1.19,4.41c-0.99,1.12-3.3,1.9-4.77,1.57c-1.92-0.43-3.73-1.89-5.32-3.22c-5.31-4.45-11.51-5.56-18.12-5.01
		c-5.23,0.43-8.93,4.06-9.41,8.84c-0.52,5.17,1.61,8.53,7.09,10.17c3.67,1.1,7.58,1.4,11.29,2.42c1.49,0.41,2.71,1.77,4.05,2.71
		c-1.29,1.2-2.44,3.2-3.89,3.44c-3.29,0.55-6.75,0.47-10.1,0.21c-5.05-0.39-8.22,2.24-8.39,7.41c-0.14,4.25,0.74,5.04,4.76,4.27
		c20.47-3.96,37.09,7.22,40.39,27.85c0.82,5.1,3.03,7.73,7.45,9.26c0.77,0.27,1.52,0.6,2.3,0.87c8.05,2.77,16.33,3.98,24.85,3.92
		c1.15-0.01,3.3,1.39,3.25,2c-0.11,1.34-1.16,2.74-2.15,3.81c-0.53,0.57-1.73,0.61-2.64,0.73c-9.49,1.31-18.66-0.13-27.6-3.37
		c-1.16-0.42-2.35-0.78-3.8-1.26c-0.47,3.56-0.61,6.74-1.35,9.77c-2.71,11.11-5.55,22.2-8.48,33.25c-1,3.77-0.81,4.12,3.2,4.29
		c4.44,0.18,8.91,0.28,13.28,0.95c1.76,0.27,3.3,1.97,4.94,3.02c-1.7,0.82-3.35,2.15-5.12,2.36c-5.92,0.71-11.89,1.16-17.85,1.41
		c-2.74,0.11-4.56,0.87-5.85,3.44c-0.92,1.84-2.34,3.54-3.89,4.89c-0.69,0.6-2.51,0.58-3.38,0.08c-0.68-0.39-1.16-2.06-0.92-2.96
		c0.5-1.9,1.5-3.67,2.32-5.48c5.9-13.17,10.85-26.65,13.36-40.92c1.99-11.28,2.77-22.54-1.03-33.67
		c-3.93-11.51-12.46-17.41-24.52-16.97c-8.48,0.31-15.92,3.39-22.81,8.16c-2.22,1.53-2.44,2.73-0.41,4.6
		c4.91,4.52,9.74,9.13,14.53,13.77c1.25,1.21,2.63,2.54,3.22,4.09c0.44,1.16-0.03,2.9-0.64,4.09c-0.19,0.37-2.45,0.18-3.32-0.4
		c-3.4-2.27-6.72-4.69-9.9-7.26c-4.15-3.37-8.14-6.95-12.83-10.97c-3.89,4.95-7.63,9.69-11.34,14.46c-1.51,1.94-1.59,3.82,0.47,5.5
		c5.34,4.36,10.74,8.65,15.96,13.15c1.13,0.98,1.57,2.74,2.33,4.15c-1.81,0.75-3.83,2.41-5.38,2.05c-2.87-0.67-5.67-2.22-8.12-3.95
		C307.28,513.88,303.69,510.7,299.73,507.51z M266.39,531.46c1.67,0,2.83,0.12,3.96-0.02c10.38-1.33,10.27-1.38,14.21-11.25
		c7.5-18.79,17.19-36.2,33.04-49.36c4.28-3.56,9.14-6.41,13.94-9.73c-2.23-7.26-1.36-14.11,4.65-19.58c-0.54-0.72-0.8-1.12-1.1-1.46
		c-9.08-10.17-4.47-25.1,8.75-28.19c2.26-0.53,4.66-1.03,6.93-0.82c3.78,0.35,4.32-1.3,3.91-4.5c-1.37-10.55-2.58-21.13-3.85-31.69
		c-0.61-5.05-0.6-5.01-5.6-3.92c-31.77,6.94-63.53,13.87-95.31,20.77c-7.65,1.66-7.64,1.59-6.65,9.44
		c2.35,18.69,4.65,37.38,7.05,56.07c0.17,1.32,0.66,2.8,1.49,3.81c6.24,7.64,9.49,16.61,11.73,26.01
		c3.13,13.11,3.01,26.48,2.85,39.83C266.37,528.34,266.39,529.83,266.39,531.46z M232.39,488.52c-3.22,3.19-5.8,4.15-9.28,3.24
		c-5.76-1.51-11.46-3.27-17.15-5.03c-2.13-0.66-3.62-0.51-4.25,1.95c-1.41,5.54-2.87,11.07-4.31,16.6
		c-0.81,3.14,0.55,4.71,3.65,4.79c4.92,0.13,9.84,0.07,14.75,0.24c1.84,0.06,3.78,0.26,5.48,0.9c2.69,1.02,3.02,3.56,0.56,5.02
		c-1.83,1.08-4.13,1.64-6.28,1.86c-4.89,0.49-9.82,0.53-14.71,0.93c-3.21,0.26-5.16,1.73-4.71,5.44c0.56,4.64,0.65,9.35,1.3,13.98
		c2.09,14.94,5.77,29.39,13.81,42.41c5.68,9.19,13.84,14.62,24.72,13.83c11.4-0.82,22.71-2.87,34.06-4.32
		c2.81-0.36,3.49-1.75,3.37-4.52c-0.29-6.88-0.69-13.83-0.08-20.66c0.7-7.9,2.35-15.72,3.78-23.54c0.45-2.48-0.26-3.29-2.62-3.01
		c-2.79,0.34-5.59,0.6-8.36,1c-7.05,1.01-7.67,0.47-7.38-6.75c0.02-0.47,0.06-0.93,0.08-1.4c0.5-12.77,0.7-25.53-1.7-38.16
		c-1.89-9.97-4.8-19.58-11.45-27.58c-4.44-5.34-10.09-7.94-17.09-6.77c-9.84,1.65-15.88,8.27-20.95,16.21
		c-1.5,2.34-1.15,3.48,1.47,4.31c5.8,1.83,11.59,3.71,17.3,5.76C228.38,485.97,230.16,487.28,232.39,488.52z M131.88,337.43
		c0.09,1.5,0.06,2.08,0.16,2.64c2.86,17.2,5.76,34.39,8.57,51.59c0.41,2.49,2.06,3.18,4.03,4.2c4.62,2.38,9.58,4.6,13.35,8.03
		c7.41,6.73,8.44,17.91,2.93,25.6c-1.62,2.26-1.43,3.62,0.13,5.74c6.93,9.44,5.44,18.85-3.68,26.13c-1.02,0.81-1.88,2.71-1.71,3.97
		c0.74,5.68,1.62,11.37,2.98,16.93c0.52,2.13,2.03,4.49,3.8,5.76c5.98,4.31,12.26,8.2,18.47,12.19c2.32,1.49,4.76,2.8,7.63,4.48
		c0.47-1.96,0.82-3.38,1.17-4.81c2.98-12.39,7.33-24.16,15.24-34.4c0.93-1.21,1.39-3.25,1.19-4.8c-3.06-23.67-6.22-47.33-9.54-70.97
		c-0.26-1.84-1.47-4.01-2.92-5.14c-15.05-11.74-30.22-23.33-45.39-34.91C143.1,345.69,137.82,341.85,131.88,337.43z M242.65,453.53
		c0.15-1.12,0.3-1.57,0.25-2c-2.05-16.72-4.14-33.43-6.15-50.15c-0.26-2.14-1.3-2.39-3.09-2.07c-2.18,0.39-4.39,0.71-6.6,0.82
		c-7.59,0.37-15.08-0.24-22.71-3.58c2.75,20.54,5.41,40.39,8.15,60.88C222.16,451.41,231.82,448.93,242.65,453.53z M464.31,567.21
		c-2.81,0-5.65,0.27-8.42-0.06c-4.09-0.49-6.01,1.44-7.61,4.94c-4.39,9.61-3.85,10.89,6.58,12.84c15,2.8,30.04,2.54,45.08,0.5
		c3.91-0.53,7.82-1.52,11.54-2.84c3.85-1.36,4.05-3.8,0.48-5.84c-3.21-1.84-6.72-3.3-10.25-4.45
		C489.57,568.35,476.98,567.39,464.31,567.21z M205.51,384.81c-2.03-11.38-34.05-44.77-51.43-53.82c-1.08,5.25-6.1,5.07-10.18,6.74
		C164.65,353.58,184.92,369.07,205.51,384.81z M128.53,413.39c-0.01,11.61,7.35,16.34,18.64,15.35c8.93-0.78,12.61-8.4,8.57-16.39
		c-2.73-5.4-7.6-8.15-13.15-9.71C134.58,400.39,128.57,405.08,128.53,413.39z M230.76,385.71c0.24,0.5,0.48,0.99,0.72,1.49
		c0.72-0.28,1.47-0.51,2.16-0.84c13.55-6.46,27.49-11.96,42.1-15.41c15.59-3.68,31.31-6.82,46.95-10.31
		c1.07-0.24,1.95-1.35,2.92-2.06c-1.16-0.59-2.34-1.71-3.49-1.69c-4.09,0.1-8.18,0.45-12.25,0.95c-20.09,2.45-39.57,7.38-58,15.77
		C244.53,376.95,237.78,381.64,230.76,385.71z M157.98,446.9c-0.08-6.35-3.03-9.27-9.32-9.51c-3.49-0.14-6.98-0.46-10.44-0.95
		c-3.94-0.55-4.97,0.11-5.41,4.06c-0.87,7.83,5.67,15.74,13.52,16.37C152.45,457.37,158.06,452.56,157.98,446.9z M248.48,385.04
		c29.65-6.53,59.31-13.05,88.96-19.58C327.86,361.11,260.29,376.32,248.48,385.04z M173.52,331.2c-1.85,4.47-1.46,8.15,1.09,10.44
		c13.41,12.01,25.41,25.24,35.36,40.29c0.7,1.07,1.65,1.97,2.48,2.96c0.34-0.27,0.68-0.54,1.01-0.82
		C204.44,363.32,189.84,346.73,173.52,331.2z M361.44,405.03c3.84-0.67,7.45-0.96,10.84-1.98c3.71-1.12,6.4-7.56,4.93-10.76
		c-2.35-5.1-12.22-9.81-18.24-8.42C359.79,390.85,360.61,397.88,361.44,405.03z M211.03,391.17c6.16,2.78,12.43,3.22,18.86,1.72
		C223.8,389.94,217.43,390.07,211.03,391.17z"/>
	<path d="M528.16,252c3.92-2.65,8.45-4.79,8.84-10.56c0.32-4.89,2.28-9.09,5.58-12.58c1.57-1.65,3.51-3.14,5.57-4.09
		c3.48-1.61,5.51-0.41,4.99,3.38c-0.91,6.66-2.57,13.22-3.96,19.82c-0.58,2.76-1.27,5.5-1.96,8.48c6.84-0.48,13.98-8.15,13.39-14.12
		c-0.61-6.16-2-12.24-2.69-18.39c-0.24-2.11-0.1-5.58,1.11-6.27c2.76-1.58,4.24,1.56,5.54,3.47c5.86,8.59,8.56,18.4,10.32,28.47
		c4.42,25.37,0.33,49.42-12.03,71.95c-8.85,16.13-20.93,29.09-38.64,35.61c-16.63,6.13-29.65-1.96-32.22-19.62
		c-2.31-15.89,0.45-31.3,4.88-46.43c5.28-18.05,12.26-35.4,23.82-50.5c2.01-2.62,4.87-4.66,7.6-6.61c0.88-0.63,3.09-0.62,3.75,0.04
		c0.68,0.67,0.62,2.68,0.15,3.79c-1.03,2.47-2.72,4.66-3.76,7.12c-0.86,2.02-1.19,4.27-1.75,6.42
		C527.19,251.59,527.67,251.79,528.16,252z M555.15,312.12c-4.41-0.55-5.75,1.94-7.33,3.79c-4.63,5.43-9.05,11.04-13.73,16.42
		c-2.78,3.19-6.17,5.26-10.79,4.65c-1.39-0.18-3.25,0.21-4.27,1.08c-1.05,0.89-2.08,2.89-1.76,4.02c0.3,1.05,2.54,2.41,3.65,2.2
		c2.68-0.52,5.41-1.55,7.76-2.97c7.81-4.73,14.24-11.03,19.57-18.41C550.61,319.66,552.6,316.13,555.15,312.12z M527.22,267.81
		c-8.34,0.69-18.89,20.72-16.19,29.94C519.42,289.21,522.89,278.74,527.22,267.81z M536.02,290.91c1.66-1.81,3.23-3.07,4.23-4.69
		c2.7-4.35,5.27-8.81,7.65-13.34c0.49-0.93,0.24-2.54-0.24-3.58c-0.21-0.46-1.94-0.63-2.77-0.35
		C539.9,270.66,533.72,285.01,536.02,290.91z M503.01,327.46c0.22,0.53,0.78,1.92,1.35,3.32c1.05-1.12,2.44-2.07,3.1-3.38
		c2.28-4.57,4.41-9.23,6.33-13.96c0.45-1.12-0.17-2.69-0.3-4.05c-1.31,0.5-3.06,0.62-3.85,1.55
		C505.86,315.38,503.48,320.49,503.01,327.46z M559.15,284.62c-0.36-0.83-0.5-1.95-1-2.15c-0.7-0.28-2.02-0.17-2.45,0.32
		c-1.09,1.24-2.21,2.7-2.57,4.24c-0.29,1.24,0.51,2.73,0.82,4.12c1.12-0.79,2.49-1.4,3.3-2.43
		C558.13,287.59,558.51,286.06,559.15,284.62z"/>
	<path d="M290.97,271.14c8.15-0.06,15.38,2.17,20.14,9.23c5.4,8,4.21,19.33-2.89,26.53c-8.23,8.34-18.41,10.91-29.69,8.25
		c-7.88-1.86-13.32-6.8-15.12-14.94c-1.9-8.62,0.66-16.02,7.16-21.9C276.31,273.12,283.31,271.13,290.97,271.14z M280.47,294.05
		c0.32,0.2,0.63,0.4,0.95,0.59c1.65-1.37,3.27-2.79,4.97-4.1c1.83-1.41,3.6-2.99,5.65-4c1.76-0.87,4.1-1.54,3.79,2.11
		c-0.04,0.51,0.81,1.4,1.42,1.6c1.77,0.58,3.61,0.97,5.44,1.29c2.14,0.38,2.64-0.76,2.37-2.68c-0.55-3.89-3.49-7.68-7.64-8.08
		c-4.56-0.44-9.3-0.22-13.82,0.53c-3.6,0.6-5.86,3.42-6.8,7.27c1.4,0.38,2.48,0.68,3.67,1
		C280.47,291.17,280.47,292.61,280.47,294.05z"/>
	<path d="M419,229.44c-1.24,3.7-2.01,7.65-3.83,11.03c-2.59,4.81-7.22,5.34-11.56,1.99c-7.08-5.47-10.06-19.89-5.72-27.65
		c3.26-5.82,11-6.55,15.31-1.32C416.92,218.02,418.16,223.43,419,229.44z"/>
	<path d="M372.56,233.44c-0.37,1.6-0.68,4.57-1.75,7.23c-2.62,6.59-8.97,7.81-14.13,2.95c-5.9-5.56-8.46-18.55-5.1-25.91
		c2.42-5.3,8.61-6.82,13.23-3.07C370.33,219.11,372.04,225.35,372.56,233.44z"/>
	<path d="M411.31,144.54c11.25,1.1,20.36,5.45,27.56,13.8c0.38,0.44,0.79,0.89,1.06,1.4c1.24,2.39,3.87,4.92,0.97,7.48
		c-3.12,2.74-5.13-0.43-6.97-2.31c-6.19-6.3-13.22-10.88-22.3-11.34c-2.78-0.14-5.61,0.53-8.39,0.39c-1.5-0.08-2.95-1.09-4.42-1.67
		c0.66-1.5,0.93-3.84,2.04-4.35C404.16,146.42,407.8,145.62,411.31,144.54z"/>
</g>
</svg>
