<svg width="100%" viewBox="0 0 559.59 522" xmlns="http://www.w3.org/2000/svg" role="img" style="">
  <title style="fill:rgb(0, 0, 0);stroke:none;color:rgb(0, 0, 0);stroke-width:1px;stroke-linecap:butt;stroke-linejoin:miter;opacity:1;font-family:&quot;Anthropic Sans&quot;, -apple-system, &quot;system-ui&quot;, &quot;Segoe UI&quot;, sans-serif;font-size:16px;font-weight:400;text-anchor:start;dominant-baseline:auto">Woodstock App Icon</title>
  <defs>
    <clipPath id="ic"><rect width="512" height="512" rx="80"/></clipPath>
  </defs>

  <rect width="512" height="512" fill="#c4a882" rx="80" style="fill:rgb(196, 168, 130);stroke:none;color:rgb(0, 0, 0);stroke-width:1px;stroke-linecap:butt;stroke-linejoin:miter;opacity:1;font-family:&quot;Anthropic Sans&quot;, -apple-system, &quot;system-ui&quot;, &quot;Segoe UI&quot;, sans-serif;font-size:16px;font-weight:400;text-anchor:start;dominant-baseline:auto"/>

  
  <svg x="133" y="36" width="246" height="440" viewBox="363 68 198 322" xmlns="http://www.w3.org/2000/svg" style="fill:rgb(0, 0, 0);stroke:none;color:rgb(0, 0, 0);stroke-width:1px;stroke-linecap:butt;stroke-linejoin:miter;opacity:1;font-family:&quot;Anthropic Sans&quot;, -apple-system, &quot;system-ui&quot;, &quot;Segoe UI&quot;, sans-serif;font-size:16px;font-weight:400;text-anchor:start;dominant-baseline:auto">

    
    <path fill="#FFFFFF" stroke="#1a1a1a" stroke-width="7" stroke-linejoin="round" stroke-linecap="round" paint-order="stroke fill" d="M545.916,121.58c-0.898-1.561-2.621-2.994-3.899-4.578c-2.992-3.713-4.777-5.227-9.267-7.512&#10;      c-3.094-1.576-5.871-2.822-10.005-3.361c-3.31-2.447-4.803-6.441-7.213-9.82c-1.028-1.439-2.455-3.068-3.899-4.58&#10;      c-3.251-3.395-4.964-4.756-10.16-6.838c-3.449-1.385-6.599-2.564-11.207-2.67c-7.561-0.182-15.407,2.422-22.589,4.49&#10;      c1.143,1.37,5.08-0.402,6.203,0.992c-0.929,2.842-6.677,3.697-10.31,3.631c-2.554-0.047-5.363-0.883-7.77-1.557&#10;      c-2.313-0.645-4.328-2.178-6.598-2.877c-7.52-2.314-15.966-1.221-23.037,1.347c-6.914,2.507-11.524,11.345-12.037,20.188&#10;      c-0.4,6.941,1.04,15.32,3.361,20.137c2.273,4.718,6.361,10.674,9.827,13.191c2.91,2.107,6.314,3.141,8.859,5.309&#10;      c1.374-0.875,0.945-4.678,3.505-4.275c3.525,0.555,0.996,13.607,0.733,16.449c-1.634,17.779-2.818,17.619-3.634,35.863&#10;      c10.117,2.703,20.107,5.377,30.222,7.847c9.885,2.411,19.413,6.38,29.33,8.519c2.972-8.133,13.498-34.039,14.591-38.889&#10;      c0.558-2.479,1.188-6.422,2.036-9.596c0.79-2.98,2.349-5.973,6.257-4.717c0.479,3.482-1.527,4.623-1.506,7.674&#10;      c9.307,0.506,16.61-2.68,21.526-7.616c3.539-3.55,7.151-8.729,8.38-12.417c0.551-1.662,0.638-3.807,0.976-5.75&#10;      c0.312-1.807,0.925-3.775,0.991-5.432C549.738,130.816,548.021,125.236,545.916,121.58z" style="fill:rgb(255, 255, 255);stroke:rgb(26, 26, 26);color:rgb(0, 0, 0);stroke-width:7px;stroke-linecap:round;stroke-linejoin:round;opacity:1;font-family:&quot;Anthropic Sans&quot;, -apple-system, &quot;system-ui&quot;, &quot;Segoe UI&quot;, sans-serif;font-size:16px;font-weight:400;text-anchor:start;dominant-baseline:auto"/>

    
    <path fill="none" stroke="#aaa" stroke-width="3" stroke-linecap="round" d="M492.919,148.668c-3.388,2.079-10.675,4.891-16.164,3.574c-8.224-1.975-16.47-8.855-17.079-16.99&#10;      c0.343-0.283,0.805-0.455,1.522-0.387c1.979,3.632,4.467,6.521,8.093,8.832c4.528,2.887,9.614,4.768,16.486,3.703&#10;      c3.4-0.528,6.636-3.105,10.382-2.049C496.292,147.002,494.204,147.879,492.919,148.668z" style="fill:none;stroke:rgb(170, 170, 170);color:rgb(0, 0, 0);stroke-width:3px;stroke-linecap:round;stroke-linejoin:miter;opacity:1;font-family:&quot;Anthropic Sans&quot;, -apple-system, &quot;system-ui&quot;, &quot;Segoe UI&quot;, sans-serif;font-size:16px;font-weight:400;text-anchor:start;dominant-baseline:auto"/>

    
    <path fill="#ECCB35" stroke="#1a1a1a" stroke-width="7" stroke-linejoin="round" stroke-linecap="round" paint-order="stroke fill" d="M493.836,265.27c3.434,1.102,5.272,5.338,7.996,8.496c2.773,3.215,6.27,4.984,7.904,7.842&#10;      c8.051-11.881,15.27-31.164,17.564-35.098c-2.286,3.027-6.341,5.789-9.979,5.768c-6.091-0.023-8.96-7.369-16.99-6.494&#10;      c-7.4,0.805-10.363,9.193-19.488,4.996c-0.994-2.043,4.063-3.438,5.003-4.996c1.286-7.141,4.015-12.84,7.232-18.049&#10;      c-0.417-0.115-0.765-0.219-1.007-0.307c-2.564-0.912-8.328-1.537-10.777-2.178c-5.512-1.451-13.633-2.779-18.236-4.373&#10;      c-5.468-1.891-10.719-2.643-15.529-4.046c-2.634-0.767-4.988-1.987-7.479-2.509c-1.874-0.391-3.57-0.791-5.286-1.225&#10;      c-2.308,4.524-5.377,5.742-8.515,7.436c-2.934,1.584-7.149,4.039-10.759,5.527c-6.431,2.652-12.451,5.711-18.987,8.994&#10;      c-7.026,3.533-11.685,6.92-15.603,13.727c-2.128,3.697-4.307,10.412-3.497,15.994c1.289,8.905,11.218,10.014,20.986,12.493&#10;      c1.419-1.609-1.228-5.522,0.499-7.495c5.457-3.479,4.065,6.953,8.496,8.494c9.569,2.459,14.236,6.125,22.986,5.496&#10;      c3.403-0.245,7.26-3.308,10.993-4.996c4.247-1.919,8.854-3.03,10.493-4.996c1.895-2.275,1.549-7.232,4.498-7.497&#10;      c3.882-0.344,5.105,6.346,2.498,9.994c-1.26,1.758-4.902,2.778-9.495,4.996c-5.716,2.758-9.522,5.446-15.987,6.996&#10;      c-0.201,1.502,1.338,1.652,1.998,2.497c1.398,1.789,1.059,6.046,1.494,8.994c1.51,10.194-7.178,14.543-6.492,24.982&#10;      c0.559,1.773,4.127,0.539,4.996,1.998c0.609,1.724,5.026,2.645,6.002,3.998c-0.371,2.904-1.11,7.74,0,10.494&#10;      c2.818-4.191,9.404-8.336,9.994-15.492c0.535-6.52-3.648-13.01-2.998-19.486c1.254-12.547,4.568-14.191,16.984-16.486&#10;      c1.101-9.521,7.816-4.15,8.996,2c0.759,2.189,3.237-0.309,3.997,1.5c-1.347,5.467,5.19,7.07,3.694,10.717&#10;      c10.307-5.537,26.039-19.143,27.16-21.318c0.072-0.141,0.147-0.289,0.221-0.432c-4.001,4.283-9.021,1.32-12.084-1.965&#10;      c-2.509-2.689-3.736-8.806-6.995-9.492c-6.542-1.381-7.716,7.598-14.491,5.494C477.037,270.723,487.545,263.258,493.836,265.27z" style="fill:rgb(236, 203, 53);stroke:rgb(26, 26, 26);color:rgb(0, 0, 0);stroke-width:7px;stroke-linecap:round;stroke-linejoin:round;opacity:1;font-family:&quot;Anthropic Sans&quot;, -apple-system, &quot;system-ui&quot;, &quot;Segoe UI&quot;, sans-serif;font-size:16px;font-weight:400;text-anchor:start;dominant-baseline:auto"/>

    
    <path fill="#1a1a1a" d="M431.869,249.779c-6.521-1.643-0.479-20.576,3.998-19.986c0.405,0.094,0.5,0.5,1,0.5&#10;      C442.627,233.4,437.91,251.305,431.869,249.779z" style="fill:rgb(26, 26, 26);stroke:none;color:rgb(0, 0, 0);stroke-width:1px;stroke-linecap:butt;stroke-linejoin:miter;opacity:1;font-family:&quot;Anthropic Sans&quot;, -apple-system, &quot;system-ui&quot;, &quot;Segoe UI&quot;, sans-serif;font-size:16px;font-weight:400;text-anchor:start;dominant-baseline:auto"/>
    <path fill="#1a1a1a" d="M451.357,249.779c-5.852,0.547-9.159-17.123-3.498-19.486&#10;      C454.676,227.445,458.068,249.154,451.357,249.779z" style="fill:rgb(26, 26, 26);stroke:none;color:rgb(0, 0, 0);stroke-width:1px;stroke-linecap:butt;stroke-linejoin:miter;opacity:1;font-family:&quot;Anthropic Sans&quot;, -apple-system, &quot;system-ui&quot;, &quot;Segoe UI&quot;, sans-serif;font-size:16px;font-weight:400;text-anchor:start;dominant-baseline:auto"/>

    
    <path fill="#ECCB35" stroke="#1a1a1a" stroke-width="7" stroke-linejoin="round" stroke-linecap="round" paint-order="stroke fill" d="M399.143,366.836c-0.599-2.396,0.927-2.689,1.096-4.33c-4.052-2.311-9.498-1.498-11.516-5.953&#10;      c-3.111-6.863,1.047-17.299,5.483-20.568c8.89,4.574,7.843,18.961,9.871,30.312&#10;      C402.811,366.857,399.871,367.398,399.143,366.836z" style="fill:rgb(236, 203, 53);stroke:rgb(26, 26, 26);color:rgb(0, 0, 0);stroke-width:7px;stroke-linecap:round;stroke-linejoin:round;opacity:1;font-family:&quot;Anthropic Sans&quot;, -apple-system, &quot;system-ui&quot;, &quot;Segoe UI&quot;, sans-serif;font-size:16px;font-weight:400;text-anchor:start;dominant-baseline:auto"/>

    
    <path fill="#ECCB35" stroke="#1a1a1a" stroke-width="7" stroke-linejoin="round" stroke-linecap="round" paint-order="stroke fill" d="M413.401,369c-4.441,0.369-3.877-5.592-4.388-8.66c-1.299-7.795-2.161-18.416-1.646-28.688&#10;      c2.765-3.047,3.698-7.9,9.873-7.576c3.845,7.205-0.341,17.109-1.098,25.982&#10;      C415.552,356.956,416.566,363.93,413.401,369z" style="fill:rgb(236, 203, 53);stroke:rgb(26, 26, 26);color:rgb(0, 0, 0);stroke-width:7px;stroke-linecap:round;stroke-linejoin:round;opacity:1;font-family:&quot;Anthropic Sans&quot;, -apple-system, &quot;system-ui&quot;, &quot;Segoe UI&quot;, sans-serif;font-size:16px;font-weight:400;text-anchor:start;dominant-baseline:auto"/>

    
    <path fill="#ECCB35" stroke="#1a1a1a" stroke-width="7" stroke-linejoin="round" stroke-linecap="round" paint-order="stroke fill" d="M428.906,368.072c-1.938-1.375-0.987-4.6-1.023-6.65c-0.215-12.035-1.652-24.541,5.627-30.691&#10;      c0.343,0,0.68,0,1.023,0c6.368,4.516,3.549,22.498-1.023,26.6&#10;      C434.712,361.381,431.617,367.93,428.906,368.072z" style="fill:rgb(236, 203, 53);stroke:rgb(26, 26, 26);color:rgb(0, 0, 0);stroke-width:7px;stroke-linecap:round;stroke-linejoin:round;opacity:1;font-family:&quot;Anthropic Sans&quot;, -apple-system, &quot;system-ui&quot;, &quot;Segoe UI&quot;, sans-serif;font-size:16px;font-weight:400;text-anchor:start;dominant-baseline:auto"/>

    
    <path fill="#ECCB35" stroke="#1a1a1a" stroke-width="7" stroke-linejoin="round" stroke-linecap="round" paint-order="stroke fill" d="M470.357,347.535c2.145-0.625,4.628-0.424,6.685-1.087c8.002-2.572,13.002-7.384,24.912-6.229&#10;      c2.438,0.664,4.39,3.424,5.784,6.527c2.771,6.189,1.447,15.662,7.803,17.562&#10;      c-1.445,3.424,1.6,6.049,0.33,8.885c-1.959,0.453-1.982,4.42-7.165,1.828&#10;      c-5.664-2.833-13.207-0.447-17.835-2.592c-3.285-1.518-6.578-6.386-9.828-8.751&#10;      c-6.447-4.696-16.861-8.588-27.254-4.887c-1.517-2.571,3.162-8.485,4.263-10.038&#10;      C464.026,350.547,465.976,348.805,470.357,347.535z" style="fill:rgb(236, 203, 53);stroke:rgb(26, 26, 26);color:rgb(0, 0, 0);stroke-width:7px;stroke-linecap:round;stroke-linejoin:round;opacity:1;font-family:&quot;Anthropic Sans&quot;, -apple-system, &quot;system-ui&quot;, &quot;Segoe UI&quot;, sans-serif;font-size:16px;font-weight:400;text-anchor:start;dominant-baseline:auto"/>

    
    <path fill="#ECCB35" stroke="#1a1a1a" stroke-width="7" stroke-linejoin="round" stroke-linecap="round" paint-order="stroke fill" d="M452.676,348.043c-0.768,1.451-2.189,2.629-3.069,4.092c-2.501,4.154-5.095,11.158-9.208,12.787&#10;      c-6.496-3.309-1.54-10.076,0.512-13.811c2.572-4.68,4.834-10.057,8.186-12.275&#10;      c0.372-2.354,1.018-4.439,3.068-5.117C457.847,334.885,455.576,342.539,452.676,348.043z" style="fill:rgb(236, 203, 53);stroke:rgb(26, 26, 26);color:rgb(0, 0, 0);stroke-width:7px;stroke-linecap:round;stroke-linejoin:round;opacity:1;font-family:&quot;Anthropic Sans&quot;, -apple-system, &quot;system-ui&quot;, &quot;Segoe UI&quot;, sans-serif;font-size:16px;font-weight:400;text-anchor:start;dominant-baseline:auto"/>

  </svg>

  <rect width="512" height="512" fill="none" stroke="#1a1a1a" stroke-width="16" rx="80" style="fill:none;stroke:rgb(26, 26, 26);color:rgb(0, 0, 0);stroke-width:16px;stroke-linecap:butt;stroke-linejoin:miter;opacity:1;font-family:&quot;Anthropic Sans&quot;, -apple-system, &quot;system-ui&quot;, &quot;Segoe UI&quot;, sans-serif;font-size:16px;font-weight:400;text-anchor:start;dominant-baseline:auto"/>
</svg>