<?xml version="1.0" encoding="utf-8"?>
<!-- Generator: Adobe Illustrator 26.0.1, SVG Export Plug-In . SVG Version: 6.00 Build 0)  -->
<svg version="1.1" id="Layer_1" xmlns="http://www.w3.org/2000/svg" xmlns:xlink="http://www.w3.org/1999/xlink" x="0px" y="0px"
	 viewBox="0 0 680 680" style="enable-background:new 0 0 680 680;" xml:space="preserve">
<path d="M495.94,523.23c-13.47,6.79-27.64,8.63-42.53,6.57c-7.58-1.05-14.91-2.48-21.68-6.23c-0.77-0.42-2.44-0.1-3.19,0.5
	c-3.33,2.63-5.23,5.78-4.5,10.47c0.8,5.14,0.48,10.45,1.23,15.61c0.28,1.91,1.83,4.12,3.45,5.26c9.15,6.4,17.64,13.46,22.69,23.64
	c3.75,7.56,6.72,15.39,4.55,24.25c-2.21,9.03-8.8,13.16-16.92,14.8c-32.02,6.48-64.45,8.38-97.05,7.2
	c-20.92-0.76-41.04-5.09-58.34-17.65c-4.27-3.1-8.08-4.17-13.12-3.83c-8.18,0.55-16.36,0.4-24.14-3.06
	c-7.99-3.55-11.49-10.95-9.52-19.52c3.67-15.99,14.04-26.33,28-33.53c14.72-7.59,30.72-8.37,46.85-7.66
	c7.47,0.33,14.92,1.04,22.36,1.71c2.57,0.23,3.4-0.67,3.21-3.2c-0.24-3.08-0.32-6.19-0.17-9.27c0.14-2.83-1.24-3.79-3.74-4.63
	c-13.9-4.64-25.98-11.99-33.04-25.36c-6.66-12.62-8.28-26.29-7.06-40.44c1.97-22.86,12.68-41.22,29.01-56.61
	c10.46-9.86,21.3-19.33,31.95-28.99c1.14-1.04,2.32-2.07,3.26-3.28c0.49-0.63,0.49-1.65,0.72-2.49c-3.45-0.79-1.44-3.62-2-5.47
	c-0.95-3.17-0.2-5.37,3.88-5.32c-0.16-5.51-1.84-10.21-4.79-14.46c-1.89-2.73-4.35-3.16-7.04-1.1c-4.99,3.83-9.98,7.66-14.91,11.58
	c-11.82,9.39-23.71,18.63-37.88,24.43c-14.71,6.02-29.89,9.15-45.82,8.45c-4.77-0.21-4.78-0.09-4.96,4.77
	c-0.33,8.66-6.25,15.86-15.71,19.12c-15.8,5.45-31.76-3.36-35.91-19.65c-2.69-10.57-1.54-20.19,5.95-28.64
	c0.59-0.67,0.66-2.55,0.16-3.33c-6.13-9.42-10.75-19.54-13.96-30.26c-3.59-12-5.17-24.23-4.34-36.86
	c0.91-13.87,5.24-26.42,12.92-37.83c7.34-10.91,17.36-19.12,27.96-26.68c9.7-6.92,18.79-14.46,26.2-23.93
	c6.76-8.64,8.18-18.31,7.11-28.9c-1.82-18.02,0.05-35.37,11.2-50.55c10.41-14.15,23.61-24.56,40.57-29.87
	c1.17-0.37,2.41-1.39,3.04-2.45c6.1-10.37,14.84-17.66,26.18-21.36c11.91-3.88,24.11-3.34,36.19-0.39
	c4.58,1.12,9.15,2.45,13.55,4.14c8.5,3.26,13.09,10.48,15.44,18.51c2.27,7.75,6.65,11.77,13.76,15.33
	c9.56,4.79,18.61,11.05,26.84,17.92c9.52,7.93,15.02,19.11,20.24,30.24c6.1,13.02,11.3,26.39,13.61,40.61
	c1.66,10.18,1.94,20.43,0.56,30.86c-2.32,17.38-9.79,31.52-23.58,42.23c-11.92,9.27-25.41,14.23-40.65,13.71
	c-2.38-0.08-3.52,0.68-3.83,2.94c-0.1,0.7-0.33,1.4-0.35,2.1c-0.4,14.01-1.06,28.03-1.05,42.04c0,6.72,1.2,13.45,2.02,20.15
	c0.11,0.9,1.18,2.42,1.77,2.4c2.59-0.08,3.42,1.27,3.43,3.45c0.01,2.31,2.16,5.04-1.68,6.72c-0.82,0.36-1.07,3.4-0.67,4.97
	c2.76,10.77,8.03,20.48,13.36,30.12c9.84,17.79,16.85,36.64,20.67,56.58c2.2,11.49,2.37,23.12-0.66,34.6
	c-0.24,0.91-0.27,1.89-0.3,2.83c-0.02,0.56,0.16,1.13,0.19,1.38c5.16,0.23,10.09,0.35,15,0.7c8.72,0.62,16.45,4.16,24.04,8.21
	c3.84,2.05,7.97,3.54,11.98,5.29C495.94,512.29,495.94,517.76,495.94,523.23z M355.84,101.7c0.05-0.32,0.1-0.64,0.15-0.96
	c-2.86-0.31-5.73-0.51-8.57-0.95c-11.28-1.76-22.47-1.51-33.54,1.35c-21.76,5.63-36.24,19.61-44.42,40.08
	c-4.41,11.02-4,22.88-2.83,34.49c1.36,13.61-2.66,25.14-11.19,35.62c-8.3,10.18-18.71,17.82-29.08,25.56
	c-9.66,7.22-18.71,15.08-25.09,25.49c-9.43,15.41-11.44,32.13-8.49,49.71c2.76,16.44,9.09,31.32,19.17,44.6
	c4.82,6.35,10.53,11.96,18.17,14.38c14.23,4.51,28.88,4.13,43.3,1.08c15.04-3.19,28.61-9.92,40.81-19.31
	c9.04-6.96,17.93-14.12,27.05-20.97c6.67-5.02,13.08-4.81,19.68,0.15c6.64,4.99,8.93,12.43,10.58,19.95c0.73,3.3,2.12,3.79,4.8,3.49
	c5.55-0.62,11.08-1.54,16.65-1.73c3.85-0.13,4.11-1.89,3.83-4.95c-0.83-9.22-2.09-18.46-2-27.68c0.12-12.8,1.27-25.6,2.05-38.4
	c0.13-2.18-0.05-3.88-2.39-4.92c-12.63-5.62-22.24-14.78-30.15-25.93c-2.69-3.8-5.23-7.48-9.65-10.03
	c-27.81-16.05-41.52-40.73-42.69-72.5c-0.33-9.05,1.68-17.92,4.79-26.44c4.64-12.7,12.32-23.29,23.2-31.31
	C344.97,107.87,350.53,104.96,355.84,101.7z M372.5,514.79c1.44,3.88,3.66,7.25,3.79,10.7c0.49,12.59,0.39,25.21,0.3,37.82
	c-0.05,7.08-4.61,10.36-11.64,9.05c-9.32-1.73-18.64-3.46-28.02-4.83c-11.79-1.72-23.45-0.66-34.84,2.81
	c-7.87,2.4-14.14,7.11-18.93,13.78c-1.8,2.5-2.07,5.17,0.11,7.51c2.58,2.77,5.33,5.39,8.17,7.9c1.65,1.46,2.94,1.38,3.9-1.19
	c1.39-3.75,2.98-7.53,5.1-10.9c5.26-8.35,3.94-6.74,10.39-2.03c2.78,2.03,2.43,3.4,0.81,6.03c-2.4,3.88-4.18,8.17-5.95,12.4
	c-0.77,1.84-0.18,3.32,2.25,3.88c3.46,0.79,6.81,2.05,10.22,3.04c7.38,2.13,7.11,2.03,9.4-5.28c1.95-6.22,4.65-12.2,7.13-18.58
	c3.03,1.88,5.07,3.33,7.28,4.46c2.43,1.25,2.3,2.7,1.29,4.93c-1.71,3.76-3.16,7.66-4.49,11.58c-1.68,4.96-0.99,5.74,4.26,5.94
	c23.32,0.86,46.58,0.1,69.73-2.82c8.34-1.05,16.64-2.56,24.84-4.37c6.19-1.37,7.54-3.61,7.48-9.78c-0.05-5.94-2.56-11.07-5.66-15.87
	c-5.01-7.76-12.39-13.03-20.01-17.94c-2.95-1.9-5.2-4.36-5.5-7.9c-0.62-7.33-0.78-14.71-1.45-22.04
	c-0.54-5.91,1.47-10.51,5.53-14.73c11.78-12.25,16.26-27.52,17.3-44.01c0.63-9.9-0.84-19.57-3.4-29.18
	c-3.85-14.51-9.23-28.37-16.43-41.5c-6.68-12.18-13.43-24.29-16.19-38.14c-0.17-0.83-2.07-1.93-3.11-1.88
	c-6.63,0.37-13.26,0.97-19.87,1.64c-0.86,0.09-2.2,0.82-2.38,1.51c-1.55,5.79-6.03,9.36-10.05,13.13
	c-11.95,11.23-24.47,21.88-36.09,33.43c-18.69,18.58-26.85,40.98-22.11,67.4c2.17,12.08,8.19,21.44,19.03,27.75
	c11.2,6.52,23.18,8.71,35.9,7.75c0.81-0.06,1.6-0.38,2.93-0.71c-0.8-0.62-1.05-0.89-1.36-1.04c-0.42-0.21-0.88-0.37-1.34-0.47
	c-6.31-1.39-10.38-5.35-13-11.09c-4.29-9.38-3.37-18.58,0.54-27.85c2.48-5.87,4.79-11.85,6.62-17.95
	c3.81-12.67,6.97-25.53,10.93-38.14c2.66-8.47,3.06-8.3,11.52-5.69c2.41,0.74,2.63,1.6,1.76,4.1c-3.59,10.36-7,20.81-10.02,31.35
	c-2.83,9.88-4.6,20.03-9.33,29.35c-3.18,6.27-5.5,12.89-1.68,20.04c2.41,4.51,5.17,6.02,10.32,4.69c0-5.76,0-11.5,0-17.38
	c2.74,0,5.21-0.08,7.68,0.02c2.69,0.11,4.07,1.32,3.76,4.32c-0.28,2.7-0.06,5.46-0.06,8.19c0.46,0.15,0.91,0.3,1.37,0.45
	c2.4-2.22,5.4-4.1,6.93-6.82c0.71-1.26-1.48-4.13-2.33-6.27c-0.31-0.77-0.77-1.56-0.76-2.34c0.01-0.72,0.37-1.84,0.88-2.07
	c2.49-1.09,5.03-2.23,7.66-2.7c1.01-0.18,2.33,1.34,4.03,2.42c1.09-2.73,2.26-5.27,3.13-7.91c1.4-4.29,0.69-5.23-3.8-5.62
	c-5.69-0.49-8.57-4.58-6.76-9.86c4.48-13.04,13.01-23.6,21.33-34.26c0.47-0.6,2.14-1.04,2.64-0.69c2.67,1.87,5.14,4.01,7.25,5.7
	c-5.74,8.66-11.25,16.95-16.72,25.26c-0.95,1.44-1.83,2.95,0.46,4.13c8.55,4.38,9.08,11.38,6.67,18.94
	c-5.61,17.57-18.02,29.54-34.68,37.14C375.45,514.3,373.45,514.54,372.5,514.79z M388.23,226.24c13.61-0.29,24.36-5.79,32.89-16.66
	c10.77-13.73,12.2-37.76-3.74-51.55c-6.07-5.25-13.05-8.37-21.27-8.72c-9.61-0.4-17.92,2.74-25.48,8.32
	c-13.56,10.02-19.85,28.28-14.68,44.98C359.62,214.52,373.54,226.75,388.23,226.24z M367.41,235.07c-4.51-3.93-10.3-7.96-14.82-13.1
	c-10.7-12.16-13.23-26.72-10.26-42.32c2.2-11.54,7.87-21.24,16.48-29.26c0.97-0.9,2.02-2.36,2.03-3.56
	c0.03-9.84-0.12-19.67-0.34-29.51c-0.06-2.65-1.48-3.88-3.92-2.15c-5.77,4.11-12.35,7.55-16.95,12.73
	c-13.18,14.83-17.89,32.41-14.73,52.2c2.65,16.61,10.24,30.41,22.29,41.89C353.41,227.9,360.61,232.32,367.41,235.07z
	 M265.98,583.24c-0.96,2.34-1.87,4.26-2.53,6.27c-0.28,0.86-0.09,2.72,0,2.73c2.07,0.18,4.17,0.3,6.22,0.05
	c0.44-0.05,0.86-1.59,1.01-2.49c0.51-2.98,0.2-6.32,1.45-8.92c5.87-12.17,16.38-18.94,28.94-22.33c16.69-4.5,33.6-3.72,50.45-0.44
	c4.49,0.87,9,1.66,13.59,2.51c0.23-0.74,0.5-1.18,0.49-1.61c-0.28-9.85-0.54-19.71-1.03-29.56c-0.04-0.71-1.81-1.9-2.78-1.91
	c-3.43-0.03-6.86,0.49-10.29,0.53c-2.02,0.02-2.74,0.69-2.7,2.69c0.1,4.64,0.1,9.28,0.03,13.91c-0.08,4.98-3.14,8.34-8.08,8.65
	c-3.19,0.2-6.45,0.25-9.62-0.13c-13.94-1.66-27.84-2.96-41.89-0.88c-13.37,1.98-25.14,6.95-34.13,17.28
	c-4.17,4.79-7.58,10.15-6.94,16.96c0.1,1.07,1.13,2.04,1.73,3.06c0.68-0.79,1.59-1.47,2.01-2.38c1.47-3.17,2.78-6.42,4.32-10.04
	C259.73,579.36,262.71,581.21,265.98,583.24z M378.32,251.28c3.03,3.07,5.49,5.89,8.28,8.32c6.15,5.37,13.08,9.49,21.22,10.87
	c8.97,1.51,17.72,0.37,26-3.58c14.14-6.74,24.67-16.89,29.01-32.29c4.21-14.96,3.23-30.06-0.23-45.05
	c-0.56-2.42-1.51-4.75-2.54-7.95c-1.27,6.97-1.94,12.99-3.55,18.75c-1.09,3.86-0.73,7.28-0.19,11.11c0.63,4.49,0.38,9.24-0.32,13.75
	c-1.27,8.27-5.58,15.34-10.43,21.96c-2.81,3.84-5.37,8.43-10.96,8.86c-6.87,0.52-13.75,0.79-20.62,1.25
	c-5.12,0.35-9.54-1.29-13.65-4.2c-1.12-0.79-2.5-1.67-3.78-1.71C390.79,251.18,385.02,251.28,378.32,251.28z M356.06,78.52
	c17.99,17.23,18.29,39.29,18.21,60.78c7.21-1.05,14.16-2.37,21.17-2.95c3.11-0.25,4.06-1.14,3.55-3.98
	c-2.29-12.85-5.33-25.42-10.13-37.67C383.75,81.67,367.51,78.26,356.06,78.52z M396.73,238.8c1.08,0.16,1.42,0.24,1.77,0.25
	c0.47,0.02,0.96,0.04,1.42-0.05c14.63-2.72,26.74-9.8,35.53-21.8c11.58-15.81,14.28-33.78,10.19-52.54
	c-4.15-19.01-14.76-34-31.11-44.76c-1.43-0.94-2.99-1.69-4.89-2.75c0.81,6.7,1.63,12.76,2.23,18.84c0.27,2.66,1.45,4.3,3.85,5.43
	c19.64,9.23,29.54,32.73,25.96,52.35C437.48,216.86,420.02,234.26,396.73,238.8z M484.5,516.01c0.02-0.45,0.04-0.9,0.07-1.35
	c-4.16-2.15-8.25-4.45-12.49-6.42c-9.69-4.49-19.8-5.13-30.18-2.92c-3.69,0.79-3.67,4.31-4.76,6.83c-0.2,0.47,2.23,2.61,3.76,3.21
	c10.97,4.38,22.47,4.1,33.94,3.14C478.1,518.24,481.28,516.88,484.5,516.01z M348.33,89.09c-5.64-7.41-16.59-7.37-21.93,0
	C333.72,89.09,340.9,89.09,348.33,89.09z M212.15,379.74c-0.28-0.12-0.56-0.24-0.85-0.36c0-0.83,0.17-1.7-0.04-2.47
	c-0.31-1.14-0.88-2.2-1.34-3.3c-0.94,0.78-2.12,1.4-2.77,2.37c-2.58,3.85-2.61,8.21-2.1,12.61c0.07,0.6,0.68,1.61,1,1.59
	c0.7-0.04,1.73-0.44,1.99-0.99C209.52,386.09,210.8,382.9,212.15,379.74z"/>
<path d="M297.65,257.78c0.08,5.1-3.52,7.77-7.48,6.01c-9.03-4.02-15.72-10.83-21.16-18.9c-1.39-2.06-1.04-4.33,0.81-6.17
	c1.93-1.91,4.31-2.49,6.42-0.79c6.8,5.48,13.47,11.11,20.06,16.84C297.24,255.59,297.43,257.26,297.65,257.78z"/>
</svg>
