<?xml version="1.0" encoding="utf-8"?>
<!-- Generator: Adobe Illustrator 26.0.1, SVG Export Plug-In . SVG Version: 6.00 Build 0)  -->
<svg version="1.1" id="Layer_1" xmlns="http://www.w3.org/2000/svg" xmlns:xlink="http://www.w3.org/1999/xlink" x="0px" y="0px"
	 viewBox="0 0 680 680" style="enable-background:new 0 0 680 680;" xml:space="preserve">
<g>
	<path d="M149.99,330.43c-1.04-1.37-1.71-2.39-2.51-3.3c-9.22-10.45-10.32-22.55-6.71-35.33c1.63-5.79,3.64-11.62,6.48-16.89
		c6.11-11.38,6.79-23.22,4.72-35.57c-1.79-10.69-3.06-21.38-2.67-32.33c0.42-11.56,4.01-21.94,9.67-31.71
		c2.61-4.5,5.52-9.08,9.26-12.61c3.8-3.6,8.76-5.99,13.25-8.84c1.41-0.89,2.95-1.56,4.77-2.5c-3.5-4.97-4.41-10.23-3.92-15.84
		c1.15-13.1,15.87-20.97,27.28-14.54c5.77,3.25,8.19,10.8,5.9,18.75c-0.53,1.84-1.38,3.59-2.04,5.27c4.97,1.32,10,2.24,14.72,4
		c12.49,4.65,21.1,13.65,26.93,25.44c5.24,10.59,7.19,22.1,8.74,33.61c2.55,18.88,4.56,37.83,6.98,56.72
		c0.35,2.76,1.37,5.56,2.67,8.04c2.47,4.7,7.25,6.18,11.56,3.13c3.26-2.31,6.18-5.44,8.43-8.77c20.36-30.09,57.97-29.68,79.24-7.56
		c3.79,3.94,5.95,9.63,8.2,14.79c1.71,3.93,2.44,8.3,3.44,12.51c0.74,3.11,2.33,5.2,5.65,5.52c5.31,0.51,10.63,0.94,16.5,1.46
		c-1.47-4.88-2.98-9.03-3.95-13.29c-2.59-11.44-3.95-22.98-0.9-34.55c1.95-7.4,5.56-13.96,11.18-19.3
		c10.1-9.58,24.75-8.44,33.3,2.66c6.64,8.62,9.89,18.79,12.08,29.16c2.73,12.92,5.14,25.96,6.53,39.07
		c1.06,10.03,0.45,20.26,0.3,30.4c-0.04,2.5,0.55,3.22,2.94,3.2c21.46-0.17,42.91-0.19,64.37-0.42c7.32-0.08,11.71,4.18,11.69,11.96
		c-0.21,61.19-0.52,122.37-0.61,183.56c-0.02,17.34,0.63,34.68,0.92,52.02c0.04,2.38-0.05,4.79-0.35,7.15
		c-0.64,5.1-4.2,8.86-9.3,9.51c-3.6,0.46-7.28,0.5-10.92,0.5c-55.59,0-111.19-0.09-166.78-0.05c-85.5,0.05-171,0.19-256.5,0.28
		c-2.85,0-5.72,0.04-8.56-0.19c-6.32-0.51-9.7-4.15-9.69-10.52c0.07-49.66,0.12-99.32,0.29-148.98c0.1-31.05,0.38-62.1,0.57-93.15
		c0.05-8.06,3.71-11.83,11.88-12.19c5.34-0.24,5.36-0.24,5.35-5.48c-0.01-2.74-0.02-5.48-0.21-8.21c-0.22-3.09,0.1-5.81,2.69-8.06
		c0.81-0.7,0.96-2.46,0.96-3.73c-0.18-27.04-0.44-54.08-0.67-81.12c-0.03-3.65,0.04-7.3,0.02-10.94c-0.02-3.41-0.24-6.6-2.84-9.45
		c-2.17-2.37-1.51-6.09,0.66-8.46c2.19-2.39,6.56-3.25,9.5-1.87c2.74,1.28,4.4,4.8,3.67,8.12c-0.26,1.2-0.58,2.72-1.43,3.4
		c-3.17,2.54-2.85,5.95-2.85,9.34c-0.03,27.73-0.1,55.45-0.03,83.18c0.01,4.72-0.15,9.55,3.33,13.61c0.91,1.07,0.65,3.25,0.7,4.93
		c0.1,3.88-0.08,7.77,0.17,11.63c0.06,0.97,1.32,2.65,2.05,2.66C127.17,330.48,138.22,330.43,149.99,330.43z M193.48,340.06
		c-0.93,0-1.81-0.01-2.68,0c-10.39,0.19-20.78,0.53-30.73-3.41c-1.42-0.56-3.14-0.51-4.72-0.51c-18.95-0.05-37.9-0.07-56.85-0.08
		c-1.71,0-3.44-0.04-5.13,0.21c-3.44,0.5-4.66,2.15-4.48,5.65c0.11,2.16,0.31,4.33,0.29,6.49c-0.31,29.65-0.7,59.3-0.97,88.96
		c-0.25,28.39-0.45,56.77-0.52,85.16c-0.05,19.16,0.14,38.32,0.3,57.48c0.06,7.22,2.4,9.27,9.6,9.23
		c28.99-0.13,57.98-0.27,86.96-0.27c45.2-0.01,90.4,0.13,135.6,0.13c29.9,0,59.81-0.18,89.71-0.22c39.5-0.04,78.99-0.01,118.49-0.03
		c7.82,0,9.74-1.95,9.68-9.74c-0.1-13.24-0.37-26.48-0.4-39.72c-0.1-37.44-0.21-74.87-0.16-112.31c0.04-27.51,0.34-55.01,0.51-82.52
		c0.04-6.87-0.91-7.81-7.59-7.79c-21.57,0.08-43.14,0.13-64.71,0.26c-1.29,0.01-2.79,0.34-3.83,1.06c-3.05,2.11-6.36,2.26-9.84,1.93
		c-11.36-1.07-22.69-2.49-34.08-3.1c-14.23-0.76-28.49-0.86-42.7-1.24c-2.66,6.98-7.19,11.71-14,13c-5.29,1-10.88,0.91-16.31,0.65
		c-6.6-0.31-10.65-4.34-12.27-10.59c-0.62-2.38-1.72-3.1-4.03-3.04c-36.55,0.97-73.26-3.13-109.62,3.78
		c-4.52,0.86-9.24,0.64-13.81,0.92c0.53,5.48,1.05,10.79,1.57,16.11c1.73,18.04,3.41,36.09,5.29,54.12
		c0.16,1.51,1.28,3.33,2.51,4.24c4.78,3.5,10.01,6.39,14.66,10.05c11.87,9.35,22.55,19.99,27.67,34.56
		c6.38,18.19,6.95,37,2.32,55.66c-8.23,33.23-38.49,58.21-72.4,60.17c-35.5,2.05-61.86-12.42-79.43-42.92
		c-7.71-13.39-9.82-28.29-9.37-43.62c0.72-24.97,11.11-45.19,30.57-60.5c14.83-11.67,32.15-17.48,50.95-18.68
		c2.77-0.18,3.31-1.15,3.47-3.67c0.44-6.7,0.84-13.45,1.97-20.05C187.56,370.74,190.56,355.65,193.48,340.06z M260.17,222.55
		c-0.75-15.63-2.56-31.03-9.9-45.27c-6.51-12.63-16.09-21.83-29.87-25.19c-14.7-3.58-28.84,0.05-40.94,8.57
		c-16.39,11.54-24.74,28.2-24.93,48.22c-0.1,10.77,0.98,21.68,2.78,32.31c2.23,13.1,0.4,25.01-5.95,36.63
		c-5.72,10.46-9.1,21.55-5.94,33.75c2.41,9.32,7.67,16.53,16.52,20.07c11.11,4.44,22.73,5.53,34.55,2.36
		c1.88-0.51,4.44-0.9,5.92-0.04c3.53,2.07,7.02,1.68,10.59,1c16.49-3.11,33.01-5.8,49.86-5.91c4.37-0.03,5.58-1.54,5.85-5.81
		c0.09-1.36,0.23-2.73,0.42-4.08c1.57-11.17,3.2-22.33,4.67-33.51c0.16-1.18-0.16-2.83-0.92-3.64c-3.84-4.11-6.65-8.84-7.37-14.34
		C263.53,252.64,261.92,237.59,260.17,222.55z M447.16,241.42c0.25-0.26,0.5-0.52,0.76-0.78c-2.11-3.19-3.92-6.63-6.37-9.52
		c-6.58-7.74-17.87-7.29-23.97,0.8c-3.73,4.94-4.87,10.76-5,16.77c-0.36,15.88,3.04,31.03,9.37,45.53c1.13,2.59,2.8,4.93,4.13,7.44
		c0.5,0.95,0.75,2.03,1.12,3.05c-1.16-0.16-2.54,0.02-3.44-0.55c-4.85-3.1-10.16-4.46-15.83-4.89c-7.16-0.55-14.31-1.42-21.48-1.77
		c-3.5-0.17-5.08-1.75-5.9-4.89c-1.56-5.95-3.08-11.93-4.97-17.77c-2.9-8.93-8.06-16.07-17.12-19.74c-1.79-0.73-3.71-1.19-5.42-2.06
		c-16.86-8.54-45.57-1.87-55.96,17.56c-3.08,5.76-7.95,8.76-13.46,11.39c-1.07,0.51-2.24,1.92-2.39,3.04
		c-1.71,12.54-3.26,25.1-4.77,37.66c-0.82,6.89-0.74,6.89,6.23,6.94c16.08,0.11,32.16,0.22,48.24,0.34
		c5.03,0.04,5.03,0.05,5.81,5.02c0.91,5.77,3.79,8.55,8.85,8.4c0.12-0.62,0.34-1.27,0.37-1.93c0.15-3.65,0.19-7.3,0.42-10.94
		c0.05-0.77,0.72-1.49,1.11-2.24c0.64,0.65,1.53,1.2,1.85,1.99c0.37,0.91,0.25,2.02,0.31,3.04c0.2,3.5,0.39,7.01,0.57,10.45
		c7.57,1.15,9.39-0.32,9.53-7.5c0.03-1.48-0.13-2.97-0.07-4.45c0.08-1.74-1.75-4.04,1-4.89c0.36-0.11,2.31,2.96,2.52,4.68
		c0.41,3.43,0.12,6.95,0.12,10.92c4.41-1.84,6.02-4.96,6.54-8.48c2.39-15.93-6.83-33.56-26.59-34.21
		c-10.25-0.33-20.53,0.14-30.79,0.25c-1.83,0.02-3.7,0.3-5.46-0.04c-1.1-0.21-2.03-1.36-3.03-2.08c0.93-0.66,1.83-1.38,2.81-1.96
		c0.35-0.21,0.89-0.1,1.35-0.13c12.18-0.67,24.36-1.66,36.55-1.85c4.63-0.07,10.01,0.56,13.8,2.89
		c10.37,6.39,16.22,16.08,16.75,28.57c0.06,1.32,0.29,2.64,0.47,4.23c3.6,0,6.9-0.19,10.17,0.03c22.29,1.51,44.59,2.99,66.86,4.76
		c6.26,0.5,7.35-1.43,7.6-6.75c0.65-13.91,0.81-27.83-1.92-41.61c-1.48-7.46-2.72-14.97-4.21-23.24
		c-5.48,0.83-10.61,1.69-15.76,2.34c-1.16,0.15-2.42-0.42-3.63-0.65c0.94-0.93,1.73-2.39,2.84-2.68c3.51-0.92,7.12-1.46,10.72-2.01
		c1.72-0.26,3.48-0.23,5.55-0.35c-1.29-4.2-2.51-7.87-3.51-11.59c-0.58-2.15-1.91-2.76-3.95-2.99c-5.24-0.58-10.21-0.05-14.97,2.39
		c-0.85,0.43-2.21-0.13-3.33-0.24c0.62-0.94,1.02-2.28,1.9-2.77C435.35,241.47,441,239.97,447.16,241.42z M182.5,422.82
		c0-1.38,0.01-2.62,0-3.87c-0.02-4.44-0.02-4.42-4.53-4.23c-11.11,0.48-21.47,3.55-31.53,8.25c-19.97,9.32-33.19,24.59-40.14,45.22
		c-5.41,16.03-5.16,32.29-0.19,48.48c4.78,15.56,13.56,28.43,26.69,37.94c17.23,12.48,36.19,18.32,57.89,15.29
		c25.44-3.55,44.69-15.72,57.27-38.01c9.69-17.17,11.7-35.8,8.71-55.04c-1.83-11.79-5.62-22.97-13.84-31.86
		c-6-6.5-12.82-12.26-19.51-18.09c-3.12-2.72-6.8-4.8-11.04-7.73c0,2.32,0.14,3.66-0.03,4.96c-0.45,3.58,0.9,5.92,4.1,7.74
		c2.85,1.62,5.35,3.87,7.91,5.96c25.92,21.09,33.7,59.15,18.5,86.93c-7.11,12.99-16.23,23.88-29.89,30.49
		c-12.76,6.18-26.08,8.7-40.19,7.04c-24.56-2.89-43.34-15.16-54.73-36.8c-9.94-18.9-10.78-39.12-2.6-59.27
		c8.7-21.42,24.32-34.88,46.83-40.07C168.72,424.63,175.44,423.95,182.5,422.82z M410.5,236.25c-0.58,1.07-1.24,2.1-1.74,3.21
		c-6.08,13.38-4.85,27.16-1.9,40.92c0.89,4.18,2.57,8.27,4.44,12.13c1.48,3.05,3.95,5.48,8.25,5.33
		C410.98,277.96,405.47,258,410.5,236.25z M191.47,144.57c-1.05-6.07,0.63-10.46,4.87-13.47c4.45-3.16,9.03-3.04,13.3,1.39
		c-0.87-6.18-2.08-7.46-7.37-8.3c-4.73-0.75-10.82,2.49-13.05,6.95C187.46,134.64,188.25,141.48,191.47,144.57z M205.98,450.24
		c2.11-9.7,1.47-69.48-1.84-74.31c0.64,13.34,1.48,25.95,1.78,38.58C206.21,427.25,205.98,440,205.98,450.24z M203.61,498.28
		c-1.23,1.16-2.43,2.05-3.31,3.19c-0.82,1.08-2.14,2.97-1.76,3.56c1.25,1.94,3.14,3.47,4.86,5.09c0.16,0.15,0.83-0.17,1.22-0.37
		c5.56-2.77,5.94-5.77,1.24-9.78C205.25,499.46,204.59,499.02,203.61,498.28z M233.44,525.29c7.42-6.43,7.86-5.46-0.02-11.68
		C225.68,519.67,226.59,519.58,233.44,525.29z M189.42,528.67c-6.69,4.88-6.7,7.29-0.21,11.9c6.9-3.6,7.22-5.6,1.72-10.67
		C190.44,529.45,189.9,529.06,189.42,528.67z M173.41,527.65c-1.47,1.83-2.77,3.28-3.85,4.87c-0.44,0.65-0.86,2.01-0.54,2.36
		c1.66,1.83,3.37,3.85,5.51,4.89c0.68,0.33,2.77-2.08,4.13-3.32c1.51-1.38,1.27-2.75-0.19-4.06
		C177.05,531.1,175.67,529.77,173.41,527.65z M109.57,313.5c-2.17-0.04-4.64-1.29-4.83,1.79c-0.29,4.75-0.08,9.53-0.08,14.29
		c0.4,0.29,0.79,0.58,1.19,0.86c1.24-0.72,3.49-1.38,3.55-2.18C109.74,323.42,109.57,318.53,109.57,313.5z M219.63,512.97
		c-0.56,0.01-1.12,0.01-1.68,0.02c-1.54,2.21-4.28,4.43-4.25,6.61c0.03,1.7,3.31,4.08,5.55,4.69c1.11,0.31,4.63-2.94,4.42-4.12
		C223.23,517.62,221.08,515.35,219.63,512.97z M195.01,490.64c-6.22-8.99-6.58-8-11.93-0.63c1.94,1.88,3.93,3.8,6.03,5.84
		C191.28,493.93,193.2,492.23,195.01,490.64z M217.37,541.9c-1.99-2.34-3.66-4.3-5.29-6.22c-7.05,6.17-7.86,7.02-0.39,12.43
		C213.57,546.05,215.47,543.97,217.37,541.9z M158.08,526.99c-2.54-2.1-4.69-5.22-6.52-5.04c-1.97,0.19-3.65,3.47-5.45,5.4
		c1.95,1.77,3.79,4.76,5.87,4.94C153.68,532.43,155.67,529.22,158.08,526.99z M240.73,491.01c-2.01,1.73-4.01,3.46-6.26,5.4
		c2.48,2.37,4.4,4.22,6.26,5.99C247.8,497.87,247.71,494.99,240.73,491.01z M181.22,490.79c-1.96,2.4-4.93,4.47-4.88,6.46
		c0.04,1.84,3.22,4.87,5.21,5.03c1.94,0.16,4.12-2.64,6.74-4.54C185.7,495.19,183.72,493.24,181.22,490.79z M174.14,511.32
		c2.23-2.62,5.36-4.7,5.27-6.63c-0.09-1.95-3.38-3.74-5.27-5.61c-1.84,1.9-5.01,3.72-5.12,5.72
		C168.91,506.71,172,508.79,174.14,511.32z M233.28,497.3c-2.19,3-4.65,5.11-5.19,7.64c-0.26,1.22,3.52,4.83,4.7,4.51
		c2.48-0.67,4.46-3.22,6.76-5.09C237.29,501.82,235.58,499.89,233.28,497.3z M225.89,476.62c-6.75,5.61-7.7,5.63-0.01,11.16
		C234.03,482.19,232.41,481.82,225.89,476.62z M216.84,438.8c-5.87,4.84-5.58,6.7,1.35,11.88c1.98-1.61,3.94-3.21,6.19-5.04
		C221.46,442.98,219.22,440.95,216.84,438.8z M174.75,466.9c1.19-1.61,2.08-2.77,2.92-3.97c0.69-0.99,2.1-2.59,1.84-2.94
		c-1.37-1.88-2.99-3.74-4.92-4.98c-0.59-0.38-2.65,1.03-3.68,1.99c-1.08,1.02-3.29,2.01-1.63,4.08
		C170.74,462.9,172.46,464.49,174.75,466.9z M151.75,549.41c2.26-2.45,3.65-3.81,4.83-5.32c0.48-0.62,0.97-1.99,0.67-2.33
		c-1.56-1.76-3.18-3.64-5.19-4.72c-0.59-0.32-2.55,1.74-3.8,2.81c-1.74,1.48-1.63,2.94-0.07,4.63
		C149.49,545.9,150.47,547.61,151.75,549.41z M166.65,535.99c-6.61,5.9-7.28,6.23,0.38,11.51c6.56-4.63,6.62-5.39,0.88-10.57
		C167.58,536.63,167.19,536.39,166.65,535.99z M188.88,513.57c-6.48,5.19-7.78,5.94,0.7,11.41
		C196.29,519.93,196.59,520.09,188.88,513.57z M129.75,499c-6.86,5.46-7.65,6.82,0.43,11.78c1.67-1.81,3.39-3.68,5.31-5.77
		C133.4,502.84,131.56,500.91,129.75,499z M181.31,505.38c-2.11,2.3-4.07,4.43-5.98,6.51c6.06,6.88,5.95,7.85,12.25-0.63
		C185.85,509.65,184.05,507.96,181.31,505.38z M196.72,533.86c2.43-2.73,4.13-4.64,6.03-6.78c-2.26-2.13-4.19-3.95-6.36-6
		c-2.11,2.11-3.86,3.85-6.34,6.33C192.32,529.61,194.33,531.55,196.72,533.86z M168.73,549.48c6.29,7.55,6.2,7.01,11.77-0.32
		c-1.94-1.74-3.91-3.51-6-5.37c-1.26,1.14-2.21,1.94-3.09,2.81C170.54,547.48,169.72,548.42,168.73,549.48z M233.19,466.33
		c5.47-3.74,5.55-4.09,2.3-9.06c-0.25-0.38-0.46-0.78-0.72-1.16c-1.26-1.86-2.5-1.82-4.11-0.26c-3.96,3.85-4.01,4.54,0.03,8.35
		C231.52,464.97,232.4,465.66,233.19,466.33z M205.53,526.41c-0.01,0.53-0.02,1.06-0.03,1.59c2.21,1.43,4.35,3.78,6.65,3.95
		c1.43,0.1,4.51-3.25,4.33-4.76c-0.23-2-3.05-5.29-4.53-5.17C209.71,522.19,207.66,524.82,205.53,526.41z M160.25,439.37
		c-0.5,0.01-0.99,0.03-1.49,0.04c-1.43,2.25-3.82,4.43-3.96,6.76c-0.09,1.52,3.03,4.44,4.8,4.51c1.66,0.06,5-3.01,4.82-4.33
		C164.1,443.88,161.76,441.68,160.25,439.37z M144.3,468.26c-2.08,2.99-4.81,5.21-4.6,7.09c0.22,1.93,3.13,4.48,5.25,4.93
		c1.32,0.28,5-3.24,4.74-4.36C149.09,473.45,146.67,471.41,144.3,468.26z M165.64,504.92c-2.75-2.27-4.72-4.7-7.23-5.58
		c-0.93-0.33-4.78,3.69-4.44,4.48c1.03,2.38,3.18,4.93,5.5,5.81C160.62,510.07,163.1,506.96,165.64,504.92z M160.67,496.87
		c5.86,7.13,6.17,7.37,11.17,0.02C166.33,490.14,166.59,489.7,160.67,496.87z M165.12,489.11c-2.13-2.01-3.99-3.76-6.17-5.81
		c-1.98,2.19-3.74,4.15-5.69,6.3c1.94,2.05,3.62,3.83,5.83,6.16C161.09,493.55,162.87,491.59,165.12,489.11z M130.34,497.44
		c2.68,2.01,4.66,4.38,7.08,4.96c1.19,0.28,4.73-3.16,4.46-4.22c-0.61-2.41-2.92-4.4-4.81-6.93
		C134.75,493.37,132.96,495.02,130.34,497.44z M211.6,506.05c-7.3,5.93-7.32,7.12-0.65,11.21
		C218.23,511.4,218.04,511.15,211.6,506.05z M137.97,447.12c-2.32,2.06-4.46,3.97-6.56,5.84c5.51,6.28,5.75,6.32,10.07,1.83
		C143.73,452.46,143.46,451.83,137.97,447.12z M210.61,475.46c-1.9,2.8-4.36,4.89-4.45,7.07c-0.06,1.57,3.17,4.72,4.69,4.57
		c2.16-0.2,4.1-2.77,6.52-4.63C214.94,479.97,213.09,478.04,210.61,475.46z M129.75,454.92c-1.91,1.86-3.83,3.72-5.99,5.82
		c2.31,2.12,4.33,3.98,6.32,5.81C136.57,460.5,136.97,460.7,129.75,454.92z M151.84,461.11c-2.08,2.75-4.9,4.86-4.85,6.9
		c0.04,1.75,3.36,3.42,5.23,5.13c1.66-1.9,4.55-3.75,4.62-5.7C156.9,465.6,153.99,463.65,151.84,461.11z M144.65,510.62
		c1.65-1.79,3.2-3.38,4.61-5.09c0.33-0.41,0.39-1.31,0.19-1.84c-1.59-4.22-4.91-4.82-8.21-1.92c-2.51,2.21-2.7,3.87,0.11,5.82
		C142.43,508.35,143.32,509.39,144.65,510.62z M173.69,483.56c-1.74,2.23-4.47,4.24-4.59,6.39c-0.09,1.67,3.28,5.1,4.75,4.92
		c2.18-0.27,4.05-3.06,6.45-5.12C177.93,487.52,176.06,485.77,173.69,483.56z M211.81,474.71c2.74,2.08,4.72,4.41,7.15,5.05
		c1.07,0.28,4.56-3.22,4.29-4.38c-0.57-2.43-2.9-4.45-4.77-6.99C216.08,470.67,214.22,472.43,211.81,474.71z M160.34,528.28
		c-0.46-0.01-0.91-0.02-1.37-0.03c-1.63,2.29-3.98,4.41-4.55,6.93c-0.25,1.12,3.11,4.26,4.84,4.27c1.7,0.01,4.85-2.85,4.79-4.35
		C163.97,532.79,161.69,530.55,160.34,528.28z M204.54,543.91c-7.01,6.41-6.65,5.62-3.52,9.11c2.3,2.57,5.51,1.72,9.56-2.67
		C208.62,548.27,206.65,546.17,204.54,543.91z M189.1,544.08c-2.1,1.91-3.89,3.54-5.73,5.22c2.26,2.53,3.98,4.46,6.07,6.8
		c2.23-2.27,3.94-4.01,5.84-5.96C193.05,547.95,191.2,546.14,189.1,544.08z M173.36,525.51c0.59,0,1.18-0.01,1.76-0.01
		c1.39-2.04,4.02-4.2,3.84-6.09c-0.19-1.88-2.95-4.14-5.06-4.92c-0.96-0.35-4.57,2.75-4.38,3.8
		C169.98,520.85,171.98,523.13,173.36,525.51z M181.52,487.55c6.19-4.99,7.63-5.46-0.49-10.93
		C174.57,481.32,174.61,482.58,181.52,487.55z M137.1,506.16c-2.19,2.42-3.88,4.29-5.52,6.12c2.06,2.26,3.78,4.15,5.76,6.33
		c2.04-2.29,3.72-4.16,5.63-6.3C140.99,510.23,139.3,508.45,137.1,506.16z M165.45,549.81c-1.85-2.17-3.58-4.19-5.38-6.29
		c-2.75,2.16-4.76,3.74-6.66,5.23C159.88,556.62,160.34,556.62,165.45,549.81z M181.77,533.2c2.07-2.46,5.11-4.52,4.92-6.24
		c-0.21-1.94-3.29-4.89-5.17-4.94c-1.74-0.04-4.91,3.16-4.95,5C176.52,528.85,179.57,530.76,181.77,533.2z M145.61,453.86
		c-0.59-0.01-1.17-0.03-1.76-0.04c-1.26,1.61-2.6,3.16-3.73,4.85c-0.42,0.63-0.72,1.75-0.45,2.37c2.04,4.63,5.03,5.07,8.6,1.72
		c2.13-2,1.92-3.45-0.02-5.31C147.19,456.44,146.48,455.07,145.61,453.86z M144.73,484.07c-1.84,1.68-3.54,3.01-4.94,4.6
		c-0.52,0.59-0.79,1.98-0.47,2.66c2.1,4.37,5.09,4.77,8.34,1.26c0.46-0.5,1.11-0.95,1.31-1.54c0.25-0.73,0.46-1.85,0.08-2.34
		C147.84,487.13,146.35,485.76,144.73,484.07z M189.34,482.07c3.26,2.28,5.33,4.55,7.78,5.08c1.12,0.24,4.5-3.35,4.2-4.48
		c-0.66-2.41-3.05-4.35-4.95-6.76C193.95,478.02,192.11,479.64,189.34,482.07z M116.31,497.65c0.03,0.55,0.06,1.1,0.09,1.66
		c2.1,1.19,4.46,3.61,6.24,3.24c1.89-0.4,3.97-3.26,4.49-5.4c0.28-1.17-3.14-4.65-3.79-4.38
		C120.76,493.82,118.62,495.93,116.31,497.65z M210.8,491.24c-6.49,5.06-7.05,5.34,0.77,11.07
		C217.76,496.99,218.48,497.06,210.8,491.24z M190.39,542.13c2.71,2.28,4.68,3.92,7.23,6.06c1.59-2.27,4.22-4.37,4.09-6.29
		c-0.12-1.86-3.27-5.1-4.74-4.91C194.79,537.25,192.92,540,190.39,542.13z M232.64,496.67c-3-2.13-5.03-4.58-7.25-4.77
		c-1.39-0.12-4.31,3.18-4.3,4.92c0.02,2.04,2.48,4.06,4.22,6.58C227.98,500.95,230,499.09,232.64,496.67z M172.48,482.99
		c0-0.53,0-1.05,0-1.58c-2.12-1.44-4.2-3.87-6.38-3.97c-1.55-0.07-4.48,2.94-4.55,4.67c-0.07,1.68,2.86,4.99,4.23,4.87
		C168.11,486.77,170.26,484.43,172.48,482.99z M151.8,505.81c-1.88,2.02-3.25,3.37-4.46,4.86c-0.44,0.54-0.82,1.5-0.65,2.1
		c1.18,4.2,5.49,5.27,8.66,2.47c2.15-1.9,2.22-3.34,0.12-5.22C154.23,508.9,153.24,507.49,151.8,505.81z M136.44,488.77
		c2.66-2.45,4.6-4.25,7.06-6.52c-2.63-1.93-4.6-4.26-6.92-4.7c-1.21-0.23-4.34,2.96-4.28,4.5
		C132.39,484.15,134.71,486.16,136.44,488.77z M196.09,506.12c-5.85,4.67-5.97,6.16-1.3,10.28c0.08,0.07,0.16,0.16,0.24,0.24
		c1.49,1.58,2.77,0.68,3.63-0.59c0.99-1.46,4.09-2.24,2.06-4.87C199.34,509.41,197.69,507.86,196.09,506.12z M151.43,488.03
		c7.27-5.91,7.27-6.18,0.45-10.98C145.42,481.5,145.35,482.81,151.43,488.03z M166.75,506.6c-6.46,5.45-6.37,7.32,0.35,11.03
		C173.73,512.02,173.89,512.89,166.75,506.6z M182.25,461.43c-0.53,0.04-1.05,0.07-1.58,0.11c-1.42,2.25-3.45,4.38-3.97,6.82
		c-0.21,1,3.34,4.1,4.36,3.77c2.11-0.69,4.91-2.93,5.09-4.76C186.34,465.54,183.67,463.42,182.25,461.43z M153.45,519.54
		c1.43,1.31,2.57,2.59,3.95,3.51c0.91,0.61,2.37,1.23,3.24,0.91c4.34-1.6,4.73-4.51,1.57-7.76c-2.18-2.24-3.91-2.27-5.84,0.1
		C155.52,517.33,154.59,518.28,153.45,519.54z M232.98,468.54c-2.01,2.08-3.77,3.91-5.9,6.12c2.28,2.37,4.07,4.23,6.14,6.38
		c2.23-2.37,3.96-4.21,5.97-6.34C237.13,472.65,235.38,470.92,232.98,468.54z M152.76,474.48c2.27,2.19,3.58,3.58,5.04,4.8
		c0.51,0.43,1.49,0.76,2.08,0.57c4.59-1.44,5.36-5.11,2.02-8.45c-1.72-1.72-3.08-1.9-4.85-0.15
		C155.93,472.35,154.52,473.18,152.76,474.48z M209.64,475.61c-5.7-6.91-7.57-6.89-11.89-0.39c1.92,1.8,3.87,3.63,6.2,5.83
		C205.98,479.11,207.75,477.41,209.64,475.61z M233.53,483.84c-2.25,2.01-4.24,3.78-6.42,5.73c2.38,2.2,4.18,3.86,6.22,5.74
		c1.96-2.16,3.69-4.06,5.81-6.4C237.23,487.19,235.5,485.62,233.53,483.84z M185.97,453.75c-0.98-2.34-1.63-4.25-2.61-5.98
		c-0.3-0.52-1.91-0.97-2.23-0.69c-1.76,1.57-3.63,3.21-4.72,5.23c-0.32,0.58,1.66,2.64,2.84,3.74c0.87,0.81,2.63,1.92,3.19,1.58
		C183.82,456.77,184.75,455.17,185.97,453.75z M225.65,506.09c-6.34,4.99-6.29,6.38,0.17,11.07
		C233.18,511.58,232.39,511.45,225.65,506.09z M220.51,527.23c2.35,1.7,4.33,4.03,6.66,4.44c1.23,0.22,4.62-3.44,4.29-4.42
		c-0.82-2.4-3.22-4.26-5.39-6.81c-1.66,1.89-2.79,3.15-3.88,4.44C221.74,525.4,221.39,525.98,220.51,527.23z M204.09,528.54
		c-2.27,1.97-4.21,3.64-5.99,5.18c5.32,7.5,5.87,7.95,11.59,0.09C208,532.23,206.29,530.61,204.09,528.54z M203.27,483.21
		c-1.81,2.73-4.11,4.8-4.34,7.08c-0.14,1.39,3.16,4.57,4.45,4.34c2.16-0.38,3.95-2.85,6.14-4.64
		C207.38,487.66,205.7,485.85,203.27,483.21z M146.11,437.6c-0.29,0.63-0.58,1.26-0.87,1.9c1.62,1.08,3.18,2.3,4.9,3.19
		c0.88,0.45,2.62,0.78,3.02,0.32c1.48-1.66,3.15-3.57,3.52-5.61c0.16-0.87-2.87-3.41-4.16-3.22
		C150.27,434.51,148.24,436.37,146.11,437.6z M225.6,462.02c-6.5,5.15-6.42,6.97,0.29,10.83
		C232.61,467.53,232.81,468.19,225.6,462.02z M188.23,480.79c2.39-2.59,4.05-4.38,5.81-6.29c-1.95-1.97-3.64-3.68-5.62-5.69
		c-2.13,1.99-3.99,3.72-5.76,5.37C184.74,476.65,186.32,478.52,188.23,480.79z M166.97,461.83c-6.44,4.99-6.33,7.2,0.14,11.26
		c1.81-1.59,3.64-3.2,5.72-5.03C170.56,465.64,168.82,463.79,166.97,461.83z M212.79,534.82c2.41,1.56,4.49,3.84,6.74,4.03
		c1.43,0.12,4.6-3.17,4.36-4.41c-0.44-2.24-2.85-4.09-4.69-6.41C216.85,530.52,215.08,532.4,212.79,534.82z M231.49,453.04
		c-2.28-2.42-4.05-4.28-6.33-6.7c-1.74,2.3-4.18,4.18-4.43,6.32c-0.17,1.49,2.87,4.86,4.1,4.69
		C227.09,457.04,229.08,454.73,231.49,453.04z M130.81,484.22c-0.47-0.01-0.94-0.03-1.4-0.04c-1.51,2.2-3.73,4.27-4.2,6.67
		c-0.21,1.1,3.08,4.08,4.68,4.01c1.67-0.08,4.49-2.82,4.49-4.39C134.36,488.38,132.1,486.31,130.81,484.22z M218.6,495.1
		c5.9-5.35,7.31-5.33-0.37-10.85c-1.82,1.53-3.62,3.04-5.67,4.76C214.83,491.3,216.64,493.12,218.6,495.1z M209.75,520.52
		c-0.01-0.54-0.01-1.08-0.02-1.62c-2.18-1.28-4.32-3.42-6.56-3.52c-1.41-0.06-4.35,3.15-4.12,4.48c0.32,1.92,2.99,4.94,4.47,4.83
		C205.69,524.52,207.68,522.02,209.75,520.52z M129.8,525.48c0.47-0.05,0.95-0.09,1.42-0.14c1.29-1.96,3.85-4.16,3.54-5.82
		c-0.37-1.95-3.01-4.12-5.12-4.79c-1.02-0.33-4.62,3.03-4.35,3.89C126.07,521.13,128.2,523.22,129.8,525.48z M144.62,514.1
		c-6.78,5.16-6.78,7.61-0.16,11.01C151.59,518.62,150.62,519.38,144.62,514.1z M216.76,467.33c-1.48-1.64-2.78-3.06-4.05-4.5
		c-1.26-1.42-2.33-1.2-3.23,0.35c-1.07,1.84-2.1,3.71-3.27,5.78c1.58,1.48,3.11,2.91,4.86,4.56
		C213.11,471.31,214.86,469.4,216.76,467.33z M173.37,526.79c-2.98-2.12-4.98-4.61-7.03-4.64c-1.55-0.02-4.18,2.99-4.38,4.86
		c-0.16,1.49,2.89,4.83,4.06,4.64C168.31,531.26,170.28,528.98,173.37,526.79z M196.12,502.39c6.78-4.15,6.84-6.11,0.32-10.67
		C189.44,497.25,190.04,497.59,196.12,502.39z M157.61,452.99c-5.21-6.34-5.96-6.96-10.73-0.26
		C151.52,459.38,153.13,459.46,157.61,452.99z M138.57,446.11c2.62,1.66,4.67,3.66,7.03,4.14c1.02,0.21,4.07-3.11,3.77-4.12
		c-0.68-2.33-2.84-4.23-4.57-6.54C142.57,441.92,140.93,443.64,138.57,446.11z M157.51,496.8c-2.14-1.77-4.1-3.39-6.05-5.01
		c-6.16,4.38-6.07,6.51,0.63,10.76C153.65,500.89,155.25,499.19,157.51,496.8z M121.68,506.04c-1.45,2.64-3.63,4.81-3.31,6.49
		c0.37,1.92,3,4.77,4.6,4.74c1.84-0.04,3.62-2.79,5.67-4.56C126.28,510.44,124.41,508.65,121.68,506.04z M123.86,475.52
		c5.48,5.91,5.94,7.39,11.18-1c-1.63-1.54-3.3-3.13-5.09-4.82C127.72,471.82,125.86,473.6,123.86,475.52z M189.99,510.98
		c1.16-1.73,2.32-3.29,3.28-4.96c0.39-0.68,0.74-1.74,0.49-2.39c-1.8-4.6-4.97-5.08-8.17-1.52c-1.6,1.78-1.88,3.2,0.05,4.82
		C186.77,507.88,187.79,508.93,189.99,510.98z M144.74,540.29c6.23-5.03,5.98-7.33-0.89-11.23c-1.53,1.64-3.1,3.32-5.09,5.44
		C140.94,536.61,142.79,538.4,144.74,540.29z M182.51,536.59c-0.49,0.04-0.98,0.09-1.47,0.13c-1.31,1.96-3.79,4.04-3.61,5.84
		c0.17,1.72,2.95,4.01,4.92,4.41c1.26,0.26,4.66-2.88,4.42-3.78C186.11,540.79,184.02,538.76,182.51,536.59z M212.83,503.47
		c0.02,0.51,0.05,1.03,0.07,1.54c2.16,1.38,4.21,3.46,6.54,3.84c1.1,0.18,4.08-3.17,3.82-4.41c-0.42-1.98-2.84-4.92-4.42-4.92
		C216.84,499.52,214.83,502.04,212.83,503.47z M174.14,480.47c1.76-1.95,3.41-3.77,5.32-5.9c-1.81-1.88-3.41-3.56-4.95-5.15
		C166.95,474.83,167.26,475.37,174.14,480.47z M173.15,438.99c-2.98-2.29-5.05-4.31-7.54-5.44c-0.53-0.24-3.94,3.35-3.6,4.18
		c0.91,2.23,2.84,4.68,4.97,5.51C168.09,443.68,170.47,440.93,173.15,438.99z M159.71,454c-2.01,2.38-4.78,4.25-4.75,6.07
		c0.03,1.71,3.02,3.37,4.71,5.06c1.64-1.77,4.34-3.41,4.58-5.34C164.43,458.22,161.64,456.3,159.71,454z M123.37,477.61
		c-0.49-0.04-0.98-0.09-1.47-0.13c-1.44,2.01-3.92,3.99-3.98,6.03c-0.04,1.5,2.94,3.91,4.9,4.31c1.15,0.24,4.24-2.75,4.15-4.14
		C126.83,481.59,124.67,479.63,123.37,477.61z M218.31,466.19c2.15-2.37,3.72-4.09,5.79-6.37c-2.36-1.73-4.22-3.81-6.48-4.4
		c-0.96-0.25-4.13,3.01-3.86,4.01C214.39,461.76,216.5,463.69,218.31,466.19z M137.71,520.84c-2.29,2.53-3.9,4.3-5.97,6.58
		c2.54,1.76,4.44,3.71,6.71,4.34c0.89,0.25,3.93-2.8,3.68-3.72C141.51,525.68,139.57,523.67,137.71,520.84z M166.76,447.43
		c-1.64,1.9-4.31,3.7-4.73,5.92c-0.29,1.56,2.49,3.69,4.15,5.91c2.71-2.84,4.39-4.61,6.43-6.76
		C170.65,450.8,168.97,449.34,166.76,447.43z M122.71,463.22c-5.25,5.64-5.21,7.71,0.04,10.98
		C129.1,468.47,129.89,468.21,122.71,463.22z M136.9,472.95c6.56-5.05,6.46-6,0.3-10.4C130.94,467.54,130.89,468.5,136.9,472.95z
		 M174.04,450.84c6.36-5.16,7.19-4.8-0.27-10.25C168.02,444.94,168.04,446.17,174.04,450.84z M240.8,487.28
		c5.26-4.39,5.12-7.22-0.39-10.51C234.51,481.17,234.52,482.27,240.8,487.28z M240.77,505.43c-1.99,2.14-3.88,4.19-6.06,6.53
		c1.95,1.76,3.64,3.29,5.35,4.84C245.01,510.91,245.17,508.83,240.77,505.43z M168.08,430.87c3.35,6.97,6.4,7.54,10.34,1.92
		C175.18,427.57,172.45,427.06,168.08,430.87z M183.49,552.09c-2.76,1.68-5.04,3.08-7.32,4.47c0.27,0.49,0.54,0.97,0.8,1.46
		c3.6,0,7.21,0,10.81,0c0.15-0.28,0.31-0.55,0.46-0.83C186.37,555.19,184.51,553.19,183.49,552.09z M126.34,531.39
		c2.17,2.55,3.97,4.65,6.24,7.32c1.25-2.01,3.25-4.07,2.85-4.8c-1.1-1.99-3.04-3.7-5.03-4.89
		C129.81,528.67,127.96,530.4,126.34,531.39z M113.81,495.58c0.52,0.22,1.05,0.44,1.57,0.65c1.6-2,4.07-3.83,4.49-6.05
		c0.28-1.44-2.42-3.45-3.79-5.21c-0.49,0.16-0.97,0.32-1.46,0.47C114.35,488.82,114.08,492.2,113.81,495.58z M180.19,434.56
		c-0.44-0.08-0.89-0.17-1.33-0.25c-0.78,1.83-2.69,4.36-2.09,5.32c1.03,1.64,3.63,2.3,5.57,3.37c-0.14-2.14-0.14-4.29-0.49-6.39
		C181.73,435.85,180.77,435.24,180.19,434.56z M172.52,558c0.16-0.46,0.32-0.91,0.49-1.37c-1.9-1.81-3.79-3.63-5.88-5.62
		c-1.7,1.78-3.05,3.18-4.99,5.21C166.18,556.91,169.35,557.45,172.52,558z M133.97,538.93c1.88,1.87,3.19,3.45,4.8,4.61
		c0.62,0.45,2.28,0.31,2.83-0.22c0.56-0.54,0.8-2.19,0.39-2.83c-1.13-1.73-2.69-3.17-4.21-4.87
		C136.28,536.92,135.19,537.86,133.97,538.93z M240.51,474.07c2.88-4.72-0.42-7.11-1.42-10.71c-1.79,1.66-3.09,2.86-4.6,4.27
		C236.66,469.94,238.34,471.74,240.51,474.07z M210.52,457.57c0.37,0.22,0.75,0.43,1.12,0.65c1.46-1.88,3.54-3.58,4.1-5.7
		c0.29-1.08-2.15-2.89-3.36-4.37c-0.27,0.14-0.54,0.28-0.81,0.42C211.23,451.57,210.88,454.57,210.52,457.57z M124.87,529.62
		c0.44,0.16,0.87,0.31,1.31,0.47c0.72-0.93,1.45-1.85,2.14-2.73c-2.13-2.41-3.95-4.47-5.78-6.54c-0.48,0.32-0.95,0.63-1.43,0.95
		C122.36,524.39,123.62,527.01,124.87,529.62z M164.23,429.96c-3.3,0.98-5.87,1.74-8.44,2.5c-0.04,0.37-0.09,0.73-0.13,1.1
		c1.36,0.81,3.09,2.59,4.02,2.24C161.67,435.05,163.85,433.7,164.23,429.96z M191.24,556.48c0.14,0.38,0.28,0.75,0.43,1.13
		c2.86-0.55,5.73-1.1,8.6-1.65c-1.23-1.7-2.19-3.03-3.25-4.5C194.75,553.42,192.99,554.95,191.24,556.48z M222.63,543.5
		c2.04-1.93,3.9-3.69,5.95-5.63c-0.97-0.86-1.77-1.56-2.52-2.23C221,539.84,220.52,540.86,222.63,543.5z M142.29,546.37
		c2.88,1.8,5.43,3.39,7.98,4.98c0.16-0.29,0.33-0.57,0.49-0.86C147.67,545.08,145.22,543.62,142.29,546.37z M114.83,500.55
		c0.7,3.3,1.23,5.81,1.81,8.57C121.34,505.71,121.18,504.9,114.83,500.55z M227.82,533.9c1.2,0.55,2.51,1.42,2.73,1.2
		c1.43-1.42,2.7-3.02,3.8-4.71c0.2-0.31-0.59-1.27-1.08-2.26C231.28,530.24,229.74,531.88,227.82,533.9z M118.35,472.79
		c-0.32,0.12-0.64,0.24-0.95,0.36c-0.57,2.3-1.13,4.61-1.7,6.91c0.31,0.13,0.62,0.26,0.93,0.39c1.4-1.5,2.81-3.01,4.19-4.48
		C119.82,474.69,119.09,473.74,118.35,472.79z M213.28,549.12c0.27,0.31,0.55,0.63,0.82,0.94c2.02-1.64,4.07-3.24,6-4.98
		c0.12-0.1-0.67-1.21-1.21-2.15C216.74,545.32,215.01,547.22,213.28,549.12z M186.52,457.14c-3.8,2.71-3.52,4.01,1.14,6.74
		C187.28,461.61,186.94,459.58,186.52,457.14z M245.5,486.33c-0.25-0.1-0.51-0.2-0.76-0.3c-0.69,1.03-2,2.12-1.91,3.08
		c0.12,1.24,1.35,2.38,2.1,3.56c0.41-0.34,0.82-0.69,1.24-1.03C245.94,489.87,245.72,488.1,245.5,486.33z M108.68,202.41
		c0.28-0.61,0.56-1.22,0.83-1.82c-1.04-0.47-2.05-1.19-3.13-1.31c-0.55-0.06-1.22,0.97-1.83,1.51
		C105.93,201.33,107.3,201.87,108.68,202.41z"/>
	<path d="M556.75,140.36c0.24,6.97,0.32,13.32,0.71,19.66c0.6,9.75,1.44,19.49,2.12,29.23c0.52,7.5-3.74,13.8-10.72,16.04
		c-4.56,1.46-9,0.13-11.24-3.37c-2.42-3.79-2.1-8.47,1.22-11.94c3.37-3.54,7.49-5.92,12.44-6.6c0.87-0.12,1.74-0.25,2.2-0.31
		c0-7.31,0-14.32,0-21.77c-1.31,0.47-1.99,0.57-2.5,0.91c-6.86,4.62-14.56,6.94-22.63,8.12c-2.05,0.3-2.65,1.31-2.75,3.13
		c-0.46,8.98-1.13,17.95-1.4,26.94c-0.25,8.14-3.37,13.22-10.66,16.27c-3.9,1.64-7.35,1.02-10.04-1.8
		c-2.57-2.68-3.35-7.51-1.71-10.82c2.83-5.69,7.79-8.53,13.76-9.6c2.88-0.52,4-1.6,4.02-4.63c0.08-10.36,0.47-20.72,0.7-31.07
		c0.1-4.34,1.19-5.34,5.29-6.43c9.54-2.54,19.45-4.18,27.53-10.61C553.86,141.08,555.04,140.97,556.75,140.36z M552.97,147.57
		c-5.86,2.09-11.71,4.19-17.57,6.26c-2.47,0.87-5.02,1.54-7.44,2.52c-3.31,1.33-3.8,3.4-2.46,7.93c0.95,3.24,3.42,2.9,5.49,2.11
		c6.15-2.33,12.28-4.78,18.2-7.62C554.1,156.4,555.03,152.73,552.97,147.57z M519.83,196.35c-4.58,2.04-8.76,3.44-12.44,5.68
		c-3.08,1.87-3.56,7.37-1.51,9.77c2.25,2.64,6.63,2.47,9.79-0.1C520.29,207.94,520.28,202.94,519.83,196.35z M555.95,191.56
		c-0.04-1.96,0.13-4.15-2.75-4.08c-4.3,0.12-8.35,1.22-11.51,4.27c-2.26,2.19-2.74,5.06-1.11,7.8c1.6,2.67,4.28,3.13,7.17,2.39
		C552.71,200.67,555.83,196.69,555.95,191.56z"/>
	<path d="M432.88,136.11c-0.67-9.23-1.3-17.91-1.96-27.02c-5.98,3.06-11.13,5.68-16.27,8.33c-5.14,2.65-10.26,5.31-15.29,7.92
		c1.05,10.32,2.28,20.84,3.16,31.38c0.68,8.11-2.53,14.08-8.49,16.86c-5.32,2.48-11.19,1.42-13.58-2.46
		c-2.89-4.69-1.71-12.38,2.98-15.39c3.58-2.3,7.69-3.82,11.7-5.34c1.65-0.62,2.52-1.05,2.3-2.97c-0.72-6.22-1.35-12.46-1.95-18.7
		c-0.63-6.5-1.46-12.99-1.64-19.5c-0.06-2.3,1.2-4.89,4.36-5.36c1.79-0.27,3.69-0.51,5.28-1.3c8.65-4.33,17.2-8.85,25.82-13.24
		c1.03-0.52,2.31-0.92,3.4-0.79c0.47,0.06,1,1.62,1.07,2.53c1.31,16.94,2.53,33.88,3.81,50.82c0.74,9.77-5.95,16.2-15.33,14.66
		c-7.02-1.15-10.29-8.59-6.06-14.32C420.1,136.93,425.54,134.79,432.88,136.11z M431.19,100.42c0.22-7.27-0.78-7.83-6.79-4.83
		c-6.55,3.27-13.1,6.61-19.87,9.39c-6.49,2.66-7.68,4.01-7.13,11.14c0.32,4.2,2.53,5.26,6.2,3.17c3.14-1.79,6.37-3.41,9.61-5
		c4.47-2.18,9-4.23,13.49-6.35C430.11,106.33,432.21,103.96,431.19,100.42z M390.18,171.14c3.12,0.84,5.7-1.17,6.61-4.21
		c1.03-3.46,1.1-7.27,1.13-10.94c0.01-0.74-2.03-2.16-3.1-2.14c-3.89,0.08-10.1,3.16-11.77,7.88
		C381.03,167.45,383.63,171.29,390.18,171.14z M434.81,144.48c-1.38-1.86-2.51-4.97-4.2-5.32c-3.02-0.63-6.61-0.18-9.56,0.9
		c-3.15,1.16-4.87,7.87-3.27,10.14c1.54,2.2,7.87,3.84,11.13,2.89C432.08,152.17,434,149.15,434.81,144.48z"/>
	<path d="M341.41,137.94c0,8.4,0.01,16.81,0,25.21c-0.01,7.53-3.93,13.1-11.03,15.6c-3.6,1.27-7.38,1.83-10.28-1.15
		c-2.99-3.07-3.68-7.07-2.25-11.15c1.97-5.62,6.25-8.9,11.82-10.4c7.08-1.91,7.11-1.79,7.46-9.05c0.42-8.88,0.77-17.76,1.32-26.64
		c0.06-1.04,0.92-2.41,1.8-2.89c0.68-0.37,2.25,0.1,2.98,0.72c4.08,3.47,8.1,7.03,12,10.69c3.99,3.74,4.67,15.49,1.13,19.56
		c-0.77,0.89-2.19,1.22-3.31,1.8c-0.16-1.13-0.26-2.28-0.5-3.39c-0.21-0.99-0.27-2.33-0.92-2.87c-2.8-2.29-5.79-4.33-8.71-6.47
		C342.41,137.66,341.91,137.8,341.41,137.94z M337.09,163.26c0.02-4.81-0.84-5.52-5.42-4.37c-0.66,0.17-1.34,0.21-2,0.37
		c-5.91,1.41-9.14,5.47-9.09,10.92c0.03,2.81,1.64,4.2,3.84,4.95c5.13,1.77,10.44-1.18,11.85-6.49
		C336.73,166.89,336.83,165.06,337.09,163.26z M354.04,140.9c1.01-8.65-6.21-17.8-12.44-16.92c-0.92,4.42-1.01,8.48,4.34,10.28
		c0.49,0.17,0.84,0.74,1.28,1.1C349.33,137.09,351.45,138.8,354.04,140.9z"/>
	<path d="M495.44,140.23c0.47-11.2,0.96-22.44,1.4-33.68c0.16-3.98,2.84-5.9,6.41-4.08c4.24,2.16,8.34,4.62,12.34,7.2
		c2.85,1.85,3.52,6.73,1.83,10.61c-1.62,3.71-4.32,5.33-8.12,4.72c-1.22-0.2-2.44-0.61-3.57-1.11c-4.89-2.2-5-2.2-5.36,3.31
		c-0.36,5.56-0.2,11.18-0.96,16.68c-0.58,4.21-1.81,8.46-3.54,12.34c-1.84,4.09-5.69,5.72-10.21,5.4c-4.07-0.29-6.78-2.58-8.29-6.2
		c-1.71-4.1-1.34-8.1,1.74-11.47c3.81-4.18,8.28-6.41,14.02-3.93c0.41,0.18,0.88,0.24,1.33,0.32
		C494.67,140.36,494.9,140.29,495.44,140.23z M495.01,147.06c0.1-3.15-1.66-4.62-5.58-4.67c-5.32-0.08-9.39,3.31-9.58,7.98
		c-0.16,4.01,2.88,7.4,6.73,7.52C491.99,158.07,494.78,154.48,495.01,147.06z M500.02,104.99c0.28,3.12,0.39,5.78,0.79,8.39
		c0.66,4.21,5.56,7.91,9.84,7.25c1.42-0.22,3.49-1.19,3.84-2.28c0.66-2.06,0.49-4.29-2.08-5.78c-3.47-2-6.63-4.54-9.95-6.8
		C501.96,105.44,501.29,105.38,500.02,104.99z"/>
	<path d="M378.18,209.41c0.45-0.83,0.73-1.84,1.39-2.45c19.84-18.24,42.9-30.28,69.34-35.66c2.44-0.5,4.99-0.53,7.49-0.56
		c0.67-0.01,1.35,0.78,2.03,1.21c-0.59,0.38-1.16,1.04-1.79,1.11c-18.99,2-36.1,9.55-52.46,18.66c-8.08,4.5-15.12,10.88-22.63,16.41
		c-0.86,0.63-1.71,1.29-2.56,1.94C378.73,209.85,378.46,209.63,378.18,209.41z"/>
	<path d="M439.05,194.07c7.17-10.04,46.99-14.54,52.67-6.56c-8.81-0.19-17.78-1.36-26.47-0.29
		C456.56,188.29,448.14,191.6,439.05,194.07z"/>
	<path d="M482.13,120.48c-6.85,1.03-13.79,1.24-20.16,3.26c-6.23,1.97-11.88,5.77-17.93,8.84c1.28-6.1,15.77-13.4,27.61-14.16
		C479.99,117.88,481.36,118.22,482.13,120.48z"/>
	<path d="M348.48,189.85c6.01-4.23,11.73-8.26,17.93-12.62c0.92,2.28-0.85,3.36-2.05,4.48
		C356.92,188.66,351.17,191.76,348.48,189.85z"/>
	<path d="M365.02,492.27c-1.85-45.35,38.82-82.98,83.74-81.66c38.09,1.12,84.45,30.15,81.6,85.05
		c-2.42,46.59-42.13,82.69-87.82,80.14C403.96,573.65,363.55,543.83,365.02,492.27z M369.54,493.06c0,3.31-0.34,6.65,0.05,9.91
		c5,42.18,39.68,68.07,76.91,68.07c36.13,0,65.28-21.92,76.05-56.38c6-19.18,4.7-38.16-3.99-56.31
		c-6.83-14.27-18.51-24.12-31.81-32.08c-14.04-8.4-29.36-11.16-45.64-10.26c-19.44,1.08-35.77,9.05-49.33,22.38
		C376.67,453.24,368.87,471.57,369.54,493.06z"/>
	<path d="M321.69,402.51c-27.39,0-54.78,0-82.17,0c-7.49,0-9.73-2.3-9.62-9.88c0.13-8.43,0.14-16.87,0.41-25.29
		c0.17-5.24,2.85-7.95,8.21-8.04c13-0.22,26.01-0.2,39.02-0.22c40.62-0.06,81.24-0.1,121.86-0.13c2.62,0,5.26,0.01,7.86,0.28
		c4.24,0.45,5.91,1.88,6.58,6.12c0.52,3.24,0.62,6.58,0.59,9.88c-0.06,6.72-0.18,13.45-0.58,20.15c-0.27,4.62-3.24,7.04-7.94,7.04
		c-28.07,0.01-56.15,0-84.22,0C321.69,402.45,321.69,402.48,321.69,402.51z M321.42,397.7c0-0.02,0-0.03,0-0.05
		c0.68,0,1.37,0,2.05,0c26.93,0,53.85,0.02,80.78-0.01c4.96-0.01,5.78-0.83,5.81-5.8c0.03-7.99-0.12-15.97-0.1-23.96
		c0.01-2.56-1.24-3.82-3.59-4.14c-1.35-0.19-2.73-0.21-4.09-0.21c-28.18,0-56.36,0-84.54,0.02c-25.9,0.02-51.8,0.05-77.7,0.11
		c-5.13,0.01-6.19,1.16-6.18,6.3c0.01,7.53-0.05,15.06,0,22.59c0.03,4.75,0.38,5.12,5.06,5.13
		C266.43,397.71,293.92,397.7,321.42,397.7z"/>
	<path d="M315.28,523.56c-12.67,0-25.33-0.02-38,0.01c-5.99,0.02-8.46-2.05-8.61-8.05c-0.4-15.86-0.69-31.72-0.89-47.58
		c-0.12-9.34-0.07-18.69,0.05-28.04c0.09-6.21,2.92-8.96,9.04-8.99c23.51-0.14,47.02-0.23,70.53-0.34c1.48-0.01,2.97-0.03,4.45-0.03
		c6.84,0,9.7,2.48,9.91,9.38c0.22,7.29-0.04,14.6-0.06,21.91c-0.03,14.6-0.02,29.2-0.06,43.8c-0.01,3.76-0.02,7.53-0.31,11.28
		c-0.35,4.6-2.71,6.67-7.37,6.68c-12.89,0.03-25.79,0.01-38.68,0.01C315.28,523.58,315.28,523.57,315.28,523.56z M314.83,435.35
		c0,0.08,0,0.16,0,0.24c-12.33,0-24.65,0.02-36.98-0.01c-5.33-0.01-5.91,0.41-5.85,5.84c0.25,24.42,0.61,48.84,0.81,73.26
		c0.03,3.3,1.32,4.34,4.51,4.33c24.53-0.11,49.07-0.09,73.6-0.15c6-0.02,6.32-0.46,6.34-6.51c0.07-20.54,0.18-41.08,0.24-61.63
		c0.01-3.53,0.09-7.09-0.25-10.6c-0.38-4.01-1.5-4.78-5.46-4.77C339.48,435.35,327.15,435.35,314.83,435.35z"/>
	<path d="M314.37,563.87c-12.78,0-25.56,0.01-38.33,0c-4.7,0-6.65-1.89-6.55-6.63c0.07-3.52,0.18-7.09,0.76-10.55
		c0.48-2.82,2.08-5.1,5.48-5.11c26.01-0.09,52.02-0.26,78.03-0.23c5.42,0.01,6.74,1.63,6.74,7.17c0,3.29,0.01,6.64-0.64,9.84
		c-0.83,4.08-2.71,5.23-6.81,5.23c-12.89,0-25.79,0-38.68,0C314.37,563.69,314.37,563.78,314.37,563.87z M334.15,545.76
		c0-0.04,0-0.08,0-0.12c-5.92,0-11.84,0.09-17.76-0.04c-2.37-0.05-3.29,0.67-3.1,3.11c0.19,2.37,0.2,4.8-0.06,7.16
		c-0.3,2.78,1.11,3.25,3.4,3.24c10.36-0.02,20.71,0.05,31.07,0.05c8.82,0,8.65-0.02,8.84-8.82c0.08-3.61-1.54-4.6-4.63-4.6
		C345.99,545.77,340.07,545.76,334.15,545.76z M273.78,559.23c11.29,0,22.31,0.02,33.33-0.06c0.55,0,1.56-0.82,1.58-1.28
		c0.13-4.03,0.07-8.07,0.07-11.66c-11.08,0-21.55,0-32.02,0c-1.96,0-2.95,0.98-2.96,2.93C273.77,552.35,273.78,555.52,273.78,559.23
		z"/>
	<path d="M520.33,378.28c0.46,12.43-10.56,19.5-19.39,19.84c-9.73,0.38-17.34-7.86-17.49-18.44c-0.16-11.27,8.59-19.93,20.24-20.02
		C512.62,359.59,520.25,368.13,520.33,378.28z M516.16,378.51c0.01-8.05-5.92-14.3-13.51-14.24c-8.32,0.06-15.06,6.72-15.17,15
		c-0.09,7.46,6.47,14.35,13.68,14.35C509.22,393.63,516.15,386.65,516.16,378.51z"/>
	<path d="M190.05,278.52c-6.82-0.9-12.57-3.08-17.3-7.51c-0.77-0.72-0.77-2.27-1.12-3.44c1.13,0.02,2.37-0.26,3.37,0.11
		c5.19,1.93,10.34,3.96,15.44,6.1c1.29,0.54,2.36,1.6,3.52,2.43C192.66,276.98,191.36,277.75,190.05,278.52z"/>
	<path d="M446.76,424.72c18.17-0.41,34.36,5.41,47.88,17.16c15.05,13.09,23.26,29.77,22.87,50.28
		c-0.49,25.39-10.88,45.71-32.01,59.41c-18.35,11.9-38.72,14.29-60.08,8.2c-14.73-4.2-26.34-12.6-35.09-24.73
		c-12.5-17.32-16.21-36.86-11.19-57.55c6.66-27.46,24.4-44.32,51.62-51.36c1.87-0.48,3.81-0.72,5.74-0.87
		C439.92,425,443.34,424.9,446.76,424.72z M504.59,500.44c8.5-5.95,8.75-6.24,0.36-12.03c-1.96,2.08-3.96,4.19-6.21,6.58
		C500.86,496.97,502.67,498.65,504.59,500.44z M503.95,487.61c-0.09-0.52-0.17-1.04-0.26-1.55c-2.24-1.31-4.43-3.5-6.72-3.62
		c-1.51-0.07-4.62,3.07-4.43,4.4c0.34,2.4,2.62,4.53,4.45,7.33C499.73,491.58,501.84,489.6,503.95,487.61z M490.13,458.92
		c-1.55,1.82-2.85,3.24-4.01,4.78c-0.41,0.55-0.86,1.71-0.6,2.03c1.49,1.83,2.98,3.86,4.95,4.99c0.63,0.36,2.81-1.66,4.1-2.8
		c1.81-1.59,2.25-3.32,0-5.06C493.24,461.84,492.05,460.64,490.13,458.92z M437.45,496.11c-2.34-2.74-4.08-4.77-6.32-7.38
		c-2.01,2.68-4.81,4.78-4.78,6.82c0.04,1.92,3.25,5.45,4.74,5.29C433.37,500.6,435.38,497.78,437.45,496.11z M441.1,436.14
		c1.96,1.94,3.77,3.74,5.93,5.89c2.1-2.19,3.93-4.11,5.96-6.23c-2.02-2.28-3.79-4.28-5.99-6.77c-1.29,1.54-2.3,2.75-3.31,3.96
		C442.91,433.93,442.13,434.89,441.1,436.14z M454.91,495.27c5.36,6.67,5.64,7.41,11.57-0.45c-1.86-1.82-3.75-3.68-6.31-6.19
		c-1.3,1.64-2.36,2.97-3.42,4.31C456.13,493.73,455.51,494.51,454.91,495.27z M409.21,511.32c-1.22,1.57-2.32,2.87-3.26,4.26
		c-0.6,0.89-1.63,2.4-1.33,2.82c1.3,1.8,2.84,3.58,4.68,4.74c0.53,0.33,2.43-1.37,3.61-2.26c2.76-2.08,2.54-4.15-0.1-6.21
		C411.84,513.9,410.99,512.98,409.21,511.32z M453.21,523.65c6.87-5.55,6.78-5.97-0.35-11.51
		C446.48,517.69,445.25,517.51,453.21,523.65z M460.91,443.73c-2.54-2.22-4.35-4.99-6.52-5.3c-1.47-0.21-5.06,3.35-4.81,4.67
		c0.42,2.21,2.9,5.08,5,5.57C456.06,449.01,458.34,445.85,460.91,443.73z M396.16,467.03c1.78,1.71,3.63,3.49,6.14,5.89
		c2.06-2.18,3.88-4.09,5.64-5.95C402.25,459.38,401.47,459.45,396.16,467.03z M453.61,466.47c-2.16,2.56-5.06,4.5-5.15,6.57
		c-0.07,1.67,3.26,4.84,5.09,4.84c1.87,0.01,5.3-3.09,5.23-4.72C458.7,471.08,455.81,469.11,453.61,466.47z M389.22,488.19
		c2,2.4,3.63,4.36,5.22,6.26c7.53-6.4,7.39-5.97,0.05-11.85C392.77,484.44,391.01,486.3,389.22,488.19z M454.7,524.94
		c2.06,2.62,3.72,4.72,5.38,6.82c0.49-0.11,0.98-0.22,1.47-0.33c1.35-2.17,3.73-4.33,3.73-6.5c0-1.67-3.31-4.96-4.54-4.69
		C458.47,520.74,456.64,523.3,454.7,524.94z M496.19,524.44c-2.47-2.17-4.44-5.21-6.2-5.09c-1.94,0.13-4.94,3.04-5.13,4.96
		c-0.16,1.71,3,5.33,4.5,5.23C491.51,529.4,493.48,526.63,496.19,524.44z M454.01,493.89c0.99-1.27,1.97-2.85,3.27-4.1
		c1.62-1.55,1.6-2.82,0.01-4.25c-0.85-0.76-1.53-1.86-2.51-2.26c-0.9-0.38-2.46-0.47-3.11,0.06c-4.79,3.92-4.67,5.77,0.36,9.52
		C452.38,493.13,452.82,493.28,454.01,493.89z M440.51,465.13c2.23,2.65,3.8,4.5,5.89,6.99c2.04-2.71,4.21-4.68,4.97-7.1
		c0.28-0.89-3.08-4.25-4.26-4C444.68,461.53,442.61,463.71,440.51,465.13z M491.6,517.02c5.56,6.28,5.88,7.29,11.01-0.49
		C497.52,509.97,497.31,509.37,491.6,517.02z M417.46,472.46c1.75-2.51,4.05-4.51,4.36-6.78c0.18-1.32-3.28-4.62-4.35-4.32
		c-2.42,0.67-4.38,3.02-6.78,4.89C413.08,468.44,414.9,470.11,417.46,472.46z M408.2,495.41c-1.87-1.68-3.84-3.45-6.04-5.43
		c-1.95,2.04-3.72,3.89-5.43,5.68C401.32,502.63,403.14,502.63,408.2,495.41z M387.78,501.31c6.21-4.79,6.16-5.15,1.75-9.64
		c-1.96-1.99-3.17-1.71-4.95,0.12c-3.13,3.22-3.23,3.2-0.08,6.41C385.51,499.23,386.6,500.2,387.78,501.31z M453.35,526.39
		c-2.45,2.66-4.16,4.51-6.37,6.91c2.63,1.88,4.61,4.1,6.97,4.63c1.13,0.25,4.46-3.08,4.2-4.15
		C457.54,531.32,455.35,529.25,453.35,526.39z M498.27,466.4c-2.42,2.6-4.32,4.63-6.71,7.2c2.39,1.61,4.58,4.21,6.32,3.94
		c1.93-0.3,4.64-3.11,4.82-5.04C502.86,470.77,500.09,468.75,498.27,466.4z M445.38,503.47c-1.88,2.91-4.15,5.02-4.4,7.34
		c-0.15,1.33,3.09,4.38,4.57,4.24c2.13-0.21,4.04-2.62,6.45-4.39C449.69,508.16,447.89,506.2,445.38,503.47z M441.38,450.96
		c5.06,6.71,6.02,7.13,10.84-0.11C446.93,444.3,447.21,443.08,441.38,450.96z M461.09,459.7c-6.96,4.94-6.78,7.73,0.47,11.24
		c1.89-1.64,3.82-3.29,5.96-5.15C464.9,463.31,462.96,461.47,461.09,459.7z M497.3,495.44c-2.04,2.88-4.51,4.89-4.64,7.04
		c-0.09,1.55,3.12,4.76,4.53,4.58c1.95-0.24,5.09-3.02,5.02-4.6C502.13,500.34,499.47,498.32,497.3,495.44z M484.14,509.09
		c0.04,0.54,0.09,1.08,0.13,1.61c2.15,1.29,4.32,3.58,6.43,3.52c1.58-0.05,4.35-3.19,4.27-4.84c-0.08-1.77-3.14-4.98-4.44-4.77
		C488.22,505,486.25,507.49,484.14,509.09z M467.01,480.91c-0.03-0.6-0.07-1.2-0.1-1.8c-2.19-1.27-4.41-3.54-6.56-3.47
		c-1.61,0.05-4.21,3-4.37,4.84c-0.13,1.46,2.97,4.64,4.28,4.46C462.66,484.61,464.78,482.36,467.01,480.91z M489.17,487.65
		c-2.54-2.15-4.6-5.16-6.31-4.98c-1.83,0.2-4.48,3.35-4.6,5.34c-0.1,1.61,3.1,4.87,4.7,4.78
		C484.89,492.69,486.69,489.86,489.17,487.65z M416.57,545.48c7.07-5.49,7.22-5.42,0.24-11.53c-2.03,1.69-4.06,3.39-6.18,5.16
		C413.06,541.72,414.76,543.53,416.57,545.48z M467.99,508.26c1.9-2.06,3.71-4.01,5.69-6.16c-1.99-1.88-3.7-3.49-5.36-5.04
		C460.47,502.46,461.06,502.74,467.99,508.26z M389,516.94c2.49,2.12,4.47,4.33,6.94,5.56c0.63,0.31,4.29-3.11,4.01-3.76
		c-1.09-2.63-3.18-4.84-5.22-7.66C392.59,513.27,391.04,514.86,389,516.94z M476.42,444.8c-0.46,0.01-0.92,0.02-1.39,0.03
		c-1.38,2.16-3.89,4.37-3.78,6.46c0.08,1.67,3.13,3.9,5.25,4.48c1.04,0.28,4.42-2.98,4.17-4
		C480.04,449.25,477.93,447.1,476.42,444.8z M409.79,482.59c-6.91,4.64-6.69,7.35,0.84,11.36c1.53-1.69,3.1-3.45,4.82-5.35
		C413.48,486.51,411.7,484.62,409.79,482.59z M445.75,474.31c-1.83,2.56-4.16,4.58-4.61,6.95c-0.24,1.25,3.4,4.72,4.28,4.4
		c2.37-0.86,4.2-3.22,6.44-5.14C449.67,478.29,448.03,476.62,445.75,474.31z M481.97,511.17c-1.7,2.29-3.9,4.32-4.66,6.8
		c-0.28,0.92,3.2,4.36,4.25,4.07c2.43-0.67,4.42-2.92,7.3-5.06C486.35,514.86,484.55,513.34,481.97,511.17z M403.06,445.71
		c-2.39,2.54-4.3,4.56-6.73,7.14c2.27,1.64,4.39,4.32,6.06,4.07c1.99-0.31,4.89-3.04,5.01-4.89
		C407.54,450.13,404.79,448.04,403.06,445.71z M484.63,494.63c4.96,6.89,5.72,7.27,10.85,0.14
		C489.78,487.51,490.51,488.15,484.63,494.63z M438.51,467.31c-2.19,1.99-4.08,3.7-6.28,5.7c2.52,2.35,4.36,4.07,6.42,5.98
		c2.12-2.12,3.92-3.91,6.5-6.48c-1.53-1.05-2.68-1.78-3.76-2.62C440.5,469.22,439.72,468.41,438.51,467.31z M438.64,496.92
		c-1.67,1.75-3.4,3.24-4.73,5.02c-1.76,2.37,0.87,3.37,2.01,4.59c0.71,0.76,2.56,1.47,3.26,1.07c5.26-2.99,5.46-5.53,1.02-9.46
		C439.87,497.84,439.5,497.58,438.64,496.92z M482.14,480.11c-2.55-2.08-4.69-5.06-6.22-4.77c-2.03,0.38-4.59,3.13-4.97,5.21
		c-0.24,1.32,3.17,4.68,4.8,4.59C477.74,485.04,479.59,482.27,482.14,480.11z M475.27,515.82c1.6-1.72,3.24-3.15,4.41-4.9
		c0.46-0.68,0.3-2.51-0.28-3.03c-1.46-1.31-3.75-3.4-4.93-2.98c-4.82,1.71-5.3,5.75-1.52,9.13
		C473.53,514.56,474.19,515,475.27,515.82z M445.83,531.16c6.98-5.05,7.12-5.44-0.57-11.67c-1.63,1.75-3.27,3.52-5.21,5.6
		C442.21,527.37,444.06,529.31,445.83,531.16z M416.19,503.83c-1.73,2.48-4.4,4.62-4.24,6.53c0.15,1.83,3.08,4.46,5.08,4.76
		c1.6,0.24,3.64-2.5,5.7-4.09C420.36,508.42,418.56,506.44,416.19,503.83z M415.76,473.21c-2.52-1.91-4.47-4.51-6.51-4.58
		c-1.56-0.05-4.7,3.25-4.52,4.75c0.26,2.18,2.87,4.07,4.76,6.43C411.79,477.39,413.48,475.61,415.76,473.21z M388.89,473.11
		c6.06,7.41,6.22,7.6,11.45,0.59c-1.78-1.88-3.6-3.81-5.6-5.94C392.43,469.87,390.63,471.52,388.89,473.11z M429.96,503.6
		c-2.59-2.28-4.43-4.56-6.81-5.59c-0.72-0.31-4.51,3.51-4.18,4.34c0.97,2.39,3.05,4.69,5.29,5.96
		C424.96,508.7,427.6,505.62,429.96,503.6z M461.01,516.12c1.68-2.65,3.95-4.71,4.03-6.86c0.06-1.51-3.35-4.7-4.37-4.39
		c-2.31,0.7-4.1,3.11-6.45,5.12C456.63,512.16,458.45,513.81,461.01,516.12z M409.48,464.29c6.49-4.35,6.51-6.33,0.23-10.83
		C402.85,458.33,402.8,459.66,409.48,464.29z M483.36,478.38c6.46-4.79,7.07-5.2-0.07-10.77C476.94,472.11,476.91,474,483.36,478.38
		z M467.78,511.73c-0.97,0.92-1.81,1.65-2.57,2.45c-2.95,3.11-1.79,7.36,2.38,8.59c0.45,0.13,1.08-0.02,1.51-0.26
		c4.26-2.35,4.68-5.03,1.33-8.4C469.65,513.33,468.79,512.63,467.78,511.73z M417.2,445.18c-1.98,2.64-4.13,4.61-4.91,7.03
		c-0.27,0.85,3.13,4.2,4.3,3.94c2.32-0.52,4.24-2.76,6.58-4.47C421.06,449.38,419.47,447.65,417.2,445.18z M440.27,437.94
		c-0.52-0.02-1.04-0.05-1.55-0.07c-1.49,2.13-3.92,4.18-4.12,6.43c-0.13,1.38,3.06,4.16,4.91,4.3c1.54,0.11,4.74-2.83,4.63-4.21
		C443.95,442.15,441.66,440.08,440.27,437.94z M438.88,552.58c6.61-4.94,6.58-7.37,0.02-10.73
		C432.44,546.64,432.41,548.21,438.88,552.58z M439.22,453.06c-6.31,4.55-6.35,6.8-0.35,10.77
		C446.71,458.81,445.22,457.47,439.22,453.06z M481.55,540.06c-0.27-0.56-0.53-1.13-0.8-1.69c-1.81-1.36-4.02-4.13-5.34-3.76
		c-2.11,0.59-3.63,3.28-5.4,5.08c1.75,1.62,3.57,4.61,5.25,4.53C477.41,544.12,479.45,541.56,481.55,540.06z M474.05,546.31
		c-2.65-1.86-4.91-4.56-6.28-4.16c-2.09,0.6-3.56,3.35-5.29,5.18c1.6,1.51,3.61,4.51,4.72,4.21
		C469.51,550.92,471.34,548.53,474.05,546.31z M417.55,487.57c1.67-2.84,3.86-5.01,3.97-7.28c0.07-1.44-3.22-4.48-4.51-4.23
		c-2.15,0.42-3.9,2.89-6.46,5.04C412.95,483.32,414.84,485.06,417.55,487.57z M438.31,539.54c-3.12-2.04-5.17-4.26-7.42-4.5
		c-1.26-0.13-4.05,3.08-3.98,4.7c0.07,1.71,2.94,4.82,4.19,4.64C433.34,544.05,435.3,541.72,438.31,539.54z M462.86,457.21
		c-0.02,0.51-0.03,1.01-0.05,1.52c2.17,1.56,4.18,3.74,6.59,4.39c1.01,0.27,4.39-3.29,4.08-4.11c-0.84-2.2-2.83-4.88-4.88-5.41
		C467.12,453.2,464.81,455.9,462.86,457.21z M439.51,538.45c1.57-2.07,4.27-4.08,4.09-5.77c-0.22-1.99-2.79-3.91-4.71-5.37
		c-0.36-0.27-2.55,1.66-3.75,2.74c-1.83,1.64-1.61,3.26,0.29,4.78C436.65,535.79,437.77,536.89,439.51,538.45z M437,465.84
		c-2.14-1.68-3.97-4.06-6.18-4.49c-1.19-0.23-4.44,3.08-4.25,4.44c0.31,2.18,2.7,4.08,4.41,6.36
		C433.25,469.78,434.8,468.15,437,465.84z M407.85,525.63c-4.79-6.72-7.05-6.78-10.37-0.41
		C401.72,531.88,403.26,531.97,407.85,525.63z M402.83,516.04c1.96-1.93,3.56-3.51,5.65-5.58c-2.44-2.01-4.31-4.7-6.4-4.89
		c-1.7-0.15-3.67,2.7-5.74,4.4C398.72,512.19,400.53,513.89,402.83,516.04z M393.2,481.88c0-0.48,0-0.97-0.01-1.45
		c-2.3-1.52-4.61-3.05-6.91-4.57c-1.11,1.97-2.89,3.88-3.08,5.94c-0.12,1.3,2.55,4.2,3.23,3.99
		C388.85,485.03,390.97,483.26,393.2,481.88z M410.14,449.7c6.82-5.15,6.88-5.61,0.63-10.4C403.34,444.65,403.3,445.4,410.14,449.7z
		 M462.73,471.89c0.01,0.51,0.02,1.03,0.04,1.54c2.12,1.46,4.17,3.83,6.4,4.04c1.34,0.12,4.08-3.09,4.18-4.9
		c0.08-1.56-2.84-4.73-4.18-4.59C466.91,468.2,464.86,470.47,462.73,471.89z M487.6,502.07c-5.19-7.13-5.92-5.88-10.44,0.29
		C481.46,508.12,482.21,509.86,487.6,502.07z M511.41,479.65c-2.48-2-4.37-4.67-6.45-4.83c-1.49-0.11-3.24,3.13-4.88,4.88
		c1.88,1.67,3.6,4.32,5.69,4.66C507.22,484.59,509.18,481.63,511.41,479.65z M431.5,530.31c6.58-4.88,6.98-5.4-0.54-10.56
		C424.95,524.19,425.01,525.82,431.5,530.31z M461.91,488.01c2.81,2,4.74,4.35,6.88,4.55c1.41,0.13,4.57-3.09,4.35-4.36
		c-0.39-2.25-2.76-4.16-4.57-6.58C466.19,483.9,464.42,485.6,461.91,488.01z M461.65,533.12c2.71,1.77,4.8,4.21,6.61,4.02
		c1.79-0.19,4.53-3.01,4.58-4.73c0.05-1.81-2.61-3.69-4.42-5.95C466.08,528.75,464.26,530.55,461.65,533.12z M452.69,497.28
		c-6.03,4.76-5.96,5.72,0.62,10.82C460.4,503.29,459.35,502.31,452.69,497.28z M439.02,493.35c6.06-4.68,5.8-6.88-0.79-10.82
		c-1.87,1.54-3.75,3.07-5.92,4.85C435.03,489.81,436.97,491.53,439.02,493.35z M482.69,537.46c1.8-1.87,3.49-3.63,5.35-5.56
		c-1.85-1.91-3.54-3.65-5.17-5.32C476.26,530.9,476.19,532.68,482.69,537.46z M438.21,523.24c6.51-4.81,6.38-7.08-0.15-11.15
		c-1.66,1.74-3.36,3.52-5.08,5.33C434.85,519.51,436.49,521.33,438.21,523.24z M416.07,532.36c-2.57-2.04-4.46-4.67-6.51-4.81
		c-1.53-0.1-4.62,3.05-4.59,4.71c0.04,2.03,2.62,4,4.53,6.58C411.92,536.46,413.75,534.65,416.07,532.36z M407.46,481.07
		c-4.93-6.54-5.72-6.98-10.49-0.15C401.81,487.4,403.29,487.46,407.46,481.07z M484.54,480.46c2.02,1.89,3.8,3.55,5.52,5.16
		c6.55-4.3,6.57-6.53,0.23-10.7C488.57,476.58,486.81,478.27,484.54,480.46z M418.02,519.47c-0.57,0.02-1.14,0.03-1.72,0.05
		c-1.43,2.22-3.47,4.31-3.98,6.72c-0.21,0.98,3.08,3.9,4.49,3.72c1.76-0.23,4.46-2.7,4.51-4.28
		C421.38,523.64,419.22,521.54,418.02,519.47z M416.54,500.9c6.7-5.44,6.3-6.02,0.26-10.58
		C410.29,494.77,410.25,495.71,416.54,500.9z M424.22,541.01c-1.91,2.42-4.68,4.44-4.43,5.97c0.31,1.93,3.1,3.45,4.82,5.15
		c1.66-1.75,4.59-3.5,4.61-5.27C429.24,545.11,426.33,543.32,424.22,541.01z M481.47,495.7c-2.13-2.44-3.77-4.33-5.94-6.83
		c-2.01,2.88-4.09,4.8-4.61,7.08c-0.24,1.07,2.83,4.22,3.88,3.99C477.07,499.45,479,497.39,481.47,495.7z M409.88,508.45
		c1.6-1.72,3.26-3.5,5.5-5.92c-2-1.8-3.73-3.36-5.39-4.86C403,502.19,402.99,504.14,409.88,508.45z M454.55,464.1
		c1.29-1.63,2.8-3.1,3.7-4.88c0.43-0.84,0.08-2.66-0.61-3.36c-1.13-1.16-3.2-2.8-4.21-2.43c-4.53,1.66-5,5.26-1.48,8.6
		C452.51,462.57,453.17,463.01,454.55,464.1z M489.67,533.53c-6.55,4.41-6.7,6.5-0.75,10.35
		C495.98,539.25,496.13,537.23,489.67,533.53z M475.85,519.23c-0.56,0.03-1.12,0.05-1.68,0.08c-1.21,2.1-3.39,4.23-3.32,6.29
		c0.05,1.47,3,3.65,4.89,3.93c1.21,0.18,4.25-2.8,4.03-3.85C479.28,523.36,477.25,521.36,475.85,519.23z M431.3,475.19
		c-5.52,4.26-5.86,4.98-3.57,7.46c3.24,3.5,4.11,3.56,7.06,0.49C437.45,480.38,437.28,479.97,431.3,475.19z M429.23,532.26
		c-5.01-7.04-5.48-6.41-10.31,0.1C423.81,538.38,424.01,539.27,429.23,532.26z M430.27,443.97c-5-6.52-6.42-6.48-10.53,0.21
		C424.54,450.39,425.78,450.39,430.27,443.97z M468.05,449.3c0.49,0.01,0.97,0.03,1.46,0.04c1.42-2.02,3.74-3.95,3.92-6.08
		c0.11-1.34-2.94-4.07-4.63-4.11c-1.6-0.04-4.72,2.73-4.6,4.02C464.39,445.31,466.65,447.27,468.05,449.3z M423.94,452.96
		c-1.28,1.59-2.84,3.02-3.7,4.79c-0.45,0.93-0.12,2.84,0.6,3.6c1.07,1.11,3.22,2.57,4.17,2.16c4.24-1.81,4.69-5.41,1.45-8.55
		C425.9,454.43,425.25,453.99,423.94,452.96z M454.74,540.04c0.03,0.5,0.06,1,0.09,1.5c1.89,1.18,4,3.53,5.61,3.22
		c1.88-0.36,4.1-2.83,4.63-4.8c0.31-1.14-2.96-4.65-3.71-4.4C458.93,536.39,456.91,538.46,454.74,540.04z M429.81,518.79
		c0.01-0.5,0.01-0.99,0.02-1.49c-1.98-1.49-3.84-3.85-5.97-4.13c-1.28-0.17-4.12,2.88-4.18,4.55c-0.06,1.6,2.6,4.63,4.04,4.62
		C425.76,522.31,427.78,520.08,429.81,518.79z M418.17,473.76c2.45,1.67,4.44,3.67,6.81,4.31c0.87,0.23,3.92-3.04,3.67-4.23
		c-0.46-2.22-2.61-4.09-4.49-6.71C422,469.53,420.42,471.28,418.17,473.76z M436.78,510.16c-1.73-1.76-3.43-3.48-5.41-5.48
		c-1.99,2.31-3.57,4.14-5.08,5.9C430.79,516.91,432.01,516.89,436.78,510.16z M470.62,464.73c0.03,0.53,0.05,1.06,0.08,1.59
		c2.03,1.36,4.02,3.65,6.1,3.74c1.37,0.06,3.84-2.98,4-4.8c0.12-1.38-2.75-4.38-4.03-4.24
		C474.61,461.25,472.66,463.39,470.62,464.73z M395.26,497.38c-2.36,2.01-4.13,3.5-6.39,5.42c2.55,2.15,4.22,4.52,6.28,4.94
		c1.24,0.25,4.59-2.88,4.36-3.91C399,501.53,396.84,499.6,395.26,497.38z M417.58,488.49c2.84,1.83,4.87,4.16,6.77,4.06
		c1.62-0.08,4.25-2.92,4.32-4.62c0.07-1.77-2.4-3.63-3.87-5.6C422.29,484.46,420.26,486.2,417.58,488.49z M440.22,539.91
		c2.56,1.92,4.5,3.88,6.85,4.81c0.67,0.27,3.85-2.85,3.59-3.77c-0.66-2.35-2.61-4.34-4.28-6.82
		C444.16,536.21,442.54,537.73,440.22,539.91z M445.44,501.04c6.34-4.68,6.56-5.93,2.15-9.71c-0.66-0.56-2.63-0.77-2.96-0.34
		c-1.21,1.59-4.51,2.38-2.75,5.35C442.9,498.07,444.31,499.57,445.44,501.04z M466.89,450.79c-1.71-1.88-3.34-3.68-4.95-5.46
		c-6.47,5.29-6.49,7.04-0.33,10.61c1.08-0.92,2.24-1.85,3.31-2.85C465.57,452.48,466.1,451.73,466.89,450.79z M488.93,443.98
		c-1.92-1.55-3.54-3.19-5.48-4.25c-0.73-0.4-2.52,0.19-3.24,0.92c-0.86,0.86-1.82,2.68-1.46,3.52c2.16,4.96,5.43,5.36,9.06,1.37
		C488.12,445.2,488.35,444.81,488.93,443.98z M497.14,452.22c-5.25,4.67-6.09,4.45,1.26,10.36
		C503.8,458.75,503.63,457.21,497.14,452.22z M426.49,451.43c2.13,1.75,3.82,4.01,5.9,4.46c1.05,0.23,4.13-2.98,3.96-4.33
		c-0.27-2.15-2.5-4.06-4.22-6.52C429.98,447.47,428.44,449.22,426.49,451.43z M432.55,430.36c-1.98,3.02-4.08,4.96-4.37,7.14
		c-0.15,1.18,2.83,3.9,4.33,3.85c1.6-0.05,4.49-2.71,4.36-3.96C436.63,435.25,434.49,433.3,432.55,430.36z M461.74,441.78
		c5.47-5.28,5.29-6.61-1.32-10.75c-1.35,1.47-2.76,3-4.36,4.74C458.07,437.89,459.83,439.75,461.74,441.78z M440.47,553.62
		c1.96,2.77,3.4,5.35,6.24,4.52c1.68-0.49,3.91-2.6,4-4.09c0.08-1.45-2.56-4.47-3.48-4.28
		C444.88,550.26,442.83,552.16,440.47,553.62z M503.3,514.7c0.53,0.01,1.05,0.01,1.58,0.02c1.34-2.29,2.99-4.47,3.79-6.94
		c0.18-0.57-3.1-3.27-3.84-2.93c-2.03,0.93-4.45,2.72-4.97,4.64C499.51,510.82,502.05,512.93,503.3,514.7z M488.9,457.7
		c-1.85-1.75-3.43-3.24-4.95-4.68c-6.43,5.08-6.43,6.81-0.09,10.35C485.42,461.61,487.04,459.79,488.9,457.7z M490.67,445.14
		c-1.93,2.19-3.46,3.94-4.94,5.62c4.5,6.13,6.65,5.97,9.88-0.72C494.11,448.56,492.54,447,490.67,445.14z M453.77,554.54
		c2.36,1.3,3.98,2.94,5.49,2.84c2.06-0.13,4.04-1.57,6.05-2.46c-1.23-1.59-2.42-3.22-3.71-4.76c-0.4-0.48-1.06-0.76-1.75-1.24
		C458.04,550.6,456.33,552.17,453.77,554.54z M394.86,454.17c-1.6,2.32-3.11,4.51-4.73,6.84c1.53,1.45,2.88,2.73,4.18,3.97
		C400.82,460.02,400.89,459.09,394.86,454.17z M497.16,526.13c-6.47,4.53-6.65,6.63-0.87,10.16
		C502.21,531.06,502.32,529.7,497.16,526.13z M453.06,552.8c1.98-1.97,3.67-3.65,4.93-4.9c-1.88-2.38-3.2-4.05-4.98-6.3
		c-1.96,1.96-3.52,3.51-5.23,5.22C449.59,548.88,450.93,550.39,453.06,552.8z M394.03,509.7c-2.39-1.85-4.42-3.41-6.45-4.98
		c-5.14,3.86-5.02,5.48,1.15,10.53C390.08,513.83,391.47,512.38,394.03,509.7z M437.38,554.04c-1.93-1.84-3.7-3.52-6.28-5.97
		c-1.47,1.89-2.88,3.42-3.9,5.17c-0.36,0.61-0.09,2.24,0.44,2.6C431.22,558.27,434.13,557.74,437.38,554.04z M504.77,459.91
		c-5.13,3.98-5.33,5.4-1.45,8.82c0.77,0.68,2.85,1.14,3.22,0.72c0.85-0.95,1.64-2.69,1.33-3.8
		C507.33,463.7,505.94,461.98,504.77,459.91z M483.08,540.77c-0.5-0.05-1.01-0.1-1.51-0.15c-1.44,2.11-3.05,4.14-4.13,6.42
		c-0.19,0.39,2.32,2.87,2.84,2.65c2.1-0.9,4.44-2.15,5.59-3.97C486.34,544.98,484.09,542.48,483.08,540.77z M417.68,442.68
		c1.64-1.57,3.22-2.85,4.47-4.39c0.44-0.55,0.43-2.02,0-2.58c-0.57-0.73-1.98-1.57-2.66-1.33c-2.25,0.81-4.34,2.09-7.04,3.46
		C414.51,439.75,415.96,441.09,417.68,442.68z M405.59,544.64c2.69,2.06,5.04,3.86,7.35,5.63c2.95-3.3,2.22-4.92-3.72-9.03
		C408.22,542.18,407.17,543.15,405.59,544.64z M397.25,536.28c4.25-3.58,3.56-5.67-2.74-9.75c-0.77,0.7-1.58,1.44-2.61,2.38
		C393.71,531.4,395.4,533.73,397.25,536.28z M407.39,540.35c-1.77-2.15-3.32-4.04-5.28-6.43c-1.29,1.36-2.34,2.47-3.52,3.7
		c2,2.23,3.68,4.11,5.29,5.9C405.57,541.98,406.65,541.01,407.39,540.35z M512.75,482.02c-0.39-0.17-0.79-0.34-1.18-0.51
		c-1.52,1.66-3.04,3.32-4.81,5.26c2.03,1.83,3.78,3.4,5.53,4.98c0.3-0.18,0.6-0.36,0.9-0.54
		C513.04,488.14,512.89,485.08,512.75,482.02z M470.67,435.82c4.19,5.59,6.61,7.11,9.09,1.03
		C476.77,436.68,474.48,432.44,470.67,435.82z M502.7,527.75c3.63-5.13,3.96-6.92,1.79-9.08
		C498.56,522.66,498.18,524.41,502.7,527.75z M388.98,462.41c-1,3.48-3.51,5.87-1.99,10c2.3-2.16,4.12-3.87,6.42-6.03
		C391.93,465.05,390.71,463.96,388.98,462.41z M510.59,506.46c0.37-0.11,0.73-0.22,1.1-0.33c0.38-2.7,0.75-5.41,1.13-8.11
		c-0.42-0.2-0.83-0.39-1.25-0.59c-1.44,1.73-3.31,3.28-4.08,5.27C507.2,503.44,509.48,505.18,510.59,506.46z M444.51,428.97
		c-3.35,0.32-6.14,0.6-9.35,0.91C439.22,435.51,440.92,435.34,444.51,428.97z M474.53,547.46c-2.04,2.24-3.75,4.12-5.45,6
		c0.26,0.32,0.52,0.64,0.78,0.95c2.54-1.07,5.08-2.14,7.95-3.35C476.67,549.82,475.85,548.92,474.53,547.46z M388.32,518.21
		c-1.44,2.09,0.66,7.8,2.91,8.42c0.62-0.54,1.35-1.17,2.28-1.98C391.75,522.46,390.13,520.46,388.32,518.21z M454.81,434.36
		c1.27-1.48,2.3-2.68,3.77-4.39c-3.26-0.29-5.75-0.52-8.25-0.74c-0.11,0.24-0.21,0.48-0.32,0.71
		C451.5,431.32,453.01,432.7,454.81,434.36z M382.32,498.73c-0.3,0.15-0.59,0.31-0.89,0.46c0.39,2.1,0.78,4.2,1.32,7.11
		c1.46-1.56,2.28-2.43,3.24-3.46C384.66,501.35,383.49,500.04,382.32,498.73z M385.49,488.49c-0.96-1.5-1.65-2.58-2.34-3.66
		c-0.37,0.25-0.73,0.49-1.1,0.74c0,1.95,0,3.91,0,6.51C383.51,490.56,384.5,489.52,385.49,488.49z M423.63,432.3
		c-0.12,0.31-0.25,0.63-0.37,0.94c0.84,0.57,2.08,1.83,2.46,1.6c1.51-0.87,2.75-2.2,4.09-3.36c-0.16-0.23-0.33-0.47-0.49-0.7
		C427.42,431.29,425.53,431.8,423.63,432.3z M509.53,470.11c-3.3,2.25-2.92,3.44,2.34,7.18
		C510.98,474.57,510.27,472.4,509.53,470.11z M420.82,553.98c0.21-0.34,0.41-0.69,0.62-1.03c-1.22-1.36-2.43-2.71-4.13-4.6
		c-0.63,1.52-1.32,2.83-1.19,2.92C417.61,552.29,419.23,553.11,420.82,553.98z"/>
	<path d="M388.24,386.26c-2.96,0-5.93-0.07-8.89,0.02c-2.12,0.06-3.22-0.63-3.08-2.94c0.15-2.5,0.14-5.01,0.14-7.52
		c0-1.76,0.54-2.71,2.56-2.71c6.27,0.01,12.53-0.08,18.8-0.25c2.3-0.06,3.26,0.71,3.21,3.12c-0.25,11.87,1.53,10.11-10,10.36
		c-0.91,0.02-1.82,0-2.73,0C388.24,386.32,388.24,386.29,388.24,386.26z"/>
	<path d="M360.52,379.75c0.04,6.36-4.86,11.6-10.89,11.66c-5.81,0.06-10.49-4.94-10.44-11.14c0.05-5.98,4.62-10.19,10.56-10.65
		C356.22,369.13,360.93,374.93,360.52,379.75z M350.18,386.96c4.25-0.05,6.9-2.68,6.84-6.8c-0.06-3.76-2.87-6.35-6.95-6.4
		c-3.92-0.05-7.43,3.03-7.42,6.5C342.67,384.16,345.88,387.01,350.18,386.96z"/>
	<path d="M294.66,380.27c0.05,6.17-4.9,11.62-10.59,11.65c-5.96,0.03-10.76-4.81-10.81-10.9c-0.05-6.22,4.67-11,10.98-11.11
		C289.95,369.82,294.61,374.46,294.66,380.27z M283.48,374.18c-4.34-0.01-7.04,2.28-7.15,6.06c-0.12,4.16,3.19,7.14,7.83,7.07
		c3.92-0.06,7.04-2.89,7.06-6.39C291.24,376.82,288.21,374.19,283.48,374.18z"/>
	<path d="M316.42,370.11c5.77-0.01,10.2,4.32,10.28,10.04c0.08,6.23-5.23,11.5-11.52,11.45c-5.32-0.05-10.1-5.27-9.99-10.93
		C305.29,374.9,310.38,370.13,316.42,370.11z M315.94,374.01c-3.99,0.02-7.12,2.75-7.18,6.24c-0.06,3.99,2.83,7.04,6.67,7.04
		c4.51,0,7.78-2.65,7.82-6.33C323.3,377.13,320,374,315.94,374.01z"/>
	<path d="M263.35,380.09c0.04,6.21-4.8,11.56-10.53,11.65c-5.43,0.08-10.18-4.65-10.24-10.19c-0.07-6.67,4.42-11.33,10.91-11.32
		C259.34,370.22,263.32,374.2,263.35,380.09z M259.8,380.63c0.04-4.07-2.58-6.8-6.5-6.78c-3.93,0.02-7.29,3.04-7.39,6.63
		c-0.1,3.8,2.8,6.68,6.68,6.64C257.07,387.07,259.76,384.65,259.8,380.63z"/>
	<path d="M313.3,511.37c-9.47,0-18.94,0.01-28.41,0c-4.66-0.01-5.15-0.3-5.2-5.03c-0.19-15.97-0.22-31.94-0.31-47.91
		c-0.02-2.85-0.15-5.71,0.02-8.55c0.27-4.58,2.21-6.25,6.78-6.22c16.77,0.11,33.54,0.21,50.31,0.31c2.85,0.02,5.7-0.14,8.55-0.02
		c2.67,0.11,4.37,1.69,4.34,4.35c-0.22,19.05-0.45,38.09-0.92,57.13c-0.11,4.53-1.66,5.55-6.39,5.57
		c-9.58,0.05-19.17,0.01-28.75,0.01C313.3,511.14,313.3,511.26,313.3,511.37z M314.38,447.84c0-0.02,0-0.03,0-0.05
		c-9.12,0-18.24,0.04-27.36-0.03c-2.19-0.02-3.31,0.44-3.3,3.02c0.09,17.44,0.09,34.88-0.03,52.33c-0.02,2.9,0.95,3.67,3.74,3.65
		c14.25-0.12,28.5-0.06,42.75-0.09c3.3-0.01,6.61-0.09,9.91-0.14c3.37-0.05,4.44-1.6,4.48-5.09c0.18-16.07,0.66-32.13,1.14-48.19
		c0.15-4.82-0.33-5.43-5.34-5.41C331.7,447.87,323.04,447.84,314.38,447.84z"/>
	<path d="M510.62,378.99c-0.17,5.22-4.18,9.23-9.07,9.1c-5.21-0.14-8.73-3.83-8.6-9c0.14-5.28,4.31-9.27,9.48-9.08
		C507.39,370.2,510.79,373.93,510.62,378.99z"/>
	<path d="M311.75,492.06c-5.47,0-10.93-0.08-16.4,0.03c-2.69,0.06-4.11-0.97-4.18-3.69c-0.09-3.07-0.36-6.14-0.2-9.2
		c0.16-3.01,2.41-3.9,5.06-3.91c6.83-0.04,13.66-0.01,20.5-0.02c4.1-0.01,8.19-0.09,12.29-0.06c4.17,0.04,5.61,1.43,5.67,5.48
		c0.04,2.73,0.04,5.47-0.13,8.19c-0.14,2.28-1.28,3.41-3.83,3.16c-3.16-0.32-6.36-0.31-9.55-0.37c-3.07-0.05-6.15-0.01-9.22-0.01
		C311.75,491.79,311.75,491.93,311.75,492.06z M295.61,487.9c10.76,0,21.56,0.2,32.34-0.1c4.14-0.11,1.97-4.1,2.6-6.3
		c0.11-0.4-1.89-2.02-2.94-2.04c-8.76-0.19-17.53-0.17-26.3-0.16c-7.13,0.01-7.72,0.82-6.03,7.92
		C295.33,487.44,295.47,487.64,295.61,487.9z"/>
</g>
</svg>
