<?xml version="1.0" encoding="utf-8"?>
<!-- Generator: Adobe Illustrator 26.0.1, SVG Export Plug-In . SVG Version: 6.00 Build 0)  -->
<svg version="1.1" id="Layer_1" xmlns="http://www.w3.org/2000/svg" xmlns:xlink="http://www.w3.org/1999/xlink" x="0px" y="0px"
	 viewBox="0 0 680 680" style="enable-background:new 0 0 680 680;" xml:space="preserve">
<g>
	<path d="M219.38,385.78c1.26,0.13,2.51-0.12,3.08,0.38c4.78,4.22,8.96,2.07,13.72-0.44c27.04-14.27,62.34-9.97,85.52,10.3
		c18.69,16.34,30.14,37.39,38.29,60.38c1.75,4.93,1.2,10.66,2.74,15.7c2.95,9.63,8.38,11.94,17.8,7.98
		c15.88-6.67,27.42-17.7,33.33-34.15c1.59-4.41,3.24-8.8,4.76-13.24c5.98-17.42,17.44-29.65,34.89-35.63
		c18.35-6.28,36.62-13.12,55.43-17.62c21.86-5.24,43.95-2.66,65.37,3.97c3.4,1.05,8.36,4.27,8.59,6.84c0.43,4.89-5.06,6.77-9.23,7.6
		c-12.77,2.53-25.66,4.51-38.5,6.67c-1.43,0.24-2.9,0.29-5.37,0.52c1.39,1.54,2.16,2.47,3.01,3.32
		c5.31,5.31,10.85,10.42,15.89,15.98c2.44,2.69,3.9,1.54,5.77-0.16c6.48-5.87,7.03-5.83,13.52,0.03
		c11.14,10.06,20.48,21.57,28.45,34.27c2.76,4.4,3.9,8.82,2.63,13.83c-1.3,5.14,0.78,8.39,5.56,10.22
		c3.75,1.44,7.58,2.74,11.18,4.48c6.88,3.33,11.85,7.98,11.06,16.65c-0.41,4.49-0.22,9.05-0.05,13.56
		c0.54,14.1-7.53,19.65-20.46,22.18c-18.74,3.66-33.46-3.26-43.27-19.98c-1.04-1.77-2.61-3.22-4.9-5.98
		c-0.44,3.38-0.81,5.27-0.91,7.17c-0.55,11.28-9.76,21.85-21.2,23.44c-11.29,1.57-22.45,0.77-32.7-4.92
		c-2.49-1.38-4.31-1.61-6.82,0.08c-13.21,8.88-27.82,10.9-43.54,9.98c-18.86-1.1-37.8-0.51-56.7-1.05
		c-16.22-0.46-32.48-0.86-48.61-2.45c-14.24-1.41-26.88,2.3-38.93,8.98c-12.13,6.73-22.81,5.66-32.98-4.05
		c-2.42-2.31-6.48-3.49-9.96-4.02c-22.68-3.41-45.42-1.75-68.19-0.77c-20.39,0.87-40.83,1.42-61.23,1
		c-15.66-0.32-29.68-6.28-41.59-16.73c-0.99-0.87-2.13-1.58-3.67-2.71c-3.92,7.01-9.64,11.8-17.58,12.28
		c-3.77,0.23-8.13-0.73-11.41-2.59c-8.52-4.82-10.91-12.19-7.96-21.43c3.16-9.93,10.27-14.16,23.17-13.46
		c0.3-4.23,0.31-8.53,0.96-12.73c3.28-21.22,15.87-36.59,32.22-49.09c17.35-13.26,38.11-17.63,59.19-20.31
		c18.22-2.32,34.79-7.99,48.74-20.4C224.18,394.65,224.63,392.22,219.38,385.78z M300.77,439.96c0.55,0.29,1.1,0.58,1.65,0.88
		c-2.48,6.25-4.78,12.58-7.46,18.74c-5.81,13.34-12.28,26.42-17.58,39.96c-4.61,11.79-5.5,24.15-1.04,36.39
		c5.08,13.92,14.69,19.16,28.38,13.59c8.99-3.65,17.29-9.4,25.23-15.13c18.14-13.08,26.6-31.4,24.83-53.5
		c-2.54-31.72-16.61-58.21-39.45-80.13c-20.57-19.73-64.06-25.96-89.54,1.7c-9.47,10.28-21.62,16.95-35.36,20.03
		c-12.89,2.89-25.94,5.05-38.86,7.8c-23.55,5.02-43.28,16.16-56.16,37.15c-7.49,12.22-11.39,25.56-6.3,39.77
		c4.61,12.88,14.32,21.08,26.64,26.51c15.7,6.92,32.35,6.57,48.9,6.24c11.69-0.23,23.36-1.97,35.05-2.18
		c17.9-0.32,35.81-0.03,53.72,0.24c11.03,0.17,14.51-2.33,13.47-13.13c-1.65-17.11,3-32.62,10.66-47.32
		c6.01-11.54,13.22-22.47,19.97-33.63C298.39,442.5,299.68,441.29,300.77,439.96z M557.03,462.79c-0.66,0.24-1.33,0.48-1.99,0.72
		c-4.42-2.35-5.12-7.05-6.53-11.36c-2.32-7.12-3.84-14.69-7.29-21.22c-7.75-14.66-20.71-23.9-35.6-30.43
		c-7.16-3.14-14.82-4.56-22.56-2.4c-10.29,2.87-20.49,6.08-30.69,9.26c-1.72,0.54-3.36,1.54-4.84,2.6c-2.76,2-3.85,4.83-2.24,7.94
		c2.86,5.51,1.99,11.1-0.55,15.98c-5.25,10.07-11.03,19.88-17.11,29.47c-2.87,4.53-7.67,6.6-13.16,4.79
		c-4.14-1.36-7.59-0.18-10.89,2.03c-3.05,2.04-5.88,4.43-8.97,6.41c-6.59,4.22-12.93,9.14-20.06,12.16
		c-6.6,2.8-10.03,6.88-12.04,13.5c-1.87,6.15-4.93,11.94-7.51,17.88c-1.39,3.2-3.38,6.24-4.19,9.57c-1.16,4.75,0.95,8.11,5.32,8.49
		c14.29,1.25,28.6,2.59,42.92,3.09c19.55,0.68,39.12,0.67,58.69,0.86c6.17,0.06,12.35,0.03,18.5-0.33
		c11.32-0.66,25.63-15.14,26.17-22.83c0.74-10.62-1.47-20.65-5.01-30.48c-0.59-1.65-1.86-3.24-3.2-4.43
		c-5.84-5.2-12.46-9.06-20.2-10.62c-1.91-0.38-3.96-0.06-6.5-0.06c0.62,1.74,1.01,2.47,1.13,3.25c0.29,1.78,0.44,3.58,0.65,5.38
		c-1.9,0.08-4.05,0.78-5.64,0.12c-2.89-1.2-5.34-3.4-8.17-4.8c-1.62-0.8-3.98-1.68-5.39-1.08c-5.6,2.42-6.45,11.26-1.69,14.99
		c2.23,1.75,4.88,3.11,6.69,5.21c1.07,1.23,0.87,3.55,1.24,5.38c-1.82,0.15-3.68,0.63-5.44,0.36c-1.77-0.27-3.43-1.28-5.11-1.95
		c-2.82,6.4,2.78,8.33,5.39,11.88c-3.42,3.39-7.13,2.92-10.99,2.48c-4.28-0.48-8.62-0.85-12.92-0.74
		c-11.38,0.27-22.74,0.9-34.12,1.23c-2.83,0.08-5.84,0.04-8.44-0.86c-1.66-0.57-2.74-2.84-4.08-4.34c1.58-1.25,3.01-3.16,4.78-3.57
		c2.35-0.55,4.98,0.15,7.48,0.2c8.01,0.15,16.02,0.27,24.03,0.35c4.51,0.04,9.03,0.09,13.53-0.1c1.87-0.08,4.15-0.29,5.38-1.4
		c0.66-0.6-0.09-3.51-0.97-4.89c-2.16-3.36-2.33-6.42-0.17-9.81c0.88-1.38,1.28-3.09,1.79-4.68c4.7-14.43,9.89-17.96,24.98-16.92
		c6.95,0.48,8.89-2.92,7.33-9.65c-1.09-4.68,0.06-9.88,0.2-14.85c0.66-0.02,1.33-0.04,1.99-0.06c0.48,2.51,0.73,5.08,1.47,7.51
		c2.21,7.26,4.64,13.97,12.34,18.03c7.1,3.74,14.87,7.67,17.98,16.02c2.1,5.62,3.9,11.44,5,17.33c1.62,8.61,4.25,17.47-2.17,25.59
		c-0.41,0.52,1.14,3.7,2.38,4.23c8.93,3.8,18.34,5.45,28,4.16c9.83-1.31,15.25-8.07,15.55-17.89c0.13-4.31,0.64-8.71,1.81-12.84
		c0.72-2.55,3.03-4.64,4.98-7.45c4.47,7.13,8.06,13.15,11.92,18.98c9.27,14.02,22.63,17.93,38.53,15.11
		c5.6-0.99,9.56-4.1,11.89-10.26c-3.2-0.19-5.82-0.32-8.43-0.5c-2.44-0.17-4.87-0.4-7.3-0.6c-0.04-0.71-0.09-1.43-0.13-2.14
		c2.94-0.64,5.85-1.55,8.82-1.88c9.53-1.04,10.49-2.01,10.07-11.4c-0.42-9.35-1.89-10.29-10.78-7.42c-3,0.97-6.31,2.78-9.65-1.39
		c1.73-0.97,3.11-2.03,4.66-2.53c1.73-0.55,3.62-0.57,5.44-0.82c0.11-0.48,0.23-0.96,0.34-1.43c-1.57-1-3.02-2.3-4.73-2.92
		c-2.66-0.97-5.49-1.46-8.24-2.17c-7.62-1.96-9.7-4.61-8.07-12.2c1.58-7.32-0.12-13.69-4.31-19.44
		c-5.13-7.03-10.61-13.79-16.03-20.6c-1.24-1.56-2.58-3.34-4.29-4.18c-3.1-1.51-6.85-3.84-9.72-3.18c-4.38,1-5.11,5.78-4.79,9.99
		c0.24,3.15,1.01,6.26,1.45,9.4C555.72,452.68,556.36,457.74,557.03,462.79z M510.16,384.2c4.81,2.64,8.03,7.21,14.23,5.64
		c1.48-0.38,4.45,1.31,5.28,2.84c3.14,5.75,8.26,7.71,13.94,6.83c10.18-1.57,20.23-4.02,30.3-6.27c1.44-0.32,2.67-1.62,4.07-2.51
		C571.17,382.82,519.05,378.34,510.16,384.2z M61.38,518.1c4.85-1.48,9.38-2.78,13.85-4.28c1.2-0.4,3.23-1.72,3.12-2.09
		c-0.56-1.87-1.41-4.83-2.69-5.12C68.76,505.02,59.62,507.91,61.38,518.1z M430.14,419.28c-0.65-0.27-1.31-0.55-1.96-0.82
		c-2.25,4.81-4.49,9.62-6.74,14.43c0.42,0.2,0.84,0.4,1.26,0.6C425.18,428.76,427.66,424.02,430.14,419.28z"/>
	<path d="M189.42,384.65c0-9.03,0-18.06,0-28.58c-4.07,2.84-6.73,4.7-9.87,6.89c-1.07-1.93-2.08-3.73-3.26-5.85
		c6.53-4.83,12.78-9.46,20.06-14.85c0,10.29,0,19.49,0,30.03c4.04-2.76,6.96-4.75,10.34-7.07c1.05,1.9,1.98,3.56,3.25,5.85
		c-6.42,4.77-12.72,9.45-19.02,14.13C190.43,385.01,189.92,384.83,189.42,384.65z"/>
	<path d="M224.52,352.8c3.11-2.15,5.14-3.55,7.57-5.22c0.94,1.67,1.77,3.16,2.78,4.96c-5.43,4.05-10.59,7.9-16.62,12.4
		c0-7.31,0-13.66,0-20.87c-2.84,1.8-4.86,3.08-7.08,4.49c-0.9-1.63-1.68-3.05-2.69-4.88c5.18-3.83,10.21-7.55,16.04-11.85
		C224.52,339.08,224.52,345.41,224.52,352.8z"/>
	<path d="M248.91,313.7c0,7.35,0,13.58,0,20.78c2.94-1.9,5.21-3.37,7.78-5.02c0.86,1.6,1.63,3.02,2.65,4.9
		c-5.27,3.93-10.41,7.77-16.49,12.3c0-7.29,0-13.58,0-20.94c-2.83,1.89-4.7,3.13-7.09,4.72c-0.87-1.52-1.71-3-2.79-4.89
		C238.18,321.68,243.16,317.98,248.91,313.7z"/>
	<path d="M319.59,440.45c1.27-1.7,2.26-3.36,3.58-4.7c1.08-1.09,2.55-1.79,3.85-2.66c0.47,1.46,1.16,2.88,1.36,4.38
		c0.2,1.5-0.08,3.06-0.16,4.6c0.5,0.16,0.99,0.32,1.49,0.48c0.73-1.26,1.49-2.51,2.18-3.79c1.97-3.66,4.49-4.11,6.08-0.46
		c4.37,10.09,10.14,20.17,11.58,30.76c1.54,11.3-0.43,23.33-2.35,34.79c-1.89,11.29-8.71,20.18-18.36,26.51
		c-7.81,5.13-15.49,10.63-23.84,14.71c-9.97,4.86-18.79,1.49-22.78-8.39c-1.55-3.83-1.98-9.26-0.47-12.97
		c4.62-11.32,6.33-23.18,8.42-35.02c3.25-18.35,13.48-33.7,21.83-49.82C314.31,434.44,315.82,434.89,319.59,440.45z M315.84,474.01
		c0.62,0.37,1.23,0.74,1.85,1.12c2.61-4.46,5.33-8.86,7.72-13.43c0.41-0.79-0.56-2.3-0.89-3.48c-1.08,0.54-2.77,0.81-3.14,1.66
		C319.35,464.51,317.65,469.28,315.84,474.01z"/>
	<path d="M226.22,462.43c-2.35,0-3.58,0.39-4.13-0.06c-6.5-5.32-13.05-10.61-19.21-16.31c-1.1-1.02-0.51-3.87-0.7-5.88
		c1.81,0.74,3.98,1.07,5.35,2.3c4.94,4.44,9.67,9.11,14.33,13.84C223.36,457.85,224.39,459.83,226.22,462.43z"/>
</g>
</svg>
