<?xml version="1.0" encoding="utf-8"?>
<!-- Generator: Adobe Illustrator 26.0.1, SVG Export Plug-In . SVG Version: 6.00 Build 0)  -->
<svg version="1.1" id="Layer_1" xmlns="http://www.w3.org/2000/svg" xmlns:xlink="http://www.w3.org/1999/xlink" x="0px" y="0px"
	 viewBox="0 0 680 680" style="enable-background:new 0 0 680 680;" xml:space="preserve">
<g>
	<path d="M335.69,517.76c-7.28-10.37-15.94-13-27.87-13.08c-22.62-0.15-50.35-17.64-53.1-44.68c-0.3-2.93-0.35-6.08,0.41-8.87
		c2.14-7.91,6.36-9.63,11.8-3.42c11.3,12.87,25.6,13.06,40.53,11.81c2.66-0.22,6.2-1.46,7.58-3.45
		c18.21-26.19,24.52-56.09,26.26-87.27c0.11-1.9-1.13-4.63-2.65-5.76c-13.32-9.96-13.8-11.21-7.13-26.16
		c-10.44-5.97-21.01-12.01-31.85-18.2c-14.22,39.12-38.78,48.77-69.2,29.35c-8.54,8.48-16.5,17.33-25.47,25
		c-7.39,6.32-16.48,7.3-25.49,2.87c-18.99-9.34-37.39-19.25-52.14-35.23c-14.19-15.37-21.55-33.47-22.58-53.55
		c-1.56-30.54,3.11-60.17,19.51-86.99c1.6-2.62,2.14-6.28,2.1-9.45c-0.36-33.05,8-63.83,24.84-92.08
		c16.67-27.98,41.09-43.45,74.45-43.38c8.6,0.02,17.3-1.89,25.76-1.01c6.59,0.68,12.74,4.92,19.34,6.51
		c13.64,3.29,27.45,5.86,42.52,6.78c-7.04-4.48-14.07-8.97-22.14-14.11c-0.02-4.43,2.53-6.54,8.67-4.65
		c9.84,3.03,15.25,10.23,19.61,18.97c1.39,2.78,4.33,5.55,7.21,6.71c14.1,5.69,27.53,5.39,42.67,0.26
		c42.97-14.56,84.42-7.27,120.17,19.61c30.79,23.15,45.59,62.96,37.79,97.13c-4.42,19.37-16.96,34.76-32.74,45.83
		c-24.09,16.9-49.41,32.12-74.69,47.23c-11,6.58-19.5,13.95-20.92,28.3c13.56,0.4,20.42,7.52,21.76,20.93
		c0.23,2.33,4.83,5.38,7.88,6.09c19.22,4.48,38.58,8.38,57.89,12.49c14.65,3.12,29.28,6.27,42.13,9.02
		c4.53-7.73,6.53-15.42,11.47-18.73c12.77-8.56,35.54,1.29,37.4,16.51c1.32,10.79,5.62,15.67,15.51,18.13
		c3.97,0.99,7.77,4.08,10.84,7.04c10.61,10.24,6.57,26.09-7.61,29.57c-5.75,1.41-11.86,1.33-18.78,2.02
		c1.57,13.19,2,26.35-14.35,30.74c-14.23,3.81-21.94-0.11-31.2-15.04c-21.89,3.62-30.24-1.14-33.49-19.89c-4.66,0-9.49,0-13.25,0
		c0.76,11.97,1.91,24.21,2.26,36.48c0.75,26.49-9.5,47.65-29.6,65.28c-4.76,4.17-3.88,14.76-6.29,25.49
		c18.11-1.58,32.58-3.43,47.1-3.99c25.29-0.98,50.28-0.94,71.2,17.52c13.3,11.74,18.37,26.15,17.5,42.97
		c-0.86,16.6-8.97,24.12-25.49,27.03c-39.07,6.87-77.97,5.86-117.19,0.65c-12.5-1.66-25.7,2.64-38.62,3.29
		c-43.21,2.16-86.42,4.39-129.67,5.54c-14.96,0.4-30-2.28-45-3.63c-1.98-0.18-4-0.6-5.85-1.31c-32.58-12.52-34.17-36.96-11.84-64.9
		c14.41-18.03,35.31-26.38,58.56-26.84c13.04-0.26,26.2,0.18,39.13,1.75c6.94,0.84,11.42,0.02,15-6.14
		C328.98,526.27,332.49,522.17,335.69,517.76z M413.31,274.08l0.24,0.14c1.84-1.95,3.44-4.23,5.56-5.8
		c21.73-16.11,48.72-27.97,47.86-64.43c3.4,3.66,5.98,5.23,5.83,6.46c-3.38,26.91-23.56,41.23-42.95,56.2
		c26.97-11.35,51.22-26.51,70.19-48.82c31.34-36.88,19.93-99.61-22.47-123.68c-34.74-19.72-71.18-24.57-109.32-10.55
		c-13.98,5.14-27.87,5.23-42.37,1.09c-22.83-6.53-46.03-11.77-68.99-17.87c-5.49-1.46-8.35-0.06-9.36,5.38
		c-1.1,5.91-2.16,11.82-3.24,17.73c-1,0.06-2,0.12-3,0.18c-1.46-8.2-2.93-16.39-4.57-25.59c-25.07-2.07-46.49,7.26-64.92,25.45
		c-17.97,17.74-40.14,68-35.79,93.52c10.97-8.61,22.31-17.51,32.1-25.2c9.68,17.2,17.81,33.22,27.37,48.33
		c18.05,28.52,29.43,59.41,33.99,92.64c1.33,9.69,5.83,12.3,14.26,12.21c12.76-0.14,25.53,0.35,38.27-0.24
		c21.77-1,39.95,6.5,55.57,21.36c1.77,1.68,5.44,3.02,7.6,2.38c15.68-4.65,31.2-9.85,47.47-15.1
		c-4.41-23.56,10.62-35.52,26.63-46.86C417.27,273.37,415.29,273.73,413.31,274.08z M370.01,536.96c0.04-0.51,0.08-1.03,0.12-1.54
		c3.89-0.47,7.88-0.57,11.66-1.48c14.23-3.41,29.11-5.37,42.46-10.96c65.5-27.42,67.43-102.7,34.51-137.66
		c-13.94-14.81-29.99-27.66-45.37-41.07c-1.79-1.56-5.7-1.97-8.15-1.27c-17.04,4.9-34.01,10.1-50.86,15.62
		c-2.24,0.73-5.22,3.78-5.28,5.83c-0.45,15.24-0.24,30.51-0.24,46.14c1.79-0.34,4.86-0.94,9.22-1.78
		c-2.94-10.76-5.55-20.33-8.16-29.9c11.54,7.57,11.57,19.51,13.37,30.13c5.07,1.31,9.49,2.46,13.92,3.6
		c-7.91,2.5-15.95,1.42-22.62,3.94c-4.93,1.87-9.8,7.96-11.23,13.12c-0.64,2.32,6.72,8.94,11.31,10.06
		c4.99,1.22,11.02-1.53,16.53-2.85c2.22-0.53,4.25-1.86,8.17-3.65c-4.89,7.75-9.23,13.15-11.93,19.27
		c-3.49,7.92-0.25,16.44,6.92,18.64c7.24,2.22,17.81,2.11,23.59-1.85c5.72-3.91,7.27-13.9,11.25-22.51
		c1.99,12.87,2.33,31.74,20.9,22.59c18.1-8.91,5-22.43-2.73-33.85c3.94,0.84,6.47,3.12,9.36,3.77c3.52,0.8,8.47,1.65,10.72-0.14
		c2.46-1.95,4.32-7.63,3.21-10.38c-1.62-4.02-5.63-8.77-9.52-9.79c-6.22-1.62-13.17-0.43-20.03-0.43
		c-3.45-31.88-33.14-37.44-51.83-54.1c18.04,6.53,35.65,13.44,48.47,28.34c2.78,3.23,5.9,7.31,6.25,11.23
		c0.8,8.85,5.24,9.66,12.75,9.27c14.83-0.78,20.74,5.33,21.45,18.87c0.57,10.88-6.78,13.1-14.77,14.61
		c4.74,28.83-5.29,35.69-34.82,24.6c-11.02,10.08-23.83,10.17-36.52,4.87c-12.19-5.1-11.89-16.42-10.23-27.28
		c-7.41-2.34-14.17-4.47-20.89-6.59c-2.48,20.48,1.87,41.3-8.33,60.98c5.49,4.73,11.25,9.71,16.32,14.08
		c-13.08,11.12-16.62,31.77-36.87,36.43c1.22-2.81,1.93-4.44,3.03-6.97c-6.87-0.86-13.12-1.9-19.42-2.4
		c-33.85-2.72-63.88,3.75-81.89,36.34c-10.63,19.22-8.5,26.48,13.24,36.27c6.43,2.9,14.16,2.9,21.97,4.36
		c-10.62-23.31-7.8-41.9,6.03-44.36c-10.58,19.1-11.32,27.57-3.94,38.03c8.65,12.25,20.65,4.34,31.42,6.93
		c-2.21-15.12-5.38-29.14,6.67-39.17c-1.19,10.29-2.8,20.57-3.4,30.91c-0.3,5.18,2.52,8.3,8.82,8.08
		c42.59-1.49,85.2-2.44,127.78-4.08c12.49-0.48,16.83-7.76,13.41-19.82c-4.68-16.5-31.47-35.6-48.91-34.37
		c-2.16,0.15-4.12,3.15-7.42,5.84c0-10.31,0-19.99,0-29.46C376.12,538.94,373.07,537.95,370.01,536.96z M442.15,615.11
		c14.29,0.68,28.59,1.44,42.9,2c11.48,0.45,16.32-4.14,12.94-15.02c-3.1-9.99-9.27-19.02-13.23-26.79
		c12.74,2.44,19.93,15.56,19.25,40.33c17.75,3.26,27.07,1.29,29.65-7.95c6.43-23.02-3.81-36.73-26.66-42.8
		c10.97-0.66,20.26,2.54,26.61,10.2c9.5,11.46,9.23,25.09,4.46,40c8.94-1.38,17.44-1.19,24.5-4.28c5.37-2.35,10.37-8.22,12.83-13.73
		c1.91-4.27,0.45-10.63-0.91-15.68c-6.24-23.2-24.99-37.52-51.01-37.44c-22.76,0.06-45.52,1.86-68.27,3.21
		c-2.23,0.13-4.33,2.52-8.89,5.36c-0.9-11.25-1.7-21.25-2.44-30.38c-14.37,5.1-29.08,10.24-43.7,15.62
		c-1.54,0.57-3.03,2.38-3.72,3.97c-2.37,5.48-4.38,11.12-6.52,16.7C435.5,575.36,444.15,584.48,442.15,615.11z M542.58,416.53
		c-4,5.9-5.62,13.12,1.87,19.26c9.94,8.15,25.34,2.09,26.89-10.61c0.63-5.18,0.1-10.49,0.1-14.35c6.53-0.66,12.46,0.19,16.73-2.09
		c4.38-2.33,9.32-7.42,9.92-11.86c0.52-3.83-3.78-9.85-7.61-12.4c-7.1-4.74-15.1-9.5-23.51-4.16c0.89-6.23,2.58-12.11,2.37-17.93
		c-0.3-8.32-8.94-15.72-16.91-15.53c-9.09,0.21-11.34,7.01-12.92,14.11c-0.96,4.32-1.44,8.75-1.83,11.22
		c-4.2-2.06-7.67-4.77-11.5-5.48c-26.3-4.86-52.68-9.31-79.04-13.87c-5.58-0.97-11.17-1.87-16.76-2.8c0.92-0.51,1.85-1.03,2.77-1.54
		c11.2,12.81,24.64,24.33,32.94,38.8c7.66,13.35,16.98,15.94,30.18,15.52c6.34-0.2,11.65-0.79,15.98-6.06
		c1.98-2.41,5.33-3.71,8.06-5.51c-2.67,6.24-6.93,10.5-10.13,15.44c-6.6,10.2-2.45,18.7,9.55,17.74
		C527.68,423.79,535.31,419.18,542.58,416.53z M263.36,451.06c-7.53,22.14,28.93,49.49,45.7,43.65c-1.42-9.04-2.83-17.98-4.33-27.52
		C289.71,467.05,273.57,469.32,263.36,451.06z"/>
	<path d="M420.39,152.11c9.32,2.97,17.12,4.18,23.58,7.79c12.03,6.73,12.44,22.74-0.18,27.91c-12.6,5.16-26.89,7.21-40.62,8.19
		c-8.25,0.59-14.51-6-16.83-14.81c-2.27-8.62,1.68-14.67,8.71-18.3C403.39,158.61,412.31,155.49,420.39,152.11z"/>
	<path d="M308.25,111.47c-18.89,1.89-25.54,9.57-22.09,24.78c0.55,2.42,3.74,5.93,5.84,6.01c10.16,0.41,12.95,6.87,13.84,15.18
		c0.42,3.97,0.99,8.18,0.12,11.96c-0.79,3.41-3.32,8.91-5.33,9.01c-4.03,0.21-10.55-1.48-11.96-4.38
		c-7.45-15.29-14.25-31.2-10.91-48.87C280.72,109.41,294.5,102.81,308.25,111.47z"/>
	<path d="M345.55,111.65c-15.2,1.01-17.78,4.27-16.69,19.88c10.54,2.74,18.79,8.75,19.66,20.44c0.3,3.95-3.4,11.66-5.25,11.65
		c-5.22-0.02-14.11-2.11-14.99-5.24c-3.36-11.92-5.9-24.65-5.36-36.93C323.42,109.89,332.99,106.25,345.55,111.65z"/>
	<path d="M321.55,275.78c-21.28-3.02-37.33-15.25-51.15-30.46c-2.47-2.72-1.21-9.53-0.35-14.21c0.3-1.62,4.57-3.34,7.05-3.37
		c1.16-0.01,3.84,4.33,3.34,5.92c-5.44,17.28,8.53,22.57,18.5,29.79c6.88,4.98,14.87,8.43,22.38,12.56
		C321.34,275.99,321.55,275.78,321.55,275.78z"/>
	<path d="M413.31,274.08c-26.28,10.2-53.26,9.23-80.41,4.85c-3.84-0.62-7.55-2.1-11.33-3.16c-0.01,0.01-0.22,0.23-0.24,0.24
		c8.22,0.55,16.48,1.79,24.68,1.48c20.53-0.77,41.03-2.26,61.54-3.42c1.97-0.11,3.96,0.07,5.97,0.13
		C413.55,274.23,413.31,274.08,413.31,274.08z"/>
</g>
</svg>
