<?xml version="1.0" encoding="utf-8"?>
<!-- Generator: Adobe Illustrator 26.0.1, SVG Export Plug-In . SVG Version: 6.00 Build 0)  -->
<svg version="1.1" id="Layer_1" xmlns="http://www.w3.org/2000/svg" xmlns:xlink="http://www.w3.org/1999/xlink" x="0px" y="0px"
	 viewBox="0 0 680 680" style="enable-background:new 0 0 680 680;" xml:space="preserve">
<g>
	<path d="M261.77,180.29c-2.04,1-4,2.36-6.15,2.89c-1.63,0.4-3.51-0.26-5.28-0.45c0.9-1.57,1.46-3.99,2.79-4.53
		c2.74-1.13,5.94-1.86,8.87-1.67c3.65,0.24,6.05-0.65,8.54-3.44c5.09-5.7,10.02-11.94,16.26-16.12
		c11.73-7.86,23.54-16.09,38.08-18.34c0.65-0.1,1.23-0.62,2.25-1.16c-6.21-5.4-13.45-6.46-20.79-7.44
		c-2.01-0.27-4.01-1.31-5.73-2.42c-0.32-0.2,0.4-3.35,1.17-3.62c1.85-0.65,4.21-1,6.03-0.41c7.91,2.58,15.71,5.52,23.54,8.36
		c0.84,0.31,1.87,0.61,2.37,1.26c2.06,2.62,3.96,5.38,5.91,8.09c-2.34,1.09-4.6,2.44-7.04,3.22c-14.06,4.46-28.03,9.28-39.61,18.72
		c-7.45,6.07-14.69,12.65-20.92,19.94c-9.82,11.49-22.14,16.82-36.66,19.57c-12.6,2.38-24.85,6.66-37.2,10.3
		c-20.27,5.97-33.32,21.32-45.09,37.21c-5.25,7.09-7.21,17.05-9.17,26.04c-1.84,8.45-2.86,17.43-2.16,26
		c0.9,10.89,2.43,22.19,6.37,32.26c4.89,12.49,15.74,20.99,26.2,29.16c14.64,11.45,31.69,17.78,49.38,22.55
		c5.19,1.4,10.67,1.76,16.42,2.65c-0.02-4.96-4.19-6.05-6.97-7.33c-5.1-2.35-8.25-5.4-9.1-11.16c-0.87-5.91-3.34-10.81-10.47-11.38
		c-1.43-0.12-2.77-1.49-4.47-2.48c1.84-3.54,3.53-4.84,6.9-2.18c5,3.93,9.41,7.66,11.53,14.45c1.22,3.9,6.86,6.42,10.53,9.54
		c1.8,1.53,3.95,2.77,5.38,4.59c9,11.5,21.53,13.19,34.85,12.97c15.08-0.25,28.86-5.81,40.94-13.61
		c10.52-6.8,21.1-15.38,22.36-30.03c0.12-1.36,1.76-3.03,3.11-3.68c0.83-0.4,3.57,0.98,3.54,1.38c-0.14,1.6-0.94,3.18-1.7,4.66
		c-1.03,2.04-2.79,3.85-3.3,5.98c-2.22,9.31-10.12,14.08-16.1,20.25c-12.88,13.29-29.62,18.59-47.34,21.49
		c-1.38,0.23-2.77,0.42-4.6,1.35c5.43,4.79,7.16,13.09,15.91,14.39c17.82,2.66,35.53,3.04,53.14-1.46c3.67-0.94,5.87-2.6,6.85-6.69
		c3.73-15.54,13.47-26.24,27.88-32.86c2.59-1.19,5.11-2.29,3.13-6.06c-9.21-17.52-9.36-36.18-5.38-54.83
		c2.49-11.67,7.05-22.89,10.54-34.35c1.37-4.5,2.31-9.12,3.57-13.65c0.64-2.28,1.56-4.48,2.35-6.72c0.74,0.17,1.48,0.34,2.23,0.51
		c-0.72,4.59-1.08,9.27-2.24,13.75c-1.35,5.24-3.86,10.2-5.03,15.47c-2.49,11.18-5.32,22.4-6.34,33.75
		c-0.87,9.71-0.79,19.93,1.33,29.37c3.44,15.33,12.22,27.83,26.03,36.12c11.16,6.7,22.57,3.29,33.85,0.3
		c15.92-4.22,26.78-14.69,33.33-29.27c2.68-5.97,3.69-12.98,4.1-19.6c0.56-9.08,0.15-18.27-0.53-27.36
		c-0.3-4.06-1.92-8.15-3.53-11.97c-5.5-13.06-11.35-25.97-16.83-39.03c-0.71-1.7-0.27-4.06,0.2-5.98c0.15-0.6,2.84-1.37,3.19-0.99
		c1.35,1.48,2.77,3.29,3.15,5.18c0.8,4.03,1.17,8.06,5.63,10.95c0.48-1.71,0.94-2.68,1-3.67c1.02-18.47-1-36.71-10.15-52.85
		c-6.83-12.04-15.84-22.96-24.69-33.72c-12.23-14.85-29.34-23.65-44.89-34.34c-1.13-0.78-1.67-2.4-2.49-3.63
		c1.48-0.24,2.99-0.83,4.42-0.67c11.25,1.23,19.59,8.5,28.23,14.61c24.69,17.46,43.48,39.8,53.75,68.63
		c5.14,14.42,4.55,29.46,4,44.43c-0.13,3.44-0.62,6.9-1.3,10.28c-1.36,6.82,1.09,12.66,3.34,18.95c2.65,7.4,4.52,15.43,4.78,23.25
		c0.36,10.86-0.46,21.85-1.89,32.64c-2.85,21.41-16.94,34.13-35.71,41.88c-12.47,5.15-25.88,6.67-38.84,1.44
		c-5.26-2.12-10.02-5.88-14.44-9.57c-7.74-6.47-11.01-7.21-19.63-2.38c-3.64,2.04-7.11,4.42-10.5,6.86
		c-6.56,4.71-8.7,11.88-9.99,19.3c-0.25,1.45,1.77,3.17,2.04,4.88c0.56,3.55,0.62,7.17,0.96,10.76c0.29,3.03-0.39,6.93,1.23,8.91
		c6.97,8.56,14.83,16.39,22,24.8c11.81,13.87,22.22,28.47,21.79,48c-0.07,3.01,0.87,6.04,1.43,9.65c1.79-0.47,3.2-0.62,4.42-1.19
		c6.11-2.83,11.95-1.63,18.01,0.49c5.54,1.94,11.3,3.42,17.07,4.48c4.28,0.78,3.11,3.52,2.6,5.74c-2.3,9.98-9.4,16.54-16.57,23.16
		c-6.96,6.43-15.06,8.42-24.18,7.75c-2.18-0.16-4.39,0.08-6.58-0.04c-7.22-0.38-13.18,1.32-19.75,5.47
		c-14.86,9.39-31.76,12.26-49.43,9.51c-6.47-1.01-13.07-1.13-19.57-1.99c-13.82-1.84-24.26,4.56-33.45,13.67
		c-7.75,7.68-15.87,14.73-26.73,17.34c-13.06,3.14-25.41,1.2-37.62-4.71c-8.02-3.89-13.82-9.83-19.56-16.09
		c-2.4-2.61-4.69-2.61-7.81-1.47c-10.35,3.78-20.99,6.27-32.04,3.81c-15.12-3.37-23.43-14.83-30.47-27.19
		c-14.3-25.08-9.65-50.01,2.42-74.15c3.37-6.74,9.79-11.92,14.56-18.01c1.09-1.39,1.99-3.9,1.49-5.41
		c-5.87-17.7,10.06-42.43,29.46-45.83c13.18-2.31,25.2-0.57,36.39,6.94c1.61,1.08,4.17,1.83,5.96,1.38
		c18.36-4.55,34.92-0.68,50.32,9.84c1.15,0.79,3.76,0.86,4.73,0.08c0.88-0.71,1.2-3.54,0.49-4.58c-3.38-5-1.88-8.87,1.99-12.59
		c3.09-2.97,2.02-5.64-1.06-7.63c-10.17-6.56-20.82-11.33-33.27-12.57c-26.48-2.64-50.89-12.22-71.76-28.36
		c-15.81-12.22-27.98-28.27-30.96-49.15c-2.85-19.99-3.58-39.97,3.97-59.28c3.58-9.17,7.68-17.96,14.9-25.17
		c11.66-11.66,22.95-23.84,39.09-29.17c12.19-4.02,24.84-6.61,37.13-10.36c9.32-2.84,18.44-6.39,27.54-9.91
		c1.85-0.72,3.2-2.74,4.78-4.17C262.38,181.27,262.08,180.78,261.77,180.29z M211.34,452.25c-0.08,0.74,0.07,1.57-0.27,2.03
		c-6.81,9.18-4.86,19.45-3.59,29.56c0.64,5.14,4.7,5.8,8.96,6.01c4.85,0.24,4.6-2.88,5.16-6.41c1.24-7.87,3.12-15.66,5.06-23.4
		c0.38-1.51,2.09-2.79,3.43-3.88c0.46-0.38,2.14-0.15,2.4,0.3c0.43,0.75,0.48,2.03,0.13,2.85c-1.91,4.46-4.64,8.68-5.86,13.31
		c-1.56,5.92-2.96,12.48,2.21,17.52c4.97,4.85,11.08,6.07,17.62,3.21c4.27-1.87,8.43-4.02,12.63-6.05c2.43-1.17,4.58-3.11,6.48,1.21
		c0.95,2.17,3.72,3.94,6.08,4.99c4.3,1.93,8.88,3.27,13.38,4.74c13.25,4.31,26.12,4.59,38.27-3.55c4.1-2.75,8.45-5.14,13.2-8
		c-0.82,8.21,5.92,8.68,10.76,11.17c2.42,1.24,4.8,2.56,7.2,3.85c-0.17,0.48-0.34,0.95-0.51,1.43c-1.31-0.11-2.67-0.01-3.91-0.36
		c-4.55-1.27-8.99-3.08-13.62-3.9c-3.13-0.55-6.92-0.69-9.66,0.59c-10.36,4.86-20.66,9.19-32.46,6.68
		c-10.39-2.2-18.07,4.19-17.97,14.95c0.03,3.2,0,6.39,0,9.59c-0.67,0.19-1.34,0.38-2.01,0.57c-0.7-1.41-1.83-2.75-2.03-4.23
		c-0.72-5.22-0.87-10.53-1.73-15.72c-0.65-3.89-1.56-7.89-3.24-11.42c-2.31-4.85-6.91-6.04-11.79-3.85
		c-8.4,3.77-16.73,5.58-25.83,1.68c-4.32-1.85-9.3-2.52-14.05-2.91c-7.27-0.6-14.13-1.67-18.93-7.9c-1.97-2.55-3.86-2.32-5.8,0.01
		c-4.29,5.15-7.27,10.82-7.02,17.74c0.42,11.79,0.67,23.59,1.39,35.36c1.14,18.61,7.94,35.02,22.57,46.78
		c12.33,9.91,26.99,15.49,42.72,9.37c8.6-3.35,16.54-9.09,23.83-14.94c13.63-10.95,27.79-17.43,46.1-14.8
		c12.88,1.85,25.88,5.03,39.43,0.8c12.12-3.78,22.19-9.63,30.34-19.15c8.41-9.83,8.82-21.46,8.05-33.55
		c-0.32-4.98-2.41-6.15-6.92-5.85c-7.79,0.52-13.56-3.17-17.62-9.64c-2.32-3.7-4.4-7.56-6.7-11.28c-5.51-8.93-5.39-18.13-1.79-27.69
		c0.52-1.37,0.22-3.6-0.6-4.82c-3.88-5.71-7.97-11.3-12.24-16.72c-0.93-1.18-2.96-2.17-4.43-2.1c-5.62,0.27-11.23,1.57-16.83,1.45
		c-15.31-0.33-30.62-1.06-45.91-1.89c-6.28-0.34-10.71,1.65-11.28,5.84c-0.4,2.98,5.53,10.4,9.15,10.54
		c11.87,0.46,23.78,0.7,34.34-6.28c0.89-0.59,2.09-0.68,3.15-1.01c0.4,0.62,0.81,1.25,1.21,1.87c-2.26,1.83-4.25,4.37-6.83,5.33
		c-6.29,2.35-12.75,4.65-19.34,5.7c-7.04,1.12-14.26,2.26-20.23-4.53c-5.34-6.08-11.43-11.82-18.12-16.32
		c-10.21-6.88-22.04-10.04-34.32-8.08c-12.95,2.06-20.56,11.74-26.72,22.26c-5.36,9.14-1.96,18.29,1.63,27.14
		c0.73,1.8,2,3.38,3.03,5.07c0.47-0.17,0.94-0.34,1.42-0.51c0-5.72-0.25-11.45,0.06-17.15
		C202.97,457.95,206.37,452.83,211.34,452.25z M190.23,478.69c-5.93-0.95-11.95-0.97-17.2-3c-5.62-2.17-10.76-4.74-17-3.28
		c-1.26,0.3-2.99-0.2-4.16-0.91c-3.64-2.2-6.13-0.63-8.56,2.02c-19.45,21.12-27.33,45.26-18.19,73.29
		c3.47,10.64,9.69,20.12,18.54,27.15c11.73,9.33,24.9,8.44,38.33,3.93c4.74-1.6,5.47-3.74,3.66-8.54
		c-3.17-8.43-6.36-17.12-7.52-25.97c-1.28-9.82-0.22-19.94-0.32-29.93C177.66,500.23,180.97,488.3,190.23,478.69z M205.4,430.82
		c-0.98-1.05-1.41-1.66-1.98-2.1c-7.65-5.94-16.25-6.44-25.69-5.94c-20.3,1.09-32.42,20.88-29.79,37.63
		c0.78,4.97,5.4,6.16,9.51,6.64c3.79,0.45,5.95-1.56,5.78-5.91c-0.08-2.05,1.14-4.17,1.85-6.23c0.96-2.81,0.58-8.1,5.01-6.49
		c4.55,1.66,0.64,5.5-0.27,8.34c-2.69,8.36-1.13,11.35,5.8,13.47c2.91,0.89,6.06,0.96,9.1,1.42c4.92,0.75,5.85-1.26,5.04-5.93
		c-1.74-10.07,1.05-19.1,7.9-26.76C200.06,436.28,202.62,433.74,205.4,430.82z M395.05,553.93c20.87,4.59,41.91-5.58,46.27-22.3
		c-4.3-1.26-8.66-2.4-12.93-3.83c-8.85-2.97-8.85-3.05-14.37,4.37c-1.19,1.6-1.98,3.53-3.29,5.02c-1.02,1.15-2.55,1.85-3.85,2.76
		c-2.01,1.4-4.44,2.47-5.91,4.31C398.73,547.06,397.16,550.4,395.05,553.93z"/>
	<path d="M415.4,302.8c2.32-6.91,4.04-12.99,6.43-18.81c1.56-3.8,5.59-4.62,8.87-3.31c2.09,0.84,3.69,3.8,4.7,6.15
		c1.04,2.41,0.59,5.49,1.75,7.8c0.7,1.39,3.23,1.87,4.94,2.75c0.65-0.41,1.31-0.81,1.96-1.22c-0.93-5.55-1.88-11.11-2.8-16.66
		c-0.31-1.89-1.43-4.7-0.62-5.48c1.24-1.2,3.81-1.24,5.84-1.36c4.18-0.26,7.03,1.93,8.33,5.75c3.98,11.65,8.1,23.27,11.61,35.06
		c4.11,13.82,4.01,28.1,1.28,42.02c-2.23,11.33-9.19,19.42-21.11,22.65c-11.32,3.07-22.31,3.27-32.87-2.23
		c-2.77-1.44-5.23-3.8-7.3-6.21c-14.27-16.63-15.32-36.49-12.58-56.74c1.21-8.9,4.67-17.55,7.69-26.12
		c0.63-1.79,3.96-3.88,5.77-3.65c1.97,0.25,4.53,2.74,5.21,4.79c1.12,3.36,0.83,7.16,1.33,10.75
		C414.02,300.03,414.77,301.23,415.4,302.8z"/>
	<path d="M234.47,277.52c8.46-0.1,15.77,2.66,21.64,8.11c8.27,7.68,6.7,26.03-5.13,32.48c-13.26,7.23-32.09,6.53-40.95-5.63
		c-8.38-11.5-3.33-26.54,9.66-31.73C224.32,278.91,229.53,278.56,234.47,277.52z"/>
	<path d="M314.23,92.57c2.65,0.85,4.87,1.68,7.14,2.29c20.89,5.57,32.82,19.91,38.9,39.87c0.32,1.05-0.6,2.48-0.94,3.73
		c-1.27-0.65-3.04-0.98-3.72-2.02c-2.6-3.95-5.25-7.95-7.17-12.24c-6.18-13.81-18-19.9-31.52-23.95c-1.52-0.45-3.07-1.27-4.22-2.33
		c-0.77-0.71-1.38-2.34-1.09-3.23C311.93,93.75,313.41,93.2,314.23,92.57z"/>
	<path d="M275.47,244.18c-1.26,3.17-1.95,6.77-3.92,9.41c-2.28,3.06-5.37,1.89-7.06-1.13c-2.93-5.24-2.36-10.91-0.45-16.24
		c0.54-1.51,3.63-3.39,4.97-3.02c2.03,0.56,4.08,2.67,5.13,4.65c0.83,1.56,0.17,3.91,0.17,5.9
		C274.69,243.89,275.08,244.04,275.47,244.18z"/>
	<path d="M316.04,247.72c0,1.46-0.09,2.92,0.02,4.36c0.26,3.36-0.95,6.51-4.4,6c-2.39-0.35-5.82-3.04-6.26-5.21
		c-0.76-3.72-0.17-8.06,1.09-11.71c0.67-1.95,3.91-3.01,5.99-4.47c1.15,2.04,2.59,3.97,3.36,6.15c0.52,1.45,0.1,3.24,0.1,4.88
		C315.97,247.72,316,247.72,316.04,247.72z"/>
	<path d="M377.19,133.56c0,1.97,0.28,3.02-0.07,3.76c-0.55,1.17-1.52,2.14-2.32,3.19c-0.97-0.93-2.91-2.06-2.76-2.75
		c1.92-8.93-5.17-13.36-9.31-19.25c-0.94-1.34-2.27-2.62-2.6-4.1c-0.29-1.32,0.13-3.55,1.05-4.15c0.94-0.62,3.87-0.18,4.19,0.55
		C368.89,118.97,378.09,124.33,377.19,133.56z"/>
	<path d="M332.35,186.99c4,2.79,7.82,5.3,11.41,8.11c0.62,0.48,0.23,2.24,0.31,3.41c-1.12-0.12-2.37,0.03-3.34-0.42
		c-3.21-1.5-6.33-3.19-9.46-4.86c-1.67-0.89-3.27-1.9-4.9-2.85C328.08,189.41,329.79,188.44,332.35,186.99z"/>
</g>
</svg>
