<?xml version="1.0" encoding="utf-8"?>
<!-- Generator: Adobe Illustrator 26.0.1, SVG Export Plug-In . SVG Version: 6.00 Build 0)  -->
<svg version="1.1" id="Layer_1" xmlns="http://www.w3.org/2000/svg" xmlns:xlink="http://www.w3.org/1999/xlink" x="0px" y="0px"
	 viewBox="0 0 680 680" style="enable-background:new 0 0 680 680;" xml:space="preserve">
<g>
	<path d="M156.35,622.23c-1.73,3.42-4.5,1.05-6.81,0.28c-5.14-1.7-10.15-3.79-15.18-5.8c-0.87-0.35-1.74-0.98-2.29-1.73
		c-0.41-0.54-0.62-1.68-0.32-2.17c0.3-0.49,1.45-0.82,2.09-0.67c6.76,1.61,13.36-0.6,20.03-0.83c6.31-0.22,12.59-1.19,18.87-1.99
		c0.96-0.12,2.55-1.01,2.61-1.66c0.64-7.17,4.8-12.53,9.03-17.8c9.39-11.73,21.97-17.13,36.68-18.53c8.42-0.8,16.77-2.3,25.17-3.31
		c5.39-0.65,10.83-0.86,16.22-1.51c1.74-0.21,3.5-0.99,5.03-1.89c0.91-0.53,1.93-1.79,1.96-2.74c0.14-4.83,0.08-9.67-0.17-14.5
		c-0.05-0.9-1.1-2.13-2-2.55c-6.91-3.21-14.05-5.97-20.83-9.44c-7.89-4.04-14.76-9.62-19.49-17.2c-1.69-2.71-3.25-3.23-6.21-3.52
		c-2.49-0.24-5.16-2.23-7.04-4.14c-2.22-2.25,0.69-2.48,1.82-2.92c-1.23-7.47-2.54-14.7-3.57-21.96c-0.45-3.14-0.25-6.37-0.52-9.55
		c-0.07-0.77-0.73-1.57-1.3-2.19c-6.5-7.11-12.14-14.75-16.18-23.58c-5.03-10.97-5.79-22.41-3.96-34.05
		c2.01-12.72,7.26-24.24,14.79-34.62c5.24-7.23,10.86-14.19,16.5-21.12c2-2.46,4.65-4.39,6.81-6.73c0.78-0.85,1.41-2.21,1.41-3.34
		c0.01-3.1-0.55-6.21-0.52-9.31c0.05-5.32,2.84-9.65,6.01-13.53c9.28-11.35,21.57-17.18,36.03-18.63c1.81-0.18,2.65-0.66,1.97-2.62
		c-2.44-7.01-5.97-13.16-12.47-17.31c-4.31-2.75-5.74-2.46-7.51,2.16c-1.48,3.86-2.93,7.74-4.62,11.51
		c-4.97,11.14-13.29,18.49-25.37,20.72c-6.83,1.26-13.36-0.64-19.34-4.33c-10.84-6.68-16.36-17.08-19.47-28.8
		c-2.53-9.5-4.04-19.26-6.06-29.22c-0.77,0.84-1.76,1.72-2.5,2.78c-3.43,4.92-7.04,9.83-4.83,16.38c0.4,1.19,1.03,2.48,1.94,3.28
		c1.49,1.3,1.56,2.63,0.45,3.92c-1.23,1.43-2.96,1.57-4.25,0.17c-1.32-1.44-2.3-3.19-3.39-4.83c-4.7-7.15-4.79-11.86,0.27-18.86
		c3.23-4.47,6.83-8.7,10.56-12.77c1.86-2.03,2.05-4.25,2.17-6.64c0.49-9.5,1.39-18.99,4.77-27.91c3.34-8.84,6.96-17.63,11.27-26.03
		c4.17-8.13,8.85-16.12,14.26-23.46c7.36-10,16.2-18.77,26.48-25.9c4.95-3.44,9.75-7.24,15.08-9.97
		c10.37-5.32,21.05-10.04,31.63-14.94c4.84-2.24,10.06-3.3,15.29-2.6c8.42,1.12,15.95,4.7,22.81,9.72c0.88,0.64,2.43,1.1,3.39,0.78
		c9.26-3.07,16.9-0.07,23.46,6.31c2.62,2.55,4.74,5.69,6.72,8.8c1.11,1.74,2.04,1.94,3.89,1.43c3.48-0.96,7.03-2.06,10.59-2.19
		c3.26-0.12,4.3-1.37,5.21-4.29c2.09-6.67,5.78-12.44,11.88-16.25c5.6-3.49,11.62-2.98,17,0.82c7.48,5.28,12.52,12.1,14.64,21.1
		c0.22,0.93,1.98,1.85,3.17,2.13c9.81,2.28,19.59,4.64,28.57,9.41c13.13,6.99,22.42,17.46,28.09,31.22
		c3.16,7.67,4.9,15.78,4.13,23.86c-0.89,9.26-2.76,18.56-5.42,27.47c-4.09,13.7-11.98,25.13-23.51,33.89
		c-9.99,7.59-21.13,12.76-33,16.65c-11.05,3.62-22.35,5.68-33.86,7c-4.39,0.5-8.74,1.52-13.05,2.54c-0.78,0.18-1.79,1.5-1.83,2.33
		c-0.23,5.27-4.86,12-9.75,13.9c-3.35,1.3-5.86-0.44-8.29-2.27c-1.28-0.96-2.4-2.17-3.45-3.39c-3.34-3.89-3.41-4.1-7.71-1.71
		c-4.38,2.43-8.57,5.24-12.79,7.96c-0.8,0.52-1.37,1.39-1.91,1.96c3.48,2.13,7.07,3.79,9.98,6.26c4.5,3.81,8.16,8.33,8.63,14.69
		c0.08,1.12,1.08,2.36,1.98,3.19c7.94,7.41,16.63,14.15,23.78,22.26c9.84,11.15,19.11,22.91,27.54,35.16
		c7.58,11.02,12.19,23.56,13.32,37.14c1.01,12.07-2.82,22.87-8.7,33.07c-2.25,3.91-5.11,7.46-7.62,11.23
		c-0.46,0.69-0.77,1.63-0.79,2.45c-0.17,10.38-0.25,20.77-0.42,31.16c-0.05,2.9-2.54,4.2-4.61,4.78c-4.21,1.17-7.09,3.7-10.06,6.72
		c-6.13,6.23-12.26,12.63-19.23,17.82c-6.3,4.69-6.45,10.59-6.02,17.07c0.23,3.4,1.23,6.76,1.41,10.16
		c0.17,3.28,2.05,4.46,4.78,4.71c5.82,0.55,11.66,0.89,17.48,1.36c11.15,0.89,22.36,1.38,33.43,2.87c8.04,1.08,16.03,3.27,23.08,7.6
		c9.52,5.86,15.78,14.55,19.86,24.79c2.13,5.34,2.94,6.12,8.95,6.13c10.06,0.02,20.11,0.14,30.17,0.25c0.58,0.01,1.42,0.04,1.7,0.4
		c2.77,3.55,6.54,1.68,9.82,1.68c3.6,0,7.19-0.94,10.79-1.09c1.09-0.04,2.22,1.2,3.34,1.86c-0.87,0.73-1.69,2.04-2.61,2.11
		c-13.34,1.09-26.69,2.01-40.03,2.99c-2.02,0.15-3.67-0.06-4.96-2.02c-1.05-1.6-5.5-1.21-7.11,0.03c-0.98,0.76-2.46,1.47-3.6,1.32
		c-13.97-1.84-27.99-0.62-41.97-0.61c-9.56,0.01-19.14,0.61-28.68,1.34c-3.61,0.28-7.12,1.73-10.7,2.56
		c-1.92,0.44-3.9,0.65-5.84,1.02c-4.32,0.81-8.62,1.74-12.96,2.42c-2.56,0.4-5.18,0.56-7.78,0.59c-15.12,0.19-30.24,0.43-45.37,0.41
		c-12.9-0.02-25.8-0.22-38.69-0.59c-15-0.43-30-0.96-44.98-1.78c-5.31-0.29-10.55-1.64-15.85-2.28c-3.38-0.41-6.81-0.55-10.23-0.58
		c-11.88-0.13-23.76-0.13-35.64-0.28C160.28,623.28,158.65,622.69,156.35,622.23z M249.44,285.2c-1.36,3.13-2.61,6.3-4.09,9.37
		c-3.19,6.6-6.14,13.24-12.32,17.94c-10.16,7.73-21.77,6.62-30.37-2.88c-7.15-7.9-9.5-17.62-11.39-27.53
		c-3.17-16.69-2.82-33.34,1.57-49.81c2.23-8.38,4.62-16.72,9.29-24.17c1.86-2.97,4.58-4.44,8.08-4.35c1.95,0.05,3,1.04,2.69,3.12
		c-0.16,1.1-0.36,2.19-0.49,3.29c-0.34,2.88-0.65,5.77-1.02,9.06c3.47-4.91,6.57-9.29,9.67-13.67c2.92-4.13,6.06-4.32,8.98-0.03
		c3.16,4.65,5.83,9.64,8.72,14.48c0.31,0.51,0.71,0.96,1.07,1.44c0.28-0.07,0.55-0.14,0.83-0.21c0-5.39,0-10.79,0-16.18
		c0.42-0.22,0.85-0.45,1.27-0.67c0.88,1.2,2.08,2.29,2.6,3.63c9.46,24.34,10.87,49.31,5.84,74.75c6.29-28.3,8.87-56.33-6.34-83.32
		c1.27,0.17,2.47,0.39,3.2,1.11c1.49,1.46,2.83,3.09,4.04,4.79c5.92,8.36,7.73,18.16,8.8,27.95c1.31,12.06,0.64,24.18-1.59,36.16
		c-0.79,4.22-1.59,8.43-2.37,12.56c18.58,7.28,23.64,22.43,24.81,40.26c9.73,2.19,18.57,6.33,24.34,15.3
		c2.54-2.35,4.92-4.36,7.05-6.61c1.09-1.16,2.28-2.67,2.48-4.15c1.47-10.93,7.86-18.03,16.89-23.71c10.88-6.85,23.17-9.24,35.3-12
		c11.18-2.54,22.6-3.99,33.87-6.13c13.63-2.6,26.73-6.77,38.82-13.79c11.9-6.91,21.57-16.11,27.37-28.61
		c4.74-10.24,7.88-21.05,8.92-32.48c1.51-16.65-3.72-30.88-14.57-43.12c-9.04-10.21-21.16-15.14-34.1-18.32
		c-3.16-0.78-6.32-1.52-9.7-2.33c-0.09,2.01-0.28,3.51-0.2,5c0.56,9.7-2.61,18.11-9.27,25.01c-1.94,2.02-4.99,3.85-7.68,4.11
		c-15.19,1.46-28.69-9.51-29.72-25.14c-0.55-8.48-0.58-8.47-9.17-7.12c-0.4,0.06-0.8,0.13-1.2,0.17c-2.51,0.22-3.12,1.44-3.06,4.02
		c0.26,11.38-2.18,21.45-11.76,29.34c-9.1,7.49-24.62,4.08-29.63-3.83c-3.16-4.99-6.18-10.07-9.38-15.3
		c-0.45,0.25-1.39,0.64-2.16,1.23c-12.11,9.38-24.23,18.75-36.28,28.19c-4.04,3.16-7.92,6.53-11.89,9.79
		c-1.55,1.28-3.07,1.21-4.02-0.61c-0.88-1.67-3.22-3.31-0.45-5.42c2.57-1.95,4.94-4.17,7.54-6.07c14.97-10.96,30-21.83,44.94-32.83
		c0.91-0.67,1.66-2.26,1.63-3.39c-0.36-10.56,3.04-19.51,11.28-26.98c-1.88-1.16-3.64-2.48-5.59-3.42
		c-7.64-3.67-15.44-6.54-24.12-3.94c-11.47,3.43-22.29,8.52-32.51,14.55c-8.64,5.09-16.75,11.22-24.55,17.56
		c-8.07,6.56-14.78,14.53-20.6,23.21c-6.52,9.75-12.18,19.98-16.59,30.82c-2.84,6.97-5.07,14.21-7.23,21.43
		c-2.92,9.77-2.3,19.87-2.09,29.88c0.24,11.25,2.27,22.27,5.39,33.05c2.35,8.13,5.96,15.78,12.21,21.61
		c10.61,9.9,22.05,10.63,32.39,3.08C243.5,307.23,246.42,296.04,249.44,285.2z M281.15,357.38c-1.94-0.4-3.41-0.41-4.6-0.99
		c-6.67-3.3-13.36-6.59-19.86-10.21c-2.1-1.17-3.98-1.59-5.96-0.58c-5.28,2.68-10.93,4.94-15.61,8.46
		c-13.15,9.88-23.21,22.61-31.48,36.76c-7.36,12.6-11.22,26.25-9.86,40.82c1.74,18.61,11.82,32.94,25.43,44.94
		c9.09,8.01,20.02,12.2,31.92,14.15c2.24,0.37,3.14-0.28,3.92-2.07c5.55-12.79,6.22-26.19,4.93-39.81c-0.08-0.89-1.17-1.84-2-2.49
		c-4.27-3.34-8.91-6.26-12.84-9.94c-5.93-5.54-10.23-12.39-14.19-19.48c-5.17-9.26-8.14-18.87-5.63-29.52
		c0.37-1.55,1.27-3.94,2.33-4.17c2.73-0.61,3.38-2.56,4.36-4.52c1.08-2.16,2.04-4.42,3.38-6.41c0.65-0.96,2.35-2.18,3.08-1.92
		c2.01,0.74,0.71,2.31,0.14,3.51c-2.25,4.73-4.34,9.56-6.87,14.14c-3.5,6.35-2.72,12.59-0.28,18.93
		c4.13,10.71,10.56,19.92,18.57,28.03c2.17,2.2,4.9,3.84,7.38,5.73c0.25-0.29,0.51-0.58,0.76-0.86c-0.75-0.83-1.73-1.56-2.2-2.52
		c-0.55-1.13-0.65-2.47-0.95-3.72c1.26,0.2,2.61,0.19,3.75,0.66c0.73,0.3,1.41,1.25,1.66,2.06c1.31,4.09,3.06,8.17,3.56,12.38
		c0.7,5.99,0.52,12.09,0.57,18.14c0.11,13.01-5.32,24.28-11.48,35.25c-0.43,0.77-2.71,1.38-3.42,0.93
		c-1.09-0.69-2.12-2.22-0.69-3.86c0.76-0.87,1.29-1.94,2.15-3.27c-11.85-3.54-23.6-6.27-32.7-14.63c-0.41,0.43-0.61,0.55-0.67,0.72
		c-0.1,0.28-0.16,0.58-0.16,0.88c-0.1,7.71,0.04,15.37,4.22,22.28c0.56,0.92,0.71,2.1,1.28,3.01c0.5,0.78,1.25,1.78,2.03,1.94
		c7.8,1.53,15.58,3.22,23.45,4.26c16.19,2.13,32.38,4.47,48.65,5.62c14.76,1.05,29.63,0.96,44.45,0.77
		c14.96-0.2,29.18-4.32,43.05-9.73c2.79-1.09,4.65-2.68,4.77-5.86c0.27-7.65,0.56-15.31,0.81-22.96c0.01-0.22-0.31-0.45-0.58-0.81
		c-0.46,0.3-0.87,0.54-1.24,0.84c-4.08,3.27-8.13,6.59-12.25,9.82c-2.62,2.06-4.92,1.31-6.08-1.78c-0.49-1.32-1.05-2.63-1.73-3.86
		c-8-14.5-12.59-30.08-14.87-46.41c-0.39-2.76,0.75-4.42,3.03-3.72c2.07,0.63,2.45-0.54,3.19-1.71
		c6.7-10.49,10.07-22.15,12.12-34.28c0.21-1.24,0.35-2.77-0.18-3.82c-4.54-9.04-10.37-17.22-17.22-24.66
		c-1.86-2.02-1.63-4.04-1.07-6.59c0.68,0.37,1.22,0.49,1.49,0.83c4.36,5.41,8.67,10.86,13.03,16.27c1.87,2.33,3.84,4.59,5.74,6.9
		c1.01,1.23,2.41,2.39,2.82,3.81c0.48,1.67,0.23,3.6,0.04,5.39c-1.51,13.94-6.04,26.88-13,39.03c-1.28,2.23-2.27,4.33-5.43,2.62
		c0,1.3-0.03,2.3,0.01,3.29c0.03,0.7,0.08,1.42,0.23,2.1c3.1,13.82,6.97,27.36,14.52,39.56c1.22,1.97,2.21,2.89,4.04,0.79
		c0.32-0.37,0.75-0.68,1.18-0.94c10.71-6.45,17.97-15.66,23.43-26.89c6.34-13.02,7.19-26,2.86-39.61
		c-4.27-13.44-11.52-25.2-20.03-36.32c-9.46-12.37-20.04-23.66-31.59-34.07c-2.97-2.68-6.19-5.08-9.57-7.83
		c-0.73,1.27-1.26,2.21-1.81,3.14c-1.87,3.14-4.32,5.65-8.01,6.45c-2.1,0.45-4.19,0.31-4.92-2.52c0.51-0.25,0.85-0.48,1.21-0.57
		c6.92-1.69,11.11-8.26,10.36-15.2c-0.56-5.18-9.94-13.48-13.85-14.14c-1.1-0.19-3.02-0.22-3.33,0.34c-1.22,2.27-1.95,4.8-2.86,7.23
		c3.07-0.37,5.28-1.39,7.61-1.84c0.89-0.17,2.03,0.96,3.05,1.49c-0.7,0.98-1.22,2.59-2.12,2.83c-8.83,2.38-15.5,7.41-19.99,15.38
		c-1.25,2.22-3.49,2.43-5.13,0.54c-1.91-2.2-3.69-4.52-5.64-6.67c-4.11-4.54-9.2-7.67-15.19-8.8c-5.68-1.07-11.13-3.8-17.16-2.7
		c-0.4,0.07-1.09-0.24-1.3-0.58c-0.64-1.06-1.8-2.48-1.5-3.29c0.45-1.21,1.96-2.84,3.03-2.85c2.05-0.01,4.09,1.06,6.17,1.54
		c0.89,0.2,2.28,0.42,2.69-0.04c0.54-0.61,0.77-2.19,0.35-2.78c-0.6-0.82-1.94-1.58-2.94-1.56c-7.21,0.17-14.48-0.22-20.89,4.37
		c-6.55,4.7-12.48,9.88-16.05,17.25c-1.75,3.61-1.82,7.48-1.08,11.47c4.45-2.02,8.6-3.78,12.63-5.82c1.17-0.59,1.96-1.95,2.92-2.96
		c-0.17-0.42-0.34-0.84-0.5-1.26c1.26,0.15,2.72-0.05,3.75,0.52c7.12,3.97,14.08,8.22,21.23,12.13c2.21,1.21,4.84,1.65,8.18,2.73
		c-0.46-2.15-0.43-3.6-1.07-4.63c-1.03-1.66-0.2-2.17,1.08-2.65c6.76-2.48,7.8-1.77,8.26,5.49c0.03,0.5,0,1.02,0.09,1.51
		c0.83,4.35,1.23,8.85,2.64,13c1.44,4.21,0.83,6.07-3.71,6.45c-2.81,0.23-5.65,0.12-8.48,0.11c-3.16-0.01-3.61-0.79-2.77-3.86
		C279.25,365.49,280.15,361.47,281.15,357.38z M195.59,609.25c5.02,0.77,9.14,1.48,13.29,1.96c0.52,0.06,1.31-1.01,1.74-1.7
		c4.76-7.69,10.36-14.63,17.73-20.01c1.63-1.19,3.46-1.84,4.78,0.05c1.37,1.96-0.82,2.62-1.86,3.74
		c-4.91,5.28-9.8,10.59-14.55,16.02c-1.63,1.86-0.72,3.15,1.58,3.45c3.19,0.42,6.4,1.05,9.6,1.08c15.94,0.14,31.89,0.29,47.83,0.09
		c11.89-0.15,23.78-0.86,35.68-1.23c1.98-0.06,2.7-1,2.8-2.73c0.22-3.63,0.54-7.25,0.59-10.88c0.28-19.17,0.97-38.36-1.03-57.5
		c-0.13-1.29,0.91-2.7,1.4-4.05c0.95,1.28,1.93,2.55,2.85,3.85c0.15,0.21,0.06,0.59,0.09,0.89c2.26,22.14,2.52,44.31,1.19,66.51
		c-0.25,4.21-0.17,4.51,4.12,4.68c5.42,0.23,10.87-0.03,16.29,0.16c6.85,0.25,13.68,0.92,20.53,1.09
		c14.28,0.35,28.56,1.28,42.85-0.14c4.24-0.42,5.85-1.89,4.37-5.97c-2.33-6.42-4.62-13.01-12.28-15.37
		c-1.01-0.31-1.58-2.04-2.35-3.11c1.13-0.46,2.28-1.35,3.39-1.31c4.02,0.17,6.99,2.57,9.26,5.58c4.17,5.53,8.2,11.21,8.68,18.44
		c5.92,0.57,11.67,1.13,17.53,1.7c0.37-4.22-1.44-7.3-3.48-9.92c-3.58-4.58-7.71-8.73-11.53-13.12c-0.65-0.74-0.91-1.82-1.36-2.75
		c1.09-0.31,2.17-0.77,3.28-0.86c0.61-0.05,1.4,0.38,1.89,0.84c6.62,6.25,13.07,12.67,16.02,21.6c0.62,1.88,1.67,2.79,3.43,2.65
		c3.15-0.26,6.27-0.77,9.81-1.23c-0.74-2.47-1.06-4.17-1.75-5.71c-6.33-14.06-17.45-22.47-32.33-25.02
		c-12.07-2.06-24.41-2.57-36.63-3.72c-7.11-0.67-14.26-1.01-21.33-1.92c-5.81-0.75-6.06-0.99-6.63-6.66
		c-0.74-7.29-0.94-14.64-1.44-21.96c-0.07-1.02-0.38-2.11-0.89-3c-0.91-1.58-0.8-2.7,0.69-3.9c6.6-5.29,13.14-10.66,19.67-16.02
		c0.85-0.7,1.54-1.57,2.31-2.37c-1.7-0.35-2.97-0.13-4.23,0.16c-4.42,1.01-8.78,2.54-13.25,2.97c-8.51,0.82-17.09,1.44-25.63,1.38
		c-12.39-0.09-24.83-0.27-37.14-1.49c-16.94-1.67-33.78-4.34-50.66-6.6c-2.9-0.39-5.78-0.91-9.29-1.47
		c4.32,6.05,9.67,9.8,15.13,13.34c7.25,4.7,15.28,7.71,23.54,10.08c2.42,0.69,3.79,1.94,3.87,4.62c0.22,6.64,0.55,13.29,0.93,19.92
		c0.12,2.16-0.85,3.64-2.73,4.18c-4.42,1.25-8.87,2.47-13.39,3.26c-3.25,0.57-6.65,0.24-9.94,0.66
		c-10.39,1.34-20.74,2.97-31.14,4.25c-14.69,1.81-25.38,9.63-33.23,21.73c-1.68,2.59-2.73,5.58-4.02,8.28
		c1.85,0.96,2.87,1.59,3.96,2.03c2.32,0.94,4.45,1.62,6.15-1.36c1.53-2.69,3.35-5.34,5.55-7.49c3.5-3.42,7.27-6.6,11.25-9.44
		c1.07-0.77,4.18-0.58,4.8,0.28c1.5,2.08-0.95,2.72-2.37,3.51C203.66,597.57,199.53,602.49,195.59,609.25z M285.92,350.08
		c-1.01,5.42-1.89,10.11-2.74,14.8c-0.25,1.39-0.51,2.8-0.5,4.2c0.01,0.58,0.61,1.52,1.13,1.68c3.35,1.04,5.23-0.67,4.68-4.05
		c-0.24-1.49-0.39-3-0.62-4.5C287.27,358.39,286.64,354.58,285.92,350.08z M361.15,304.57c1.65-3.03,2.95-5.42,4.41-8.08
		C360.33,296.37,359.79,297.37,361.15,304.57z"/>
	<path d="M320.59,73.69c1.45,0.39,2.85,0.64,4.13,1.16c0.84,0.34,1.51,1.09,2.25,1.66c-0.75,0.86-1.37,2.26-2.29,2.49
		c-9.66,2.46-15.91,9.47-22.13,16.45c-2.11,2.37-3.47,5.4-5.49,7.88c-0.78,0.96-2.44,1.19-3.7,1.76c-0.36-1.43-1.21-2.95-1-4.29
		c1.25-7.88,5.66-13.7,12.02-18.37c4.14-3.04,7.93-6.53,13.03-7.92C318.47,74.21,319.53,73.96,320.59,73.69z"/>
	<path d="M398.69,110.24c-0.73,1.06-1.13,2.3-1.82,2.49c-0.83,0.23-2.14-0.16-2.84-0.76c-4.68-3.99-10.06-5.95-16.15-5.3
		c-1.99,0.21-3.6,1.01-5.38-0.81c-1.66-1.7-1.5-2.93,0.08-4.26c3.6-3.03,7.85-2.72,12.05-2c4.49,0.78,8.28,3.12,11.49,6.24
		C397.26,106.95,397.79,108.65,398.69,110.24z"/>
	<path d="M115.33,620.47c-0.57,3.65-1.37,4.12-4.8,3.27c-2.14-0.53-4.41-0.64-6.45-1.41c-0.97-0.36-1.53-1.81-2.28-2.77
		c0.96-0.42,1.94-1.26,2.86-1.2c2.47,0.18,4.91,0.98,7.37,1.07c1.23,0.04,2.48-0.97,3.75-1.44c1.9-0.69,3.81-1.35,5.75-1.94
		c0.53-0.16,1.17-0.08,1.73,0.03c3.21,0.63,6.42,1.29,9.61,1.98c0.97,0.21,2.22,0.27,2.79,0.9c0.68,0.74,1.19,2.15,0.95,3.03
		c-0.17,0.59-1.87,1.19-2.76,1.04c-4.13-0.71-8.2-1.82-12.34-2.51C119.5,620.19,117.37,620.47,115.33,620.47z"/>
	<path d="M531.25,615.19c0.56,0.62,1.74,1.35,1.78,2.13c0.03,0.71-1.03,1.88-1.85,2.16c-2.24,0.76-4.59,1.35-6.93,1.58
		c-0.9,0.09-1.92-0.99-2.88-1.54c0.53-0.71,0.92-1.83,1.61-2.07C525.52,616.58,528.17,616,531.25,615.19z"/>
	<path d="M436.49,185.45c4.39,1.01,9.23,1.59,13.65,3.28c5.61,2.15,7.3,7.62,8.84,12.91c-2.12,2.86-3.65,6.75-6.48,8.34
		c-5.08,2.86-10.9,4.43-16.48,6.37c-1.98,0.69-4.15,0.81-6.2,1.32c-8.15,2.04-15.56,0-22.5-4.16c-3.23-1.93-4.91-7.01-3.94-10.99
		c1.91-7.83,7.92-11.54,14.85-13.59C423.97,187.23,430.04,186.63,436.49,185.45z"/>
	<path d="M304.83,510.11c-7.15,0-14.31,0.18-21.46-0.08c-3.38-0.12-6.75-1-10.08-1.71c-0.88-0.19-1.88-0.89-2.34-1.65
		c-0.51-0.84-0.45-2.01-0.65-3.04c1.15-0.07,2.34-0.38,3.44-0.18c4.31,0.79,8.59,2.53,12.88,2.5c14.11-0.11,28.21-0.72,42.3-1.4
		c3.69-0.18,7.31-1.42,11-1.91c1.63-0.22,4.09-1.46,4.39,1.81c0.26,2.9-1.61,3.1-3.88,3.22c-9.76,0.53-19.51,1.21-29.26,1.83
		c-2.11,0.13-4.22,0.23-6.34,0.34C304.83,509.93,304.83,510.02,304.83,510.11z"/>
	<path d="M327.15,372.13c-5.14,0.14-6.62-1.34-7.24-5.7c-0.87-6.07-2.07-12.09-3.13-18.13c-0.05-0.29-0.29-0.62-0.2-0.85
		c1.08-3.04,4.16-2.82,6.46-3.74c1.58-0.63,2.66,0.31,3.32,2.1c1.99,5.35,4.34,10.57,6.36,15.91c0.69,1.83,3.51,3.01,1.97,5.52
		C332.86,370.25,330.79,373.02,327.15,372.13z M330.32,367.27c-2.73-6.72-5.37-13.23-8.02-19.74c-0.34,0.05-0.67,0.1-1.01,0.16
		c0,1.49-0.2,3.01,0.04,4.45c0.68,4.06,1.53,8.09,2.34,12.12C324.55,368.61,325.43,369.05,330.32,367.27z"/>
</g>
</svg>
