<?xml version="1.0" encoding="utf-8"?>
<!-- Generator: Adobe Illustrator 26.0.1, SVG Export Plug-In . SVG Version: 6.00 Build 0)  -->
<svg version="1.1" id="Layer_1" xmlns="http://www.w3.org/2000/svg" xmlns:xlink="http://www.w3.org/1999/xlink" x="0px" y="0px"
	 viewBox="0 0 680 680" style="enable-background:new 0 0 680 680;" xml:space="preserve">
<g>
	<path d="M420.54,114.45c-5.9-4.06-11.81-8.03-18.51-1.6c7.19,8.5,14.69,16.13,24.66,21.11c18.18,9.08,37.95,12.52,57.5,16.89
		c30.66,6.85,54.29,22.93,64.24,53.94c8.21,25.6,2.71,49.28-13.57,70.78c-8.78,11.6-20.36,18.86-33.73,22.95
		c-18.83,5.75-38.01,10.34-57.05,15.38c-6.3,1.67-6.52,1.81-5.45,8.15c0.86,5.13,0.53,9.91-2.81,14.19
		c-4.75,6.08-11.07,6.44-16.26,0.78c-1.63-1.78-3.06-3.72-4.62-5.63c-5.24,5.43-5.65,15.24-1.34,20.44
		c0.82,0.99,1.64,2.65,1.38,3.74c-1.26,5.39,1.61,9.36,4.37,13.23c9.23,12.92,18.64,25.71,28,38.53
		c9.24,12.66,15.83,26.71,17.82,42.14c2.94,22.72-4.17,41.74-24.17,54.79c-6.71,4.38-9.59,13.6-6.66,21.09
		c0.52,1.33,3,2.59,4.64,2.69c16.77,1.04,33.68,0.88,50.31,3c13.15,1.68,26.5,5.18,35.11,16.93c6.54,8.93,6.7,16.82-1.1,21.43
		c-3.47,2.05-8.33,1.76-12.54,2.58c-2.65,0.52-5.29,1.12-7.93,1.68c-3.91,0.83-7.8,2.28-11.73,2.36c-6.84,0.15-13.7-0.88-20.53-0.75
		c-3.25,0.07-6.48,1.68-9.72,2.59c-1.05,0.3-2.09,0.8-3.15,0.84c-13.61,0.59-26.35,6.4-39.68,7.5c-30.97,2.55-61.99,6.28-93.15,2.93
		c-7.99-0.86-16.18-1.69-23.75-4.15c-15.11-4.91-11.45-17.38-4.2-24.26c8.81-8.36,19.69-12.88,30.89-16.83
		c2.05-0.72,4.04-1.62,6.13-2.21c7.28-2.08,7.87-8.69,9.48-14.36c1.31-4.6,1.67-9.47,2.54-14.21c0.71-3.88-0.32-6.98-3.48-9.47
		c-7.84-6.16-13.47-14.12-18.42-23.42c-4.25,2.96-8.41,5.79-12.49,8.72c-18.54,13.32-45.46,8.94-60.02-0.61
		c-4.4-2.89-4.47-4.05-0.17-7.11c10.8-7.68,21.95-13.71,36.2-11.65c9.35,1.35,18.97,0.86,28.47,1.23c4.16,0.16,5.88-1.09,4.88-5.8
		c-2.47-11.69-0.38-22.9,4.86-33.54c10.37-21.07,20.77-42.13,31.24-63.15c1.12-2.26,2.02-3.87-0.6-5.94
		c-2.49-1.98-1.86-5.34,0.79-6.08c9.58-2.65,6.18-9.34,4.93-15.03c-0.92-4.2-3.1-8.11-4.52-12.22c-2.38-6.9-8-9.73-14.37-11.35
		c-15.06-3.84-30.19-7.43-45.28-11.16c-3.66-0.9-6.32-0.93-8.94,3.06c-7.81,11.9-24.87,15.63-38.39,10.81
		c-17.89-6.38-23.59-20.93-26.09-37.18c-1.92-12.52-2.54-25.43-2.01-38.1c0.78-18.78,6.94-36.1,16.98-52.21
		c4.04-6.49,6.29-14.17,8.82-21.49c10.62-30.78,31.55-51.81,61.42-63.63c19.5-7.72,40.1-10.53,60.98-7.14
		c8,1.3,15.75,4.53,23.41,7.41c2.66,1,4.52,1.57,7.29,0.19c8.2-4.08,14.15-3.14,18.51,2.39c0.54,0.68,0.81,1.57,1.2,2.36
		C420.94,113.51,420.74,113.98,420.54,114.45z M426.13,316.86c-10.55-1.04-20.4-1.77-30.19-3.04c-17.92-2.33-32.46-10-40.96-26.89
		c-2.33-4.63-5.16-9-7.84-13.61c3.44-3.43,4.23-3.06,6.04,1.7c4.42,11.64,10.21,22.18,21.77,28.64c14.78,8.26,31.11,9.45,47.13,9.08
		c15.45-0.35,30.84-4.06,44.43-12.46c6.95-4.29,13.32-9.19,16.34-17.31c0.54-1.45,2.05-2.53,3.11-3.79
		c0.38,0.32,0.76,0.63,1.13,0.95c-2.12,11.11-10.38,17.5-20.23,23.95c2.28,0,3.38,0.23,4.33-0.04c8.21-2.3,16.41-4.64,24.58-7.05
		c26.67-7.86,43.89-25.13,50.48-52.16c6.24-25.57,0.65-48.48-18.1-67.43c-9.42-9.52-20.58-16.91-33.52-20.51
		c-15.85-4.41-32.16-7.17-47.98-11.65c-15.64-4.43-30.15-11.09-41.48-23.76c-4.83-5.4-11.21-10.36-17.89-12.99
		c-23.84-9.4-48.1-6.51-71.91,0.54c-13.71,4.06-25.65,11.71-36.17,21.54c-11.63,10.88-21.31,22.98-26.49,38.34
		c-2.78,8.23-5.28,16.76-9.5,24.26c-7.22,12.83-13.39,25.67-15.89,40.47c-3.69,21.83-2.65,43.04,4.43,63.98
		c5.91,17.49,27.79,26.74,44.44,18.73c11.94-5.74,17.04-16.78,18.51-28.57c3.08-24.59,0.12-48.7-10.29-71.56
		c-0.67-1.47-0.74-3.22-1.09-4.85c0.8-0.11,1.6-0.22,2.41-0.33c13.11,29.11,17.88,59.21,8.99,90.88c0.57,0.29,0.95,0.6,1.38,0.7
		c14.91,3.7,29.85,7.32,44.75,11.08c8.1,2.05,16.22,4.47,19.5,13.35c2.36,6.38,4.4,12.92,5.89,19.55c1.4,6.19,1.68,6.66,7.89,5.9
		c9.27-1.13,18.56-2.33,27.87-2.86c4.18-0.24,5.81-1.17,5.49-5.57c-0.79-10.84,4.85-18.24,13.56-23.79
		C422.68,319.27,424.23,318.16,426.13,316.86z M389.13,413.32c0.53-0.15,1.05-0.3,1.58-0.46c0.57,1.27,1.55,2.51,1.66,3.81
		c1.21,14.88,2.63,29.76,3.28,44.68c0.43,9.91-3.38,18.6-10.82,25.36c-7.01,6.38-26.92,8.57-35.67-1.54
		c-2.13-2.46-4.02-5.19-6.44-7.3c-7.25-6.3-8.26-11.25-3.86-19.77c1.34-2.59,2.73-5.39,3.08-8.21c1.99-15.89,3.68-31.82,5.43-47.74
		c0.13-1.17-0.09-2.38-0.15-3.58c-0.57-0.09-1.14-0.18-1.72-0.27c-1.7,5.02-5.39,10.3-4.76,15c2.2,16.43-2.39,29.7-14.46,40.84
		c-1.63,1.5-2.78,4.58-2.59,6.79c0.9,10.65,3.12,20.97,10.69,29.22c3.87,4.22,8.06,8.18,11.65,12.62c1.7,2.1,3.37,5.12,3.24,7.63
		c-0.31,5.85-1.95,11.62-2.63,17.47c-1.22,10.61-7.25,16.65-17.29,19.21c-0.6,0.15-1.19,0.35-1.78,0.56
		c-10.9,3.86-21.54,8.12-29.68,16.87c-6.15,6.62-5.49,12.15,2.29,16.6c1.85,1.06,3.97,1.95,6.06,2.22
		c10.02,1.31,20.06,3.29,30.1,3.33c19.15,0.06,38.3-0.99,57.44-1.68c11.05-0.4,11.98-1.89,7.89-12.35c-0.61-1.56-1.82-2.88-2.58-4.4
		c-0.41-0.82-0.46-1.83-0.67-2.76c1.77-0.01,3.09,0.43,3.49,1.3c1.53,3.32,3.25,6.68,3.99,10.21c0.86,4.09,2.2,6.73,6.93,6.1
		c5.38-0.72,10.81-1.13,16.13-2.15c1.13-0.22,2.93-2.86,2.62-3.77c-1.53-4.47-3.67-8.74-5.58-13.08c-0.52-1.17-0.97-2.37-1.46-3.56
		c2-0.05,3.43,0.33,3.93,1.22c1.94,3.48,3.65,7.08,5.3,10.71c1.04,2.28,0.88,5.61,4.77,5.12c7.4-0.92,14.91-1.38,22.16-3.02
		c8.09-1.83,9.96-9.73,3.62-15.02c-7.97-6.64-17.22-11.21-27.32-13.67c-13.39-3.26-27.02-4.46-40.79-3.83
		c-4.39,0.2-6.35-1.44-5.83-6.02c0.76-6.65,1.23-13.34,1.91-20c0.1-0.95,0.71-1.86,1.09-2.78c1.41,1.3,1.97,2.63,1.89,3.92
		c-0.33,5.6-0.68,11.2-1.34,16.77c-0.38,3.2,0.42,4.29,3.83,4.56c11.76,0.92,23.5,2.15,35.22,3.48
		c12.28,1.39,22.95,6.82,32.38,14.45c2.76,2.23,5.77,6.37,5.62,9.48c-0.26,5.29,1.31,6.65,5.97,6.35c1.06-0.07,2.16,0.47,3.23,0.43
		c6.17-0.22,12.44,0.04,18.49-0.96c5.89-0.98,7.27-4.2,4.54-9.35c-1.37-2.58-3.95-4.54-6.05-6.72c-1.15-1.19-2.45-2.23-3.69-3.34
		c0.26-0.42,0.52-0.84,0.78-1.25c1.2,0.39,2.44,0.68,3.58,1.2c5.68,2.58,8.48,7.38,10.48,13.03c0.49,1.39,2.47,2.83,4,3.15
		c2.04,0.43,4.36,0.02,6.48-0.42c4.16-0.87,6.95-4.55,6.67-8.81c-0.5-7.55-5.09-13.32-11.03-16.38
		c-11.32-5.84-23.51-9.77-36.53-10.15c-14.16-0.41-28.33-0.86-42.48-1.53c-1.33-0.06-3.65-1.77-3.7-2.8
		c-0.32-6.34-0.33-12.71,0.05-19.05c0.1-1.7,1.57-3.69,2.98-4.85c3.22-2.67,6.88-4.8,10.22-7.34c8.68-6.59,14.4-15.59,16.26-25.96
		c3.65-20.37-1.65-39.39-12.91-56.42c-11.58-17.5-24-34.45-36.21-51.52c-0.8-1.12-3.11-2-4.47-1.74
		c-13.36,2.56-26.79,4.09-40.38,3.14c-3.59-0.25-5.58,0.85-6.8,4.09c-2.73,7.31-6.65,13.92-7.92,22.08
		c-2.83,18.14-6.12,36.16-6.91,54.56c-0.19,4.49-2.23,8.89-3.32,13.36c-0.83,3.41-2.02,6.83-2.12,10.28
		c-0.16,5.17,4.19,7.29,8.68,4.58c1.46-0.88,2.73-2.1,4.22-2.92c0.62-0.34,1.6-0.01,2.41,0.01c-0.21,0.8-0.15,1.92-0.66,2.34
		c-2.23,1.82-4.63,3.44-7.33,5.39c1.04,1.29,1.77,2.48,2.76,3.37c8.44,7.69,14.58,10.16,19.87-1.61c0.3-0.67,1.61-0.88,2.44-1.31
		c0.12,0.84,0.58,1.81,0.31,2.51c-0.84,2.2-1.96,4.29-3.21,6.94c6.14-0.07,10.97-1.58,14.58-5.57c5.18-5.72,8.5-12.53,8.09-20.33
		c-0.77-14.45-2.11-28.87-3.17-43.31C389.01,417.17,389.13,415.24,389.13,413.32z M252.5,484.5c1.49,1.36,2.16,2.36,3.08,2.76
		c9.33,4.08,18.98,7.03,29.26,6.91c14.4-0.17,25.66-7.65,36.32-16.26c0.77-0.62,0.88-2.08,1.29-3.14c-1.11-0.36-2.22-1.04-3.32-1.02
		c-3.57,0.05-7.15,0.66-10.71,0.51c-8.72-0.35-17.42-1.08-26.14-1.53C270.83,472.15,261.84,477.82,252.5,484.5z"/>
	<path d="M268.97,214.02c2.95-0.6,6,0.73,5.51,4.99c-0.84,7.42,2.92,13.58,4.62,20.29c1.41,5.55,3.28,11.02,5.38,16.35
		c3.24,8.23-0.48,16.03-1.27,23.94c-0.77,7.7-2.95,15.26-4.67,22.85c-1.08,4.76-17.01,12.97-21.23,10.52
		c-2.8-1.63-5.2-4.56-6.83-7.45c-4.56-8.11-9.6-16.16-12.57-24.87c-2.33-6.84-2.43-14.63-2.48-22.01
		c-0.06-8.33,0.34-16.81,1.88-24.97c1.03-5.48,4.22-10.62,6.85-15.7c0.67-1.28,2.9-1.78,4.45-2.56c1-0.5,2.17-0.73,3.07-1.35
		c0.58-0.4,0.8-1.31,1.21-1.97c2.04-3.26,3.81-8.11,8.35-6.59C264.15,206.46,265.99,210.56,268.97,214.02z M252.84,278.16
		c-3.13,5.57-2,12.33,2.51,16.48C258.94,291.21,257.95,284.04,252.84,278.16z M263.81,225.2c0,7.98,0,15.56,0,24.13
		C268.58,241.74,268.44,230.65,263.81,225.2z M244.8,265.45c0.63,0.25,1.26,0.51,1.89,0.76c0.99-1.46,2.98-3.09,2.76-4.33
		c-0.49-2.79-2.08-5.38-3.23-8.06c-0.67,0.21-1.35,0.42-2.02,0.63C244.39,258.12,244.6,261.78,244.8,265.45z M256.14,233.22
		c-0.46,0-0.92-0.01-1.38-0.01c0,2.98,0,5.97,0,8.95c0.46,0.01,0.92,0.01,1.38,0.02C256.14,239.19,256.14,236.2,256.14,233.22z"/>
	<path d="M470.75,239.01c-8.02-0.27-13.59-1.39-18.18-5.37c-5.01-4.35-4.94-10.09,0.07-14.44c8.12-7.06,25.45-6.91,33.4,0.3
		c5.82,5.27,3.29,14.23-5.14,17.19C477.01,238.06,472.8,238.56,470.75,239.01z M474.96,218.24c-2.39,2.03-4.18,3.56-5.97,5.08
		c2.09,1.42,4.2,3.97,6.27,3.93c2.09-0.04,4.13-2.64,6.2-4.12C479.53,221.69,477.61,220.24,474.96,218.24z"/>
	<path d="M393.78,174.92c-0.51-1.44-0.84-2.97-1.56-4.3c-2.2-4.03-6.07-6.45-10.02-4.34c-3.19,1.71-5.3,5.64-7.47,8.87
		c-0.34,0.5,1.38,2.73,2.5,3.79c3.56,3.39,3.57,10.34-0.13,13.27c-3.54,2.8-6.9,1.83-8.36-2.41c-2.49-7.24,5.66-24.27,12.69-27.07
		c6.95-2.77,15.85,4.99,14.22,10.3C395.03,173.67,394.4,174.29,393.78,174.92z"/>
	<path d="M428.83,180.34c-1.52-1.94-2.47-3.11-3.38-4.31c-1.96-2.59-4.12-3.74-7.07-1.34c-2.56,2.09-4.61,3.82-2.08,7.67
		c3.31,5.05,1.61,9.69-3.08,10.09c-3.25,0.27-5.5-1.29-5-4.53c1.1-7.08,3.39-13.87,10.44-17.18c1.84-0.87,5.22-0.19,7.03,1.04
		C427.91,173.28,430.94,175.38,428.83,180.34z"/>
	<path d="M345.39,130.75c0.91-8.93,12.4-18.88,21.06-19.92c5.46-0.66,9.53,1.02,11.25,4.72c-0.41,0.16-0.92,0.57-1.21,0.45
		c-13.3-5.49-20.22,4.21-28.03,11.76C347.44,128.75,346.42,129.75,345.39,130.75z"/>
</g>
</svg>
