<?xml version="1.0" encoding="utf-8"?>
<!-- Generator: Adobe Illustrator 26.0.1, SVG Export Plug-In . SVG Version: 6.00 Build 0)  -->
<svg version="1.1" id="Layer_1" xmlns="http://www.w3.org/2000/svg" xmlns:xlink="http://www.w3.org/1999/xlink" x="0px" y="0px"
	 viewBox="0 0 680 680" style="enable-background:new 0 0 680 680;" xml:space="preserve">
<g>
	<path d="M239.71,586.11c-2.32-0.32-4.63-0.66-6.95-0.96c-6.07-0.81-12.15-1.48-18.19-2.47c-2.2-0.36-4.39-1.24-6.38-2.27
		c-3.43-1.76-4.4-4.08-2.46-7.44c2.52-4.36,5.21-8.83,8.7-12.38c6.12-6.22,12.8-12.01,20.95-15.5c5.19-2.22,10.67-3.79,16.06-5.56
		c10.42-3.44,21.12-3.79,31.92-2.64c1.81,0.19,3.55,1.05,5.35,1.18c0.96,0.07,2.5-0.48,2.89-1.22c5.1-9.76,10.03-19.61,15-29.43
		c0.16-0.31,0.28-0.64,0.42-0.96c2.35-5.39,2.41-5.78-2.82-8.37c-5.87-2.91-10.51-7.33-14.7-12.06c-2.63-2.96-4.34-6.98-5.67-10.8
		c-3.6-10.35-5.56-21.06-3.64-31.99c1.28-7.3,3.38-14.45,5.19-21.65c0.57-2.29,1.51-4.49,2.01-6.78c0.16-0.73-0.31-2.09-0.9-2.42
		c-10.55-5.84-21-11.92-31.84-17.17c-4.95-2.4-10.62-3.66-16.11-4.47c-7.2-1.06-14.54-1.31-21.83-1.59
		c-2.8-0.11-4.96,1.69-6.86,3.83c-4.46,5-8.94,10-13.76,14.64c-2.02,1.94-4.77,3.37-7.45,4.29c-2.09,0.71-4.7,0.77-6.86,0.22
		c-2.92-0.74-5.66-2.26-8.42-3.57c-4.22-2.02-7.1-5.2-8.55-9.75c-0.97-3.05-1.96-6.19-4.99-8.03c-3.35-2.03-4.92-5.23-5.71-8.91
		c0-2.28,0-4.55,0-6.83c0.7-3.59,2.36-6.29,6.2-7.3c0.47-0.12,1.01-1.72,0.79-2.41c-1.54-4.87,0.3-9.11,5.2-10.62
		c3.04-0.93,4.91-2.17,4.5-5.74c-0.89-7.76,10.98-15.07,18.91-13.16c2.34,0.56,4.52,1.79,6.84,2.48c0.87,0.26,2.1,0.15,2.89-0.29
		c2.55-1.41,4.97-3.06,7.74-4.8c0.99-1.54,2.24-3.6,3.61-5.57c5.29-7.6,10.65-15.15,15.87-22.8c0.5-0.74,0.56-2.18,0.2-3.04
		c-2.19-5.23-4.79-10.31-6.83-15.59c-4.19-10.81-4.14-22.06-2.92-33.38c1.15-10.73,4.39-20.86,9.07-30.51
		c7.2-14.83,19.34-23.73,34.56-29.45c10.58-3.98,20.36-2.59,30.64,0.83c10.42,3.47,20.7,2.4,29.99-4.12c4.4-3.09,6-8.05,8.21-12.57
		c2.65-5.41,4.75-11.23,9.55-15.2c7.75-6.41,16.89-9.36,26.82-9.9c4.14-0.22,8.3-0.04,12.46-0.04c0.08-0.32,0.16-0.64,0.24-0.96
		c-6.94-2.67-13.87-5.34-20.59-7.92c10.98-3.72,19.7,2.9,28.9,7.55c0.15-0.18,0.31-0.36,0.46-0.54c-2.66-2.62-4.96-5.84-8.07-7.74
		c-7.5-4.6-15.38-8.57-23.1-12.82c-0.9-0.5-1.73-1.14-2.59-1.71c1.75,0,3.5,0,5.25,0c3.91,1.4,7.92,2.6,11.72,4.25
		c9.16,3.97,16.3,10.42,21.62,18.82c3,4.75,8.36,4.13,12.63,6.23c-2.73-8.75-8.16-15.94-11.58-24.27c2.05,1.2,4.26,2.42,5.3,4.3
		c3.83,6.93,7.25,14.09,10.9,21.12c0.44,0.86,1.19,1.77,2.04,2.17c8.2,3.87,15.26,9.28,20.83,16.36c3.48,4.42,7.15,9.07,9.08,14.23
		c3.65,9.77,4.85,20.21,4.88,30.66c0.01,3.9,1.11,6.34,4.24,8.9c13.52,11.05,26.75,22.46,40,33.85c3.86,3.32,8.04,6.29,10.61,11.04
		c1.13,2.09,3.57,3.81,5.8,4.88c3.72,1.78,7.9,2.61,11.61,4.41c1.81,0.88,3.64,2.82,4.29,4.69c0.93,2.65,2.62,3.75,4.89,4.82
		c6.6,3.1,8.52,7.5,6.72,14.4c-0.17,0.66,0.44,1.71,0.98,2.32c1.63,1.85,3.41,3.57,5.13,5.34c0,1.58,0,3.15,0,4.73
		c-1.16,2.89-2.32,5.78-3.5,8.73c3.89,3.57,1.29,13.41-3.26,16.07c-0.99,0.58-2.35,0.76-3.53,0.74c-2.39-0.03-2.69,1.48-3.13,3.32
		c-0.74,3.11-1.35,6.38-2.82,9.16c-3.69,6.99-12.65,9.43-19.99,6.42c-6.04-2.48-9.64-6.97-12.3-12.57
		c-1.53-3.21-1.79-3.28-4.85-1.61c-21.37,11.73-42.76,23.45-64.13,35.19c-11.26,6.19-22.49,12.41-33.73,18.63
		c-0.6,0.33-1.14,0.76-1.85,1.24c1.74,3.14,3.43,6.16,5.08,9.2c4.64,8.52,9.3,17.02,13.86,25.58c1.1,2.06,2.18,2.47,4.29,1.2
		c4.57-2.73,9.32-5.19,13.96-7.8c2.9-1.63,5.86-1.91,8.73-0.2c2.92,1.74,3.85,4.43,3.56,7.84c-0.83,9.79-5.27,17.15-13.38,22.84
		c-5.22,3.66-11,4.66-16.89,5.74c-2.08,0.38-3.7,1.17-5.12,2.79c-2.98,3.42-6.14,6.68-9.51,10.32c0.89,0.52,1.54,1.04,2.29,1.3
		c9.79,3.47,19.83,5.6,30.28,5.46c0.61-0.01,1.23,0,1.84-0.08c3.67-0.47,6.42-1,8.6-5.35c3.92-7.82,9.28-15,14.6-22.02
		c7.39-9.75,15.57-18.86,25.14-26.58c4.95-3.99,9.76-8.26,15.14-11.6c7.16-4.44,15.06-6.62,23.75-5.9c6.3,0.52,9.56,7.26,6.36,12.17
		c-16.45,25.27-32.63,50.71-48.98,76.04c-6.35,9.84-12.95,19.51-19.36,29.31c-0.98,1.5-1.99,2.1-3.82,1.95
		c-8.8-0.72-15.88-3.9-19.37-12.72c-0.29-0.73-1.53-1.6-2.26-1.55c-17.41,1.4-32.92-4.41-47.65-12.79
		c-5.17-2.94-9.54-4.46-15.48-0.97c-7.81,4.58-16.88,5.54-25.92,5.09c-2.13-0.1-2.64,0.64-2.97,2.51
		c-3.05,17.39-6.3,34.76-9.22,52.17c-0.54,3.22-1.77,4.53-4.94,4.98c-14.61,2.12-29.18,4.53-43.8,6.64
		c-10.12,1.46-20.28,2.58-30.42,3.87c-0.33,0.04-0.63,0.25-0.95,0.38C243.21,586.11,241.46,586.11,239.71,586.11z M443.29,225.82
		c0-1.13,0.05-1.63-0.01-2.11c-0.65-5.03-1.17-10.07-2.02-15.06c-0.89-5.24-1.28-10.78-3.35-15.57
		c-5.36-12.41-13.76-22.18-26.22-28.43c-14.29-7.17-29.04-11.74-45.13-10.22c-17.87,1.69-28.64,10.89-36.06,27.17
		c-1.68,3.69-3.32,7.88-6.22,10.45c-8.6,7.61-18.77,9.95-30.01,6.52c-4.41-1.34-8.83-2.75-13.34-3.64
		c-11.85-2.35-22.3,2.36-32.23,7.68c-7.15,3.83-13.15,9.35-16.77,17.13c-4.1,8.79-8.61,17.38-10.18,27.1
		c-1.52,9.38-2.22,18.81-0.32,28.17c0.92,4.49,2.39,8.98,4.33,13.14c3.33,7.11,6.91,14.13,10.95,20.85
		c5.11,8.5,13.01,13.95,21.97,17.84c4.29,1.86,8.88,2.18,13.59,2.19c10.82,0.03,21.68-0.72,32.39,1.89
		c8.75,2.13,15.97,6.15,19.87,14.63c1.44,3.13,2.88,6.43,3.33,9.79c0.62,4.58,1.08,5.67,5.88,5.42c5.57-0.29,11.12-0.96,16.67-1.61
		c2.63-0.31,3.89-2.1,2.95-4.57c-1.81-4.74-1.15-9.39-0.52-14.21c0.61-4.68,2.92-7.86,6.97-9.72c2.08-0.96,4.5-1.35,6.81-1.62
		c13.36-1.59,26.74-2.97,38.94-9.42c5.53-2.92,11.1-5.84,13.82-11.83c1.95-4.28,3.51-8.76,4.9-13.27c3.53-11.44,6.68-23,10.36-34.4
		c1.24-3.83,0.86-6.72-1.56-9.88c-3.13-4.09-5.88-8.48-8.67-12.81c-0.86-1.33-2.12-2.79-0.77-4.7c3.88,4.58,4.08,4.64,6.34,1.57
		c1.81,2.23,3.51,4.42,5.33,6.5c0.51,0.58,1.38,0.84,2.08,1.25c-0.03-0.88,0.24-1.95-0.16-2.62c-0.84-1.41-2.23-2.5-3-3.94
		c-0.41-0.76-0.39-2.35,0.13-2.9c1.91-2,2.03-2.45-0.06-4.27c-1.63-1.43-3.47-2.7-4.82-4.36c-0.61-0.75-0.79-2.94-0.29-3.33
		c1.83-1.4,0.8-2.38-0.1-3.41c-0.62-0.71-1.55-1.16-2.14-1.89c-0.33-0.41-0.26-1.16-0.37-1.76c0.59,0.04,1.34-0.14,1.74,0.16
		c1.96,1.46,3.83,3.05,5.73,4.59C437.01,220.71,439.94,223.09,443.29,225.82z M365.86,373.68c-1.77-2.47-3.28-4.28-4.45-6.3
		c-0.94-1.62-2.01-1.66-3.65-1.35c-3.69,0.7-7.41,1.48-11.14,1.59c-5.92,0.17-11.85-0.12-17.77-0.37c-2.57-0.11-4.08,0.71-5.37,3.12
		c-2.43,4.52-5.2,8.88-8.16,13.07c-7.52,10.63-15.45,20.98-20.86,32.95c-1.61,3.57-3.88,6.96-4.84,10.69
		c-1.57,6.08-2.31,12.37-3.39,18.57c-2.43,13.98-0.7,27.17,7.5,39.09c0.82,1.19,1.8,2.41,2.99,3.19c5.33,3.46,10.75,6.8,16.17,10.12
		c1.75,1.07,2.53,2.28,1.47,4.29c-6.73,12.75-13.45,25.5-20.14,38.27c-0.78,1.49-1.79,2.07-3.55,1.97
		c-7.67-0.46-15.34-0.97-23.02-1.06c-6.57-0.08-13.09,0.78-19.25,3.35c-10.88,4.54-20.88,10.56-29.9,18.17
		c-3.73,3.15-6.54,7.03-8.07,11.72c-0.57,1.75-0.28,2.89,2.03,3.15c5.03,0.58,10.04,1.44,15.04,2.27c1.69,0.28,2.6-0.28,3.18-1.87
		c0.78-2.13,1.75-4.19,2.63-6.29c1.65-3.92,3.81-7.52,7.2-10.15c0.66-0.52,1.95-0.22,2.96-0.31c-0.13,0.94,0.03,2.05-0.43,2.77
		c-1.32,2.05-3.02,3.86-4.35,5.91c-2.11,3.26-4.51,6.43-4.65,10.6c0.33,0.15,0.56,0.33,0.79,0.34c7.33,0.54,14.64,0.64,21.9-0.94
		c1.47-0.32,1.9-1.02,2.31-2.33c0.77-2.46,1.64-4.95,2.91-7.17c0.52-0.91,2.21-1.15,3.36-1.69c0.06,1.17,0.41,2.42,0.13,3.5
		c-0.6,2.29-1.52,4.5-2.31,6.72c0.65,0.25,0.83,0.38,0.97,0.35c18.24-2.71,36.49-5.41,54.71-8.22c0.71-0.11,1.66-1.22,1.81-2
		c2.95-15.54,5.81-31.11,8.66-46.67c0.77-4.18,1.48-8.36,2.25-12.72c13.38,3.11,25.49,0.86,36.73-6.34
		c0.69-0.44,2.03-0.39,2.85-0.05c3.38,1.43,6.62,3.16,10,4.59c6.92,2.93,13.77,6.08,20.87,8.49c8.12,2.76,16.73,2.49,25.21,2.73
		c2.61,0.07,4.54,1.03,5.71,3.4c0.62,1.25,1.44,2.43,1.89,3.74c1.36,3.93,4.5,5.86,8.02,7.36c3.21,1.36,3.8,1.14,5.78-1.78
		c7.45-11,14.9-22,22.34-33c8.13-12.02,16.25-24.03,24.36-36.07c1.76-2.62,0.43-5.41-2.76-5.42c-1.66-0.01-3.38,0.62-4.95,1.27
		c-1.27,0.52-2.3,1.58-3.52,2.25c-0.5,0.27-1.23,0.13-1.85,0.18c0.14-0.62,0.11-1.34,0.44-1.84c2.69-4.15,6.45-5.95,11.42-5.08
		c1.54,0.27,3.14,0.49,4.69,0.4c0.87-0.05,2.07-0.55,2.5-1.23c2.63-4.23,5.06-8.59,7.62-12.86c0.76-1.26,0.46-2.01-0.85-2.33
		c-2.67-0.66-5.35-1.26-8.05-1.8c-1.03-0.21-2.11-0.19-3.17-0.27c-0.05-0.24-0.11-0.47-0.16-0.71c0.72-0.51,1.4-1.37,2.18-1.48
		c2.74-0.38,5.57-0.98,8.25-0.63c5.48,0.71,5.45,0.94,8.24-3.95c1.79-3.15,0.55-5.49-3.12-5.83c-0.69-0.06-1.4,0-2.1,0.02
		c-12.23,0.23-22.35,5.74-30.99,13.67c-10.41,9.56-20.25,19.77-28.62,31.23c-5.61,7.69-10.85,15.64-16.31,23.43
		c-0.69,0.98-1.73,2.45-2.61,2.44c-9.76-0.02-19.6,0.87-29.14-2.3c-5.55-1.85-10.98-3.91-16.22-7.14c0.88-1.25,1.47-2.45,2.38-3.33
		c2.86-2.81,5.97-5.38,8.73-8.28c1.95-2.05,4.22-4.26,5.07-6.82c3.32-10.01,1.97-19.91-1.29-28.67c-3.52-1.03-6.63-1.28-8.95-2.76
		c-4.69-2.98-9.2-6.36-13.33-10.07c-7.19-6.45-7.59-15.7,2.03-21.11c12.65-7.11,25.3-14.22,37.98-21.26
		c22.54-12.52,45.1-25.01,67.69-37.44c2.11-1.16,2.86-2.7,2.96-5.02c0.2-4.84-0.1-9.72,1.98-14.4c0.87-1.96,0.85-4.49,0.68-6.71
		c-0.29-3.66-1.96-6.66-5.19-8.49c-0.27,0.12-0.55,0.25-0.82,0.37c1.13,3.61,2.27,7.22,3.4,10.83c-0.25,0.07-0.5,0.14-0.75,0.21
		c-2.19-4.36-4.37-8.72-6.66-13.28c2.12-0.83,4.41-1.48,6.45-2.58c2.33-1.26,5.16-2.44,6.51-4.49c4.59-6.98-0.22-16.36-8.45-17.07
		c-1.74-0.15-3.51-0.23-5.24-0.07c-11.99,1.12-19.71,5.88-18.86,19.94c0.32,5.36,1.67,10.68,2.88,15.95
		c0.5,2.17-0.15,3.18-1.84,4.22c-4.53,2.8-8.98,5.74-13.47,8.61c-6.32,4.05-12.39,8.61-19.03,12.04
		c-20.34,10.52-40.91,20.61-61.39,30.85c-4.48,2.24-8.67,0.9-12.82-1.52C359.64,374.42,362.44,374.08,365.86,373.68z M437.53,258.29
		c-0.36,0.82-0.55,1.12-0.62,1.44c-2.59,10.88-5.17,21.75-7.75,32.64c-1.69,7.13-4.52,13.86-8.81,19.7
		c-7.42,10.09-18.83,13.75-30.2,17.07c-6.2,1.81-12.62,2.83-18.87,4.47c-2.94,0.77-5.79,1.99-8.55,3.29
		c-5.52,2.62-5.64,7.62-5.37,12.77c0.24,4.6,1.35,5.38,5.63,4.23c1.08-0.29,2.83-0.05,3.52,0.67c0.7,0.72,0.82,2.43,0.55,3.55
		c-0.34,1.39-1.1,2.87-2.12,3.85c-2.01,1.92-1.72,3.55-0.02,5.35c0.72,0.76,1.45,1.52,2.08,2.36c1.08,1.44,2.22,1.49,3.84,0.74
		c9.13-4.19,18.33-8.24,27.48-12.4c5.96-2.71,12.16-5.04,17.76-8.36c14.35-8.5,28.42-17.47,42.62-26.24
		c1.98-1.22,2.74-2.79,2.6-5.23c-0.47-7.92-0.65-15.87-1.04-23.79c-0.06-1.15-0.46-2.41-1.08-3.37c-4.63-7.2-9.33-14.34-14.05-21.48
		C442.74,265.92,440.27,262.34,437.53,258.29z M314.27,377.26c-11.09-1.48-21.55-2.95-32.03-4.25
		c-12.84-1.59-25.22-4.56-36.36-11.51c-1.41-0.88-2.91-1.63-4.22-2.64c-1.91-1.47-4.03-2.85-5.44-4.73
		c-4.35-5.82-9.48-10.68-15.83-14.23c-3.26-1.82-6.7-3.1-10.51-2.55c-4.98,0.72-7.21,4.62-5.59,9.4c0.68,2.02,1.67,4.21,3.95,3.89
		c5.49-0.78,8.15,1.71,9.17,6.73c0.02,0.08,0.08,0.16,0.12,0.23c1.81,3.01,2.57,6.24,2.46,9.77c-0.07,2.49,0.62,4.74,2.51,6.66
		c1.57,1.6,2.73,3.6,4.08,5.42c-0.25,0.2-0.5,0.39-0.75,0.59c-6.76-0.91-8.28-6.88-10.69-11.84c-6.31,2.25-8.59,8.42-5.72,14.64
		c0.79,1.72,1.75,2.4,3.67,1.64c4.4-1.74,9.01-1.91,13.69-1.59c12.88,0.89,24.75,5.45,36.21,10.79c9.16,4.27,17.73,9.79,26.52,14.84
		c1.33,0.77,2.05,0.79,2.99-0.53c5.11-7.29,10.31-14.53,15.47-21.79C309.98,383.37,311.96,380.54,314.27,377.26z M245.77,324.14
		c-3.6,6.6-7.07,13.03-10.62,19.42c-1.66,3-1.29,5.68,1.35,7.72c9.4,7.24,19.74,12.66,31.48,14.74c15.65,2.76,31.37,5.11,47.08,7.57
		c0.61,0.1,1.62-0.27,1.94-0.75c1.43-2.14,2.67-4.4,3.96-6.57c-1.67-0.97-3.1-1.76-4.49-2.62c-1.41-0.87-2.21-2.16-1.52-3.76
		c0.67-1.56,1.99-2.32,3.82-2.06c1.52,0.22,3.07,0.26,4.8,0.4c0.54-7.36-2.41-12.89-7.79-17.05c-5.82-4.51-12.61-6.66-20-6.77
		c-7.34-0.11-14.7,0.03-22.02-0.4c-6.16-0.37-12.41-0.85-17.98-4.02C252.37,328.05,249.01,326.04,245.77,324.14z M531.17,306.48
		c-0.04-7.27-8.38-12.02-14.52-8.94c-3.59,1.8-6.39,4.48-8.34,8.02c-1.75,3.17-1.51,5.79,0.85,8.69c2.23,2.73,5.12,3.49,8.45,2.36
		c4.92-1.68,8.72-5.05,12.56-8.33C530.8,307.73,531.04,306.71,531.17,306.48z M179.39,382.26c0.09-3.18-0.95-5.98-3.67-7.63
		c-2.28-1.38-4.86-2.37-7.43-3.13c-4.37-1.29-7.13-0.03-9.47,3.88c-2.03,3.39-1.47,9.39,1.34,11c2.77,1.59,5.71,3,8.75,3.96
		C175.4,392.38,179.51,389.08,179.39,382.26z M197.02,350.53c-0.16-6.9-4.4-11.23-10.85-11.07c-5.83,0.14-9.71,4.45-9.9,10.32
		c-0.18,5.61,6.64,9.11,12.59,9.3C193.15,359.22,197.12,354.91,197.02,350.53z M416.09,463.42c3.06-1.83,5.33-3.47,7.84-4.62
		c6.06-2.78,8.58-7.8,9.7-13.99c0.54-2.98,0.07-5.49-2.45-7.19c-2.47-1.67-4.95-0.63-7.07,0.86c-2.92,2.06-5.76,4.26-8.45,6.62
		c-0.61,0.53-0.71,1.96-0.61,2.94c0.39,3.79,1.02,7.56,1.43,11.35C416.59,460.47,416.28,461.59,416.09,463.42z M445.67,229.84
		c-0.99,1.8-1,2.95,0.4,4.23c12.62,11.55,25.21,23.14,37.75,34.77c4.47,4.15,8.88,8.39,13.16,12.73c1.33,1.35,2.53,2.88,4.3,1.33
		c1.6-1.4,0.94-3.22-0.4-4.62c-1.81-1.89-3.62-3.79-5.59-5.51c-11.44-9.98-22.93-19.91-34.41-29.85
		C455.87,238.6,450.84,234.29,445.67,229.84z M492.21,338.06c0.54,4.46,0.47,8.34,1.55,11.86c2.52,8.26,8.5,11.82,17.12,11.64
		c5.16-0.11,8.85-2.31,11.6-6.38c0.47-0.69,0.21-1.88,0.28-2.83c-0.92,0.22-1.93,0.27-2.75,0.68c-2.55,1.3-4.87,3.38-7.56,4.02
		c-8.86,2.12-16.83-5.38-17.13-13.74c-0.25-6.72,1.07-13.05,3.05-19.29c1.39-4.4,0.08-8.27-1.49-12.15
		c-0.42-1.02-1.57-1.89-2.59-2.47c-0.59-0.34-1.85-0.26-2.32,0.16c-0.43,0.39-0.32,1.52-0.24,2.3c0.05,0.47,0.46,0.94,0.79,1.34
		c3,3.67,3.06,7.77,2.07,12.16C493.62,329.77,492.92,334.23,492.21,338.06z M185.48,407.44c1.1-0.29,3.3-0.57,5.24-1.43
		c6.79-3.01,11.42-8.22,13.12-15.38c1.26-5.3,1.6-10.84,2.01-16.3c0.23-3.08,1.08-5.6,3.53-7.52c1.51-1.18,3.05-2.36,4.37-3.73
		c0.43-0.44,0.54-1.8,0.18-2.21c-0.38-0.44-1.83-0.63-2.21-0.27c-4.79,4.41-10.1,8.5-9.26,16.25c0.64,5.96-0.9,11.64-3.27,17.06
		c-3.32,7.63-13.15,12.19-20.45,7.8c-2.6-1.56-4.61-4.1-6.86-6.23c-0.94-0.89-1.9-2.38-3.18-1.03c-0.62,0.66-0.73,2.48-0.27,3.35
		C171.77,404.2,177.3,407.12,185.48,407.44z M520.76,291.64c-0.78-1.56-1.06-2.75-1.79-3.5c-5.48-5.64-13.53-4.47-18.9-0.46
		c-0.39,0.29-0.77,1.14-0.63,1.55c1.32,3.86,0.43,7.59-0.35,11.38c-0.42,2.05,1.13,3,2.73,3.62c1.51,0.59,2.62,0.41,3.6-1.36
		c2.84-5.12,7.11-8.53,12.96-9.81C519.18,292.88,519.86,292.2,520.76,291.64z M536.7,318.87c-0.15-2.33-1-4.71-3.52-6.17
		c-2.35-1.36-3.94,0.32-5.62,1.49c-2.3,1.58-4.63,3.12-6.82,4.84c-0.82,0.64-1.68,1.7-1.81,2.66c-0.49,3.63,5.91,9.76,9.87,7.98
		C532.4,328.04,536.43,323.21,536.7,318.87z M463.67,289.72c-0.03-3.17-0.84-5.06-3.34-8.55c-3.61-5.04-7.22-10.08-10.72-15.19
		c-5.18-7.57-10.24-15.21-15.43-22.77c-0.42-0.61-1.45-0.8-2.19-1.18c0.09,0.83-0.06,1.79,0.3,2.48c0.97,1.85,2.15,3.59,3.26,5.37
		c7.88,12.58,15.75,25.16,23.64,37.73C460.17,289.16,461.47,290.2,463.67,289.72z M173.06,370.06c5.54-0.06,8.05-4.07,5.77-7.74
		c-1.96-3.15-4.84-4.96-8.63-5.09c-3.32-0.12-6.55,2.39-7.07,5.44c-0.44,2.56,1.26,4.99,4.59,6.1
		C169.77,369.46,171.93,369.8,173.06,370.06z M530.94,330.89c-2.81,0.85-5.72,1.46-8.4,2.6c-2.76,1.18-2.71,4.33-0.2,5.95
		c3,1.94,6.21,2.16,9.55,1.38c2.75-0.65,4.32-3.09,3.94-5.92C535.48,332.17,534.47,331.42,530.94,330.89z M227.8,307.65
		c-0.31-0.08-0.62-0.16-0.93-0.24c-5.9,8-11.79,16.01-17.8,24.17c0.9,0.6,1.52,1.01,2.11,1.4c5.49-7.56,10.88-14.93,16.16-22.38
		C227.86,309.87,227.67,308.64,227.8,307.65z M242.55,322.57c-0.39-0.06-0.78-0.11-1.17-0.17c-3.86,6.24-7.73,12.47-11.7,18.88
		c0.78,0.51,1.39,0.91,2.37,1.55c0.21-0.42,0.35-0.75,0.53-1.05c3.32-5.6,6.67-11.18,9.92-16.83
		C242.85,324.35,242.55,323.37,242.55,322.57z"/>
	<path d="M316.47,229.46c7.53-0.09,14.24,1.81,20.17,6.13c8.57,6.25,8.66,16.14,0.3,22.7c-4.25,3.33-9.17,5.05-14.41,5.84
		c-9.12,1.37-17.77,0.1-25.63-5.02c-9.78-6.37-9.65-17.98,0.15-24.28C303.06,230.95,309.62,229.31,316.47,229.46z"/>
	<path d="M392.05,292.75c0.73,3.37-1.47,5.97-3.96,8.19c-5.25,4.68-11.09,7.89-18.56,6.42c-4.87-0.95-9.87-1.35-14.62-2.71
		c-2.34-0.67-4.27-2.88-6.29-4.51c-2.65-2.14-5.22-3.29-8.84-1.91c-3.63,1.38-7.29,1.32-10.75-1.56c-2.41-2.01-5.54-3.24-8.48-4.49
		c-2.73-1.16-5.39-0.01-6.97,2.51c-1.3,2.07-2.57,4.15-3.97,6.15c-2.56,3.67-6.14,3.98-9.24,0.76c-1.45-1.5-2.74-3.17-3.96-4.86
		c-1.95-2.71-4.53-3.99-7.72-2.97c-2.95,0.94-3.33,3.78-3.62,6.4c-0.22,2-0.74,3.6-3.01,3.96c-3.27,0.53-5.34-2.12-4.33-5.55
		c2.43-8.19,11.59-11.61,18.72-6.82c2.21,1.49,4.13,3.48,5.94,5.47c1.47,1.62,2.57,1.5,3.83-0.05c1.82-2.23,3.6-4.49,5.47-6.67
		c2.52-2.95,6.15-3.75,9.69-2.12c3.52,1.62,6.78,2.3,10.68,0.4c4.79-2.34,10.11-1.29,15.24-0.73c2.86,0.31,5.73,1.02,8.57,0.9
		c1.95-0.09,4.02-1.02,5.75-2.05c4.41-2.64,8.59-5.68,13.01-8.31c3.26-1.94,6.71-1.69,9.94,0.37
		C389,281.82,391.99,287.16,392.05,292.75z M370.61,302.86c0,0.01,0,0.02,0,0.04c1.4,0,2.82-0.16,4.19,0.03
		c2.69,0.37,3.31-1,2.79-3.2c-1.16-4.82-2.43-9.62-3.69-14.42c-0.49-1.86-1.7-1.8-2.99-0.9c-1.93,1.35-3.79,2.8-5.67,4.21
		c-4.04,3.03-4.73,5.2-3.22,10.01c1.16,3.68,1.81,4.17,5.71,4.22C368.69,302.88,369.65,302.86,370.61,302.86z M374.82,283.1
		c0.84,5.76,2.61,10.82,5.61,15.41c0.37,0.56,1.44,1.36,1.63,1.23c2.26-1.51,5.28-2.73,6.42-4.9c2.27-4.36,0.55-8.48-4.41-12.36
		C381.03,280.1,377.98,281.85,374.82,283.1z M345.86,292c2.51,2.75,4.79,5.61,7.47,8.03c1.24,1.12,3.23,1.47,4.93,2.01
		c0.44,0.14,1.32-0.14,1.59-0.52c1.64-2.31-0.76-8.34-3.58-8.71C352.76,292.35,349.21,292.25,345.86,292z M331.96,292.88
		c0.05,0.3,0.09,0.6,0.14,0.9c2.55,0,5.1,0.08,7.64-0.06c0.61-0.03,1.17-0.84,1.75-1.28c-0.64-0.48-1.37-1.45-1.92-1.36
		C337.01,291.52,334.49,292.25,331.96,292.88z"/>
	<path d="M410.82,198.23c-2.45-2.25-4.59-4.59-7.1-6.45c-3.68-2.73-7.61-3.34-12-1.04c-5.5,2.87-10.99,5.59-15.49,10.07
		c-2.89,2.88-6.49,4.76-10.89,4.11c-1.67-0.25-3.53-0.36-3.77-2.48c-0.27-2.33,1.6-3.17,3.35-3.15c7.4,0.1,12.23-4.48,17.12-9
		c5.36-4.96,11.4-8.12,18.94-7.08C406.63,183.98,412.11,192.43,410.82,198.23z"/>
	<path d="M344.76,171.97c2.42,0.17,4.71,2.84,6.1,5.92c2,4.43,3.44,9.12,4.92,13.77c0.8,2.53,1.78,2.94,3.8,1.19
		c1.05-0.91,2.09-1.88,3.29-2.55c0.63-0.35,1.87-0.44,2.31-0.05c0.48,0.42,0.73,1.74,0.42,2.31c-1.38,2.5-2.78,5.04-4.58,7.24
		c-1.6,1.96-5.1,1.52-6.16-0.87c-2.77-6.18-5.25-12.5-7.75-18.8c-0.74-1.86-0.9-4.03-3.57-4.19c-2.53-0.15-3.64,1.46-4.7,3.44
		c-0.78,1.45-1.04,4.01-3.55,3.13c-0.38-0.13-0.11-3.17,0.44-4.65C337.12,174.09,340.05,171.98,344.76,171.97z"/>
	<path d="M406.85,230.19c0.19,6.71-5.19,15.26-11.32,17.88c-0.86,0.37-1.86,0.62-2.77,0.56c-0.6-0.04-1.62-0.75-1.62-1.17
		c-0.01-0.79,0.46-2.2,0.94-2.3c5.36-1.06,7.82-5.02,9.49-9.54c1.89-5.09,1.67-10.27-0.38-15.34c-0.52-1.29-1.18-2.58-1.41-3.93
		c-0.15-0.84,0.39-1.79,0.61-2.69c0.88,0.46,2.32,0.74,2.55,1.42c1.67,4.92,3.09,9.92,4.59,14.89
		C407.31,230.05,407.08,230.12,406.85,230.19z"/>
	<path d="M318.45,215.46c1.89-1.58,3.39-3.32,5.29-4.33c6.86-3.64,14.18-4.67,21.81-3.11c1.01,0.21,2.36,0.41,2.85,1.11
		c0.7,0.99,0.87,2.42,0.97,3.69c0.02,0.25-1.37,0.99-1.97,0.86c-9.09-1.96-17.88,0.01-26.67,1.95c-0.42,0.09-0.84,0.22-1.26,0.28
		C319.32,215.92,319.16,215.78,318.45,215.46z"/>
	<path d="M387.58,231.93c-1.48-1.33-3.24-2.45-4.4-4.02c-4.39-5.95-10-10.11-16.95-12.55c-0.93-0.33-1.67-1.2-2.49-1.81
		c1.13-0.82,2.24-2.29,3.4-2.33c1.82-0.05,3.76,0.65,5.5,1.4c5.75,2.48,9.94,6.64,12.61,12.32c0.99,2.11,2.03,4.19,3.05,6.28
		C388.05,231.46,387.82,231.69,387.58,231.93z"/>
</g>
</svg>
