<?xml version="1.0" encoding="utf-8"?>
<!-- Generator: Adobe Illustrator 26.0.1, SVG Export Plug-In . SVG Version: 6.00 Build 0)  -->
<svg version="1.1" id="Layer_1" xmlns="http://www.w3.org/2000/svg" xmlns:xlink="http://www.w3.org/1999/xlink" x="0px" y="0px"
	 viewBox="0 0 680 680" style="enable-background:new 0 0 680 680;" xml:space="preserve">
<g>
	<path d="M348.95,416.31c-2.02,1.56-3.92,3.31-6.08,4.65c-7.21,4.46-14.4,8.98-21.82,13.08c-4.52,2.5-5.21,5.51-3.86,10.3
		c2.53,8.92,5.02,17.95,6.33,27.1c1.81,12.68-0.95,24.94-6.88,36.26c-4.75,9.07-4.62,7.77,5.34,15.51c2.6-4.87,5.11-9.65,7.68-14.41
		c7.84-14.52,19.27-25.42,34.01-32.63c22.32-10.92,44.85,3.1,45.81,28.02c0.92,23.85-7.64,44.64-20.17,64.16
		c-11.35,17.69-25.31,32.83-45.4,40.52c-7.29,2.79-15.45,4.21-23.28,4.51c-12.03,0.46-20.68-7.04-24.03-18.66
		c-2.47-8.55-2.9-17.08,0.35-25.46c1.27-3.27,0.29-4.58-2.79-5.32c-5.83-1.39-11.68-2.73-17.42-4.41
		c-6.66-1.96-12.23-0.63-17.6,3.84c-6.99,5.82-15.09,9.88-24.14,11.28c-4.01,0.62-8.23-0.01-12.34-0.22
		c-4.13-0.21-7.13,0.51-7.37,5.66c-0.19,3.96-1.03,7.92-1.88,11.81c-4.12,18.79-15.91,31.59-32.57,39.98
		c-15.51,7.8-33.06,0.21-39.04-16.22c-4.23-11.64-3.7-23.54-1.77-35.49c2.78-17.26,8.89-33.37,17.28-48.62
		c2.1-3.81,0.91-5.8-2.18-8.3c-4.21-3.41-8.01-7.38-11.64-11.43c-2.95-3.29-1.92-6.44,1.54-8.87c8.42-5.9,17.86-7.9,27.94-6.93
		c8.66,0.83,16.94,2.71,24.32,7.99c4.03,2.88,4.18-1,4.17-3.73c-0.02-13.85,3.31-26.62,11.61-37.96c2.53-3.47,4.45-7.4,6.6-11.14
		c1.63-2.84,1.44-4.75-2.49-4.86c-9.82-0.28-19.65-0.53-29.46-1.02c-3.93-0.2-5.92,1.18-7.31,5c-4.26,11.7-15.15,16.77-27.03,12.99
		c-5.07-1.61-8.69-4.99-10.53-9.92c-1.25-3.35-2.88-5.11-6.8-5.26c-2.63-0.1-5.44-1.52-7.74-3c-13.1-8.43-12.05-32.19,1.78-39.03
		c4.55-2.25,6.69-5.23,7.1-10.34c0.93-11.48,7.14-17.61,18.24-18.84c9.16-1.01,17.81,5.1,20.81,14.97c0.94,3.1,2.35,4.9,5.85,4.88
		c13.61-0.08,27.23-0.03,40.31-0.03c0.93-2.87,2.12-5.5,2.52-8.24c0.22-1.49-0.53-3.5-1.51-4.74c-6.5-8.2-15.7-11.55-25.55-13.12
		c-16.6-2.64-33.13-5.44-48.52-12.66c-3-1.41-4.83-0.12-6.57,2.5c-6.78,10.27-15.52,18.5-28.41,18.82
		c-22.94,0.58-40.16-9.13-47.84-31.46c-6.6-19.17-4.34-38.35-0.48-57.62c4.27-21.31,14.75-40.15,23.21-59.8
		c3.15-7.32,5.11-15.2,8.75-22.24c11.79-22.77,27.28-42.62,51.47-52.98c21-9,42.75-10.76,64.29-0.38c1.5,0.72,4.3-0.26,6.05-1.24
		c3.3-1.86,6.08-4.7,9.44-6.4c4.54-2.3,6.59-1.2,8.9,3.78c-5.43,2.56-10.91,5.15-16.38,7.73c0.16,0.6,0.33,1.2,0.49,1.81
		c6.97,4.84,15.14,6.77,23.34,6.71c11.91-0.09,23.82-1.33,35.7-2.42c13.66-1.25,26.86,0.64,39.81,4.85
		c32.88,10.69,53.71,32.47,61.81,66.39c5.72,23.97-3.25,42.83-19.14,59.81c-11.91,12.73-27.02,20.37-42.41,27.58
		c-15.8,7.41-30.6,16.06-42.32,29.36c-5.02,5.7-7.22,12.26-7.49,19.58c-0.05,1.48,1.22,4.24,2.08,4.32
		c6.85,0.66,5.73,5.08,4.92,9.49c-0.17,0.94-0.3,1.88-0.58,3.6c1.99-0.2,3.64-0.03,5.03-0.55c13.25-4.91,26.47-9.9,39.66-14.97
		c3.62-1.39,5.51-3.97,5.03-8.16c-0.65-5.71-0.15-11.18,3.07-16.33c8.07-12.89,22.04-15.48,33.59-5.67c3.66,3.11,5.45,2.9,8.69-0.88
		c5.16-5.99,10.96-11.64,17.29-16.38c17.02-12.74,30.13-28.48,39.37-47.6c1.92-3.97,0.54-5.24-2.95-6.47
		c-3.56-1.26-7.25-2.61-10.3-4.76c-5-3.51-5.13-8.04-0.47-12.09c3.88-3.37,8.29-6.1,12.39-9.22c1.33-1.01,2.42-2.35,3.62-3.54
		c-1.37-1.07-2.62-2.37-4.14-3.19c-25.04-13.49-47.58-30.18-64.32-53.43c-17.97-24.95-27.39-52.67-24.15-83.93
		c3.25-31.4,25.52-54.99,57-59c27.84-3.54,50.03,7.49,67.57,28.65c2.45,2.95,3.64,2.54,6.22,0.36c11.6-9.75,24.19-17.83,39.69-19.59
		c22.04-2.5,59.96,7.9,71.4,38.66c4.22,11.34,4.45,23.1,3.98,34.98c-0.83,20.84-9.12,38.66-22.07,54.51
		c-26.85,32.85-61.91,52.77-102.18,64.33c-5.2,1.49-5.44,2.11-2.76,6.79c2.15,3.75,4.33,7.5,6.18,11.4
		c3.27,6.9,1.24,11.57-6.11,12.93c-4.12,0.76-8.52,0.3-12.77-0.03c-3.05-0.24-5.42-0.3-6.91,3.12
		c-8.3,19.09-20.52,35.28-36.41,48.72c-7.47,6.32-14.82,12.78-22.81,19.68c1.99,1.13,3.38,1.9,4.75,2.7
		c10.21,5.91,13.51,15.8,9.17,26.67c-0.57,1.44-0.31,3.7,0.45,5.1c5.22,9.66,4.14,18.15-3.76,25.83
		c-7.8,7.59-16.48,11.89-27.47,6.75c-2.39-1.12-4.36-0.57-4.95,2.24c-1.78,8.44-3.61,16.89-5.12,25.38
		c-0.83,4.67,0.68,8.86,4.03,12.32c1.51,1.55,2.57,3.16,0.33,5.01c-2.34,1.94-3.94,0.71-5.37-1.2c-5.88-7.85-5.83-16.73-4.33-25.8
		c0.88-5.32,1.98-10.6,2.98-15.89C349.73,416.91,349.34,416.61,348.95,416.31z M130.77,269.1c0.47-0.18,0.94-0.36,1.41-0.54
		c0.62,0.48,1.35,0.86,1.85,1.44c1.08,1.26,2.19,2.53,3.02,3.95c12.66,21.55,16.77,44.57,11.27,69.03c-0.78,3.47-0.38,5.4,2.84,6.63
		c6.98,2.66,13.8,5.95,20.99,7.78c12.38,3.15,25.07,5.09,37.49,8.08c10.57,2.55,18.62,8.7,22.63,19.18
		c1.03,2.69,2.17,3.02,4.85,2.17c7.11-2.26,14.28-4.52,21.59-5.94c4.15-0.8,5.19-2.5,4.97-6.3c-0.54-9.41,2.58-17.64,8.61-24.84
		c11.57-13.83,26.53-22.92,42.38-30.97c11.39-5.79,23.24-11.19,33.4-18.76c26.33-19.6,32.57-41.12,25.14-70.44
		c-5.22-20.6-19.11-34.63-36.85-45.13c-20.18-11.95-42.19-13.14-64.83-10.38c-18.17,2.22-36.01,1.32-52.39-7.97
		c-18.02-10.22-36.82-11.76-56.35-5.72c-28.64,8.85-49.16,27.35-60.15,54.94c-6.52,16.35-12.16,33-19.88,48.9
		c-8.7,17.91-13.08,36.99-12.07,57c0.87,17.17,5.61,32.69,20.01,43.88c12.16,9.45,27.27,9.45,38.86-0.61
		c9.52-8.26,13.07-19.38,14.04-31.45c1.64-20.36-2.33-39.7-11.1-58.11C131.62,273.11,131.33,271.04,130.77,269.1z M579.81,118.53
		c-1.49-7.96-1.95-16.28-4.66-23.8c-7.61-21.16-24.84-30.97-45.63-35.11c-21.14-4.21-39.33,2.55-55.1,16.8
		c-9.27,8.38-9.36,8.3-17.07-1.5c-9.41-11.98-20.94-21.03-36.03-24.42c-17.7-3.98-33.78,0.77-48.04,11.26
		c-15.46,11.37-25.15,26.77-26.57,46.09c-1.93,26.29,6.27,50.02,21.53,71.17c15.09,20.93,35.04,36.73,56.16,51.2
		c12.57,8.61,25.76,10.46,40.32,6c31.14-9.53,58.44-25.83,82.13-47.78C566.88,169.86,578.63,146.79,579.81,118.53z M172.76,437.93
		c1.15-0.24,1.79-0.49,2.41-0.48c18.81,0.46,37.62,0.94,56.43,1.42c0.5,0.01,1.1-0.07,1.47,0.18c0.87,0.58,1.64,1.33,2.45,2.01
		c-0.86,0.77-1.75,2.21-2.58,2.18c-4.51-0.17-5.59,2.69-5.26,6.12c0.3,3.21,1.28,6.41,2.33,9.48c1.56,4.54,4,8.83,5.09,13.45
		c3.46,14.77-8.1,32.01-22.94,34.41c-3.39,0.55-4.12,2.11-3.71,5.05c1.41,10.05,6.46,18.12,13.87,24.72
		c12.2,10.87,27.15,14.07,42.9,15.09c12.12,0.78,24.25,1.64,35.23,7.84c3.1,1.75,4.18,3.58,3.12,7.17
		c-2.44,8.34-2.21,16.86,0.14,25.15c3.21,11.31,15.76,15.72,24.55,8.16c7.13-6.13,13.97-12.94,19.5-20.5
		c10.5-14.35,19.88-29.52,29.91-44.22c5.24-7.68,3.7-15.49-4.41-20.25c-1.42-0.84-2.87-1.64-4.3-2.46
		c8.69-0.4,13.59,4.18,15.81,12.84c2.91-4.11,5.47-7.17,7.33-10.6c0.79-1.45,0.67-3.92,0.01-5.54c-2.18-5.38-5.7-9.69-11.74-11.43
		c5.85-1.05,8.96,2.65,12.32,6.11c1.2,1.23,3.71,3,4.41,2.57c2.07-1.29,4.6-3.33,5.03-5.47c1.59-7.84-8.26-20.59-16.17-21.39
		c-8.46-0.86-16.42,0.57-24,4.85c-16.8,9.49-26.89,24.35-34.37,41.47c-1.17,2.67-2.52,5.25-4.16,8.65
		c-13.59-13.14-27.01-25.15-45.82-28.43c1.85-0.72,3.79-1.7,5.34-1.27c6.34,1.76,12.73,3.55,18.76,6.13
		c3.55,1.52,5.47,1.25,7.27-2.07c4.99-9.2,8.44-18.89,8.46-29.43c0.04-20.67-6.63-39.31-19.14-55.53
		c-8.81-11.43-18.69-22.04-28.28-32.85c-0.92-1.04-3.32-1.48-4.83-1.17c-7.32,1.5-14.58,3.3-21.83,5.1
		c-6.84,1.69-6.91,1.91-3.78,8.1c-22.92,0.57-45.76,1.13-68.9,1.71c-0.19-8.45-0.89-16.9-11.04-19.78
		c-5.49-1.56-10.99-0.21-13.67,4.54c-2.06,3.65-2.96,9.1-1.85,13.05c1.08,3.85,5.35,6.8,8.05,9.95c-1.78-0.32-4.25-0.54-6.6-1.21
		c-10.24-2.93-17.51,1.23-19.57,11.63c-1.16,5.89,1.06,10.87,5.5,14.69c4.26,3.66,9.08,3.7,13.95,1.11
		c2.14-1.13,4.23-2.36,7.54-4.21c-3.22,7.52-6.67,14.43,0.49,19.92c4.6,3.53,10.05,3.2,15.05,0.27
		C175.16,450.85,174.41,444.67,172.76,437.93z M253.92,556.63c-15.81-2.11-28.93-8.42-39.72-19.75c-1.2-1.26-4.06-1.8-5.91-1.45
		c-12.81,2.45-25.14,1.27-37.01-4.13c-3.25-1.48-5.56-0.48-7.04,2.46c-7.11,14.11-13.59,28.53-16.67,44.11
		c-2.9,14.62-2.7,17.78,15.54,16.93c1.82-0.08,3.65-0.01,5.47-0.01c-4.82,4.47-10.3,5.03-15.97,4.67c-6.71-0.42-6.73-0.43-6.12,6.1
		c0.11,1.15,0.4,2.28,0.66,3.41c1.92,8.36,3.98,10.1,12.05,7.93c6.76-1.82,13.19-4.86,20.08-7.47c-5.76,8.82-15.43,9.54-24.48,11.7
		c5.09,5.66,12.02,7.27,20.24,4.97c15.68-4.4,31.67-25.72,33.21-44.37c0.35-4.29,1.53-8.88-3.77-12.2
		C221.94,568,239.97,569.98,253.92,556.63z M282.63,397.42c1.2,1.64,1.54,2.19,1.95,2.67c8.11,9.39,16.34,18.67,24.26,28.21
		c2.1,2.53,3.78,1.98,5.94,0.72c12.42-7.28,24.85-14.54,37.23-21.87c0.62-0.36,1.18-1.28,1.27-2c0.78-6.25,3.04-12.87,1.73-18.67
		c-1.69-7.52,0.28-12.43,4.46-18.33c7.06-9.96,3.54-19.49-7.08-22.16c-6.38-1.6-14.66,2.55-16.64,9.53
		c-1.35,4.75-1.52,10.16-0.79,15.06c0.61,4.09-0.07,6.32-3.73,7.85c-9.64,4.02-19.22,8.22-28.92,12.07
		C296.09,392.98,289.66,394.97,282.63,397.42z M393.47,522.51c-0.63-0.49-1.27-0.97-1.9-1.46c-2.09,2.4-4.53,4.58-6.2,7.25
		c-3.16,5.07-5.72,10.5-8.8,15.62c-12.71,21.12-25.55,42.16-44.66,58.39c-0.29,0.25-0.27,0.88-0.37,1.28
		c0.35,0.3,0.59,0.67,0.83,0.67c0.65-0.01,1.32-0.11,1.95-0.28c12.07-3.31,23.13-8.72,31.77-17.84
		c17.14-18.09,28.72-39.43,35.07-63.51c0.82-3.11,0.11-6.63,0.11-11.42c-4.16,3.56-6.87,5.56-6.94,10.44
		c-0.07,4.66-0.98,9.84-3.23,13.83c-10.11,17.92-19.45,36.4-33.77,51.57c-2.71,2.87-5.53,5.64-8.3,8.46
		c-0.36-0.31-0.72-0.62-1.07-0.93C367.76,573.37,383.26,549.54,393.47,522.51z M209.09,529.07c-2.13-3.02-4.09-5.46-5.66-8.13
		c-3.27-5.53-8.07-8.95-14.3-9.81c-10.04-1.39-20.14-2.32-30.22-3.4c-1.14-0.12-2.35-0.07-3.48,0.16c-3.81,0.75-4.36,2.4-1.79,5.35
		c7.79,8.93,17.43,14.82,29.08,17.17C191.38,532.16,200.03,532.33,209.09,529.07z M371.37,384.49c9.46,0.03,16.54-6,17.51-14.94
		c0.6-5.55-1.98-9.75-6.21-12.79c-4.21-3.01-8.84-2.44-13.19,0.04c-5.79,3.3-7.48,9.12-8.68,15.04
		C358.96,380.96,361.98,384.46,371.37,384.49z M449.65,269.96c0.06-0.3,0.13-0.61,0.19-0.91c1.16,0,2.33,0.02,3.49,0
		c5.47-0.1,5.99-0.98,3.64-5.76c-1.9-3.87-3.54-7.88-5.51-11.71c-2.99-5.82-9.86-7.78-15.21-4.16c-4.81,3.25-9.44,6.78-13.95,10.43
		c-3.77,3.04-3.54,5.14,1.2,6.4C432.11,266.54,440.92,268.1,449.65,269.96z M361.36,386.47c0,3.57,0.16,6.69-0.05,9.78
		c-0.21,3.11-0.79,6.19-1.19,9.18c1.7,0.73,3.04,1.27,4.36,1.87c8.74,3.94,17.78,1.34,22.96-6.8c2.54-3.99,3.34-8.28,1.07-12.78
		c-1.31-2.61-2.83-3.14-5.96-2.47c-5.21,1.11-10.66,1.07-16.02,1.43C365.11,386.79,363.66,386.58,361.36,386.47z"/>
	<path d="M99.12,271.35c2.2-2.03,3.46-3.2,5.96-5.51c0.46,3.8,1.06,6.4,1.04,9c-0.04,6.48-0.54,12.96-0.42,19.43
		c0.03,1.63,1.69,3.23,2.6,4.84c0.73-1.59,2.03-3.15,2.08-4.76c0.22-7.65-0.1-15.32,0.24-22.96c0.08-1.88,1.94-3.69,2.98-5.53
		c1.1,1.76,2.58,3.39,3.2,5.3c0.94,2.89,1.29,5.98,1.88,8.98c0.42,0.05,0.85,0.1,1.27,0.14c0.96-2.23,1.92-4.45,3.26-7.57
		c1.63,2.31,3.25,3.82,3.93,5.68c7.34,20.08,12.1,40.51,7.18,62.01c-1.84,8.03-5.57,15.02-12.63,19.63
		c-9.4,6.15-21.66,3.7-30.99-6.09c-8.48-8.9-11.52-20.03-12.31-31.9c-0.93-14.08,0.41-28.06,4.98-41.36
		c2.66-7.76,7.29-14.86,11.22-22.16c0.49-0.92,2.22-1.89,3.09-1.68c0.84,0.2,1.81,1.9,1.84,2.97
		C99.65,263.22,99.34,266.66,99.12,271.35z M93.32,291.56c-0.49-0.01-0.99-0.03-1.48-0.04c-3.99,5.35-3.35,16.2,1.48,20.21
		C93.32,304.82,93.32,298.19,93.32,291.56z M118.37,288.18c-1.58,6.56-0.18,11.62,3.72,14.33
		C124.41,298.77,122.8,292.11,118.37,288.18z M98.01,274.03c-0.6-0.22-1.21-0.45-1.81-0.67c-3.49,1.84-3.51,4.63-0.51,8.29
		C96.46,279.11,97.23,276.57,98.01,274.03z"/>
	<path d="M305.58,250.74c-11.46-0.02-17.76-5.25-18.03-14.75c-0.12-4.28,1.57-7.57,5.07-9.62c9.46-5.54,19.51-7.3,30.06-3.53
		c2.11,0.76,4.16,2.16,5.78,3.73c7.06,6.87,6.39,14.64-2.4,18.96c-6.25,3.07-13.37,4.39-20.1,6.49
		C305.84,251.59,305.71,251.17,305.58,250.74z M302.74,230.25c-0.14-0.85-0.27-1.71-0.41-2.56c-2.52,0-5.39-0.75-7.46,0.21
		c-2.03,0.94-3.25,3.62-4.82,5.54c0.49,0.52,0.98,1.03,1.46,1.55C295.25,233.41,298.99,231.83,302.74,230.25z"/>
	<path d="M186.65,243.4c-3.83-5.28-3.75-9.14,0.43-12.89c8.04-7.22,18.17-10.1,28.3-12.75c1.09-0.29,2.63,1.16,3.97,1.8
		c-0.92,1.14-1.62,2.78-2.81,3.34c-5.28,2.44-10.76,4.42-16.05,6.84C194.49,232.47,189.15,236.04,186.65,243.4z"/>
	<path d="M201.54,169.95c-13.74,0.76-19.67,9.07-21.63,21.41c-3.68-0.57-4.54-2.89-4.26-6.09c0.81-9.51,9.29-18.72,18.77-20.12
		C197.95,164.63,200.91,165.39,201.54,169.95z"/>
	<path d="M238.89,216.73c-2.5-4.24-0.76-7.18,3.88-8.04c7.62-1.42,15.32-2.53,23.03-3.18c1.7-0.14,3.6,2.2,6.14,3.88
		C260.05,212.03,249.68,214.34,238.89,216.73z"/>
</g>
</svg>
