<?xml version="1.0" encoding="utf-8"?>
<!-- Generator: Adobe Illustrator 26.0.1, SVG Export Plug-In . SVG Version: 6.00 Build 0)  -->
<svg version="1.1" id="Layer_1" xmlns="http://www.w3.org/2000/svg" xmlns:xlink="http://www.w3.org/1999/xlink" x="0px" y="0px"
	 viewBox="0 0 680 680" style="enable-background:new 0 0 680 680;" xml:space="preserve">
<g>
	<path d="M299.9,384.51c-4.2,0-8.24,0.21-12.23-0.11c-1.41-0.11-3.96-1.76-3.86-2.32c0.39-2.15,0.71-4.92,4.05-4.88
		c3.9,0.04,7.8,0.01,12.21,0.01c-3.36-9.52-8.88-16.18-17.55-19.82c-1.7-0.72-4.19-0.09-6.16,0.45
		c-13.3,3.67-26.45,7.92-39.84,11.18c-25.79,6.26-49.45,1.11-70.25-15.37c-4.99-3.95-9.71-7.5-16.06-9
		c-3.07-0.72-5.91-3.04-8.5-5.08c-6.75-5.31-7.82-11.27-4-18.96c0.65-1.32,1.09-3.19,0.67-4.52c-4.37-14.01-3.55-27.66,2.03-41.18
		c12.31-29.79,34.83-46.29,66.39-50.61c16.89-2.31,31.12-9.16,42.72-22.49c-1.88-2.45-3.37-6-6-7.38c-2.46-1.29-6.13-0.28-9.29-0.28
		c5.81-6.42,8.79-6.72,16.5-1.88c3.64-8.2,7.06-16.55,11-24.65c9.65-19.86,24.06-34.45,46.92-40.38c-3.83-3.76-7.08-7.09-12.12-7.66
		c-10.2-1.14-18.94,2.81-27.06,8.3c-10.26,6.94-18.2,15.99-23.83,27.07c-1.31,2.58-3.08,4.93-4.64,7.38
		c-0.31-0.15-0.63-0.29-0.94-0.44c0.49-2.12,0.65-4.38,1.52-6.33c8.26-18.62,21.35-32.23,41.03-38.71
		c10.61-3.5,20.25-1.62,28.39,6.28c2.22,2.16,4.4,3.13,7.23,1.34c1.83-18.71-13.97-37.25-31.54-36.96c-6.07,0.1-11.4,2.47-16.2,5.91
		c-7.55,5.4-15.19,10.72-20.8,18.38c-1.28,1.74-3.51,2.79-5.31,4.15c-0.32-0.27-0.64-0.53-0.96-0.8c0.39-1.28,0.55-2.69,1.21-3.82
		c1.13-1.95,2.35-3.92,3.9-5.53c7.51-7.78,16.09-14.27,25.82-18.89c19.05-9.03,40.58,2.17,45.55,23.43
		c1.02,4.36,1.42,8.87,2.14,13.55c4.84,0.27,9.83,0.3,14.76,0.85c22.86,2.55,41.09,12.17,51.48,33.83c1.19,2.49,3.37,4.51,5.09,6.75
		c7.26,9.42,14.84,18.61,21.72,28.29c14.28,20.09,23.55,42.39,27.57,66.74c2.21,13.41,1.21,26.84-0.57,40.25
		c-1.61,12.12-4.07,23.93-10.48,34.59c-5.56,9.24-12.6,16.94-23.17,20.19c-16.48,5.07-27.05,0.46-33.44-15.05
		c-1.03-2.5-1.46-5.26-2.31-8.44c-1.93,1.67-3.71,3.1-5.38,4.67c-6.94,6.52-14.11,12.82-20.66,19.71
		c-4.63,4.86-7.03,11.13-8.23,18.23c3.16-0.2,5.87-0.46,8.58-0.52c2.12-0.05,4.27,0.33,4.48,2.99c0.22,2.7-1.89,3.35-3.98,3.62
		c-2.35,0.3-4.73,0.36-8.12,0.6c1.54,5.78,2.17,11.71,4.65,16.75c5.23,10.65,10.98,21.11,17.33,31.13
		c9.45,14.89,19.35,29.45,24.82,46.46c4.48,13.92,7.12,27.76-0.3,42.11c5.17,0.98,9.92,1.87,14.65,2.79
		c7.24,1.41,14.47,2.82,21.7,4.28c1.15,0.23,2.27,0.7,3.38,1.13c6.53,2.6,6.9,4.83,1.24,9.21c-8.99,6.97-19.49,9.81-30.64,10.36
		c-9.8,0.49-19.52-0.02-28.77-3.94c-0.71-0.3-1.86-0.07-2.6,0.32c-7.59,3.91-7.93,3.98-6.74,12.53c1.25,8.94,3.29,17.77,4.95,26.65
		c0.42,2.26,1.49,2.85,3.91,2.8c13.2-0.3,26.46-1.05,39.61-0.24c14.14,0.88,27.27,5.6,37.99,15.45c4.38,4.03,7.94,8.6,7.89,15.02
		c-0.05,6.12-2.68,9.49-8.71,10.18c-7.69,0.88-15.41,1.54-23.14,1.87c-17.03,0.73-34.06,1.49-51.1,1.68
		c-14.96,0.17-29.69-1.82-43.78-7.3c-1.22-0.47-2.84-0.51-4.12-0.17c-35.29,9.39-71.2,11.16-107.43,8.76
		c-3.77-0.25-7.57-0.99-11.2-2.06c-5.34-1.56-7.7-6.01-6.38-11.45c1.63-6.69,5.89-11.63,11.18-15.71
		c11.99-9.24,25.91-13.62,40.71-14.89c12.33-1.05,24.74-1.11,37.12-1.38c2.5-0.05,3.61-0.6,3.98-3.16
		c1.46-10.12,3.06-20.22,4.66-30.32c0.32-2.01-0.52-2.89-2.26-3.77c-4.76-2.42-9.28-5.36-14.11-7.61c-1.64-0.77-4.1-0.56-5.94,0
		c-6.9,2.1-13.17,1.59-18.64-3.51c-0.61-0.57-1.39-1.13-1.66-1.85c-2.25-6.06-7.11-9.53-11.99-13.34
		c-5.99-4.68-6.36-10.78-1.94-17.09c1.37-1.95,1.55-3.61,1.06-5.92c-2.47-11.4,6.66-24.38,18.92-27.35
		c1.08-0.26,2.63-1.01,2.91-1.88c6.26-19.44,16.81-36.75,26.85-54.31C292.6,404.36,297.32,395.06,299.9,384.51z M263.83,211.79
		c-2.69,0.99-4.12,2.56-5.07,5.61c-1.15,3.71-3.76,7.03-6.06,10.28c-0.63,0.88-2.99,1.63-3.59,1.18c-0.96-0.72-1.81-2.74-1.47-3.82
		c1.27-4.05,2.8-8.06,4.69-11.85c1.97-3.95,2.04-4.82-1.63-8.26c-2.05,2.32-4.62,4.35-6.01,7.01c-2.76,5.26-4.87,10.86-7.24,16.29
		c-1.28-4.65,1.14-9.13,2.4-14.11c-5.56,3.68-7.71,9.03-9.62,14.54c-0.3-0.11-0.6-0.22-0.91-0.33c0.54-2.41,1.08-4.81,1.58-7.04
		c-4.22,1.3-8.32,2.86-12.57,3.83c-8.92,2.04-18.18,2.93-26.82,5.77c-34.01,11.18-53.06,39.39-51.85,74.07
		c0.11,3.06,1,6.09,1.61,9.59c1.71-1.33,2.72-2.15,3.77-2.92c10.92-8.01,26.76-8.15,37.13-0.34c8.25,6.21,9.42,16.05,2.96,24.14
		c-5.06,6.34-11.2,10.82-20.44,11.43c1.92,1.77,3.03,2.98,4.32,3.96c20.45,15.43,43.24,20.33,68.17,14.64
		c8.92-2.04,17.86-4.25,26.47-7.3c8.71-3.08,18.21-3.23,26.51-7.63c1.12-0.59,2.5-0.79,3.79-0.96c4.91-0.65,9.64,2.22,11.64,7.31
		c-3.24-1.68-6.05-3.68-9.17-4.62c-3.51-1.05-6.57,0.84-9.59,3.28c7.35,5.95,15.05,11.35,15.59,21.98
		c10.43-0.76,20.52-1.46,30.6-2.32c0.71-0.06,1.78-1.2,1.92-1.97c2.14-11.76,9.02-20.52,17.57-28.3
		c5.64-5.13,11.23-10.32,16.65-15.67c1.02-1,1.62-2.9,1.61-4.38c-0.08-14.29-0.71-28.59-0.45-42.87c0.35-19.09,2.66-37.98,7.4-56.56
		c3.59-14.07,6.98-28.21,6.99-42.89c0-5.96-0.52-11.98,0.17-17.86c0.47-4.01-1.04-6.77-2.92-9.77c-4.26-6.79-9.92-12.14-16.64-16.45
		c-13.17-8.45-27.68-11.34-43.05-9.98c-18.3,1.62-33.95,8.9-46.08,23c-0.93,1.08-1.59,2.58-1.9,4c-1.49,6.86-2.82,13.75-4.21,20.63
		c-0.31,0.03-0.63,0.06-0.94,0.1c-0.25-4.48-0.51-8.97-0.78-13.69c-6.77,11.17-12.06,22.68-14.48,35.35
		c-0.2,1.02-0.48,2.31-0.05,3.12c1.75,3.3,3.76,6.46,5.67,9.67c7.46-3.77,4.58-13.22,10.69-18.66c-0.32,1.92-0.47,2.94-0.67,3.95
		c-0.75,3.86-1.68,7.69-2.24,11.57c-0.88,6.07,2.87,9.15,8.64,7.13c1.77-0.62,3.57-1.49,5.03-2.65c8.81-6.97,16.3-15.23,23.08-23.67
		c-1.3-2.39-2.4-4.41-3.5-6.43c0.39-0.34,0.77-0.68,1.16-1.02c1.68,1.06,3.36,2.12,5.2,3.29c1.77-2.16,3.4-4.72,5.57-6.68
		c4.2-3.81,8.43-7.71,13.17-10.77c3.66-2.37,8.28-2.77,12.28-0.39c1.6,0.96,3.12,3.07,3.43,4.88c0.28,1.63-1.13,3.55-1.79,5.35
		c-4.15-9.25-8.47-10.71-15.91-4.53c-4.98,4.14-9.11,9.33-13.42,14.24c-0.6,0.69-0.3,2.55,0.13,3.65c0.55,1.4,1.77,2.53,2.53,3.87
		c9.4,16.7,10.67,33.78,2.11,51.21c-1.63,3.32-4.21,5.64-8.03,6.51c-10.32,2.35-21.17-4.17-23.75-14.45
		c-0.28-1.11-0.04-2.35-0.04-3.54c2.23,2.73,3.53,5.76,5.38,8.4c3.69,5.28,8.95,7.85,15.4,7.22c5.82-0.57,8.22-5.11,10.34-9.78
		c0.41-0.91,0.76-1.86,1.25-3.08c-4.25,2.1-6.65,1.59-8.68-1.96c-0.92-1.6-1.55-3.51-1.77-5.34c-0.91-7.47,3.19-16.26,10.54-19.07
		c-1.52-6.86-3.57-13.47-8.82-18.95c-3.69,4-7.09,7.98-10.82,11.63c-4.59,4.49-9.17,9.09-14.28,12.93
		C275.2,220.39,266.9,218.37,263.83,211.79z M303.64,384.15c-3.22,8.17-5.5,15.58-8.96,22.4c-5.33,10.5-11.43,20.62-17.25,30.87
		c-9.01,15.86-16.14,32.39-17.89,50.8c-1.55,16.26,2.34,30.72,14.31,42.45c6.03,5.91,12.98,10.44,20.69,13.78
		c2.03,0.88,3.07,1.83,2.68,4.19c-1.97,11.85-3.87,23.7-5.73,35.57c-0.32,2.04-1.39,2.27-3.23,2.28
		c-11.79,0.08-23.61-0.08-35.37,0.61c-13.55,0.8-26.64,3.85-38.3,11.28c-6.4,4.07-12.28,8.75-14.91,16.28
		c-1.67,4.78-0.25,8.69,4.29,9.65c6.89,1.47,13.96,2.04,21.6,3.08c0-4.03-0.18-7.12,0.04-10.19c0.53-7.55,3.3-14.11,9.25-19.03
		c0.75-0.62,1.89-0.77,2.84-1.14c0.28,0.32,0.56,0.64,0.84,0.96c-8.98,7.73-11.37,17.57-10.08,28.88c9.18,0,18.05,0,27.32,0
		c-3.19-10.18-3.31-19.66,3.95-28.03c0.42,1.21,0.42,2.41-0.08,3.34c-3.94,7.17-3.71,14.6-1.69,22.21c0.44,1.67,1.08,2.6,3.18,2.38
		c9.24-0.97,18.56-1.29,27.73-2.69c11.14-1.7,22.15-4.24,34.03-6.58c0-11.87-0.14-23.07,0.04-34.25
		c0.18-11.19,0.67-22.38,1.03-33.57c0.43-0.05,0.86-0.1,1.29-0.15c0.42,1.5,1.07,2.99,1.2,4.52c0.21,2.49,0.19,5,0.1,7.5
		c-0.64,17.51-1.25,35.01-2.04,52.51c-0.14,3.14,1.14,4.31,3.93,5.21c22.14,7.08,44.85,6.66,67.64,5.33
		c0.91-0.05,2.27-1.29,2.54-2.23c2.29-7.88-0.25-15.29-6.73-20.35c-0.88-0.69-1.76-1.39-2.64-2.08c0.18-0.41,0.36-0.82,0.54-1.24
		c1.38,0.38,3.08,0.38,4.07,1.21c3.9,3.27,7.07,7.23,7.8,12.43c0.53,3.81,0.43,7.71,0.58,11c7.19,0,14.67,0.08,22.15-0.11
		c0.81-0.02,2.1-1.53,2.27-2.5c0.83-4.72,0.24-9.27-2.58-13.32c-1.6-2.29-3.29-4.52-5-6.87c5.51-1.15,10.27,8.72,10.87,22.45
		c4.36-0.47,8.73-0.71,13.01-1.45c5.46-0.95,7.37-3.7,6.11-9.15c-0.68-2.92-1.79-6.23-3.82-8.25c-3.99-3.98-8.4-7.83-13.28-10.58
		c-10.73-6.05-22.79-7.56-34.85-7.82c-9.75-0.21-19.52,0.52-29.27,1.04c-6,0.32-6.45,0.58-7.52-5.14
		c-2.05-10.97-3.5-22.06-5.27-33.09c-0.48-2.97,0.26-4.87,3.32-6.01c2.19-0.82,4.21-2.25,6.11-3.66
		c11.77-8.74,20.21-19.66,23.02-34.47c0.71-3.76-0.6-5.62-3.42-7.93c-16.72-13.69-29.11-29.99-26.6-53.07
		c1.01-9.22-1.53-16.37-6.45-23.79c-7.11-10.74-13-22.21-14.66-35.33c-0.11-0.88-0.63-1.72-0.98-2.63
		C324.25,382.53,313.34,383.39,303.64,384.15z M273.7,534.88c-7.18-6.23-12.09-13.8-14.95-22.91c-8.13,1.58-14.07-1.36-17.82-8.6
		c-4.34,5.18-4.36,9.52-0.21,13.9c3.94,4.15,8.87,6.26,14.52,6.79c1.09,0.1,2.17,0.24,3.25,0.36c0.04,0.52,0.07,1.04,0.11,1.55
		c-2.31,0.38-4.62,0.77-6.9,1.15C254.18,536.23,262,539.18,273.7,534.88z M257.84,508.64c-2.79-12.1-1.52-24.15,1.64-36.67
		c-6.02,1.95-10.54,5.04-14.09,9.45c-5.37,6.66-5.38,16.38-0.21,23.21C248.54,509.08,252.69,510.45,257.84,508.64z M388.44,542.78
		c16.06,1.68,36.94-6.04,39.1-13.95c-5-1.34-10.03-2.56-14.98-4.07c-2.87-0.87-4.56,0.13-6.27,2.38
		C401.62,533.3,396.61,539.17,388.44,542.78z"/>
	<path d="M294.06,258.46c15.53,4.08,28.55-1.67,33.28-17.57c1.61,5.75-2.89,13.63-10.24,17.93
		C309.36,263.36,299.08,263.4,294.06,258.46z"/>
	<path d="M327.82,532.58c-6.57,3.97-13.63,5.58-20.12,1.71c-6.75-4.02-12.16-9.79-10.09-19.07c-8.01-1.64-12.97-6.61-14.75-14.3
		c-1.41-6.08,1.31-11.31,5.52-15.5c4.62-4.61,10.26-7.88,16.68-9.18c2.86-0.58,4.2-1.91,4.68-4.43c2.06-10.86,4.2-21.7,5.99-32.6
		c0.73-4.43,0.63-8.99,0.93-13.94c2.64,0.51,3,2.44,2.8,4.41c-0.71,7.1-1.28,14.24-2.45,21.27c-1.31,7.85-3.24,15.6-4.86,23.4
		c-0.53,2.55-2.03,3.3-4.56,4.03c-9.67,2.79-18.77,6.72-22.08,17.54c-2.4,7.84,7.13,17.9,15.13,16.16c4.54-0.99,5.67-3.7,3.23-7.49
		c-1.2-1.87-2.21-3.87-3.61-6.34c1.43,0.12,2.57-0.12,2.91,0.3c2.02,2.48,4,5.03,5.66,7.76c0.44,0.73,0.06,2.48-0.58,3.22
		c-1.44,1.69-3.13,3.27-4.98,4.5c-3.17,2.12-4,4.68-2.76,8.27c2.67,7.72,9.48,11.97,17.9,10.96c7.59-0.91,12.52-6.64,12.94-15.5
		c0.15-3.13-0.46-6.3-0.75-9.72c2.1,0.36,3.35,1.79,3.6,4.11c0.55,5.18,0.18,10.22-2.42,14.91c-2.12,3.83-1.11,5.63,3.38,6.25
		c10.51,1.43,17.89-5.6,17.5-16.43c-0.19-5.38-2.8-9.19-6.82-12.34c-0.74-0.58-1.42-1.22-2.13-1.84c0.13-0.38,0.27-0.76,0.4-1.14
		c1.5,0.54,3.27,0.74,4.44,1.68c5.35,4.28,7.41,10.01,6.53,17.97c2.54-1.26,4.66-1.88,6.24-3.16c8.05-6.53,7.29-20.17-1.59-25.93
		c-3.23-2.1-7.05-3.34-10.69-4.72c-1.72-0.65-2.59-1.26-2.8-3.36c-1.66-16.46-3.57-32.89-5.28-49.34c-0.3-2.9-1.23-6.04,1.53-9.32
		c0.48,1.5,0.93,2.41,1.04,3.36c1.55,12.76,3.12,25.52,4.55,38.3c0.5,4.49,0.85,9.02,0.91,13.54c0.04,2.79,0.96,4.05,3.73,4.92
		c9.17,2.9,15.41,8.66,16.94,18.68c1.29,8.44-4.59,17.16-12.84,19.3c-1.43,0.37-2.78,2.24-3.54,3.74
		C348.65,536.4,335.91,539.23,327.82,532.58z"/>
</g>
</svg>
