<?xml version="1.0" encoding="utf-8"?>
<!-- Generator: Adobe Illustrator 26.0.1, SVG Export Plug-In . SVG Version: 6.00 Build 0)  -->
<svg version="1.1" id="Layer_1" xmlns="http://www.w3.org/2000/svg" xmlns:xlink="http://www.w3.org/1999/xlink" x="0px" y="0px"
	 viewBox="0 0 680 680" style="enable-background:new 0 0 680 680;" xml:space="preserve">
<g>
	<path d="M350.88,426.96c4.86-4.49,8.78-8.36,12.95-11.91c4.09-3.48,8.72-3.97,13.56-1.41c10.54,5.56,18.48,13.32,21.39,25.33
		c0.16,0.66,0.51,1.29,0.84,1.9c7.12,13.17,8.14,27.7,9.12,42.18c0.61,8.97,0.97,17.98,0.96,26.98
		c-0.02,17.08-9.21,24.77-26.1,21.91c-4.34-0.73-7.3-0.71-11.21,2.81c-7.57,6.82-17.59,8.77-27.71,8.47
		c-10.55-0.31-21.1-0.93-31.62-1.85c-13.94-1.22-27.85-2.9-41.78-4.28c-4.13-0.41-8.29-0.5-12.44-0.67
		c-5.77-0.22-11.38,0.68-17.17-2.37c-3.26-1.72-8.43,0.03-12.72,0.47c-15.54,1.63-30.69,1.31-44.68-7.14
		c-3.5-2.11-7.79-2.87-11.47-4.74c-1.3-0.66-1.85-2.78-2.74-4.24c1.69-0.69,3.92-2.43,4.98-1.89c6.37,3.26,12.05,0.86,17.2-2.18
		c12.71-7.49,25.89-9.22,39.95-4.96c0.94,0.28,2.03,0.04,3.65,0.04c0-4.68-0.02-9.16,0.01-13.63c0.01-1.56-0.39-3.49,0.35-4.61
		c3.59-5.41,1.66-9.26-1.92-14.08c-6.03-8.11-3.12-16.15,6.3-21.25c1.34-0.72,3.02-2.59,2.97-3.86c-0.75-16.21,5-30.96,9.64-46.03
		c2.33-7.56,3.83-15.44,4.96-23.28c0.34-2.38-1.78-5.12-2.88-7.95c4.28-5.12,2.91-14.56-3.11-18.91
		c-5.27-3.81-10.99-6.26-17.54-7.03c-3.51-0.41-6.91-1.77-11.05-2.88c-2.59,2.45-5.47,6.03-9.1,8.47
		c-12.23,8.23-26.05,11.9-39.17,4.34c-11.5-6.63-23.65-14.16-26.71-29.26c-0.47-2.33-1.83-4.48-2.83-6.69
		c-3.17-7.02-5.29-14.14-4.73-22.08c0.52-7.4,0.08-14.87,0.03-22.3c-0.06-9.4,3.85-17.37,8.53-25.22c3-5.04,5.44-10.45,7.77-15.84
		c7.76-17.97,20.14-31.76,35.47-43.97c14.88-11.85,31.24-16.88,49.52-17.04c10-0.09,20.36-0.32,29.93,2.04
		c11.04,2.73,19.36,11.1,27.28,18.94c2.85-1.59,5.5-3.68,8.5-4.51c1.84-0.5,4.31,0.72,6.29,1.63c0.79,0.36,1.67,2.24,1.37,2.91
		c-0.47,1.04-1.82,1.91-2.99,2.34c-0.86,0.32-2.13-0.52-3.03-0.24c-1.36,0.43-3.13,1.12-3.62,2.2c-0.36,0.8,0.73,2.72,1.67,3.6
		c9.65,9.02,21.41,12.72,34.32,14.41c11.26,1.47,22.49,3.8,33.46,6.75c13.02,3.51,23.4,10.94,31.97,21.85
		c7.98,10.15,12.91,21.18,15.65,33.47c0.79,3.53,2.39,5.36,6.07,6.41c11.99,3.41,19.5,15.03,17.36,26.02
		c-1.32,6.78-6.21,11.75-13.44,12.41c-5.28,0.49-10.71,0.17-16-0.43c-3.24-0.37-5.56-0.15-8.5,1.83
		c-7.11,4.79-14.46,9.57-22.35,12.78c-8.33,3.39-17.73,4.17-26.07,7.56c-8.21,3.34-16.32,1.18-24.26,2.14
		c-9.33,1.13-18.46,5.48-27.16,9.54c-3.03,1.41-4.53,6.11-6.73,9.3c6.25,4.31,6.24,5.11,1,10.31c6.35,10.41,12.62,20.76,19,31.05
		c0.55,0.88,1.87,2.06,2.62,1.93c10.76-1.92,17.72,4.16,24.19,11.28C349.71,424.74,350.21,425.89,350.88,426.96z M270.25,319.74
		c-1.39-0.93-3.17-2.12-4.95-3.31c1.25-1.7,2.38-3.51,3.8-5.05c1.04-1.13,2.33-2.32,3.73-2.74c1.46-0.45,3.49-0.52,4.69,0.21
		c0.81,0.49,0.73,2.64,0.82,4.06c0.1,1.63-0.43,3.39-0.02,4.91c1.83,6.79,5.11,12.43,11.65,16.08c4.79,2.67,8.94,6.37,15.02,5.62
		c1.15-0.14,2.43,1.18,3.72,1.68c2.07,0.79,4.16,1.97,6.29,2.08c10.01,0.55,20.04,0.83,30.06,1.12c2.59,0.07,5.38,0.42,7.74-0.37
		c12.82-4.25,25.59-8.69,38.28-13.32c7.73-2.82,13.45-7.69,18.33-14.83c13.06-19.12,8.76-37.62-1.32-55.31
		c-10.31-18.11-26.69-28.82-47.65-31.64c-9.19-1.23-18.74-0.86-27.63-3.16c-15.62-4.03-28.26-13.44-39.35-25.13
		c-9.91-10.45-21.45-18.13-36.68-17.79c-9.18,0.21-18.49-0.22-27.48,1.26c-8.06,1.33-16.44,3.69-23.43,7.74
		c-8.27,4.8-15.82,11.3-22.62,18.12c-17.96,18.03-26.49,41.03-32.52,65.16c-0.38,1.5-0.26,3.47-1.19,4.43
		c-3.58,3.69-2.52,7.94-2.12,12.21c0.24,2.58,0.48,5.19,0.33,7.77c-0.85,14.99,5.93,27.61,13.26,39.68
		c5.49,9.04,15.89,11.1,25.48,13.53c16.87,4.27,31.05-3.38,36.81-20.13c1.22-3.54,1.02-7.55,1.55-11.34
		c0.91-6.43,2.95-12.92,2.52-19.24c-0.41-6.09-3.36-12.01-5.15-18.02c-1.23-4.15-2.81-8.27-3.35-12.52
		c-0.23-1.8,1.81-3.89,2.82-5.84c1.3,1.48,3.15,2.75,3.8,4.48c1.76,4.67,3.12,9.5,4.45,14.31c1.97,7.12,5.01,14.23,5.33,21.45
		c0.4,9.02,0.27,18.42-4.47,26.87c-1.22,2.18-1.53,4.86-2.51,8.13c18.45,2.84,36.25,6.42,36.7,30.46c9.69,0,18.86,0.07,28.03-0.1
		c1-0.02,2.55-1.24,2.87-2.22c2.83-8.59,7.05-15.87,17.52-18.74c-4.81-1.81-8.48-4.35-12.12-4.32c-9.37,0.07-15.11-6.37-21.22-11.36
		C275.76,331.03,273.52,324.87,270.25,319.74z M252.67,531.18c6.95,0,13.39-0.36,19.78,0.07c19.19,1.27,38.36,2.87,57.54,4.29
		c2.76,0.21,5.62-0.22,8.31,0.29c8.09,1.55,15.87,0.65,23.53-2.12c7.54-2.73,11.02-6.81,10.29-14.78
		c-1.34-14.58-2.77-29.23-5.6-43.57c-1.9-9.64-5.62-19.52-19.06-17.83c-0.17,0.02-0.4,0.02-0.51-0.07
		c-1.37-1.18-2.72-2.39-4.07-3.58c1.56-1.06,3.01-2.69,4.72-3.04c2.57-0.52,5.32-0.14,8.09-0.14c-1.39-8.23-3.38-9.95-10.56-10.33
		c-3.8-0.2-7.63-0.49-11.34-1.25c-1.32-0.27-3.26-2.02-3.26-3.1c-0.01-1.22,1.63-3.11,2.93-3.53c1.66-0.53,3.69,0.2,5.57,0.25
		c2.35,0.07,4.7,0.02,7.57,0.02c-4.71-11.44-17.28-14.24-22.49-10.84c-6.03,3.93-11.53,8.69-13.37,16.52
		c-4.26,18.13-2.71,35.77,3.18,53.27c0.73,2.17,0.9,5.67-0.34,7.03c-1.25,1.37-4.68,1.41-6.99,1.03
		c-7.63-1.29-15.17-3.08-22.78-4.53c-0.96-0.18-2.3,0.24-3.11,0.86c-5.96,4.49-12.73,5.14-19.78,4.27
		c-7.28-0.89-13.09-4.15-16.49-12.37c-2.88,8.42-2.69,15.8-1.78,23.17c0.13,1.03,1.94,2.06,3.17,2.7
		C251.88,517.04,254.87,523.84,252.67,531.18z M306.89,492.97c0.2-0.69,0.32-0.87,0.28-1.01c-0.67-2.67-1.44-5.32-2.04-8.01
		c-5.47-24.34-6.73-47.95,12.39-69.1c-6.3-9.89-12.79-20.32-19.63-30.52c-1-1.5-3.62-2.64-5.51-2.68
		c-7.8-0.16-15.61,0.25-23.42,0.27c-2.86,0.01-3.58,1.22-4.21,3.93c-2.25,9.73-4.41,19.55-7.69,28.96
		c-4.45,12.75-7.64,25.59-6.6,39.14c0.38,4.87-0.78,7.54-6.1,8.1c-4.32,0.45-7.46,7.69-5.11,11.36c1.84,2.87,4.11,5.46,6.18,8.17
		c4.83-3.14,6.72-8.79,12.81-5.56c-1.11,1.79-1.95,3.41-3.03,4.84c-4.97,6.61-3.56,10.89,4.38,12.6c2.28,0.49,4.69,0.38,7.94,0.61
		c-1.14-3.1-2.36-5.27-2.64-7.56c-0.23-1.87,0.66-3.87,1.06-5.81c1.6,0.96,3.76,1.56,4.69,2.96c1.62,2.47,2.48,5.43,3.74,8.38
		c7.57-4.46,11.3-10.92,10.5-18.55c-1.52-14.58-4.29-29.04-6.32-43.57c-0.29-2.06,0.62-4.29,0.97-6.45c1.68,1.58,4.19,2.87,4.86,4.8
		c1.45,4.21,2.13,8.71,2.83,13.14c1.65,10.39,3.84,20.76,4.39,31.22c0.3,5.73-2.27,11.6-3.52,17.25
		C294.16,490.88,300.56,491.93,306.89,492.97z M390.97,434.21c-3.22-3.81-5.18-6.48-7.48-8.78c-8.73-8.73-12.82-8.63-21.26,0.2
		c-0.83,0.87-2.3,1.38-2.7,2.36c-1.11,2.76-3.26,6.21-2.43,8.45c3.33,9.04,7.74,17.67,11.51,26.55c2.01,4.74,4.38,9.56,5.12,14.57
		c2.34,15.85,3.98,31.81,5.97,48.38c3.13,0,7.08,0.02,11.02,0c7.35-0.05,12.37-3.86,12.3-11.15c-0.16-15.39-0.89-30.79-2.09-46.13
		c-0.53-6.8-4.86-9.52-11.97-9.45c-0.52,0.01-1.19,0.29-1.53,0.06c-1.54-1.06-2.98-2.25-4.45-3.4c1.32-1.1,2.51-2.86,3.99-3.15
		c3.29-0.64,6.73-0.54,10.46-0.76c-2.32-4.74-2.51-11.15-10.06-10.95c-2.04,0.06-4.12,0.32-6.1,0.82c-3.05,0.78-6.24,0.63-6.41-2.81
		c-0.07-1.51,3.29-3.99,5.49-4.62C383.15,433.6,386.38,434.21,390.97,434.21z M189.11,523.09c12.68,6.06,24.94,6.12,38.87,6.15
		c-5.63-5.06-5.38-9.56-2.69-14C211.99,510.57,201.31,516.97,189.11,523.09z M426.01,320.47c11.76,0.8,17.36-5.3,13.53-14.98
		c-1.61-4.07-6.15-7.12-9.77-10.15c-1.01-0.84-3.47,0.05-5.27,0.15c1.12,1.22,2.01,2.91,3.39,3.59c8.07,3.95,9.29,11.39,2.68,17.51
		C429.32,317.75,427.97,318.81,426.01,320.47z"/>
	<path d="M423.34,186.02c4.47,3.2,8.94,6.41,13.4,9.61c0.22-0.09,0.45-0.18,0.67-0.27c-2.26-3.09-4.53-6.18-6.79-9.27
		c0.43-0.37,0.86-0.74,1.28-1.1c2.29,2.7,4.94,5.18,6.77,8.17c1.93,3.16,3.07,6.8,5.71,9.98c-0.28-1.69-0.41-3.42-0.86-5.06
		c-4.23-15.29-6.53-30.84-6.8-46.72c-0.26-14.96,5.03-27.43,16.08-37.45c5.43-4.93,12.14-3.67,12.37,3.24
		c0.34,10.42,5.09,18.45,9.88,26.81c0.07,0.12,0.28,0.16,0.08,0.05c6.13-2.86,11.83-6.39,18.03-8.11c4.55-1.26,9.96-0.94,14.64,0.14
		c4.94,1.15,6.05,6.32,2.89,10.38c-7.68,9.89-8.6,20.92-5.54,32.56c1.16,4.39,3.51,8.55,4.13,12.97c0.54,3.88-0.6,7.99-1.06,12.63
		c2.4,1.7,5.91,3.86,9.01,6.49c3.29,2.79,4.04,6.08,2.63,10.68c-1.75,5.69-1.84,11.87-2.82,17.82c-0.81,4.93-1.4,9.98-2.94,14.7
		c-2.55,7.81-10.13,10.96-17.89,7.96c-12.31-4.75-20.04-14.41-26.97-25.03c-2.05-3.15-4.62-6.08-7.44-8.56
		c-1.58-1.39-4.15-1.66-6.27-2.44c-1.6-0.59-3.89-0.74-4.66-1.9c-3.96-5.95-7.18-12.39-11.32-18.2c-3.82-5.37-8.38-10.22-12.8-15.14
		c-1.18-1.31-3.03-2-4.58-2.98C422.56,187.33,422.95,186.67,423.34,186.02z M508.04,141.55c-4.79-3.62-9.53-3.07-14.09-1.19
		c-21.51,8.86-42.28,34.61-42.89,58.78c-0.05,1.89-0.44,3.81-0.17,5.65c0.32,2.21,0.64,4.83,1.99,6.33c0.8,0.88,3.69,0.22,5.52-0.24
		c6.34-1.58,12.55-3.79,18.95-4.99c7.13-1.34,14.43-1.78,21.65-2.72c4.15-0.54,8.17-6.57,5.75-9.57
		c-4.17-5.16-4.32-11.26-5.36-17.01c-1.93-10.69-0.86-21.2,5.47-30.58C505.79,144.61,506.81,143.26,508.04,141.55z M456.93,217.4
		c0.81,1.02,1.27,2.06,2.07,2.54c9.26,5.58,13.95,15.11,20.56,23.03c4.75,5.68,11.25,10.1,17.56,14.17
		c4.14,2.67,10.19,1.05,11.49-2.34c1.53-3.98,2.42-8.27,3.1-12.5c1.11-6.97,1.48-14.07,2.82-20.98c0.97-5-0.93-9.11-6.01-10.18
		c-8.12-1.72-16.19-3.01-24.58-1.21C474.88,211.86,465.35,211.91,456.93,217.4z M446.76,189.95c3.55-15.16,11.56-27.53,21.67-38.79
		c3.43-3.83,2.3-8.23-0.84-11.19c-4.96-4.69-7.13-9.94-6.75-16.65c0.09-1.62-1.25-3.31-1.94-4.97c-1.67,0.72-4.05,0.98-4.89,2.25
		c-3.96,5.99-9.24,11.84-10.85,18.51C439.03,156.14,443.01,173.11,446.76,189.95z"/>
	<path d="M186.7,270.87c-0.72-1.53-1.38-3.09-2.16-4.6c-2.29-4.44-4.78-8.78-6.83-13.33c-0.48-1.07,0.47-2.78,0.76-4.2
		c1.51,0.46,3.5,0.47,4.44,1.46c3.9,4.12,7.48,8.54,11.18,12.85c0.41-0.29,0.81-0.58,1.22-0.87c-1.55-2.32-3.36-4.52-4.55-7.01
		c-0.7-1.47-0.42-3.42-0.58-5.15c1.65,0.49,4.03,0.46,4.83,1.56c7.04,9.82,13.88,19.78,20.55,29.86c1.18,1.78,1.34,4.26,1.93,6.42
		c0.9,3.23,2.25,6.44,2.53,9.73c0.37,4.39,0.23,8.89-0.31,13.26c-0.55,4.45-2.32,8.76-2.76,13.21c-1,10.04-7.95,16.57-14.2,22.92
		c-5.84,5.94-14.08,3.28-20.5,0.08c-6.22-3.09-11.53-8.06-17.06-12.44c-1.24-0.98-2.61-3.08-2.38-4.39
		c1.08-6.18-2.99-10.09-5.33-14.95c-2-4.14-2.41-9.24-2.7-13.96c-0.26-4.27,1.01-8.62,0.86-12.91c-0.38-10.65,4.58-19.41,9.67-28.01
		c3.33-5.62,6.15-4.7,10.27-0.06c3.2,3.6,8.36,5.47,12.65,8.11C187.74,269.27,187.22,270.07,186.7,270.87z M202.72,298.46
		c2.46-3.8,1.1-8.66-4.32-14.37C197.85,289.99,198.41,294.67,202.72,298.46z M172.47,284.27c3.01-2.71,2.61-7.9-1.07-14.18
		C168.33,275.38,170.11,279.73,172.47,284.27z M211.59,316.41c-4.85,2.94-8.88,6.06-4.57,12.61
		C208.71,324.35,210.15,320.38,211.59,316.41z M210.57,291.37c0.57-0.16,1.14-0.33,1.71-0.49c-0.9-3.31-1.8-6.62-2.87-10.59
		C205.77,284.36,206.43,287.77,210.57,291.37z M168.56,288.7c-0.8,0.25-1.59,0.49-2.39,0.74c0.53,2.36,1.07,4.72,1.6,7.08
		c1.17-0.34,2.35-0.68,3.52-1.01C170.38,293.24,169.47,290.97,168.56,288.7z M178.41,327.01c2.34-6.82,1.76-8.66-2.34-9.27
		C176.89,321,177.65,324,178.41,327.01z"/>
	<path d="M301.76,265.47c1.21-5.23,1.87-9.15,3.12-12.87c0.44-1.3,2.69-3.17,3.49-2.9c1.46,0.49,3.45,2.36,3.48,3.68
		c0.08,4.58-0.18,9.28-1.2,13.72c-0.4,1.74-3.2,2.92-4.9,4.35C304.3,269.28,302.85,267.11,301.76,265.47z"/>
</g>
</svg>
